G04 #@! TF.GenerationSoftware,KiCad,Pcbnew,(5.1.4)-1*
G04 #@! TF.CreationDate,2019-11-21T23:19:01-08:00*
G04 #@! TF.ProjectId,AODox,414f446f-782e-46b6-9963-61645f706362,v2*
G04 #@! TF.SameCoordinates,Original*
G04 #@! TF.FileFunction,Paste,Bot*
G04 #@! TF.FilePolarity,Positive*
%FSLAX46Y46*%
G04 Gerber Fmt 4.6, Leading zero omitted, Abs format (unit mm)*
G04 Created by KiCad (PCBNEW (5.1.4)-1) date 2019-11-21 23:19:01*
%MOMM*%
%LPD*%
G04 APERTURE LIST*
%ADD10C,2.500000*%
%ADD11C,0.100000*%
%ADD12C,1.000000*%
%ADD13C,1.150000*%
%ADD14R,1.500000X0.550000*%
%ADD15R,1.000000X1.000000*%
%ADD16R,2.550000X2.500000*%
G04 APERTURE END LIST*
D10*
X211198610Y-106405559D03*
D11*
G36*
X209613857Y-107228166D02*
G01*
X210344786Y-104837404D01*
X212783363Y-105582952D01*
X212052434Y-107973714D01*
X209613857Y-107228166D01*
X209613857Y-107228166D01*
G37*
D10*
X197211165Y-104785225D03*
D11*
G36*
X195626412Y-105607832D02*
G01*
X196357341Y-103217070D01*
X198795918Y-103962618D01*
X198064989Y-106353380D01*
X195626412Y-105607832D01*
X195626412Y-105607832D01*
G37*
D12*
X124384309Y-87870732D03*
D11*
G36*
X124716276Y-88495070D02*
G01*
X123759971Y-88202699D01*
X124052342Y-87246394D01*
X125008647Y-87538765D01*
X124716276Y-88495070D01*
X124716276Y-88495070D01*
G37*
D12*
X123653379Y-90261494D03*
D11*
G36*
X123985346Y-90885832D02*
G01*
X123029041Y-90593461D01*
X123321412Y-89637156D01*
X124277717Y-89929527D01*
X123985346Y-90885832D01*
X123985346Y-90885832D01*
G37*
G36*
X221461773Y-87854019D02*
G01*
X221486041Y-87857619D01*
X221509840Y-87863580D01*
X221532939Y-87871845D01*
X221555118Y-87882335D01*
X221576161Y-87894947D01*
X221595867Y-87909562D01*
X221614045Y-87926038D01*
X221630521Y-87944216D01*
X221645136Y-87963922D01*
X221657748Y-87984965D01*
X221668238Y-88007144D01*
X221676503Y-88030243D01*
X221682464Y-88054042D01*
X221686064Y-88078310D01*
X221687268Y-88102814D01*
X221687268Y-89002816D01*
X221686064Y-89027320D01*
X221682464Y-89051588D01*
X221676503Y-89075387D01*
X221668238Y-89098486D01*
X221657748Y-89120665D01*
X221645136Y-89141708D01*
X221630521Y-89161414D01*
X221614045Y-89179592D01*
X221595867Y-89196068D01*
X221576161Y-89210683D01*
X221555118Y-89223295D01*
X221532939Y-89233785D01*
X221509840Y-89242050D01*
X221486041Y-89248011D01*
X221461773Y-89251611D01*
X221437269Y-89252815D01*
X220787267Y-89252815D01*
X220762763Y-89251611D01*
X220738495Y-89248011D01*
X220714696Y-89242050D01*
X220691597Y-89233785D01*
X220669418Y-89223295D01*
X220648375Y-89210683D01*
X220628669Y-89196068D01*
X220610491Y-89179592D01*
X220594015Y-89161414D01*
X220579400Y-89141708D01*
X220566788Y-89120665D01*
X220556298Y-89098486D01*
X220548033Y-89075387D01*
X220542072Y-89051588D01*
X220538472Y-89027320D01*
X220537268Y-89002816D01*
X220537268Y-88102814D01*
X220538472Y-88078310D01*
X220542072Y-88054042D01*
X220548033Y-88030243D01*
X220556298Y-88007144D01*
X220566788Y-87984965D01*
X220579400Y-87963922D01*
X220594015Y-87944216D01*
X220610491Y-87926038D01*
X220628669Y-87909562D01*
X220648375Y-87894947D01*
X220669418Y-87882335D01*
X220691597Y-87871845D01*
X220714696Y-87863580D01*
X220738495Y-87857619D01*
X220762763Y-87854019D01*
X220787267Y-87852815D01*
X221437269Y-87852815D01*
X221461773Y-87854019D01*
X221461773Y-87854019D01*
G37*
D13*
X221112268Y-88552815D03*
D11*
G36*
X223511773Y-87854019D02*
G01*
X223536041Y-87857619D01*
X223559840Y-87863580D01*
X223582939Y-87871845D01*
X223605118Y-87882335D01*
X223626161Y-87894947D01*
X223645867Y-87909562D01*
X223664045Y-87926038D01*
X223680521Y-87944216D01*
X223695136Y-87963922D01*
X223707748Y-87984965D01*
X223718238Y-88007144D01*
X223726503Y-88030243D01*
X223732464Y-88054042D01*
X223736064Y-88078310D01*
X223737268Y-88102814D01*
X223737268Y-89002816D01*
X223736064Y-89027320D01*
X223732464Y-89051588D01*
X223726503Y-89075387D01*
X223718238Y-89098486D01*
X223707748Y-89120665D01*
X223695136Y-89141708D01*
X223680521Y-89161414D01*
X223664045Y-89179592D01*
X223645867Y-89196068D01*
X223626161Y-89210683D01*
X223605118Y-89223295D01*
X223582939Y-89233785D01*
X223559840Y-89242050D01*
X223536041Y-89248011D01*
X223511773Y-89251611D01*
X223487269Y-89252815D01*
X222837267Y-89252815D01*
X222812763Y-89251611D01*
X222788495Y-89248011D01*
X222764696Y-89242050D01*
X222741597Y-89233785D01*
X222719418Y-89223295D01*
X222698375Y-89210683D01*
X222678669Y-89196068D01*
X222660491Y-89179592D01*
X222644015Y-89161414D01*
X222629400Y-89141708D01*
X222616788Y-89120665D01*
X222606298Y-89098486D01*
X222598033Y-89075387D01*
X222592072Y-89051588D01*
X222588472Y-89027320D01*
X222587268Y-89002816D01*
X222587268Y-88102814D01*
X222588472Y-88078310D01*
X222592072Y-88054042D01*
X222598033Y-88030243D01*
X222606298Y-88007144D01*
X222616788Y-87984965D01*
X222629400Y-87963922D01*
X222644015Y-87944216D01*
X222660491Y-87926038D01*
X222678669Y-87909562D01*
X222698375Y-87894947D01*
X222719418Y-87882335D01*
X222741597Y-87871845D01*
X222764696Y-87863580D01*
X222788495Y-87857619D01*
X222812763Y-87854019D01*
X222837267Y-87852815D01*
X223487269Y-87852815D01*
X223511773Y-87854019D01*
X223511773Y-87854019D01*
G37*
D13*
X223162268Y-88552815D03*
D11*
G36*
X219211771Y-94144020D02*
G01*
X219236039Y-94147620D01*
X219259838Y-94153581D01*
X219282937Y-94161846D01*
X219305116Y-94172336D01*
X219326159Y-94184948D01*
X219345865Y-94199563D01*
X219364043Y-94216039D01*
X219380519Y-94234217D01*
X219395134Y-94253923D01*
X219407746Y-94274966D01*
X219418236Y-94297145D01*
X219426501Y-94320244D01*
X219432462Y-94344043D01*
X219436062Y-94368311D01*
X219437266Y-94392815D01*
X219437266Y-95292817D01*
X219436062Y-95317321D01*
X219432462Y-95341589D01*
X219426501Y-95365388D01*
X219418236Y-95388487D01*
X219407746Y-95410666D01*
X219395134Y-95431709D01*
X219380519Y-95451415D01*
X219364043Y-95469593D01*
X219345865Y-95486069D01*
X219326159Y-95500684D01*
X219305116Y-95513296D01*
X219282937Y-95523786D01*
X219259838Y-95532051D01*
X219236039Y-95538012D01*
X219211771Y-95541612D01*
X219187267Y-95542816D01*
X218537265Y-95542816D01*
X218512761Y-95541612D01*
X218488493Y-95538012D01*
X218464694Y-95532051D01*
X218441595Y-95523786D01*
X218419416Y-95513296D01*
X218398373Y-95500684D01*
X218378667Y-95486069D01*
X218360489Y-95469593D01*
X218344013Y-95451415D01*
X218329398Y-95431709D01*
X218316786Y-95410666D01*
X218306296Y-95388487D01*
X218298031Y-95365388D01*
X218292070Y-95341589D01*
X218288470Y-95317321D01*
X218287266Y-95292817D01*
X218287266Y-94392815D01*
X218288470Y-94368311D01*
X218292070Y-94344043D01*
X218298031Y-94320244D01*
X218306296Y-94297145D01*
X218316786Y-94274966D01*
X218329398Y-94253923D01*
X218344013Y-94234217D01*
X218360489Y-94216039D01*
X218378667Y-94199563D01*
X218398373Y-94184948D01*
X218419416Y-94172336D01*
X218441595Y-94161846D01*
X218464694Y-94153581D01*
X218488493Y-94147620D01*
X218512761Y-94144020D01*
X218537265Y-94142816D01*
X219187267Y-94142816D01*
X219211771Y-94144020D01*
X219211771Y-94144020D01*
G37*
D13*
X218862266Y-94842816D03*
D11*
G36*
X217161771Y-94144020D02*
G01*
X217186039Y-94147620D01*
X217209838Y-94153581D01*
X217232937Y-94161846D01*
X217255116Y-94172336D01*
X217276159Y-94184948D01*
X217295865Y-94199563D01*
X217314043Y-94216039D01*
X217330519Y-94234217D01*
X217345134Y-94253923D01*
X217357746Y-94274966D01*
X217368236Y-94297145D01*
X217376501Y-94320244D01*
X217382462Y-94344043D01*
X217386062Y-94368311D01*
X217387266Y-94392815D01*
X217387266Y-95292817D01*
X217386062Y-95317321D01*
X217382462Y-95341589D01*
X217376501Y-95365388D01*
X217368236Y-95388487D01*
X217357746Y-95410666D01*
X217345134Y-95431709D01*
X217330519Y-95451415D01*
X217314043Y-95469593D01*
X217295865Y-95486069D01*
X217276159Y-95500684D01*
X217255116Y-95513296D01*
X217232937Y-95523786D01*
X217209838Y-95532051D01*
X217186039Y-95538012D01*
X217161771Y-95541612D01*
X217137267Y-95542816D01*
X216487265Y-95542816D01*
X216462761Y-95541612D01*
X216438493Y-95538012D01*
X216414694Y-95532051D01*
X216391595Y-95523786D01*
X216369416Y-95513296D01*
X216348373Y-95500684D01*
X216328667Y-95486069D01*
X216310489Y-95469593D01*
X216294013Y-95451415D01*
X216279398Y-95431709D01*
X216266786Y-95410666D01*
X216256296Y-95388487D01*
X216248031Y-95365388D01*
X216242070Y-95341589D01*
X216238470Y-95317321D01*
X216237266Y-95292817D01*
X216237266Y-94392815D01*
X216238470Y-94368311D01*
X216242070Y-94344043D01*
X216248031Y-94320244D01*
X216256296Y-94297145D01*
X216266786Y-94274966D01*
X216279398Y-94253923D01*
X216294013Y-94234217D01*
X216310489Y-94216039D01*
X216328667Y-94199563D01*
X216348373Y-94184948D01*
X216369416Y-94172336D01*
X216391595Y-94161846D01*
X216414694Y-94153581D01*
X216438493Y-94147620D01*
X216462761Y-94144020D01*
X216487265Y-94142816D01*
X217137267Y-94142816D01*
X217161771Y-94144020D01*
X217161771Y-94144020D01*
G37*
D13*
X216812266Y-94842816D03*
D12*
X104261875Y-88701344D03*
D11*
G36*
X104593842Y-89325682D02*
G01*
X103637537Y-89033311D01*
X103929908Y-88077006D01*
X104886213Y-88369377D01*
X104593842Y-89325682D01*
X104593842Y-89325682D01*
G37*
D12*
X103530945Y-91092106D03*
D11*
G36*
X103862912Y-91716444D02*
G01*
X102906607Y-91424073D01*
X103198978Y-90467768D01*
X104155283Y-90760139D01*
X103862912Y-91716444D01*
X103862912Y-91716444D01*
G37*
G36*
X223511772Y-92127204D02*
G01*
X223536040Y-92130804D01*
X223559839Y-92136765D01*
X223582938Y-92145030D01*
X223605117Y-92155520D01*
X223626160Y-92168132D01*
X223645866Y-92182747D01*
X223664044Y-92199223D01*
X223680520Y-92217401D01*
X223695135Y-92237107D01*
X223707747Y-92258150D01*
X223718237Y-92280329D01*
X223726502Y-92303428D01*
X223732463Y-92327227D01*
X223736063Y-92351495D01*
X223737267Y-92375999D01*
X223737267Y-93026001D01*
X223736063Y-93050505D01*
X223732463Y-93074773D01*
X223726502Y-93098572D01*
X223718237Y-93121671D01*
X223707747Y-93143850D01*
X223695135Y-93164893D01*
X223680520Y-93184599D01*
X223664044Y-93202777D01*
X223645866Y-93219253D01*
X223626160Y-93233868D01*
X223605117Y-93246480D01*
X223582938Y-93256970D01*
X223559839Y-93265235D01*
X223536040Y-93271196D01*
X223511772Y-93274796D01*
X223487268Y-93276000D01*
X222587266Y-93276000D01*
X222562762Y-93274796D01*
X222538494Y-93271196D01*
X222514695Y-93265235D01*
X222491596Y-93256970D01*
X222469417Y-93246480D01*
X222448374Y-93233868D01*
X222428668Y-93219253D01*
X222410490Y-93202777D01*
X222394014Y-93184599D01*
X222379399Y-93164893D01*
X222366787Y-93143850D01*
X222356297Y-93121671D01*
X222348032Y-93098572D01*
X222342071Y-93074773D01*
X222338471Y-93050505D01*
X222337267Y-93026001D01*
X222337267Y-92375999D01*
X222338471Y-92351495D01*
X222342071Y-92327227D01*
X222348032Y-92303428D01*
X222356297Y-92280329D01*
X222366787Y-92258150D01*
X222379399Y-92237107D01*
X222394014Y-92217401D01*
X222410490Y-92199223D01*
X222428668Y-92182747D01*
X222448374Y-92168132D01*
X222469417Y-92155520D01*
X222491596Y-92145030D01*
X222514695Y-92136765D01*
X222538494Y-92130804D01*
X222562762Y-92127204D01*
X222587266Y-92126000D01*
X223487268Y-92126000D01*
X223511772Y-92127204D01*
X223511772Y-92127204D01*
G37*
D13*
X223037267Y-92701000D03*
D11*
G36*
X223511772Y-90077204D02*
G01*
X223536040Y-90080804D01*
X223559839Y-90086765D01*
X223582938Y-90095030D01*
X223605117Y-90105520D01*
X223626160Y-90118132D01*
X223645866Y-90132747D01*
X223664044Y-90149223D01*
X223680520Y-90167401D01*
X223695135Y-90187107D01*
X223707747Y-90208150D01*
X223718237Y-90230329D01*
X223726502Y-90253428D01*
X223732463Y-90277227D01*
X223736063Y-90301495D01*
X223737267Y-90325999D01*
X223737267Y-90976001D01*
X223736063Y-91000505D01*
X223732463Y-91024773D01*
X223726502Y-91048572D01*
X223718237Y-91071671D01*
X223707747Y-91093850D01*
X223695135Y-91114893D01*
X223680520Y-91134599D01*
X223664044Y-91152777D01*
X223645866Y-91169253D01*
X223626160Y-91183868D01*
X223605117Y-91196480D01*
X223582938Y-91206970D01*
X223559839Y-91215235D01*
X223536040Y-91221196D01*
X223511772Y-91224796D01*
X223487268Y-91226000D01*
X222587266Y-91226000D01*
X222562762Y-91224796D01*
X222538494Y-91221196D01*
X222514695Y-91215235D01*
X222491596Y-91206970D01*
X222469417Y-91196480D01*
X222448374Y-91183868D01*
X222428668Y-91169253D01*
X222410490Y-91152777D01*
X222394014Y-91134599D01*
X222379399Y-91114893D01*
X222366787Y-91093850D01*
X222356297Y-91071671D01*
X222348032Y-91048572D01*
X222342071Y-91024773D01*
X222338471Y-91000505D01*
X222337267Y-90976001D01*
X222337267Y-90325999D01*
X222338471Y-90301495D01*
X222342071Y-90277227D01*
X222348032Y-90253428D01*
X222356297Y-90230329D01*
X222366787Y-90208150D01*
X222379399Y-90187107D01*
X222394014Y-90167401D01*
X222410490Y-90149223D01*
X222428668Y-90132747D01*
X222448374Y-90118132D01*
X222469417Y-90105520D01*
X222491596Y-90095030D01*
X222514695Y-90086765D01*
X222538494Y-90080804D01*
X222562762Y-90077204D01*
X222587266Y-90076000D01*
X223487268Y-90076000D01*
X223511772Y-90077204D01*
X223511772Y-90077204D01*
G37*
D13*
X223037267Y-90651000D03*
D11*
G36*
X217411771Y-92127203D02*
G01*
X217436039Y-92130803D01*
X217459838Y-92136764D01*
X217482937Y-92145029D01*
X217505116Y-92155519D01*
X217526159Y-92168131D01*
X217545865Y-92182746D01*
X217564043Y-92199222D01*
X217580519Y-92217400D01*
X217595134Y-92237106D01*
X217607746Y-92258149D01*
X217618236Y-92280328D01*
X217626501Y-92303427D01*
X217632462Y-92327226D01*
X217636062Y-92351494D01*
X217637266Y-92375998D01*
X217637266Y-93026000D01*
X217636062Y-93050504D01*
X217632462Y-93074772D01*
X217626501Y-93098571D01*
X217618236Y-93121670D01*
X217607746Y-93143849D01*
X217595134Y-93164892D01*
X217580519Y-93184598D01*
X217564043Y-93202776D01*
X217545865Y-93219252D01*
X217526159Y-93233867D01*
X217505116Y-93246479D01*
X217482937Y-93256969D01*
X217459838Y-93265234D01*
X217436039Y-93271195D01*
X217411771Y-93274795D01*
X217387267Y-93275999D01*
X216487265Y-93275999D01*
X216462761Y-93274795D01*
X216438493Y-93271195D01*
X216414694Y-93265234D01*
X216391595Y-93256969D01*
X216369416Y-93246479D01*
X216348373Y-93233867D01*
X216328667Y-93219252D01*
X216310489Y-93202776D01*
X216294013Y-93184598D01*
X216279398Y-93164892D01*
X216266786Y-93143849D01*
X216256296Y-93121670D01*
X216248031Y-93098571D01*
X216242070Y-93074772D01*
X216238470Y-93050504D01*
X216237266Y-93026000D01*
X216237266Y-92375998D01*
X216238470Y-92351494D01*
X216242070Y-92327226D01*
X216248031Y-92303427D01*
X216256296Y-92280328D01*
X216266786Y-92258149D01*
X216279398Y-92237106D01*
X216294013Y-92217400D01*
X216310489Y-92199222D01*
X216328667Y-92182746D01*
X216348373Y-92168131D01*
X216369416Y-92155519D01*
X216391595Y-92145029D01*
X216414694Y-92136764D01*
X216438493Y-92130803D01*
X216462761Y-92127203D01*
X216487265Y-92125999D01*
X217387267Y-92125999D01*
X217411771Y-92127203D01*
X217411771Y-92127203D01*
G37*
D13*
X216937266Y-92700999D03*
D11*
G36*
X217411771Y-90077203D02*
G01*
X217436039Y-90080803D01*
X217459838Y-90086764D01*
X217482937Y-90095029D01*
X217505116Y-90105519D01*
X217526159Y-90118131D01*
X217545865Y-90132746D01*
X217564043Y-90149222D01*
X217580519Y-90167400D01*
X217595134Y-90187106D01*
X217607746Y-90208149D01*
X217618236Y-90230328D01*
X217626501Y-90253427D01*
X217632462Y-90277226D01*
X217636062Y-90301494D01*
X217637266Y-90325998D01*
X217637266Y-90976000D01*
X217636062Y-91000504D01*
X217632462Y-91024772D01*
X217626501Y-91048571D01*
X217618236Y-91071670D01*
X217607746Y-91093849D01*
X217595134Y-91114892D01*
X217580519Y-91134598D01*
X217564043Y-91152776D01*
X217545865Y-91169252D01*
X217526159Y-91183867D01*
X217505116Y-91196479D01*
X217482937Y-91206969D01*
X217459838Y-91215234D01*
X217436039Y-91221195D01*
X217411771Y-91224795D01*
X217387267Y-91225999D01*
X216487265Y-91225999D01*
X216462761Y-91224795D01*
X216438493Y-91221195D01*
X216414694Y-91215234D01*
X216391595Y-91206969D01*
X216369416Y-91196479D01*
X216348373Y-91183867D01*
X216328667Y-91169252D01*
X216310489Y-91152776D01*
X216294013Y-91134598D01*
X216279398Y-91114892D01*
X216266786Y-91093849D01*
X216256296Y-91071670D01*
X216248031Y-91048571D01*
X216242070Y-91024772D01*
X216238470Y-91000504D01*
X216237266Y-90976000D01*
X216237266Y-90325998D01*
X216238470Y-90301494D01*
X216242070Y-90277226D01*
X216248031Y-90253427D01*
X216256296Y-90230328D01*
X216266786Y-90208149D01*
X216279398Y-90187106D01*
X216294013Y-90167400D01*
X216310489Y-90149222D01*
X216328667Y-90132746D01*
X216348373Y-90118131D01*
X216369416Y-90105519D01*
X216391595Y-90095029D01*
X216414694Y-90086764D01*
X216438493Y-90080803D01*
X216462761Y-90077203D01*
X216487265Y-90075999D01*
X217387267Y-90075999D01*
X217411771Y-90077203D01*
X217411771Y-90077203D01*
G37*
D13*
X216937266Y-90650999D03*
D12*
X81669134Y-81794040D03*
D11*
G36*
X82001101Y-82418378D02*
G01*
X81044796Y-82126007D01*
X81337167Y-81169702D01*
X82293472Y-81462073D01*
X82001101Y-82418378D01*
X82001101Y-82418378D01*
G37*
D12*
X80938204Y-84184802D03*
D11*
G36*
X81270171Y-84809140D02*
G01*
X80313866Y-84516769D01*
X80606237Y-83560464D01*
X81562542Y-83852835D01*
X81270171Y-84809140D01*
X81270171Y-84809140D01*
G37*
G36*
X221461773Y-94144019D02*
G01*
X221486041Y-94147619D01*
X221509840Y-94153580D01*
X221532939Y-94161845D01*
X221555118Y-94172335D01*
X221576161Y-94184947D01*
X221595867Y-94199562D01*
X221614045Y-94216038D01*
X221630521Y-94234216D01*
X221645136Y-94253922D01*
X221657748Y-94274965D01*
X221668238Y-94297144D01*
X221676503Y-94320243D01*
X221682464Y-94344042D01*
X221686064Y-94368310D01*
X221687268Y-94392814D01*
X221687268Y-95292816D01*
X221686064Y-95317320D01*
X221682464Y-95341588D01*
X221676503Y-95365387D01*
X221668238Y-95388486D01*
X221657748Y-95410665D01*
X221645136Y-95431708D01*
X221630521Y-95451414D01*
X221614045Y-95469592D01*
X221595867Y-95486068D01*
X221576161Y-95500683D01*
X221555118Y-95513295D01*
X221532939Y-95523785D01*
X221509840Y-95532050D01*
X221486041Y-95538011D01*
X221461773Y-95541611D01*
X221437269Y-95542815D01*
X220787267Y-95542815D01*
X220762763Y-95541611D01*
X220738495Y-95538011D01*
X220714696Y-95532050D01*
X220691597Y-95523785D01*
X220669418Y-95513295D01*
X220648375Y-95500683D01*
X220628669Y-95486068D01*
X220610491Y-95469592D01*
X220594015Y-95451414D01*
X220579400Y-95431708D01*
X220566788Y-95410665D01*
X220556298Y-95388486D01*
X220548033Y-95365387D01*
X220542072Y-95341588D01*
X220538472Y-95317320D01*
X220537268Y-95292816D01*
X220537268Y-94392814D01*
X220538472Y-94368310D01*
X220542072Y-94344042D01*
X220548033Y-94320243D01*
X220556298Y-94297144D01*
X220566788Y-94274965D01*
X220579400Y-94253922D01*
X220594015Y-94234216D01*
X220610491Y-94216038D01*
X220628669Y-94199562D01*
X220648375Y-94184947D01*
X220669418Y-94172335D01*
X220691597Y-94161845D01*
X220714696Y-94153580D01*
X220738495Y-94147619D01*
X220762763Y-94144019D01*
X220787267Y-94142815D01*
X221437269Y-94142815D01*
X221461773Y-94144019D01*
X221461773Y-94144019D01*
G37*
D13*
X221112268Y-94842815D03*
D11*
G36*
X223511773Y-94144019D02*
G01*
X223536041Y-94147619D01*
X223559840Y-94153580D01*
X223582939Y-94161845D01*
X223605118Y-94172335D01*
X223626161Y-94184947D01*
X223645867Y-94199562D01*
X223664045Y-94216038D01*
X223680521Y-94234216D01*
X223695136Y-94253922D01*
X223707748Y-94274965D01*
X223718238Y-94297144D01*
X223726503Y-94320243D01*
X223732464Y-94344042D01*
X223736064Y-94368310D01*
X223737268Y-94392814D01*
X223737268Y-95292816D01*
X223736064Y-95317320D01*
X223732464Y-95341588D01*
X223726503Y-95365387D01*
X223718238Y-95388486D01*
X223707748Y-95410665D01*
X223695136Y-95431708D01*
X223680521Y-95451414D01*
X223664045Y-95469592D01*
X223645867Y-95486068D01*
X223626161Y-95500683D01*
X223605118Y-95513295D01*
X223582939Y-95523785D01*
X223559840Y-95532050D01*
X223536041Y-95538011D01*
X223511773Y-95541611D01*
X223487269Y-95542815D01*
X222837267Y-95542815D01*
X222812763Y-95541611D01*
X222788495Y-95538011D01*
X222764696Y-95532050D01*
X222741597Y-95523785D01*
X222719418Y-95513295D01*
X222698375Y-95500683D01*
X222678669Y-95486068D01*
X222660491Y-95469592D01*
X222644015Y-95451414D01*
X222629400Y-95431708D01*
X222616788Y-95410665D01*
X222606298Y-95388486D01*
X222598033Y-95365387D01*
X222592072Y-95341588D01*
X222588472Y-95317320D01*
X222587268Y-95292816D01*
X222587268Y-94392814D01*
X222588472Y-94368310D01*
X222592072Y-94344042D01*
X222598033Y-94320243D01*
X222606298Y-94297144D01*
X222616788Y-94274965D01*
X222629400Y-94253922D01*
X222644015Y-94234216D01*
X222660491Y-94216038D01*
X222678669Y-94199562D01*
X222698375Y-94184947D01*
X222719418Y-94172335D01*
X222741597Y-94161845D01*
X222764696Y-94153580D01*
X222788495Y-94147619D01*
X222812763Y-94144019D01*
X222837267Y-94142815D01*
X223487269Y-94142815D01*
X223511773Y-94144019D01*
X223511773Y-94144019D01*
G37*
D13*
X223162268Y-94842815D03*
D12*
X173642076Y-189549141D03*
D11*
G36*
X173918365Y-190200036D02*
G01*
X172991181Y-189825430D01*
X173365787Y-188898246D01*
X174292971Y-189272852D01*
X173918365Y-190200036D01*
X173918365Y-190200036D01*
G37*
D12*
X172705560Y-191867101D03*
D11*
G36*
X172981849Y-192517996D02*
G01*
X172054665Y-192143390D01*
X172429271Y-191216206D01*
X173356455Y-191590812D01*
X172981849Y-192517996D01*
X172981849Y-192517996D01*
G37*
D12*
X291120502Y-179679112D03*
D11*
G36*
X291744840Y-180011079D02*
G01*
X290788535Y-180303450D01*
X290496164Y-179347145D01*
X291452469Y-179054774D01*
X291744840Y-180011079D01*
X291744840Y-180011079D01*
G37*
D12*
X291851432Y-182069874D03*
D11*
G36*
X292475770Y-182401841D02*
G01*
X291519465Y-182694212D01*
X291227094Y-181737907D01*
X292183399Y-181445536D01*
X292475770Y-182401841D01*
X292475770Y-182401841D01*
G37*
D12*
X254988047Y-194156837D03*
D11*
G36*
X255638942Y-194433126D02*
G01*
X254711758Y-194807732D01*
X254337152Y-193880548D01*
X255264336Y-193505942D01*
X255638942Y-194433126D01*
X255638942Y-194433126D01*
G37*
D12*
X255924563Y-196474797D03*
D11*
G36*
X256575458Y-196751086D02*
G01*
X255648274Y-197125692D01*
X255273668Y-196198508D01*
X256200852Y-195823902D01*
X256575458Y-196751086D01*
X256575458Y-196751086D01*
G37*
D12*
X366611605Y-158745501D03*
D11*
G36*
X367235943Y-159077468D02*
G01*
X366279638Y-159369839D01*
X365987267Y-158413534D01*
X366943572Y-158121163D01*
X367235943Y-159077468D01*
X367235943Y-159077468D01*
G37*
D12*
X367342535Y-161136263D03*
D11*
G36*
X367966873Y-161468230D02*
G01*
X367010568Y-161760601D01*
X366718197Y-160804296D01*
X367674502Y-160511925D01*
X367966873Y-161468230D01*
X367966873Y-161468230D01*
G37*
D12*
X326107855Y-164146102D03*
D11*
G36*
X326732193Y-164478069D02*
G01*
X325775888Y-164770440D01*
X325483517Y-163814135D01*
X326439822Y-163521764D01*
X326732193Y-164478069D01*
X326732193Y-164478069D01*
G37*
D12*
X326838785Y-166536864D03*
D11*
G36*
X327463123Y-166868831D02*
G01*
X326506818Y-167161202D01*
X326214447Y-166204897D01*
X327170752Y-165912526D01*
X327463123Y-166868831D01*
X327463123Y-166868831D01*
G37*
D12*
X102164034Y-160549921D03*
D11*
G36*
X102496001Y-161174259D02*
G01*
X101539696Y-160881888D01*
X101832067Y-159925583D01*
X102788372Y-160217954D01*
X102496001Y-161174259D01*
X102496001Y-161174259D01*
G37*
D12*
X101433104Y-162940683D03*
D11*
G36*
X101765071Y-163565021D02*
G01*
X100808766Y-163272650D01*
X101101137Y-162316345D01*
X102057442Y-162608716D01*
X101765071Y-163565021D01*
X101765071Y-163565021D01*
G37*
D12*
X61660316Y-155149308D03*
D11*
G36*
X61992283Y-155773646D02*
G01*
X61035978Y-155481275D01*
X61328349Y-154524970D01*
X62284654Y-154817341D01*
X61992283Y-155773646D01*
X61992283Y-155773646D01*
G37*
D12*
X60929386Y-157540070D03*
D11*
G36*
X61261353Y-158164408D02*
G01*
X60305048Y-157872037D01*
X60597419Y-156915732D01*
X61553724Y-157208103D01*
X61261353Y-158164408D01*
X61261353Y-158164408D01*
G37*
D12*
X82041602Y-161380497D03*
D11*
G36*
X82373569Y-162004835D02*
G01*
X81417264Y-161712464D01*
X81709635Y-160756159D01*
X82665940Y-161048530D01*
X82373569Y-162004835D01*
X82373569Y-162004835D01*
G37*
D12*
X81310672Y-163771259D03*
D11*
G36*
X81642639Y-164395597D02*
G01*
X80686334Y-164103226D01*
X80978705Y-163146921D01*
X81935010Y-163439292D01*
X81642639Y-164395597D01*
X81642639Y-164395597D01*
G37*
D12*
X189526006Y-200954888D03*
D11*
G36*
X189802295Y-201605783D02*
G01*
X188875111Y-201231177D01*
X189249717Y-200303993D01*
X190176901Y-200678599D01*
X189802295Y-201605783D01*
X189802295Y-201605783D01*
G37*
D12*
X188589490Y-203272848D03*
D11*
G36*
X188865779Y-203923743D02*
G01*
X187938595Y-203549137D01*
X188313201Y-202621953D01*
X189240385Y-202996559D01*
X188865779Y-203923743D01*
X188865779Y-203923743D01*
G37*
D12*
X363267983Y-139899590D03*
D11*
G36*
X363892321Y-140231557D02*
G01*
X362936016Y-140523928D01*
X362643645Y-139567623D01*
X363599950Y-139275252D01*
X363892321Y-140231557D01*
X363892321Y-140231557D01*
G37*
D12*
X363998913Y-142290352D03*
D11*
G36*
X364623251Y-142622319D02*
G01*
X363666946Y-142914690D01*
X363374575Y-141958385D01*
X364330880Y-141666014D01*
X364623251Y-142622319D01*
X364623251Y-142622319D01*
G37*
D12*
X306425066Y-164752277D03*
D11*
G36*
X307049404Y-165084244D02*
G01*
X306093099Y-165376615D01*
X305800728Y-164420310D01*
X306757033Y-164127939D01*
X307049404Y-165084244D01*
X307049404Y-165084244D01*
G37*
D12*
X307155996Y-167143039D03*
D11*
G36*
X307780334Y-167475006D02*
G01*
X306824029Y-167767377D01*
X306531658Y-166811072D01*
X307487963Y-166518701D01*
X307780334Y-167475006D01*
X307780334Y-167475006D01*
G37*
D12*
X346230318Y-164976685D03*
D11*
G36*
X346854656Y-165308652D02*
G01*
X345898351Y-165601023D01*
X345605980Y-164644718D01*
X346562285Y-164352347D01*
X346854656Y-165308652D01*
X346854656Y-165308652D01*
G37*
D12*
X346961248Y-167367447D03*
D11*
G36*
X347585586Y-167699414D02*
G01*
X346629281Y-167991785D01*
X346336910Y-167035480D01*
X347293215Y-166743109D01*
X347585586Y-167699414D01*
X347585586Y-167699414D01*
G37*
D12*
X273162181Y-187032087D03*
D11*
G36*
X273797724Y-187342062D02*
G01*
X272852206Y-187667630D01*
X272526638Y-186722112D01*
X273472156Y-186396544D01*
X273797724Y-187342062D01*
X273797724Y-187342062D01*
G37*
D12*
X273976101Y-189395883D03*
D11*
G36*
X274611644Y-189705858D02*
G01*
X273666126Y-190031426D01*
X273340558Y-189085908D01*
X274286076Y-188760340D01*
X274611644Y-189705858D01*
X274611644Y-189705858D01*
G37*
D12*
X137151431Y-176082935D03*
D11*
G36*
X137483398Y-176707273D02*
G01*
X136527093Y-176414902D01*
X136819464Y-175458597D01*
X137775769Y-175750968D01*
X137483398Y-176707273D01*
X137483398Y-176707273D01*
G37*
D12*
X136420501Y-178473697D03*
D11*
G36*
X136752468Y-179098035D02*
G01*
X135796163Y-178805664D01*
X136088534Y-177849359D01*
X137044839Y-178141730D01*
X136752468Y-179098035D01*
X136752468Y-179098035D01*
G37*
D12*
X239104103Y-205562575D03*
D11*
G36*
X239754998Y-205838864D02*
G01*
X238827814Y-206213470D01*
X238453208Y-205286286D01*
X239380392Y-204911680D01*
X239754998Y-205838864D01*
X239754998Y-205838864D01*
G37*
D12*
X240040619Y-207880535D03*
D11*
G36*
X240691514Y-208156824D02*
G01*
X239764330Y-208531430D01*
X239389724Y-207604246D01*
X240316908Y-207229640D01*
X240691514Y-208156824D01*
X240691514Y-208156824D01*
G37*
D12*
X121846862Y-161156092D03*
D11*
G36*
X122178829Y-161780430D02*
G01*
X121222524Y-161488059D01*
X121514895Y-160531754D01*
X122471200Y-160824125D01*
X122178829Y-161780430D01*
X122178829Y-161780430D01*
G37*
D12*
X121115932Y-163546854D03*
D11*
G36*
X121447899Y-164171192D02*
G01*
X120491594Y-163878821D01*
X120783965Y-162922516D01*
X121740270Y-163214887D01*
X121447899Y-164171192D01*
X121447899Y-164171192D01*
G37*
D12*
X155242425Y-183027585D03*
D11*
G36*
X155552400Y-183663128D02*
G01*
X154606882Y-183337560D01*
X154932450Y-182392042D01*
X155877968Y-182717610D01*
X155552400Y-183663128D01*
X155552400Y-183663128D01*
G37*
D12*
X154428505Y-185391381D03*
D11*
G36*
X154738480Y-186026924D02*
G01*
X153792962Y-185701356D01*
X154118530Y-184755838D01*
X155064048Y-185081406D01*
X154738480Y-186026924D01*
X154738480Y-186026924D01*
G37*
D10*
X175231144Y-94078490D03*
D11*
G36*
X173646391Y-94901097D02*
G01*
X174377320Y-92510335D01*
X176815897Y-93255883D01*
X176084968Y-95646645D01*
X173646391Y-94901097D01*
X173646391Y-94901097D01*
G37*
D10*
X161243699Y-92458156D03*
D11*
G36*
X159658946Y-93280763D02*
G01*
X160389875Y-90890001D01*
X162828452Y-91635549D01*
X162097523Y-94026311D01*
X159658946Y-93280763D01*
X159658946Y-93280763D01*
G37*
D10*
X293490483Y-79896503D03*
D11*
G36*
X292636659Y-81464658D02*
G01*
X291905730Y-79073896D01*
X294344307Y-78328348D01*
X295075236Y-80719110D01*
X292636659Y-81464658D01*
X292636659Y-81464658D01*
G37*
D10*
X280988286Y-86374865D03*
D11*
G36*
X280134462Y-87943020D02*
G01*
X279403533Y-85552258D01*
X281842110Y-84806710D01*
X282573039Y-87197472D01*
X280134462Y-87943020D01*
X280134462Y-87943020D01*
G37*
D10*
X313173334Y-79290339D03*
D11*
G36*
X312319510Y-80858494D02*
G01*
X311588581Y-78467732D01*
X314027158Y-77722184D01*
X314758087Y-80112946D01*
X312319510Y-80858494D01*
X312319510Y-80858494D01*
G37*
D10*
X300671137Y-85768701D03*
D11*
G36*
X299817313Y-87336856D02*
G01*
X299086384Y-84946094D01*
X301524961Y-84200546D01*
X302255890Y-86591308D01*
X299817313Y-87336856D01*
X299817313Y-87336856D01*
G37*
D10*
X240866250Y-102727510D03*
D11*
G36*
X240012426Y-104295665D02*
G01*
X239281497Y-101904903D01*
X241720074Y-101159355D01*
X242451003Y-103550117D01*
X240012426Y-104295665D01*
X240012426Y-104295665D01*
G37*
D10*
X228364053Y-109205872D03*
D11*
G36*
X227510229Y-110774027D02*
G01*
X226779300Y-108383265D01*
X229217877Y-107637717D01*
X229948806Y-110028479D01*
X227510229Y-110774027D01*
X227510229Y-110774027D01*
G37*
D10*
X113214033Y-101968759D03*
D11*
G36*
X111629280Y-102791366D02*
G01*
X112360209Y-100400604D01*
X114798786Y-101146152D01*
X114067857Y-103536914D01*
X111629280Y-102791366D01*
X111629280Y-102791366D01*
G37*
D10*
X99226588Y-100348425D03*
D11*
G36*
X97641835Y-101171032D02*
G01*
X98372764Y-98780270D01*
X100811341Y-99525818D01*
X100080412Y-101916580D01*
X97641835Y-101171032D01*
X97641835Y-101171032D01*
G37*
D10*
X96176370Y-76891690D03*
D11*
G36*
X94591617Y-77714297D02*
G01*
X95322546Y-75323535D01*
X97761123Y-76069083D01*
X97030194Y-78459845D01*
X94591617Y-77714297D01*
X94591617Y-77714297D01*
G37*
D10*
X82188925Y-75271356D03*
D11*
G36*
X80604172Y-76093963D02*
G01*
X81335101Y-73703201D01*
X83773678Y-74448749D01*
X83042749Y-76839511D01*
X80604172Y-76093963D01*
X80604172Y-76093963D01*
G37*
D10*
X158574377Y-83574552D03*
D11*
G36*
X156989624Y-84397159D02*
G01*
X157720553Y-82006397D01*
X160159130Y-82751945D01*
X159428201Y-85142707D01*
X156989624Y-84397159D01*
X156989624Y-84397159D01*
G37*
D10*
X144586932Y-81954218D03*
D11*
G36*
X143002179Y-82776825D02*
G01*
X143733108Y-80386063D01*
X146171685Y-81131611D01*
X145440756Y-83522373D01*
X143002179Y-82776825D01*
X143002179Y-82776825D01*
G37*
D10*
X259035989Y-97172456D03*
D11*
G36*
X258182165Y-98740611D02*
G01*
X257451236Y-96349849D01*
X259889813Y-95604301D01*
X260620742Y-97995063D01*
X258182165Y-98740611D01*
X258182165Y-98740611D01*
G37*
D10*
X246533792Y-103650818D03*
D11*
G36*
X245679968Y-105218973D02*
G01*
X244949039Y-102828211D01*
X247387616Y-102082663D01*
X248118545Y-104473425D01*
X245679968Y-105218973D01*
X245679968Y-105218973D01*
G37*
D10*
X133336460Y-101138173D03*
D11*
G36*
X131751707Y-101960780D02*
G01*
X132482636Y-99570018D01*
X134921213Y-100315566D01*
X134190284Y-102706328D01*
X131751707Y-101960780D01*
X131751707Y-101960780D01*
G37*
D10*
X119349015Y-99517839D03*
D11*
G36*
X117764262Y-100340446D02*
G01*
X118495191Y-97949684D01*
X120933768Y-98695232D01*
X120202839Y-101085994D01*
X117764262Y-100340446D01*
X117764262Y-100340446D01*
G37*
D10*
X333295741Y-80120936D03*
D11*
G36*
X332441917Y-81689091D02*
G01*
X331710988Y-79298329D01*
X334149565Y-78552781D01*
X334880494Y-80943543D01*
X332441917Y-81689091D01*
X332441917Y-81689091D01*
G37*
D10*
X320793544Y-86599298D03*
D11*
G36*
X319939720Y-88167453D02*
G01*
X319208791Y-85776691D01*
X321647368Y-85031143D01*
X322378297Y-87421905D01*
X319939720Y-88167453D01*
X319939720Y-88167453D01*
G37*
D10*
X138891547Y-82968378D03*
D11*
G36*
X137306794Y-83790985D02*
G01*
X138037723Y-81400223D01*
X140476300Y-82145771D01*
X139745371Y-84536533D01*
X137306794Y-83790985D01*
X137306794Y-83790985D01*
G37*
D10*
X124904102Y-81348044D03*
D11*
G36*
X123319349Y-82170651D02*
G01*
X124050278Y-79779889D01*
X126488855Y-80525437D01*
X125757926Y-82916199D01*
X123319349Y-82170651D01*
X123319349Y-82170651D01*
G37*
D10*
X193028835Y-100850507D03*
D11*
G36*
X191444082Y-101673114D02*
G01*
X192175011Y-99282352D01*
X194613588Y-100027900D01*
X193882659Y-102418662D01*
X191444082Y-101673114D01*
X191444082Y-101673114D01*
G37*
D10*
X179041390Y-99230173D03*
D11*
G36*
X177456637Y-100052780D02*
G01*
X178187566Y-97662018D01*
X180626143Y-98407566D01*
X179895214Y-100798328D01*
X177456637Y-100052780D01*
X177456637Y-100052780D01*
G37*
D10*
X276833746Y-90400454D03*
D11*
G36*
X275979922Y-91968609D02*
G01*
X275248993Y-89577847D01*
X277687570Y-88832299D01*
X278418499Y-91223061D01*
X275979922Y-91968609D01*
X275979922Y-91968609D01*
G37*
D10*
X264331549Y-96878816D03*
D11*
G36*
X263477725Y-98446971D02*
G01*
X262746796Y-96056209D01*
X265185373Y-95310661D01*
X265916302Y-97701423D01*
X263477725Y-98446971D01*
X263477725Y-98446971D01*
G37*
D10*
X355888453Y-73213639D03*
D11*
G36*
X355034629Y-74781794D02*
G01*
X354303700Y-72391032D01*
X356742277Y-71645484D01*
X357473206Y-74036246D01*
X355034629Y-74781794D01*
X355034629Y-74781794D01*
G37*
D10*
X343386256Y-79692001D03*
D11*
G36*
X342532432Y-81260156D02*
G01*
X341801503Y-78869394D01*
X344240080Y-78123846D01*
X344971009Y-80514608D01*
X342532432Y-81260156D01*
X342532432Y-81260156D01*
G37*
D10*
X90621286Y-95061476D03*
D11*
G36*
X89036533Y-95884083D02*
G01*
X89767462Y-93493321D01*
X92206039Y-94238869D01*
X91475110Y-96629631D01*
X89036533Y-95884083D01*
X89036533Y-95884083D01*
G37*
D10*
X76633841Y-93441142D03*
D11*
G36*
X75049088Y-94263749D02*
G01*
X75780017Y-91872987D01*
X78218594Y-92618535D01*
X77487665Y-95009297D01*
X75049088Y-94263749D01*
X75049088Y-94263749D01*
G37*
D10*
X118769111Y-83799000D03*
D11*
G36*
X117184358Y-84621607D02*
G01*
X117915287Y-82230845D01*
X120353864Y-82976393D01*
X119622935Y-85367155D01*
X117184358Y-84621607D01*
X117184358Y-84621607D01*
G37*
D10*
X104781666Y-82178666D03*
D11*
G36*
X103196913Y-83001273D02*
G01*
X103927842Y-80610511D01*
X106366419Y-81356059D01*
X105635490Y-83746821D01*
X103196913Y-83001273D01*
X103196913Y-83001273D01*
G37*
D12*
X335120182Y-128637100D03*
D11*
G36*
X335744520Y-128969067D02*
G01*
X334788215Y-129261438D01*
X334495844Y-128305133D01*
X335452149Y-128012762D01*
X335744520Y-128969067D01*
X335744520Y-128969067D01*
G37*
D12*
X335851112Y-131027862D03*
D11*
G36*
X336475450Y-131359829D02*
G01*
X335519145Y-131652200D01*
X335226774Y-130695895D01*
X336183079Y-130403524D01*
X336475450Y-131359829D01*
X336475450Y-131359829D01*
G37*
D12*
X161856416Y-160262248D03*
D11*
G36*
X162188383Y-160886586D02*
G01*
X161232078Y-160594215D01*
X161524449Y-159637910D01*
X162480754Y-159930281D01*
X162188383Y-160886586D01*
X162188383Y-160886586D01*
G37*
D12*
X161125486Y-162653010D03*
D11*
G36*
X161457453Y-163277348D02*
G01*
X160501148Y-162984977D01*
X160793519Y-162028672D01*
X161749824Y-162321043D01*
X161457453Y-163277348D01*
X161457453Y-163277348D01*
G37*
D12*
X284213244Y-157086408D03*
D11*
G36*
X284837582Y-157418375D02*
G01*
X283881277Y-157710746D01*
X283588906Y-156754441D01*
X284545211Y-156462070D01*
X284837582Y-157418375D01*
X284837582Y-157418375D01*
G37*
D12*
X284944174Y-159477170D03*
D11*
G36*
X285568512Y-159809137D02*
G01*
X284612207Y-160101508D01*
X284319836Y-159145203D01*
X285276141Y-158852832D01*
X285568512Y-159809137D01*
X285568512Y-159809137D01*
G37*
D12*
X300870013Y-146582467D03*
D11*
G36*
X301494351Y-146914434D02*
G01*
X300538046Y-147206805D01*
X300245675Y-146250500D01*
X301201980Y-145958129D01*
X301494351Y-146914434D01*
X301494351Y-146914434D01*
G37*
D12*
X301600943Y-148973229D03*
D11*
G36*
X302225281Y-149305196D02*
G01*
X301268976Y-149597567D01*
X300976605Y-148641262D01*
X301932910Y-148348891D01*
X302225281Y-149305196D01*
X302225281Y-149305196D01*
G37*
D12*
X87596656Y-143210695D03*
D11*
G36*
X87928623Y-143835033D02*
G01*
X86972318Y-143542662D01*
X87264689Y-142586357D01*
X88220994Y-142878728D01*
X87928623Y-143835033D01*
X87928623Y-143835033D01*
G37*
D12*
X86865726Y-145601457D03*
D11*
G36*
X87197693Y-146225795D02*
G01*
X86241388Y-145933424D01*
X86533759Y-144977119D01*
X87490064Y-145269490D01*
X87197693Y-146225795D01*
X87197693Y-146225795D01*
G37*
D12*
X320552828Y-145976303D03*
D11*
G36*
X321177166Y-146308270D02*
G01*
X320220861Y-146600641D01*
X319928490Y-145644336D01*
X320884795Y-145351965D01*
X321177166Y-146308270D01*
X321177166Y-146308270D01*
G37*
D12*
X321283758Y-148367065D03*
D11*
G36*
X321908096Y-148699032D02*
G01*
X320951791Y-148991403D01*
X320659420Y-148035098D01*
X321615725Y-147742727D01*
X321908096Y-148699032D01*
X321908096Y-148699032D01*
G37*
D12*
X340675238Y-146806890D03*
D11*
G36*
X341299576Y-147138857D02*
G01*
X340343271Y-147431228D01*
X340050900Y-146474923D01*
X341007205Y-146182552D01*
X341299576Y-147138857D01*
X341299576Y-147138857D01*
G37*
D12*
X341406168Y-149197652D03*
D11*
G36*
X342030506Y-149529619D02*
G01*
X341074201Y-149821990D01*
X340781830Y-148865685D01*
X341738135Y-148573314D01*
X342030506Y-149529619D01*
X342030506Y-149529619D01*
G37*
D12*
X278658189Y-138916625D03*
D11*
G36*
X279282527Y-139248592D02*
G01*
X278326222Y-139540963D01*
X278033851Y-138584658D01*
X278990156Y-138292287D01*
X279282527Y-139248592D01*
X279282527Y-139248592D01*
G37*
D12*
X279389119Y-141307387D03*
D11*
G36*
X280013457Y-141639354D02*
G01*
X279057152Y-141931725D01*
X278764781Y-140975420D01*
X279721086Y-140683049D01*
X280013457Y-141639354D01*
X280013457Y-141639354D01*
G37*
D12*
X314997744Y-127806506D03*
D11*
G36*
X315622082Y-128138473D02*
G01*
X314665777Y-128430844D01*
X314373406Y-127474539D01*
X315329711Y-127182168D01*
X315622082Y-128138473D01*
X315622082Y-128138473D01*
G37*
D12*
X315728674Y-130197268D03*
D11*
G36*
X316353012Y-130529235D02*
G01*
X315396707Y-130821606D01*
X315104336Y-129865301D01*
X316060641Y-129572930D01*
X316353012Y-130529235D01*
X316353012Y-130529235D01*
G37*
D12*
X295314943Y-128412691D03*
D11*
G36*
X295939281Y-128744658D02*
G01*
X294982976Y-129037029D01*
X294690605Y-128080724D01*
X295646910Y-127788353D01*
X295939281Y-128744658D01*
X295939281Y-128744658D01*
G37*
D12*
X296045873Y-130803453D03*
D11*
G36*
X296670211Y-131135420D02*
G01*
X295713906Y-131427791D01*
X295421535Y-130471486D01*
X296377840Y-130179115D01*
X296670211Y-131135420D01*
X296670211Y-131135420D01*
G37*
D12*
X127401944Y-142986298D03*
D11*
G36*
X127733911Y-143610636D02*
G01*
X126777606Y-143318265D01*
X127069977Y-142361960D01*
X128026282Y-142654331D01*
X127733911Y-143610636D01*
X127733911Y-143610636D01*
G37*
D12*
X126671014Y-145377060D03*
D11*
G36*
X127002981Y-146001398D02*
G01*
X126046676Y-145709027D01*
X126339047Y-144752722D01*
X127295352Y-145045093D01*
X127002981Y-146001398D01*
X127002981Y-146001398D01*
G37*
D12*
X357712923Y-121729810D03*
D11*
G36*
X358337261Y-122061777D02*
G01*
X357380956Y-122354148D01*
X357088585Y-121397843D01*
X358044890Y-121105472D01*
X358337261Y-122061777D01*
X358337261Y-122061777D01*
G37*
D12*
X358443853Y-124120572D03*
D11*
G36*
X359068191Y-124452539D02*
G01*
X358111886Y-124744910D01*
X357819515Y-123788605D01*
X358775820Y-123496234D01*
X359068191Y-124452539D01*
X359068191Y-124452539D01*
G37*
D12*
X65003913Y-136303415D03*
D11*
G36*
X65335880Y-136927753D02*
G01*
X64379575Y-136635382D01*
X64671946Y-135679077D01*
X65628251Y-135971448D01*
X65335880Y-136927753D01*
X65335880Y-136927753D01*
G37*
D12*
X64272983Y-138694177D03*
D11*
G36*
X64604950Y-139318515D02*
G01*
X63648645Y-139026144D01*
X63941016Y-138069839D01*
X64897321Y-138362210D01*
X64604950Y-139318515D01*
X64604950Y-139318515D01*
G37*
D12*
X107719120Y-142380130D03*
D11*
G36*
X108051087Y-143004468D02*
G01*
X107094782Y-142712097D01*
X107387153Y-141755792D01*
X108343458Y-142048163D01*
X108051087Y-143004468D01*
X108051087Y-143004468D01*
G37*
D12*
X106988190Y-144770892D03*
D11*
G36*
X107320157Y-145395230D02*
G01*
X106363852Y-145102859D01*
X106656223Y-144146554D01*
X107612528Y-144438925D01*
X107320157Y-145395230D01*
X107320157Y-145395230D01*
G37*
D12*
X144058720Y-153490228D03*
D11*
G36*
X144390687Y-154114566D02*
G01*
X143434382Y-153822195D01*
X143726753Y-152865890D01*
X144683058Y-153158261D01*
X144390687Y-154114566D01*
X144390687Y-154114566D01*
G37*
D12*
X143327790Y-155880990D03*
D11*
G36*
X143659757Y-156505328D02*
G01*
X142703452Y-156212957D01*
X142995823Y-155256652D01*
X143952128Y-155549023D01*
X143659757Y-156505328D01*
X143659757Y-156505328D01*
G37*
D12*
X196643525Y-183338389D03*
D11*
G36*
X196919814Y-183989284D02*
G01*
X195992630Y-183614678D01*
X196367236Y-182687494D01*
X197294420Y-183062100D01*
X196919814Y-183989284D01*
X196919814Y-183989284D01*
G37*
D12*
X195707009Y-185656349D03*
D11*
G36*
X195983298Y-186307244D02*
G01*
X195056114Y-185932638D01*
X195430720Y-185005454D01*
X196357904Y-185380060D01*
X195983298Y-186307244D01*
X195983298Y-186307244D01*
G37*
D12*
X231986583Y-187946086D03*
D11*
G36*
X232637478Y-188222375D02*
G01*
X231710294Y-188596981D01*
X231335688Y-187669797D01*
X232262872Y-187295191D01*
X232637478Y-188222375D01*
X232637478Y-188222375D01*
G37*
D12*
X232923099Y-190264046D03*
D11*
G36*
X233573994Y-190540335D02*
G01*
X232646810Y-190914941D01*
X232272204Y-189987757D01*
X233199388Y-189613151D01*
X233573994Y-190540335D01*
X233573994Y-190540335D01*
G37*
D12*
X266415515Y-163858415D03*
D11*
G36*
X267039853Y-164190382D02*
G01*
X266083548Y-164482753D01*
X265791177Y-163526448D01*
X266747482Y-163234077D01*
X267039853Y-164190382D01*
X267039853Y-164190382D01*
G37*
D12*
X267146445Y-166249177D03*
D11*
G36*
X267770783Y-166581144D02*
G01*
X266814478Y-166873515D01*
X266522107Y-165917210D01*
X267478412Y-165624839D01*
X267770783Y-166581144D01*
X267770783Y-166581144D01*
G37*
D10*
X375897298Y-146568926D03*
D11*
G36*
X375043474Y-148137081D02*
G01*
X374312545Y-145746319D01*
X376751122Y-145000771D01*
X377482051Y-147391533D01*
X375043474Y-148137081D01*
X375043474Y-148137081D01*
G37*
D10*
X363395101Y-153047288D03*
D11*
G36*
X362541277Y-154615443D02*
G01*
X361810348Y-152224681D01*
X364248925Y-151479133D01*
X364979854Y-153869895D01*
X362541277Y-154615443D01*
X362541277Y-154615443D01*
G37*
D10*
X96548841Y-156478146D03*
D11*
G36*
X94964088Y-157300753D02*
G01*
X95695017Y-154909991D01*
X98133594Y-155655539D01*
X97402665Y-158046301D01*
X94964088Y-157300753D01*
X94964088Y-157300753D01*
G37*
D10*
X82561396Y-154857812D03*
D11*
G36*
X80976643Y-155680419D02*
G01*
X81707572Y-153289657D01*
X84146149Y-154035205D01*
X83415220Y-156425967D01*
X80976643Y-155680419D01*
X80976643Y-155680419D01*
G37*
D10*
X174728365Y-183096582D03*
D11*
G36*
X173077947Y-183777938D02*
G01*
X174014464Y-181459979D01*
X176378783Y-182415226D01*
X175442266Y-184733185D01*
X173077947Y-183777938D01*
X173077947Y-183777938D01*
G37*
D10*
X188521362Y-185929836D03*
D11*
G36*
X186870944Y-186611192D02*
G01*
X187807461Y-184293233D01*
X190171780Y-185248480D01*
X189235263Y-187566439D01*
X186870944Y-186611192D01*
X186870944Y-186611192D01*
G37*
D10*
X263177140Y-181217305D03*
D11*
G36*
X262463239Y-182853908D02*
G01*
X261526722Y-180535949D01*
X263891041Y-179580702D01*
X264827558Y-181898661D01*
X262463239Y-182853908D01*
X262463239Y-182853908D01*
G37*
D10*
X251287144Y-188760653D03*
D11*
G36*
X250573243Y-190397256D02*
G01*
X249636726Y-188079297D01*
X252001045Y-187124050D01*
X252937562Y-189442009D01*
X250573243Y-190397256D01*
X250573243Y-190397256D01*
G37*
D14*
X220017248Y-90050999D03*
X220017248Y-93300999D03*
D10*
X169911898Y-178634524D03*
D11*
G36*
X168299402Y-179401323D02*
G01*
X169113322Y-177037526D01*
X171524394Y-177867725D01*
X170710474Y-180231522D01*
X168299402Y-179401323D01*
X168299402Y-179401323D01*
G37*
D10*
X155989523Y-176527023D03*
D11*
G36*
X154377027Y-177293822D02*
G01*
X155190947Y-174930025D01*
X157602019Y-175760224D01*
X156788099Y-178124021D01*
X154377027Y-177293822D01*
X154377027Y-177293822D01*
G37*
D10*
X315710762Y-152575699D03*
D11*
G36*
X314856938Y-154143854D02*
G01*
X314126009Y-151753092D01*
X316564586Y-151007544D01*
X317295515Y-153398306D01*
X314856938Y-154143854D01*
X314856938Y-154143854D01*
G37*
D10*
X303208565Y-159054061D03*
D11*
G36*
X302354741Y-160622216D02*
G01*
X301623812Y-158231454D01*
X304062389Y-157485906D01*
X304793318Y-159876668D01*
X302354741Y-160622216D01*
X302354741Y-160622216D01*
G37*
D10*
X310155705Y-134405898D03*
D11*
G36*
X309301881Y-135974053D02*
G01*
X308570952Y-133583291D01*
X311009529Y-132837743D01*
X311740458Y-135228505D01*
X309301881Y-135974053D01*
X309301881Y-135974053D01*
G37*
D10*
X297653508Y-140884260D03*
D11*
G36*
X296799684Y-142452415D02*
G01*
X296068755Y-140061653D01*
X298507332Y-139316105D01*
X299238261Y-141706867D01*
X296799684Y-142452415D01*
X296799684Y-142452415D01*
G37*
D10*
X329838525Y-133799737D03*
D11*
G36*
X328984701Y-135367892D02*
G01*
X328253772Y-132977130D01*
X330692349Y-132231582D01*
X331423278Y-134622344D01*
X328984701Y-135367892D01*
X328984701Y-135367892D01*
G37*
D10*
X317336328Y-140278099D03*
D11*
G36*
X316482504Y-141846254D02*
G01*
X315751575Y-139455492D01*
X318190152Y-138709944D01*
X318921081Y-141100706D01*
X316482504Y-141846254D01*
X316482504Y-141846254D01*
G37*
D10*
X372553671Y-127723017D03*
D11*
G36*
X371699847Y-129291172D02*
G01*
X370968918Y-126900410D01*
X373407495Y-126154862D01*
X374138424Y-128545624D01*
X371699847Y-129291172D01*
X371699847Y-129291172D01*
G37*
D10*
X360051474Y-134201379D03*
D11*
G36*
X359197650Y-135769534D02*
G01*
X358466721Y-133378772D01*
X360905298Y-132633224D01*
X361636227Y-135023986D01*
X359197650Y-135769534D01*
X359197650Y-135769534D01*
G37*
D10*
X151658667Y-171180582D03*
D11*
G36*
X150073914Y-172003189D02*
G01*
X150804843Y-169612427D01*
X153243420Y-170357975D01*
X152512491Y-172748737D01*
X150073914Y-172003189D01*
X150073914Y-172003189D01*
G37*
D10*
X137671222Y-169560248D03*
D11*
G36*
X136086469Y-170382855D02*
G01*
X136817398Y-167992093D01*
X139255975Y-168737641D01*
X138525046Y-171128403D01*
X136086469Y-170382855D01*
X136086469Y-170382855D01*
G37*
D10*
X190612297Y-194502333D03*
D11*
G36*
X188961879Y-195183689D02*
G01*
X189898396Y-192865730D01*
X192262715Y-193820977D01*
X191326198Y-196138936D01*
X188961879Y-195183689D01*
X188961879Y-195183689D01*
G37*
D10*
X204405294Y-197335587D03*
D11*
G36*
X202754876Y-198016943D02*
G01*
X203691393Y-195698984D01*
X206055712Y-196654231D01*
X205119195Y-198972190D01*
X202754876Y-198016943D01*
X202754876Y-198016943D01*
G37*
D10*
X355516015Y-152800114D03*
D11*
G36*
X354662191Y-154368269D02*
G01*
X353931262Y-151977507D01*
X356369839Y-151231959D01*
X357100768Y-153622721D01*
X354662191Y-154368269D01*
X354662191Y-154368269D01*
G37*
D10*
X343013818Y-159278476D03*
D11*
G36*
X342159994Y-160846631D02*
G01*
X341429065Y-158455869D01*
X343867642Y-157710321D01*
X344598571Y-160101083D01*
X342159994Y-160846631D01*
X342159994Y-160846631D01*
G37*
G36*
X217161772Y-87857205D02*
G01*
X217186040Y-87860805D01*
X217209839Y-87866766D01*
X217232938Y-87875031D01*
X217255117Y-87885521D01*
X217276160Y-87898133D01*
X217295866Y-87912748D01*
X217314044Y-87929224D01*
X217330520Y-87947402D01*
X217345135Y-87967108D01*
X217357747Y-87988151D01*
X217368237Y-88010330D01*
X217376502Y-88033429D01*
X217382463Y-88057228D01*
X217386063Y-88081496D01*
X217387267Y-88106000D01*
X217387267Y-89006002D01*
X217386063Y-89030506D01*
X217382463Y-89054774D01*
X217376502Y-89078573D01*
X217368237Y-89101672D01*
X217357747Y-89123851D01*
X217345135Y-89144894D01*
X217330520Y-89164600D01*
X217314044Y-89182778D01*
X217295866Y-89199254D01*
X217276160Y-89213869D01*
X217255117Y-89226481D01*
X217232938Y-89236971D01*
X217209839Y-89245236D01*
X217186040Y-89251197D01*
X217161772Y-89254797D01*
X217137268Y-89256001D01*
X216487266Y-89256001D01*
X216462762Y-89254797D01*
X216438494Y-89251197D01*
X216414695Y-89245236D01*
X216391596Y-89236971D01*
X216369417Y-89226481D01*
X216348374Y-89213869D01*
X216328668Y-89199254D01*
X216310490Y-89182778D01*
X216294014Y-89164600D01*
X216279399Y-89144894D01*
X216266787Y-89123851D01*
X216256297Y-89101672D01*
X216248032Y-89078573D01*
X216242071Y-89054774D01*
X216238471Y-89030506D01*
X216237267Y-89006002D01*
X216237267Y-88106000D01*
X216238471Y-88081496D01*
X216242071Y-88057228D01*
X216248032Y-88033429D01*
X216256297Y-88010330D01*
X216266787Y-87988151D01*
X216279399Y-87967108D01*
X216294014Y-87947402D01*
X216310490Y-87929224D01*
X216328668Y-87912748D01*
X216348374Y-87898133D01*
X216369417Y-87885521D01*
X216391596Y-87875031D01*
X216414695Y-87866766D01*
X216438494Y-87860805D01*
X216462762Y-87857205D01*
X216487266Y-87856001D01*
X217137268Y-87856001D01*
X217161772Y-87857205D01*
X217161772Y-87857205D01*
G37*
D13*
X216812267Y-88556001D03*
D11*
G36*
X219211772Y-87857205D02*
G01*
X219236040Y-87860805D01*
X219259839Y-87866766D01*
X219282938Y-87875031D01*
X219305117Y-87885521D01*
X219326160Y-87898133D01*
X219345866Y-87912748D01*
X219364044Y-87929224D01*
X219380520Y-87947402D01*
X219395135Y-87967108D01*
X219407747Y-87988151D01*
X219418237Y-88010330D01*
X219426502Y-88033429D01*
X219432463Y-88057228D01*
X219436063Y-88081496D01*
X219437267Y-88106000D01*
X219437267Y-89006002D01*
X219436063Y-89030506D01*
X219432463Y-89054774D01*
X219426502Y-89078573D01*
X219418237Y-89101672D01*
X219407747Y-89123851D01*
X219395135Y-89144894D01*
X219380520Y-89164600D01*
X219364044Y-89182778D01*
X219345866Y-89199254D01*
X219326160Y-89213869D01*
X219305117Y-89226481D01*
X219282938Y-89236971D01*
X219259839Y-89245236D01*
X219236040Y-89251197D01*
X219211772Y-89254797D01*
X219187268Y-89256001D01*
X218537266Y-89256001D01*
X218512762Y-89254797D01*
X218488494Y-89251197D01*
X218464695Y-89245236D01*
X218441596Y-89236971D01*
X218419417Y-89226481D01*
X218398374Y-89213869D01*
X218378668Y-89199254D01*
X218360490Y-89182778D01*
X218344014Y-89164600D01*
X218329399Y-89144894D01*
X218316787Y-89123851D01*
X218306297Y-89101672D01*
X218298032Y-89078573D01*
X218292071Y-89054774D01*
X218288471Y-89030506D01*
X218287267Y-89006002D01*
X218287267Y-88106000D01*
X218288471Y-88081496D01*
X218292071Y-88057228D01*
X218298032Y-88033429D01*
X218306297Y-88010330D01*
X218316787Y-87988151D01*
X218329399Y-87967108D01*
X218344014Y-87947402D01*
X218360490Y-87929224D01*
X218378668Y-87912748D01*
X218398374Y-87898133D01*
X218419417Y-87885521D01*
X218441596Y-87875031D01*
X218464695Y-87866766D01*
X218488494Y-87860805D01*
X218512762Y-87857205D01*
X218537266Y-87856001D01*
X219187268Y-87856001D01*
X219211772Y-87857205D01*
X219211772Y-87857205D01*
G37*
D13*
X218862267Y-88556001D03*
D10*
X76167554Y-150246963D03*
D11*
G36*
X74582801Y-151069570D02*
G01*
X75313730Y-148678808D01*
X77752307Y-149424356D01*
X77021378Y-151815118D01*
X74582801Y-151069570D01*
X74582801Y-151069570D01*
G37*
D10*
X62180109Y-148626629D03*
D11*
G36*
X60595356Y-149449236D02*
G01*
X61326285Y-147058474D01*
X63764862Y-147804022D01*
X63033933Y-150194784D01*
X60595356Y-149449236D01*
X60595356Y-149449236D01*
G37*
D10*
X116671273Y-155647573D03*
D11*
G36*
X115086520Y-156470180D02*
G01*
X115817449Y-154079418D01*
X118256026Y-154824966D01*
X117525097Y-157215728D01*
X115086520Y-156470180D01*
X115086520Y-156470180D01*
G37*
D10*
X102683828Y-154027239D03*
D11*
G36*
X101099075Y-154849846D02*
G01*
X101830004Y-152459084D01*
X104268581Y-153204632D01*
X103537652Y-155595394D01*
X101099075Y-154849846D01*
X101099075Y-154849846D01*
G37*
D10*
X247293207Y-192623048D03*
D11*
G36*
X246579306Y-194259651D02*
G01*
X245642789Y-191941692D01*
X248007108Y-190986445D01*
X248943625Y-193304404D01*
X246579306Y-194259651D01*
X246579306Y-194259651D01*
G37*
D10*
X235403211Y-200166396D03*
D11*
G36*
X234689310Y-201802999D02*
G01*
X233752793Y-199485040D01*
X236117112Y-198529793D01*
X237053629Y-200847752D01*
X234689310Y-201802999D01*
X234689310Y-201802999D01*
G37*
D10*
X136354103Y-156253745D03*
D11*
G36*
X134769350Y-157076352D02*
G01*
X135500279Y-154685590D01*
X137938856Y-155431138D01*
X137207927Y-157821900D01*
X134769350Y-157076352D01*
X134769350Y-157076352D01*
G37*
D10*
X122366658Y-154633411D03*
D11*
G36*
X120781905Y-155456018D02*
G01*
X121512834Y-153065256D01*
X123951411Y-153810804D01*
X123220482Y-156201566D01*
X120781905Y-155456018D01*
X120781905Y-155456018D01*
G37*
D10*
X349960932Y-134630318D03*
D11*
G36*
X349107108Y-136198473D02*
G01*
X348376179Y-133807711D01*
X350814756Y-133062163D01*
X351545685Y-135452925D01*
X349107108Y-136198473D01*
X349107108Y-136198473D01*
G37*
D10*
X337458735Y-141108680D03*
D11*
G36*
X336604911Y-142676835D02*
G01*
X335873982Y-140286073D01*
X338312559Y-139540525D01*
X339043488Y-141931287D01*
X336604911Y-142676835D01*
X336604911Y-142676835D01*
G37*
D10*
X293498943Y-144909838D03*
D11*
G36*
X292645119Y-146477993D02*
G01*
X291914190Y-144087231D01*
X294352767Y-143341683D01*
X295083696Y-145732445D01*
X292645119Y-146477993D01*
X292645119Y-146477993D01*
G37*
D10*
X280996746Y-151388200D03*
D11*
G36*
X280142922Y-152956355D02*
G01*
X279411993Y-150565593D01*
X281850570Y-149820045D01*
X282581499Y-152210807D01*
X280142922Y-152956355D01*
X280142922Y-152956355D01*
G37*
D10*
X282017251Y-174538869D03*
D11*
G36*
X281218675Y-176135867D02*
G01*
X280404755Y-173772070D01*
X282815827Y-172941871D01*
X283629747Y-175305668D01*
X281218675Y-176135867D01*
X281218675Y-176135867D01*
G37*
D10*
X269748761Y-181449605D03*
D11*
G36*
X268950185Y-183046603D02*
G01*
X268136265Y-180682806D01*
X270547337Y-179852607D01*
X271361257Y-182216404D01*
X268950185Y-183046603D01*
X268950185Y-183046603D01*
G37*
D10*
X300406200Y-167502535D03*
D11*
G36*
X299552376Y-169070690D02*
G01*
X298821447Y-166679928D01*
X301260024Y-165934380D01*
X301990953Y-168325142D01*
X299552376Y-169070690D01*
X299552376Y-169070690D01*
G37*
D10*
X287904003Y-173980897D03*
D11*
G36*
X287050179Y-175549052D02*
G01*
X286319250Y-173158290D01*
X288757827Y-172412742D01*
X289488756Y-174803504D01*
X287050179Y-175549052D01*
X287050179Y-175549052D01*
G37*
D10*
X335393550Y-151969529D03*
D11*
G36*
X334539726Y-153537684D02*
G01*
X333808797Y-151146922D01*
X336247374Y-150401374D01*
X336978303Y-152792136D01*
X334539726Y-153537684D01*
X334539726Y-153537684D01*
G37*
D10*
X322891353Y-158447891D03*
D11*
G36*
X322037529Y-160016046D02*
G01*
X321306600Y-157625284D01*
X323745177Y-156879736D01*
X324476106Y-159270498D01*
X322037529Y-160016046D01*
X322037529Y-160016046D01*
G37*
D12*
X309442692Y-109636693D03*
D11*
G36*
X310067030Y-109968660D02*
G01*
X309110725Y-110261031D01*
X308818354Y-109304726D01*
X309774659Y-109012355D01*
X310067030Y-109968660D01*
X310067030Y-109968660D01*
G37*
D12*
X310173622Y-112027455D03*
D11*
G36*
X310797960Y-112359422D02*
G01*
X309841655Y-112651793D01*
X309549284Y-111695488D01*
X310505589Y-111403117D01*
X310797960Y-112359422D01*
X310797960Y-112359422D01*
G37*
D12*
X238536576Y-137656180D03*
D11*
G36*
X239160914Y-137988147D02*
G01*
X238204609Y-138280518D01*
X237912238Y-137324213D01*
X238868543Y-137031842D01*
X239160914Y-137988147D01*
X239160914Y-137988147D01*
G37*
D12*
X239267506Y-140046942D03*
D11*
G36*
X239891844Y-140378909D02*
G01*
X238935539Y-140671280D01*
X238643168Y-139714975D01*
X239599473Y-139422604D01*
X239891844Y-140378909D01*
X239891844Y-140378909D01*
G37*
D15*
X213867238Y-145804196D03*
X213867238Y-148304196D03*
D12*
X70558967Y-118133622D03*
D11*
G36*
X70890934Y-118757960D02*
G01*
X69934629Y-118465589D01*
X70227000Y-117509284D01*
X71183305Y-117801655D01*
X70890934Y-118757960D01*
X70890934Y-118757960D01*
G37*
D12*
X69828037Y-120524384D03*
D11*
G36*
X70160004Y-121148722D02*
G01*
X69203699Y-120856351D01*
X69496070Y-119900046D01*
X70452375Y-120192417D01*
X70160004Y-121148722D01*
X70160004Y-121148722D01*
G37*
D12*
X329565128Y-110467291D03*
D11*
G36*
X330189466Y-110799258D02*
G01*
X329233161Y-111091629D01*
X328940790Y-110135324D01*
X329897095Y-109842953D01*
X330189466Y-110799258D01*
X330189466Y-110799258D01*
G37*
D12*
X330296058Y-112858053D03*
D11*
G36*
X330920396Y-113190020D02*
G01*
X329964091Y-113482391D01*
X329671720Y-112526086D01*
X330628025Y-112233715D01*
X330920396Y-113190020D01*
X330920396Y-113190020D01*
G37*
D12*
X352157872Y-103560000D03*
D11*
G36*
X352782210Y-103891967D02*
G01*
X351825905Y-104184338D01*
X351533534Y-103228033D01*
X352489839Y-102935662D01*
X352782210Y-103891967D01*
X352782210Y-103891967D01*
G37*
D12*
X352888802Y-105950762D03*
D11*
G36*
X353513140Y-106282729D02*
G01*
X352556835Y-106575100D01*
X352264464Y-105618795D01*
X353220769Y-105326424D01*
X353513140Y-106282729D01*
X353513140Y-106282729D01*
G37*
D12*
X255305381Y-127518814D03*
D11*
G36*
X255929719Y-127850781D02*
G01*
X254973414Y-128143152D01*
X254681043Y-127186847D01*
X255637348Y-126894476D01*
X255929719Y-127850781D01*
X255929719Y-127850781D01*
G37*
D12*
X256036311Y-129909576D03*
D11*
G36*
X256660649Y-130241543D02*
G01*
X255704344Y-130533914D01*
X255411973Y-129577609D01*
X256368278Y-129285238D01*
X256660649Y-130241543D01*
X256660649Y-130241543D01*
G37*
D12*
X273103107Y-120746807D03*
D11*
G36*
X273727445Y-121078774D02*
G01*
X272771140Y-121371145D01*
X272478769Y-120414840D01*
X273435074Y-120122469D01*
X273727445Y-121078774D01*
X273727445Y-121078774D01*
G37*
D12*
X273834037Y-123137569D03*
D11*
G36*
X274458375Y-123469536D02*
G01*
X273502070Y-123761907D01*
X273209699Y-122805602D01*
X274166004Y-122513231D01*
X274458375Y-123469536D01*
X274458375Y-123469536D01*
G37*
D12*
X289759861Y-110242870D03*
D11*
G36*
X290384199Y-110574837D02*
G01*
X289427894Y-110867208D01*
X289135523Y-109910903D01*
X290091828Y-109618532D01*
X290384199Y-110574837D01*
X290384199Y-110574837D01*
G37*
D12*
X290490791Y-112633632D03*
D11*
G36*
X291115129Y-112965599D02*
G01*
X290158824Y-113257970D01*
X289866453Y-112301665D01*
X290822758Y-112009294D01*
X291115129Y-112965599D01*
X291115129Y-112965599D01*
G37*
D12*
X160723904Y-98980836D03*
D11*
G36*
X161055871Y-99605174D02*
G01*
X160099566Y-99312803D01*
X160391937Y-98356498D01*
X161348242Y-98648869D01*
X161055871Y-99605174D01*
X161055871Y-99605174D01*
G37*
D12*
X159992974Y-101371598D03*
D11*
G36*
X160324941Y-101995936D02*
G01*
X159368636Y-101703565D01*
X159661007Y-100747260D01*
X160617312Y-101039631D01*
X160324941Y-101995936D01*
X160324941Y-101995936D01*
G37*
D12*
X98706787Y-106871113D03*
D11*
G36*
X99038754Y-107495451D02*
G01*
X98082449Y-107203080D01*
X98374820Y-106246775D01*
X99331125Y-106539146D01*
X99038754Y-107495451D01*
X99038754Y-107495451D01*
G37*
D12*
X97975857Y-109261875D03*
D11*
G36*
X98307824Y-109886213D02*
G01*
X97351519Y-109593842D01*
X97643890Y-108637537D01*
X98600195Y-108929908D01*
X98307824Y-109886213D01*
X98307824Y-109886213D01*
G37*
D12*
X138512055Y-106646689D03*
D11*
G36*
X138844022Y-107271027D02*
G01*
X137887717Y-106978656D01*
X138180088Y-106022351D01*
X139136393Y-106314722D01*
X138844022Y-107271027D01*
X138844022Y-107271027D01*
G37*
D12*
X137781125Y-109037451D03*
D11*
G36*
X138113092Y-109661789D02*
G01*
X137156787Y-109369418D01*
X137449158Y-108413113D01*
X138405463Y-108705484D01*
X138113092Y-109661789D01*
X138113092Y-109661789D01*
G37*
D12*
X144067137Y-88476905D03*
D11*
G36*
X144399104Y-89101243D02*
G01*
X143442799Y-88808872D01*
X143735170Y-87852567D01*
X144691475Y-88144938D01*
X144399104Y-89101243D01*
X144399104Y-89101243D01*
G37*
D12*
X143336207Y-90867667D03*
D11*
G36*
X143668174Y-91492005D02*
G01*
X142711869Y-91199634D01*
X143004240Y-90243329D01*
X143960545Y-90535700D01*
X143668174Y-91492005D01*
X143668174Y-91492005D01*
G37*
D12*
X324010046Y-92297509D03*
D11*
G36*
X324634384Y-92629476D02*
G01*
X323678079Y-92921847D01*
X323385708Y-91965542D01*
X324342013Y-91673171D01*
X324634384Y-92629476D01*
X324634384Y-92629476D01*
G37*
D12*
X324740976Y-94688271D03*
D11*
G36*
X325365314Y-95020238D02*
G01*
X324409009Y-95312609D01*
X324116638Y-94356304D01*
X325072943Y-94063933D01*
X325365314Y-95020238D01*
X325365314Y-95020238D01*
G37*
D12*
X196691371Y-111307911D03*
D11*
G36*
X197023338Y-111932249D02*
G01*
X196067033Y-111639878D01*
X196359404Y-110683573D01*
X197315709Y-110975944D01*
X197023338Y-111932249D01*
X197023338Y-111932249D01*
G37*
D12*
X195960441Y-113698673D03*
D11*
G36*
X196292408Y-114323011D02*
G01*
X195336103Y-114030640D01*
X195628474Y-113074335D01*
X196584779Y-113366706D01*
X196292408Y-114323011D01*
X196292408Y-114323011D01*
G37*
D12*
X249750295Y-109349035D03*
D11*
G36*
X250374633Y-109681002D02*
G01*
X249418328Y-109973373D01*
X249125957Y-109017068D01*
X250082262Y-108724697D01*
X250374633Y-109681002D01*
X250374633Y-109681002D01*
G37*
D12*
X250481225Y-111739797D03*
D11*
G36*
X251105563Y-112071764D02*
G01*
X250149258Y-112364135D01*
X249856887Y-111407830D01*
X250813192Y-111115459D01*
X251105563Y-112071764D01*
X251105563Y-112071764D01*
G37*
D12*
X346602755Y-85390220D03*
D11*
G36*
X347227093Y-85722187D02*
G01*
X346270788Y-86014558D01*
X345978417Y-85058253D01*
X346934722Y-84765882D01*
X347227093Y-85722187D01*
X347227093Y-85722187D01*
G37*
D12*
X347333685Y-87780982D03*
D11*
G36*
X347958023Y-88112949D02*
G01*
X347001718Y-88405320D01*
X346709347Y-87449015D01*
X347665652Y-87156644D01*
X347958023Y-88112949D01*
X347958023Y-88112949D01*
G37*
D12*
X118829225Y-106040523D03*
D11*
G36*
X119161192Y-106664861D02*
G01*
X118204887Y-106372490D01*
X118497258Y-105416185D01*
X119453563Y-105708556D01*
X119161192Y-106664861D01*
X119161192Y-106664861D01*
G37*
D12*
X118098295Y-108431285D03*
D11*
G36*
X118430262Y-109055623D02*
G01*
X117473957Y-108763252D01*
X117766328Y-107806947D01*
X118722633Y-108099318D01*
X118430262Y-109055623D01*
X118430262Y-109055623D01*
G37*
D12*
X267548051Y-102577027D03*
D11*
G36*
X268172389Y-102908994D02*
G01*
X267216084Y-103201365D01*
X266923713Y-102245060D01*
X267880018Y-101952689D01*
X268172389Y-102908994D01*
X268172389Y-102908994D01*
G37*
D12*
X268278981Y-104967789D03*
D11*
G36*
X268903319Y-105299756D02*
G01*
X267947014Y-105592127D01*
X267654643Y-104635822D01*
X268610948Y-104343451D01*
X268903319Y-105299756D01*
X268903319Y-105299756D01*
G37*
D12*
X284204791Y-92073075D03*
D11*
G36*
X284829129Y-92405042D02*
G01*
X283872824Y-92697413D01*
X283580453Y-91741108D01*
X284536758Y-91448737D01*
X284829129Y-92405042D01*
X284829129Y-92405042D01*
G37*
D12*
X284935721Y-94463837D03*
D11*
G36*
X285560059Y-94795804D02*
G01*
X284603754Y-95088175D01*
X284311383Y-94131870D01*
X285267688Y-93839499D01*
X285560059Y-94795804D01*
X285560059Y-94795804D01*
G37*
D12*
X303887641Y-91466910D03*
D11*
G36*
X304511979Y-91798877D02*
G01*
X303555674Y-92091248D01*
X303263303Y-91134943D01*
X304219608Y-90842572D01*
X304511979Y-91798877D01*
X304511979Y-91798877D01*
G37*
D12*
X304618571Y-93857672D03*
D11*
G36*
X305242909Y-94189639D02*
G01*
X304286604Y-94482010D01*
X303994233Y-93525705D01*
X304950538Y-93233334D01*
X305242909Y-94189639D01*
X305242909Y-94189639D01*
G37*
D12*
X155168851Y-117150630D03*
D11*
G36*
X155500818Y-117774968D02*
G01*
X154544513Y-117482597D01*
X154836884Y-116526292D01*
X155793189Y-116818663D01*
X155500818Y-117774968D01*
X155500818Y-117774968D01*
G37*
D12*
X154437921Y-119541392D03*
D11*
G36*
X154769888Y-120165730D02*
G01*
X153813583Y-119873359D01*
X154105954Y-118917054D01*
X155062259Y-119209425D01*
X154769888Y-120165730D01*
X154769888Y-120165730D01*
G37*
D12*
X76114047Y-99963823D03*
D11*
G36*
X76446014Y-100588161D02*
G01*
X75489709Y-100295790D01*
X75782080Y-99339485D01*
X76738385Y-99631856D01*
X76446014Y-100588161D01*
X76446014Y-100588161D01*
G37*
D12*
X75383117Y-102354585D03*
D11*
G36*
X75715084Y-102978923D02*
G01*
X74758779Y-102686552D01*
X75051150Y-101730247D01*
X76007455Y-102022618D01*
X75715084Y-102978923D01*
X75715084Y-102978923D01*
G37*
D12*
X172966549Y-123922641D03*
D11*
G36*
X173298516Y-124546979D02*
G01*
X172342211Y-124254608D01*
X172634582Y-123298303D01*
X173590887Y-123590674D01*
X173298516Y-124546979D01*
X173298516Y-124546979D01*
G37*
D12*
X172235619Y-126313403D03*
D11*
G36*
X172567586Y-126937741D02*
G01*
X171611281Y-126645370D01*
X171903652Y-125689065D01*
X172859957Y-125981436D01*
X172567586Y-126937741D01*
X172567586Y-126937741D01*
G37*
D12*
X231580557Y-114904089D03*
D11*
G36*
X232204895Y-115236056D02*
G01*
X231248590Y-115528427D01*
X230956219Y-114572122D01*
X231912524Y-114279751D01*
X232204895Y-115236056D01*
X232204895Y-115236056D01*
G37*
D12*
X232311487Y-117294851D03*
D11*
G36*
X232935825Y-117626818D02*
G01*
X231979520Y-117919189D01*
X231687149Y-116962884D01*
X232643454Y-116670513D01*
X232935825Y-117626818D01*
X232935825Y-117626818D01*
G37*
D12*
X189735373Y-134059993D03*
D11*
G36*
X190067340Y-134684331D02*
G01*
X189111035Y-134391960D01*
X189403406Y-133435655D01*
X190359711Y-133728026D01*
X190067340Y-134684331D01*
X190067340Y-134684331D01*
G37*
D12*
X189004443Y-136450755D03*
D11*
G36*
X189336410Y-137075093D02*
G01*
X188380105Y-136782722D01*
X188672476Y-135826417D01*
X189628781Y-136118788D01*
X189336410Y-137075093D01*
X189336410Y-137075093D01*
G37*
D12*
X178521603Y-105752859D03*
D11*
G36*
X178853570Y-106377197D02*
G01*
X177897265Y-106084826D01*
X178189636Y-105128521D01*
X179145941Y-105420892D01*
X178853570Y-106377197D01*
X178853570Y-106377197D01*
G37*
D12*
X177790673Y-108143621D03*
D11*
G36*
X178122640Y-108767959D02*
G01*
X177166335Y-108475588D01*
X177458706Y-107519283D01*
X178415011Y-107811654D01*
X178122640Y-108767959D01*
X178122640Y-108767959D01*
G37*
D10*
X141909182Y-138083950D03*
D11*
G36*
X140324429Y-138906557D02*
G01*
X141055358Y-136515795D01*
X143493935Y-137261343D01*
X142763006Y-139652105D01*
X140324429Y-138906557D01*
X140324429Y-138906557D01*
G37*
D10*
X127921737Y-136463616D03*
D11*
G36*
X126336984Y-137286223D02*
G01*
X127067913Y-134895461D01*
X129506490Y-135641009D01*
X128775561Y-138031771D01*
X126336984Y-137286223D01*
X126336984Y-137286223D01*
G37*
D10*
X176363657Y-155359889D03*
D11*
G36*
X174778904Y-156182496D02*
G01*
X175509833Y-153791734D01*
X177948410Y-154537282D01*
X177217481Y-156928044D01*
X174778904Y-156182496D01*
X174778904Y-156182496D01*
G37*
D10*
X162376212Y-153739555D03*
D11*
G36*
X160791459Y-154562162D02*
G01*
X161522388Y-152171400D01*
X163960965Y-152916948D01*
X163230036Y-155307710D01*
X160791459Y-154562162D01*
X160791459Y-154562162D01*
G37*
D10*
X211522818Y-179719079D03*
D11*
G36*
X209872400Y-180400435D02*
G01*
X210808917Y-178082476D01*
X213173236Y-179037723D01*
X212236719Y-181355682D01*
X209872400Y-180400435D01*
X209872400Y-180400435D01*
G37*
D10*
X197729821Y-176885825D03*
D11*
G36*
X196079403Y-177567181D02*
G01*
X197015920Y-175249222D01*
X199380239Y-176204469D01*
X198443722Y-178522428D01*
X196079403Y-177567181D01*
X196079403Y-177567181D01*
G37*
D10*
X240175686Y-175006550D03*
D11*
G36*
X239461785Y-176643153D02*
G01*
X238525268Y-174325194D01*
X240889587Y-173369947D01*
X241826104Y-175687906D01*
X239461785Y-176643153D01*
X239461785Y-176643153D01*
G37*
D10*
X228285690Y-182549898D03*
D11*
G36*
X227571789Y-184186501D02*
G01*
X226635272Y-181868542D01*
X228999591Y-180913295D01*
X229936108Y-183231254D01*
X227571789Y-184186501D01*
X227571789Y-184186501D01*
G37*
D10*
X270146156Y-133512056D03*
D11*
G36*
X269292332Y-135080211D02*
G01*
X268561403Y-132689449D01*
X270999980Y-131943901D01*
X271730909Y-134334663D01*
X269292332Y-135080211D01*
X269292332Y-135080211D01*
G37*
D10*
X257643959Y-139990418D03*
D11*
G36*
X256790135Y-141558573D02*
G01*
X256059206Y-139167811D01*
X258497783Y-138422263D01*
X259228712Y-140813025D01*
X256790135Y-141558573D01*
X256790135Y-141558573D01*
G37*
D10*
X158565956Y-148587880D03*
D11*
G36*
X156981203Y-149410487D02*
G01*
X157712132Y-147019725D01*
X160150709Y-147765273D01*
X159419780Y-150156035D01*
X156981203Y-149410487D01*
X156981203Y-149410487D01*
G37*
D10*
X144578511Y-146967546D03*
D11*
G36*
X142993758Y-147790153D02*
G01*
X143724687Y-145399391D01*
X146163264Y-146144939D01*
X145432335Y-148535701D01*
X142993758Y-147790153D01*
X142993758Y-147790153D01*
G37*
D10*
X275701210Y-151681835D03*
D11*
G36*
X274847386Y-153249990D02*
G01*
X274116457Y-150859228D01*
X276555034Y-150113680D01*
X277285963Y-152504442D01*
X274847386Y-153249990D01*
X274847386Y-153249990D01*
G37*
D10*
X263199013Y-158160197D03*
D11*
G36*
X262345189Y-159728352D02*
G01*
X261614260Y-157337590D01*
X264052837Y-156592042D01*
X264783766Y-158982804D01*
X262345189Y-159728352D01*
X262345189Y-159728352D01*
G37*
D10*
X256130466Y-152654618D03*
D11*
G36*
X255276642Y-154222773D02*
G01*
X254545713Y-151832011D01*
X256984290Y-151086463D01*
X257715219Y-153477225D01*
X255276642Y-154222773D01*
X255276642Y-154222773D01*
G37*
D10*
X243628269Y-159132980D03*
D11*
G36*
X242774445Y-160701135D02*
G01*
X242043516Y-158310373D01*
X244482093Y-157564825D01*
X245213022Y-159955587D01*
X242774445Y-160701135D01*
X242774445Y-160701135D01*
G37*
D10*
X122226359Y-137477780D03*
D11*
G36*
X120641606Y-138300387D02*
G01*
X121372535Y-135909625D01*
X123811112Y-136655173D01*
X123080183Y-139045935D01*
X120641606Y-138300387D01*
X120641606Y-138300387D01*
G37*
D10*
X108238914Y-135857446D03*
D11*
G36*
X106654161Y-136680053D02*
G01*
X107385090Y-134289291D01*
X109823667Y-135034839D01*
X109092738Y-137425601D01*
X106654161Y-136680053D01*
X106654161Y-136680053D01*
G37*
D10*
X304600642Y-116236122D03*
D11*
G36*
X303746818Y-117804277D02*
G01*
X303015889Y-115413515D01*
X305454466Y-114667967D01*
X306185395Y-117058729D01*
X303746818Y-117804277D01*
X303746818Y-117804277D01*
G37*
D10*
X292098445Y-122714484D03*
D11*
G36*
X291244621Y-124282639D02*
G01*
X290513692Y-121891877D01*
X292952269Y-121146329D01*
X293683198Y-123537091D01*
X291244621Y-124282639D01*
X291244621Y-124282639D01*
G37*
D10*
X366998612Y-109553234D03*
D11*
G36*
X366144788Y-111121389D02*
G01*
X365413859Y-108730627D01*
X367852436Y-107985079D01*
X368583365Y-110375841D01*
X366144788Y-111121389D01*
X366144788Y-111121389D01*
G37*
D10*
X354496415Y-116031596D03*
D11*
G36*
X353642591Y-117599751D02*
G01*
X352911662Y-115208989D01*
X355350239Y-114463441D01*
X356081168Y-116854203D01*
X353642591Y-117599751D01*
X353642591Y-117599751D01*
G37*
D10*
X79511152Y-131401058D03*
D11*
G36*
X77926399Y-132223665D02*
G01*
X78657328Y-129832903D01*
X81095905Y-130578451D01*
X80364976Y-132969213D01*
X77926399Y-132223665D01*
X77926399Y-132223665D01*
G37*
D10*
X65523707Y-129780724D03*
D11*
G36*
X63938954Y-130603331D02*
G01*
X64669883Y-128212569D01*
X67108460Y-128958117D01*
X66377531Y-131348879D01*
X63938954Y-130603331D01*
X63938954Y-130603331D01*
G37*
D10*
X324283440Y-115629938D03*
D11*
G36*
X323429616Y-117198093D02*
G01*
X322698687Y-114807331D01*
X325137264Y-114061783D01*
X325868193Y-116452545D01*
X323429616Y-117198093D01*
X323429616Y-117198093D01*
G37*
D10*
X311781243Y-122108300D03*
D11*
G36*
X310927419Y-123676455D02*
G01*
X310196490Y-121285693D01*
X312635067Y-120540145D01*
X313365996Y-122930907D01*
X310927419Y-123676455D01*
X310927419Y-123676455D01*
G37*
D10*
X195934356Y-156332653D03*
D11*
G36*
X194349603Y-157155260D02*
G01*
X195080532Y-154764498D01*
X197519109Y-155510046D01*
X196788180Y-157900808D01*
X194349603Y-157155260D01*
X194349603Y-157155260D01*
G37*
D10*
X181946911Y-154712319D03*
D11*
G36*
X180362158Y-155534926D02*
G01*
X181093087Y-153144164D01*
X183531664Y-153889712D01*
X182800735Y-156280474D01*
X180362158Y-155534926D01*
X180362158Y-155534926D01*
G37*
D10*
X287943887Y-126740053D03*
D11*
G36*
X287090063Y-128308208D02*
G01*
X286359134Y-125917446D01*
X288797711Y-125171898D01*
X289528640Y-127562660D01*
X287090063Y-128308208D01*
X287090063Y-128308208D01*
G37*
D10*
X275441690Y-133218415D03*
D11*
G36*
X274587866Y-134786570D02*
G01*
X273856937Y-132395808D01*
X276295514Y-131650260D01*
X277026443Y-134041022D01*
X274587866Y-134786570D01*
X274587866Y-134786570D01*
G37*
D16*
X226307265Y-155874547D03*
X212457265Y-158414547D03*
D10*
X344405878Y-116460525D03*
D11*
G36*
X343552054Y-118028680D02*
G01*
X342821125Y-115637918D01*
X345259702Y-114892370D01*
X345990631Y-117283132D01*
X343552054Y-118028680D01*
X343552054Y-118028680D01*
G37*
D10*
X331903681Y-122938887D03*
D11*
G36*
X331049857Y-124507042D02*
G01*
X330318928Y-122116280D01*
X332757505Y-121370732D01*
X333488434Y-123761494D01*
X331049857Y-124507042D01*
X331049857Y-124507042D01*
G37*
D10*
X102103888Y-138308347D03*
D11*
G36*
X100519135Y-139130954D02*
G01*
X101250064Y-136740192D01*
X103688641Y-137485740D01*
X102957712Y-139876502D01*
X100519135Y-139130954D01*
X100519135Y-139130954D01*
G37*
D10*
X88116443Y-136688013D03*
D11*
G36*
X86531690Y-137510620D02*
G01*
X87262619Y-135119858D01*
X89701196Y-135865406D01*
X88970267Y-138256168D01*
X86531690Y-137510620D01*
X86531690Y-137510620D01*
G37*
D10*
X264591076Y-115342241D03*
D11*
G36*
X263737252Y-116910396D02*
G01*
X263006323Y-114519634D01*
X265444900Y-113774086D01*
X266175829Y-116164848D01*
X263737252Y-116910396D01*
X263737252Y-116910396D01*
G37*
D10*
X252088879Y-121820603D03*
D11*
G36*
X251235055Y-123388758D02*
G01*
X250504126Y-120997996D01*
X252942703Y-120252448D01*
X253673632Y-122643210D01*
X251235055Y-123388758D01*
X251235055Y-123388758D01*
G37*
D10*
X169676093Y-112248283D03*
D11*
G36*
X168091340Y-113070890D02*
G01*
X168822269Y-110680128D01*
X171260846Y-111425676D01*
X170529917Y-113816438D01*
X168091340Y-113070890D01*
X168091340Y-113070890D01*
G37*
D10*
X155688648Y-110627949D03*
D11*
G36*
X154103895Y-111450556D02*
G01*
X154834824Y-109059794D01*
X157273401Y-109805342D01*
X156542472Y-112196104D01*
X154103895Y-111450556D01*
X154103895Y-111450556D01*
G37*
D10*
X282388802Y-108570233D03*
D11*
G36*
X281534978Y-110138388D02*
G01*
X280804049Y-107747626D01*
X283242626Y-107002078D01*
X283973555Y-109392840D01*
X281534978Y-110138388D01*
X281534978Y-110138388D01*
G37*
D10*
X269886605Y-115048595D03*
D11*
G36*
X269032781Y-116616750D02*
G01*
X268301852Y-114225988D01*
X270740429Y-113480440D01*
X271471358Y-115871202D01*
X269032781Y-116616750D01*
X269032781Y-116616750D01*
G37*
D10*
X318728354Y-97460119D03*
D11*
G36*
X317874530Y-99028274D02*
G01*
X317143601Y-96637512D01*
X319582178Y-95891964D01*
X320313107Y-98282726D01*
X317874530Y-99028274D01*
X317874530Y-99028274D01*
G37*
D10*
X306226157Y-103938481D03*
D11*
G36*
X305372333Y-105506636D02*
G01*
X304641404Y-103115874D01*
X307079981Y-102370326D01*
X307810910Y-104761088D01*
X305372333Y-105506636D01*
X305372333Y-105506636D01*
G37*
D10*
X204242615Y-129157641D03*
D11*
G36*
X202657862Y-129980248D02*
G01*
X203388791Y-127589486D01*
X205827368Y-128335034D01*
X205096439Y-130725796D01*
X202657862Y-129980248D01*
X202657862Y-129980248D01*
G37*
D10*
X190255170Y-127537307D03*
D11*
G36*
X188670417Y-128359914D02*
G01*
X189401346Y-125969152D01*
X191839923Y-126714700D01*
X191108994Y-129105462D01*
X188670417Y-128359914D01*
X188670417Y-128359914D01*
G37*
D10*
X107658972Y-120138575D03*
D11*
G36*
X106074219Y-120961182D02*
G01*
X106805148Y-118570420D01*
X109243725Y-119315968D01*
X108512796Y-121706730D01*
X106074219Y-120961182D01*
X106074219Y-120961182D01*
G37*
D10*
X93671527Y-118518241D03*
D11*
G36*
X92086774Y-119340848D02*
G01*
X92817703Y-116950086D01*
X95256280Y-117695634D01*
X94525351Y-120086396D01*
X92086774Y-119340848D01*
X92086774Y-119340848D01*
G37*
D16*
X226307262Y-136874554D03*
X212457262Y-139414554D03*
D10*
X147464242Y-119914160D03*
D11*
G36*
X145879489Y-120736767D02*
G01*
X146610418Y-118346005D01*
X149048995Y-119091553D01*
X148318066Y-121482315D01*
X145879489Y-120736767D01*
X145879489Y-120736767D01*
G37*
D10*
X133476797Y-118293826D03*
D11*
G36*
X131892044Y-119116433D02*
G01*
X132622973Y-116725671D01*
X135061550Y-117471219D01*
X134330621Y-119861981D01*
X131892044Y-119116433D01*
X131892044Y-119116433D01*
G37*
D10*
X164121008Y-130418087D03*
D11*
G36*
X162536255Y-131240694D02*
G01*
X163267184Y-128849932D01*
X165705761Y-129595480D01*
X164974832Y-131986242D01*
X162536255Y-131240694D01*
X162536255Y-131240694D01*
G37*
D10*
X150133563Y-128797753D03*
D11*
G36*
X148548810Y-129620360D02*
G01*
X149279739Y-127229598D01*
X151718316Y-127975146D01*
X150987387Y-130365908D01*
X148548810Y-129620360D01*
X148548810Y-129620360D01*
G37*
D10*
X187473796Y-119020292D03*
D11*
G36*
X185889043Y-119842899D02*
G01*
X186619972Y-117452137D01*
X189058549Y-118197685D01*
X188327620Y-120588447D01*
X185889043Y-119842899D01*
X185889043Y-119842899D01*
G37*
D10*
X173486351Y-117399958D03*
D11*
G36*
X171901598Y-118222565D02*
G01*
X172632527Y-115831803D01*
X175071104Y-116577351D01*
X174340175Y-118968113D01*
X171901598Y-118222565D01*
X171901598Y-118222565D01*
G37*
D10*
X361443566Y-91383420D03*
D11*
G36*
X360589742Y-92951575D02*
G01*
X359858813Y-90560813D01*
X362297390Y-89815265D01*
X363028319Y-92206027D01*
X360589742Y-92951575D01*
X360589742Y-92951575D01*
G37*
D10*
X348941369Y-97861782D03*
D11*
G36*
X348087545Y-99429937D02*
G01*
X347356616Y-97039175D01*
X349795193Y-96293627D01*
X350526122Y-98684389D01*
X348087545Y-99429937D01*
X348087545Y-99429937D01*
G37*
D10*
X338850825Y-98290718D03*
D11*
G36*
X337997001Y-99858873D02*
G01*
X337266072Y-97468111D01*
X339704649Y-96722563D01*
X340435578Y-99113325D01*
X337997001Y-99858873D01*
X337997001Y-99858873D01*
G37*
D10*
X326348628Y-104769080D03*
D11*
G36*
X325494804Y-106337235D02*
G01*
X324763875Y-103946473D01*
X327202452Y-103200925D01*
X327933381Y-105591687D01*
X325494804Y-106337235D01*
X325494804Y-106337235D01*
G37*
D10*
X299045556Y-98066302D03*
D11*
G36*
X298191732Y-99634457D02*
G01*
X297460803Y-97243695D01*
X299899380Y-96498147D01*
X300630309Y-98888909D01*
X298191732Y-99634457D01*
X298191732Y-99634457D01*
G37*
D10*
X286543359Y-104544664D03*
D11*
G36*
X285689535Y-106112819D02*
G01*
X284958606Y-103722057D01*
X287397183Y-102976509D01*
X288128112Y-105367271D01*
X285689535Y-106112819D01*
X285689535Y-106112819D01*
G37*
D10*
X85066203Y-113231274D03*
D11*
G36*
X83481450Y-114053881D02*
G01*
X84212379Y-111663119D01*
X86650956Y-112408667D01*
X85920027Y-114799429D01*
X83481450Y-114053881D01*
X83481450Y-114053881D01*
G37*
D10*
X71078758Y-111610940D03*
D11*
G36*
X69494005Y-112433547D02*
G01*
X70224934Y-110042785D01*
X72663511Y-110788333D01*
X71932582Y-113179095D01*
X69494005Y-112433547D01*
X69494005Y-112433547D01*
G37*
D10*
X247822276Y-125479599D03*
D11*
G36*
X246968452Y-127047754D02*
G01*
X246237523Y-124656992D01*
X248676100Y-123911444D01*
X249407029Y-126302206D01*
X246968452Y-127047754D01*
X246968452Y-127047754D01*
G37*
D10*
X235320079Y-131957961D03*
D11*
G36*
X234466255Y-133526116D02*
G01*
X233735326Y-131135354D01*
X236173903Y-130389806D01*
X236904832Y-132780568D01*
X234466255Y-133526116D01*
X234466255Y-133526116D01*
G37*
D10*
X127781408Y-119307997D03*
D11*
G36*
X126196655Y-120130604D02*
G01*
X126927584Y-117739842D01*
X129366161Y-118485390D01*
X128635232Y-120876152D01*
X126196655Y-120130604D01*
X126196655Y-120130604D01*
G37*
D10*
X113793963Y-117687663D03*
D11*
G36*
X112209210Y-118510270D02*
G01*
X112940139Y-116119508D01*
X115378716Y-116865056D01*
X114647787Y-119255818D01*
X112209210Y-118510270D01*
X112209210Y-118510270D01*
G37*
D10*
X181918737Y-137190093D03*
D11*
G36*
X180333984Y-138012700D02*
G01*
X181064913Y-135621938D01*
X183503490Y-136367486D01*
X182772561Y-138758248D01*
X180333984Y-138012700D01*
X180333984Y-138012700D01*
G37*
D10*
X167931292Y-135569759D03*
D11*
G36*
X166346539Y-136392366D02*
G01*
X167077468Y-134001604D01*
X169516045Y-134747152D01*
X168785116Y-137137914D01*
X166346539Y-136392366D01*
X166346539Y-136392366D01*
G37*
D10*
X153019290Y-101744333D03*
D11*
G36*
X151434537Y-102566940D02*
G01*
X152165466Y-100176178D01*
X154604043Y-100921726D01*
X153873114Y-103312488D01*
X151434537Y-102566940D01*
X151434537Y-102566940D01*
G37*
D10*
X139031845Y-100123999D03*
D11*
G36*
X137447092Y-100946606D02*
G01*
X138178021Y-98555844D01*
X140616598Y-99301392D01*
X139885669Y-101692154D01*
X137447092Y-100946606D01*
X137447092Y-100946606D01*
G37*
D12*
X113274175Y-124210347D03*
D11*
G36*
X113606142Y-124834685D02*
G01*
X112649837Y-124542314D01*
X112942208Y-123586009D01*
X113898513Y-123878380D01*
X113606142Y-124834685D01*
X113606142Y-124834685D01*
G37*
D12*
X112543245Y-126601109D03*
D11*
G36*
X112875212Y-127225447D02*
G01*
X111918907Y-126933076D01*
X112211278Y-125976771D01*
X113167583Y-126269142D01*
X112875212Y-127225447D01*
X112875212Y-127225447D01*
G37*
D12*
X132957000Y-124816509D03*
D11*
G36*
X133288967Y-125440847D02*
G01*
X132332662Y-125148476D01*
X132625033Y-124192171D01*
X133581338Y-124484542D01*
X133288967Y-125440847D01*
X133288967Y-125440847D01*
G37*
D12*
X132226070Y-127207271D03*
D11*
G36*
X132558037Y-127831609D02*
G01*
X131601732Y-127539238D01*
X131894103Y-126582933D01*
X132850408Y-126875304D01*
X132558037Y-127831609D01*
X132558037Y-127831609D01*
G37*
D12*
X181427125Y-161235003D03*
D11*
G36*
X181759092Y-161859341D02*
G01*
X180802787Y-161566970D01*
X181095158Y-160610665D01*
X182051463Y-160903036D01*
X181759092Y-161859341D01*
X181759092Y-161859341D01*
G37*
D12*
X180696195Y-163625765D03*
D11*
G36*
X181028162Y-164250103D02*
G01*
X180071857Y-163957732D01*
X180364228Y-163001427D01*
X181320533Y-163293798D01*
X181028162Y-164250103D01*
X181028162Y-164250103D01*
G37*
D12*
X93151734Y-125040929D03*
D11*
G36*
X93483701Y-125665267D02*
G01*
X92527396Y-125372896D01*
X92819767Y-124416591D01*
X93776072Y-124708962D01*
X93483701Y-125665267D01*
X93483701Y-125665267D01*
G37*
D12*
X92420804Y-127431691D03*
D11*
G36*
X92752771Y-128056029D02*
G01*
X91796466Y-127763658D01*
X92088837Y-126807353D01*
X93045142Y-127099724D01*
X92752771Y-128056029D01*
X92752771Y-128056029D01*
G37*
D12*
X149613768Y-135320439D03*
D11*
G36*
X149945735Y-135944777D02*
G01*
X148989430Y-135652406D01*
X149281801Y-134696101D01*
X150238106Y-134988472D01*
X149945735Y-135944777D01*
X149945735Y-135944777D01*
G37*
D12*
X148882838Y-137711201D03*
D11*
G36*
X149214805Y-138335539D02*
G01*
X148258500Y-138043168D01*
X148550871Y-137086863D01*
X149507176Y-137379234D01*
X149214805Y-138335539D01*
X149214805Y-138335539D01*
G37*
D12*
X167411501Y-142092441D03*
D11*
G36*
X167743468Y-142716779D02*
G01*
X166787163Y-142424408D01*
X167079534Y-141468103D01*
X168035839Y-141760474D01*
X167743468Y-142716779D01*
X167743468Y-142716779D01*
G37*
D12*
X166680571Y-144483203D03*
D11*
G36*
X167012538Y-145107541D02*
G01*
X166056233Y-144815170D01*
X166348604Y-143858865D01*
X167304909Y-144151236D01*
X167012538Y-145107541D01*
X167012538Y-145107541D01*
G37*
D12*
X246844776Y-164831196D03*
D11*
G36*
X247469114Y-165163163D02*
G01*
X246512809Y-165455534D01*
X246220438Y-164499229D01*
X247176743Y-164206858D01*
X247469114Y-165163163D01*
X247469114Y-165163163D01*
G37*
D12*
X247575706Y-167221958D03*
D11*
G36*
X248200044Y-167553925D02*
G01*
X247243739Y-167846296D01*
X246951368Y-166889991D01*
X247907673Y-166597620D01*
X248200044Y-167553925D01*
X248200044Y-167553925D01*
G37*
D15*
X213867238Y-164804187D03*
X213867238Y-167304187D03*
D12*
X260860466Y-145688631D03*
D11*
G36*
X261484804Y-146020598D02*
G01*
X260528499Y-146312969D01*
X260236128Y-145356664D01*
X261192433Y-145064293D01*
X261484804Y-146020598D01*
X261484804Y-146020598D01*
G37*
D12*
X261591396Y-148079393D03*
D11*
G36*
X262215734Y-148411360D02*
G01*
X261259429Y-148703731D01*
X260967058Y-147747426D01*
X261923363Y-147455055D01*
X262215734Y-148411360D01*
X262215734Y-148411360D01*
G37*
M02*
