G04 #@! TF.GenerationSoftware,KiCad,Pcbnew,(5.1.4)-1*
G04 #@! TF.CreationDate,2019-11-21T23:19:01-08:00*
G04 #@! TF.ProjectId,AODox,414f446f-782e-46b6-9963-61645f706362,v2*
G04 #@! TF.SameCoordinates,Original*
G04 #@! TF.FileFunction,Profile,NP*
%FSLAX46Y46*%
G04 Gerber Fmt 4.6, Leading zero omitted, Abs format (unit mm)*
G04 Created by KiCad (PCBNEW (5.1.4)-1) date 2019-11-21 23:19:01*
%MOMM*%
%LPD*%
G04 APERTURE LIST*
%ADD10C,0.100000*%
G04 APERTURE END LIST*
D10*
X211712655Y-69219827D02*
X211712655Y-69219827D01*
X213621255Y-62974257D02*
X211712655Y-69219827D01*
X213660870Y-62877877D02*
X213621255Y-62974257D01*
X213717442Y-62788108D02*
X213660870Y-62877877D01*
X213788372Y-62706873D02*
X213717442Y-62788108D01*
X213871063Y-62636097D02*
X213788372Y-62706873D01*
X213962916Y-62577700D02*
X213871063Y-62636097D01*
X214061333Y-62533608D02*
X213962916Y-62577700D01*
X214163715Y-62505742D02*
X214061333Y-62533608D01*
X214267465Y-62496026D02*
X214163715Y-62505742D01*
X225767355Y-62496126D02*
X214267465Y-62496026D01*
X225871102Y-62505842D02*
X225767355Y-62496126D01*
X225973481Y-62533708D02*
X225871102Y-62505842D01*
X226071896Y-62577801D02*
X225973481Y-62533708D01*
X226163746Y-62636198D02*
X226071896Y-62577801D01*
X226246434Y-62706976D02*
X226163746Y-62636198D01*
X226317360Y-62788212D02*
X226246434Y-62706976D01*
X226373927Y-62877983D02*
X226317360Y-62788212D01*
X226413535Y-62974367D02*
X226373927Y-62877983D01*
X228321165Y-69217967D02*
X226413535Y-62974367D01*
X228360773Y-69314351D02*
X228321165Y-69217967D01*
X228417338Y-69404122D02*
X228360773Y-69314351D01*
X228488263Y-69485358D02*
X228417338Y-69404122D01*
X228570950Y-69556136D02*
X228488263Y-69485358D01*
X228662800Y-69614533D02*
X228570950Y-69556136D01*
X228761214Y-69658625D02*
X228662800Y-69614533D01*
X228863596Y-69686491D02*
X228761214Y-69658625D01*
X228967345Y-69696207D02*
X228863596Y-69686491D01*
X357066965Y-69695357D02*
X228967345Y-69696207D01*
X357170711Y-69705072D02*
X357066965Y-69695357D01*
X357273091Y-69732937D02*
X357170711Y-69705072D01*
X357371508Y-69777027D02*
X357273091Y-69732937D01*
X357463364Y-69835421D02*
X357371508Y-69777027D01*
X357546062Y-69906194D02*
X357463364Y-69835421D01*
X357617004Y-69987425D02*
X357546062Y-69906194D01*
X357673594Y-70077190D02*
X357617004Y-69987425D01*
X357713235Y-70173567D02*
X357673594Y-70077190D01*
X384257555Y-156991351D02*
X357713235Y-70173567D01*
X384277464Y-157091171D02*
X384257555Y-156991351D01*
X384277499Y-157190817D02*
X384277464Y-157091171D01*
X384258963Y-157287684D02*
X384277499Y-157190817D01*
X384223160Y-157379169D02*
X384258963Y-157287684D01*
X384171393Y-157462665D02*
X384223160Y-157379169D01*
X384104966Y-157535570D02*
X384171393Y-157462665D01*
X384025182Y-157595278D02*
X384104966Y-157535570D01*
X383933345Y-157639184D02*
X384025182Y-157595278D01*
X239286935Y-209798124D02*
X383933345Y-157639184D01*
X239186278Y-209824008D02*
X239286935Y-209798124D01*
X239081191Y-209832033D02*
X239186278Y-209824008D01*
X238974724Y-209823162D02*
X239081191Y-209832033D01*
X238869927Y-209798355D02*
X238974724Y-209823162D01*
X238769851Y-209758575D02*
X238869927Y-209798355D01*
X238677545Y-209704784D02*
X238769851Y-209758575D01*
X238596060Y-209637943D02*
X238677545Y-209704784D01*
X238528445Y-209559014D02*
X238596060Y-209637943D01*
X226925275Y-193095704D02*
X238528445Y-209559014D01*
X226857055Y-193013328D02*
X226925275Y-193095704D01*
X226773840Y-192936603D02*
X226857055Y-193013328D01*
X226575102Y-192806676D02*
X226773840Y-192936603D01*
X226354416Y-192719077D02*
X226575102Y-192806676D01*
X226243765Y-192695259D02*
X226354416Y-192719077D01*
X226137135Y-192686954D02*
X226243765Y-192695259D01*
X213897255Y-192686954D02*
X226137135Y-192686954D01*
X213790622Y-192695259D02*
X213897255Y-192686954D01*
X213679968Y-192719077D02*
X213790622Y-192695259D01*
X213459280Y-192806676D02*
X213679968Y-192719077D01*
X213260545Y-192936603D02*
X213459280Y-192806676D01*
X213177332Y-193013328D02*
X213260545Y-192936603D01*
X213109115Y-193095704D02*
X213177332Y-193013328D01*
X201505866Y-209559014D02*
X213109115Y-193095704D01*
X201438251Y-209637935D02*
X201505866Y-209559014D01*
X201356766Y-209704773D02*
X201438251Y-209637935D01*
X201264459Y-209758565D02*
X201356766Y-209704773D01*
X201164382Y-209798348D02*
X201264459Y-209758565D01*
X201059584Y-209823158D02*
X201164382Y-209798348D01*
X200953116Y-209832033D02*
X201059584Y-209823158D01*
X200848026Y-209824010D02*
X200953116Y-209832033D01*
X200747366Y-209798124D02*
X200848026Y-209824010D01*
X56101125Y-157639194D02*
X200747366Y-209798124D01*
X56009294Y-157595293D02*
X56101125Y-157639194D01*
X55929517Y-157535588D02*
X56009294Y-157595293D01*
X55863098Y-157462684D02*
X55929517Y-157535588D01*
X55811337Y-157379185D02*
X55863098Y-157462684D01*
X55775538Y-157287697D02*
X55811337Y-157379185D01*
X55757002Y-157190825D02*
X55775538Y-157287697D01*
X55757030Y-157091175D02*
X55757002Y-157190825D01*
X55776925Y-156991351D02*
X55757030Y-157091175D01*
X82321215Y-70173247D02*
X55776925Y-156991351D01*
X82360841Y-70076871D02*
X82321215Y-70173247D01*
X82417423Y-69987107D02*
X82360841Y-70076871D01*
X82488364Y-69905878D02*
X82417423Y-69987107D01*
X82571064Y-69835106D02*
X82488364Y-69905878D01*
X82662924Y-69776714D02*
X82571064Y-69835106D01*
X82761347Y-69732625D02*
X82662924Y-69776714D01*
X82863734Y-69704762D02*
X82761347Y-69732625D01*
X82967485Y-69695047D02*
X82863734Y-69704762D01*
X211066455Y-69698047D02*
X82967485Y-69695047D01*
X211170203Y-69688334D02*
X211066455Y-69698047D01*
X211272585Y-69660471D02*
X211170203Y-69688334D01*
X211371002Y-69616381D02*
X211272585Y-69660471D01*
X211462857Y-69557986D02*
X211371002Y-69616381D01*
X211545548Y-69487210D02*
X211462857Y-69557986D01*
X211616478Y-69405976D02*
X211545548Y-69487210D01*
X211673046Y-69316207D02*
X211616478Y-69405976D01*
X211712655Y-69219827D02*
X211673046Y-69316207D01*
M02*
