G04 #@! TF.GenerationSoftware,KiCad,Pcbnew,(5.1.4)-1*
G04 #@! TF.CreationDate,2019-11-21T23:19:01-08:00*
G04 #@! TF.ProjectId,AODox,414f446f-782e-46b6-9963-61645f706362,v2*
G04 #@! TF.SameCoordinates,Original*
G04 #@! TF.FileFunction,Paste,Top*
G04 #@! TF.FilePolarity,Positive*
%FSLAX46Y46*%
G04 Gerber Fmt 4.6, Leading zero omitted, Abs format (unit mm)*
G04 Created by KiCad (PCBNEW (5.1.4)-1) date 2019-11-21 23:19:01*
%MOMM*%
%LPD*%
G04 APERTURE LIST*
%ADD10C,0.100000*%
%ADD11C,1.150000*%
%ADD12C,1.800000*%
%ADD13R,0.550000X2.500000*%
%ADD14R,2.500000X0.550000*%
G04 APERTURE END LIST*
D10*
G36*
X206179943Y-93718980D02*
G01*
X206204211Y-93722580D01*
X206228010Y-93728541D01*
X206251109Y-93736806D01*
X206273288Y-93747296D01*
X206294331Y-93759908D01*
X206314037Y-93774523D01*
X206332215Y-93790999D01*
X206791836Y-94250620D01*
X206808312Y-94268798D01*
X206822927Y-94288504D01*
X206835539Y-94309547D01*
X206846029Y-94331726D01*
X206854294Y-94354825D01*
X206860255Y-94378624D01*
X206863855Y-94402892D01*
X206865059Y-94427396D01*
X206863855Y-94451900D01*
X206860255Y-94476168D01*
X206854294Y-94499967D01*
X206846029Y-94523066D01*
X206835539Y-94545245D01*
X206822927Y-94566288D01*
X206808312Y-94585994D01*
X206791836Y-94604172D01*
X206155439Y-95240569D01*
X206137261Y-95257045D01*
X206117555Y-95271660D01*
X206096512Y-95284272D01*
X206074333Y-95294762D01*
X206051234Y-95303027D01*
X206027435Y-95308988D01*
X206003167Y-95312588D01*
X205978663Y-95313792D01*
X205954159Y-95312588D01*
X205929891Y-95308988D01*
X205906092Y-95303027D01*
X205882993Y-95294762D01*
X205860814Y-95284272D01*
X205839771Y-95271660D01*
X205820065Y-95257045D01*
X205801887Y-95240569D01*
X205342266Y-94780948D01*
X205325790Y-94762770D01*
X205311175Y-94743064D01*
X205298563Y-94722021D01*
X205288073Y-94699842D01*
X205279808Y-94676743D01*
X205273847Y-94652944D01*
X205270247Y-94628676D01*
X205269043Y-94604172D01*
X205270247Y-94579668D01*
X205273847Y-94555400D01*
X205279808Y-94531601D01*
X205288073Y-94508502D01*
X205298563Y-94486323D01*
X205311175Y-94465280D01*
X205325790Y-94445574D01*
X205342266Y-94427396D01*
X205978663Y-93790999D01*
X205996841Y-93774523D01*
X206016547Y-93759908D01*
X206037590Y-93747296D01*
X206059769Y-93736806D01*
X206082868Y-93728541D01*
X206106667Y-93722580D01*
X206130935Y-93718980D01*
X206155439Y-93717776D01*
X206179943Y-93718980D01*
X206179943Y-93718980D01*
G37*
D11*
X206067051Y-94515784D03*
D10*
G36*
X204730375Y-92269412D02*
G01*
X204754643Y-92273012D01*
X204778442Y-92278973D01*
X204801541Y-92287238D01*
X204823720Y-92297728D01*
X204844763Y-92310340D01*
X204864469Y-92324955D01*
X204882647Y-92341431D01*
X205342268Y-92801052D01*
X205358744Y-92819230D01*
X205373359Y-92838936D01*
X205385971Y-92859979D01*
X205396461Y-92882158D01*
X205404726Y-92905257D01*
X205410687Y-92929056D01*
X205414287Y-92953324D01*
X205415491Y-92977828D01*
X205414287Y-93002332D01*
X205410687Y-93026600D01*
X205404726Y-93050399D01*
X205396461Y-93073498D01*
X205385971Y-93095677D01*
X205373359Y-93116720D01*
X205358744Y-93136426D01*
X205342268Y-93154604D01*
X204705871Y-93791001D01*
X204687693Y-93807477D01*
X204667987Y-93822092D01*
X204646944Y-93834704D01*
X204624765Y-93845194D01*
X204601666Y-93853459D01*
X204577867Y-93859420D01*
X204553599Y-93863020D01*
X204529095Y-93864224D01*
X204504591Y-93863020D01*
X204480323Y-93859420D01*
X204456524Y-93853459D01*
X204433425Y-93845194D01*
X204411246Y-93834704D01*
X204390203Y-93822092D01*
X204370497Y-93807477D01*
X204352319Y-93791001D01*
X203892698Y-93331380D01*
X203876222Y-93313202D01*
X203861607Y-93293496D01*
X203848995Y-93272453D01*
X203838505Y-93250274D01*
X203830240Y-93227175D01*
X203824279Y-93203376D01*
X203820679Y-93179108D01*
X203819475Y-93154604D01*
X203820679Y-93130100D01*
X203824279Y-93105832D01*
X203830240Y-93082033D01*
X203838505Y-93058934D01*
X203848995Y-93036755D01*
X203861607Y-93015712D01*
X203876222Y-92996006D01*
X203892698Y-92977828D01*
X204529095Y-92341431D01*
X204547273Y-92324955D01*
X204566979Y-92310340D01*
X204588022Y-92297728D01*
X204610201Y-92287238D01*
X204633300Y-92278973D01*
X204657099Y-92273012D01*
X204681367Y-92269412D01*
X204705871Y-92268208D01*
X204730375Y-92269412D01*
X204730375Y-92269412D01*
G37*
D11*
X204617483Y-93066216D03*
D10*
G36*
X226929921Y-81732837D02*
G01*
X226954189Y-81736437D01*
X226977988Y-81742398D01*
X227001087Y-81750663D01*
X227023266Y-81761153D01*
X227044309Y-81773765D01*
X227064015Y-81788380D01*
X227082193Y-81804856D01*
X227098669Y-81823034D01*
X227113284Y-81842740D01*
X227125896Y-81863783D01*
X227136386Y-81885962D01*
X227144651Y-81909061D01*
X227150612Y-81932860D01*
X227154212Y-81957128D01*
X227155416Y-81981632D01*
X227155416Y-82881634D01*
X227154212Y-82906138D01*
X227150612Y-82930406D01*
X227144651Y-82954205D01*
X227136386Y-82977304D01*
X227125896Y-82999483D01*
X227113284Y-83020526D01*
X227098669Y-83040232D01*
X227082193Y-83058410D01*
X227064015Y-83074886D01*
X227044309Y-83089501D01*
X227023266Y-83102113D01*
X227001087Y-83112603D01*
X226977988Y-83120868D01*
X226954189Y-83126829D01*
X226929921Y-83130429D01*
X226905417Y-83131633D01*
X226255415Y-83131633D01*
X226230911Y-83130429D01*
X226206643Y-83126829D01*
X226182844Y-83120868D01*
X226159745Y-83112603D01*
X226137566Y-83102113D01*
X226116523Y-83089501D01*
X226096817Y-83074886D01*
X226078639Y-83058410D01*
X226062163Y-83040232D01*
X226047548Y-83020526D01*
X226034936Y-82999483D01*
X226024446Y-82977304D01*
X226016181Y-82954205D01*
X226010220Y-82930406D01*
X226006620Y-82906138D01*
X226005416Y-82881634D01*
X226005416Y-81981632D01*
X226006620Y-81957128D01*
X226010220Y-81932860D01*
X226016181Y-81909061D01*
X226024446Y-81885962D01*
X226034936Y-81863783D01*
X226047548Y-81842740D01*
X226062163Y-81823034D01*
X226078639Y-81804856D01*
X226096817Y-81788380D01*
X226116523Y-81773765D01*
X226137566Y-81761153D01*
X226159745Y-81750663D01*
X226182844Y-81742398D01*
X226206643Y-81736437D01*
X226230911Y-81732837D01*
X226255415Y-81731633D01*
X226905417Y-81731633D01*
X226929921Y-81732837D01*
X226929921Y-81732837D01*
G37*
D11*
X226580416Y-82431633D03*
D10*
G36*
X224879921Y-81732837D02*
G01*
X224904189Y-81736437D01*
X224927988Y-81742398D01*
X224951087Y-81750663D01*
X224973266Y-81761153D01*
X224994309Y-81773765D01*
X225014015Y-81788380D01*
X225032193Y-81804856D01*
X225048669Y-81823034D01*
X225063284Y-81842740D01*
X225075896Y-81863783D01*
X225086386Y-81885962D01*
X225094651Y-81909061D01*
X225100612Y-81932860D01*
X225104212Y-81957128D01*
X225105416Y-81981632D01*
X225105416Y-82881634D01*
X225104212Y-82906138D01*
X225100612Y-82930406D01*
X225094651Y-82954205D01*
X225086386Y-82977304D01*
X225075896Y-82999483D01*
X225063284Y-83020526D01*
X225048669Y-83040232D01*
X225032193Y-83058410D01*
X225014015Y-83074886D01*
X224994309Y-83089501D01*
X224973266Y-83102113D01*
X224951087Y-83112603D01*
X224927988Y-83120868D01*
X224904189Y-83126829D01*
X224879921Y-83130429D01*
X224855417Y-83131633D01*
X224205415Y-83131633D01*
X224180911Y-83130429D01*
X224156643Y-83126829D01*
X224132844Y-83120868D01*
X224109745Y-83112603D01*
X224087566Y-83102113D01*
X224066523Y-83089501D01*
X224046817Y-83074886D01*
X224028639Y-83058410D01*
X224012163Y-83040232D01*
X223997548Y-83020526D01*
X223984936Y-82999483D01*
X223974446Y-82977304D01*
X223966181Y-82954205D01*
X223960220Y-82930406D01*
X223956620Y-82906138D01*
X223955416Y-82881634D01*
X223955416Y-81981632D01*
X223956620Y-81957128D01*
X223960220Y-81932860D01*
X223966181Y-81909061D01*
X223974446Y-81885962D01*
X223984936Y-81863783D01*
X223997548Y-81842740D01*
X224012163Y-81823034D01*
X224028639Y-81804856D01*
X224046817Y-81788380D01*
X224066523Y-81773765D01*
X224087566Y-81761153D01*
X224109745Y-81750663D01*
X224132844Y-81742398D01*
X224156643Y-81736437D01*
X224180911Y-81732837D01*
X224205415Y-81731633D01*
X224855417Y-81731633D01*
X224879921Y-81732837D01*
X224879921Y-81732837D01*
G37*
D11*
X224530416Y-82431633D03*
D10*
G36*
X206533150Y-86827241D02*
G01*
X206557418Y-86830841D01*
X206581217Y-86836802D01*
X206604316Y-86845067D01*
X206626495Y-86855557D01*
X206647538Y-86868169D01*
X206667244Y-86882784D01*
X206685422Y-86899260D01*
X207321819Y-87535657D01*
X207338295Y-87553835D01*
X207352910Y-87573541D01*
X207365522Y-87594584D01*
X207376012Y-87616763D01*
X207384277Y-87639862D01*
X207390238Y-87663661D01*
X207393838Y-87687929D01*
X207395042Y-87712433D01*
X207393838Y-87736937D01*
X207390238Y-87761205D01*
X207384277Y-87785004D01*
X207376012Y-87808103D01*
X207365522Y-87830282D01*
X207352910Y-87851325D01*
X207338295Y-87871031D01*
X207321819Y-87889209D01*
X206862198Y-88348830D01*
X206844020Y-88365306D01*
X206824314Y-88379921D01*
X206803271Y-88392533D01*
X206781092Y-88403023D01*
X206757993Y-88411288D01*
X206734194Y-88417249D01*
X206709926Y-88420849D01*
X206685422Y-88422053D01*
X206660918Y-88420849D01*
X206636650Y-88417249D01*
X206612851Y-88411288D01*
X206589752Y-88403023D01*
X206567573Y-88392533D01*
X206546530Y-88379921D01*
X206526824Y-88365306D01*
X206508646Y-88348830D01*
X205872249Y-87712433D01*
X205855773Y-87694255D01*
X205841158Y-87674549D01*
X205828546Y-87653506D01*
X205818056Y-87631327D01*
X205809791Y-87608228D01*
X205803830Y-87584429D01*
X205800230Y-87560161D01*
X205799026Y-87535657D01*
X205800230Y-87511153D01*
X205803830Y-87486885D01*
X205809791Y-87463086D01*
X205818056Y-87439987D01*
X205828546Y-87417808D01*
X205841158Y-87396765D01*
X205855773Y-87377059D01*
X205872249Y-87358881D01*
X206331870Y-86899260D01*
X206350048Y-86882784D01*
X206369754Y-86868169D01*
X206390797Y-86855557D01*
X206412976Y-86845067D01*
X206436075Y-86836802D01*
X206459874Y-86830841D01*
X206484142Y-86827241D01*
X206508646Y-86826037D01*
X206533150Y-86827241D01*
X206533150Y-86827241D01*
G37*
D11*
X206597034Y-87624045D03*
D10*
G36*
X205083582Y-88276809D02*
G01*
X205107850Y-88280409D01*
X205131649Y-88286370D01*
X205154748Y-88294635D01*
X205176927Y-88305125D01*
X205197970Y-88317737D01*
X205217676Y-88332352D01*
X205235854Y-88348828D01*
X205872251Y-88985225D01*
X205888727Y-89003403D01*
X205903342Y-89023109D01*
X205915954Y-89044152D01*
X205926444Y-89066331D01*
X205934709Y-89089430D01*
X205940670Y-89113229D01*
X205944270Y-89137497D01*
X205945474Y-89162001D01*
X205944270Y-89186505D01*
X205940670Y-89210773D01*
X205934709Y-89234572D01*
X205926444Y-89257671D01*
X205915954Y-89279850D01*
X205903342Y-89300893D01*
X205888727Y-89320599D01*
X205872251Y-89338777D01*
X205412630Y-89798398D01*
X205394452Y-89814874D01*
X205374746Y-89829489D01*
X205353703Y-89842101D01*
X205331524Y-89852591D01*
X205308425Y-89860856D01*
X205284626Y-89866817D01*
X205260358Y-89870417D01*
X205235854Y-89871621D01*
X205211350Y-89870417D01*
X205187082Y-89866817D01*
X205163283Y-89860856D01*
X205140184Y-89852591D01*
X205118005Y-89842101D01*
X205096962Y-89829489D01*
X205077256Y-89814874D01*
X205059078Y-89798398D01*
X204422681Y-89162001D01*
X204406205Y-89143823D01*
X204391590Y-89124117D01*
X204378978Y-89103074D01*
X204368488Y-89080895D01*
X204360223Y-89057796D01*
X204354262Y-89033997D01*
X204350662Y-89009729D01*
X204349458Y-88985225D01*
X204350662Y-88960721D01*
X204354262Y-88936453D01*
X204360223Y-88912654D01*
X204368488Y-88889555D01*
X204378978Y-88867376D01*
X204391590Y-88846333D01*
X204406205Y-88826627D01*
X204422681Y-88808449D01*
X204882302Y-88348828D01*
X204900480Y-88332352D01*
X204920186Y-88317737D01*
X204941229Y-88305125D01*
X204963408Y-88294635D01*
X204986507Y-88286370D01*
X205010306Y-88280409D01*
X205034574Y-88276809D01*
X205059078Y-88275605D01*
X205083582Y-88276809D01*
X205083582Y-88276809D01*
G37*
D11*
X205147466Y-89073613D03*
D10*
G36*
X221491537Y-73737200D02*
G01*
X221515805Y-73740800D01*
X221539604Y-73746761D01*
X221562703Y-73755026D01*
X221584882Y-73765516D01*
X221605925Y-73778128D01*
X221625631Y-73792743D01*
X221643809Y-73809219D01*
X221660285Y-73827397D01*
X221674900Y-73847103D01*
X221687512Y-73868146D01*
X221698002Y-73890325D01*
X221706267Y-73913424D01*
X221712228Y-73937223D01*
X221715828Y-73961491D01*
X221717032Y-73985995D01*
X221717032Y-74635997D01*
X221715828Y-74660501D01*
X221712228Y-74684769D01*
X221706267Y-74708568D01*
X221698002Y-74731667D01*
X221687512Y-74753846D01*
X221674900Y-74774889D01*
X221660285Y-74794595D01*
X221643809Y-74812773D01*
X221625631Y-74829249D01*
X221605925Y-74843864D01*
X221584882Y-74856476D01*
X221562703Y-74866966D01*
X221539604Y-74875231D01*
X221515805Y-74881192D01*
X221491537Y-74884792D01*
X221467033Y-74885996D01*
X220567031Y-74885996D01*
X220542527Y-74884792D01*
X220518259Y-74881192D01*
X220494460Y-74875231D01*
X220471361Y-74866966D01*
X220449182Y-74856476D01*
X220428139Y-74843864D01*
X220408433Y-74829249D01*
X220390255Y-74812773D01*
X220373779Y-74794595D01*
X220359164Y-74774889D01*
X220346552Y-74753846D01*
X220336062Y-74731667D01*
X220327797Y-74708568D01*
X220321836Y-74684769D01*
X220318236Y-74660501D01*
X220317032Y-74635997D01*
X220317032Y-73985995D01*
X220318236Y-73961491D01*
X220321836Y-73937223D01*
X220327797Y-73913424D01*
X220336062Y-73890325D01*
X220346552Y-73868146D01*
X220359164Y-73847103D01*
X220373779Y-73827397D01*
X220390255Y-73809219D01*
X220408433Y-73792743D01*
X220428139Y-73778128D01*
X220449182Y-73765516D01*
X220471361Y-73755026D01*
X220494460Y-73746761D01*
X220518259Y-73740800D01*
X220542527Y-73737200D01*
X220567031Y-73735996D01*
X221467033Y-73735996D01*
X221491537Y-73737200D01*
X221491537Y-73737200D01*
G37*
D11*
X221017032Y-74310996D03*
D10*
G36*
X221491537Y-75787200D02*
G01*
X221515805Y-75790800D01*
X221539604Y-75796761D01*
X221562703Y-75805026D01*
X221584882Y-75815516D01*
X221605925Y-75828128D01*
X221625631Y-75842743D01*
X221643809Y-75859219D01*
X221660285Y-75877397D01*
X221674900Y-75897103D01*
X221687512Y-75918146D01*
X221698002Y-75940325D01*
X221706267Y-75963424D01*
X221712228Y-75987223D01*
X221715828Y-76011491D01*
X221717032Y-76035995D01*
X221717032Y-76685997D01*
X221715828Y-76710501D01*
X221712228Y-76734769D01*
X221706267Y-76758568D01*
X221698002Y-76781667D01*
X221687512Y-76803846D01*
X221674900Y-76824889D01*
X221660285Y-76844595D01*
X221643809Y-76862773D01*
X221625631Y-76879249D01*
X221605925Y-76893864D01*
X221584882Y-76906476D01*
X221562703Y-76916966D01*
X221539604Y-76925231D01*
X221515805Y-76931192D01*
X221491537Y-76934792D01*
X221467033Y-76935996D01*
X220567031Y-76935996D01*
X220542527Y-76934792D01*
X220518259Y-76931192D01*
X220494460Y-76925231D01*
X220471361Y-76916966D01*
X220449182Y-76906476D01*
X220428139Y-76893864D01*
X220408433Y-76879249D01*
X220390255Y-76862773D01*
X220373779Y-76844595D01*
X220359164Y-76824889D01*
X220346552Y-76803846D01*
X220336062Y-76781667D01*
X220327797Y-76758568D01*
X220321836Y-76734769D01*
X220318236Y-76710501D01*
X220317032Y-76685997D01*
X220317032Y-76035995D01*
X220318236Y-76011491D01*
X220321836Y-75987223D01*
X220327797Y-75963424D01*
X220336062Y-75940325D01*
X220346552Y-75918146D01*
X220359164Y-75897103D01*
X220373779Y-75877397D01*
X220390255Y-75859219D01*
X220408433Y-75842743D01*
X220428139Y-75828128D01*
X220449182Y-75815516D01*
X220471361Y-75805026D01*
X220494460Y-75796761D01*
X220518259Y-75790800D01*
X220542527Y-75787200D01*
X220567031Y-75785996D01*
X221467033Y-75785996D01*
X221491537Y-75787200D01*
X221491537Y-75787200D01*
G37*
D11*
X221017032Y-76360996D03*
D10*
G36*
X229299918Y-97562837D02*
G01*
X229324186Y-97566437D01*
X229347985Y-97572398D01*
X229371084Y-97580663D01*
X229393263Y-97591153D01*
X229414306Y-97603765D01*
X229434012Y-97618380D01*
X229452190Y-97634856D01*
X229468666Y-97653034D01*
X229483281Y-97672740D01*
X229495893Y-97693783D01*
X229506383Y-97715962D01*
X229514648Y-97739061D01*
X229520609Y-97762860D01*
X229524209Y-97787128D01*
X229525413Y-97811632D01*
X229525413Y-98711634D01*
X229524209Y-98736138D01*
X229520609Y-98760406D01*
X229514648Y-98784205D01*
X229506383Y-98807304D01*
X229495893Y-98829483D01*
X229483281Y-98850526D01*
X229468666Y-98870232D01*
X229452190Y-98888410D01*
X229434012Y-98904886D01*
X229414306Y-98919501D01*
X229393263Y-98932113D01*
X229371084Y-98942603D01*
X229347985Y-98950868D01*
X229324186Y-98956829D01*
X229299918Y-98960429D01*
X229275414Y-98961633D01*
X228625412Y-98961633D01*
X228600908Y-98960429D01*
X228576640Y-98956829D01*
X228552841Y-98950868D01*
X228529742Y-98942603D01*
X228507563Y-98932113D01*
X228486520Y-98919501D01*
X228466814Y-98904886D01*
X228448636Y-98888410D01*
X228432160Y-98870232D01*
X228417545Y-98850526D01*
X228404933Y-98829483D01*
X228394443Y-98807304D01*
X228386178Y-98784205D01*
X228380217Y-98760406D01*
X228376617Y-98736138D01*
X228375413Y-98711634D01*
X228375413Y-97811632D01*
X228376617Y-97787128D01*
X228380217Y-97762860D01*
X228386178Y-97739061D01*
X228394443Y-97715962D01*
X228404933Y-97693783D01*
X228417545Y-97672740D01*
X228432160Y-97653034D01*
X228448636Y-97634856D01*
X228466814Y-97618380D01*
X228486520Y-97603765D01*
X228507563Y-97591153D01*
X228529742Y-97580663D01*
X228552841Y-97572398D01*
X228576640Y-97566437D01*
X228600908Y-97562837D01*
X228625412Y-97561633D01*
X229275414Y-97561633D01*
X229299918Y-97562837D01*
X229299918Y-97562837D01*
G37*
D11*
X228950413Y-98261633D03*
D10*
G36*
X227249918Y-97562837D02*
G01*
X227274186Y-97566437D01*
X227297985Y-97572398D01*
X227321084Y-97580663D01*
X227343263Y-97591153D01*
X227364306Y-97603765D01*
X227384012Y-97618380D01*
X227402190Y-97634856D01*
X227418666Y-97653034D01*
X227433281Y-97672740D01*
X227445893Y-97693783D01*
X227456383Y-97715962D01*
X227464648Y-97739061D01*
X227470609Y-97762860D01*
X227474209Y-97787128D01*
X227475413Y-97811632D01*
X227475413Y-98711634D01*
X227474209Y-98736138D01*
X227470609Y-98760406D01*
X227464648Y-98784205D01*
X227456383Y-98807304D01*
X227445893Y-98829483D01*
X227433281Y-98850526D01*
X227418666Y-98870232D01*
X227402190Y-98888410D01*
X227384012Y-98904886D01*
X227364306Y-98919501D01*
X227343263Y-98932113D01*
X227321084Y-98942603D01*
X227297985Y-98950868D01*
X227274186Y-98956829D01*
X227249918Y-98960429D01*
X227225414Y-98961633D01*
X226575412Y-98961633D01*
X226550908Y-98960429D01*
X226526640Y-98956829D01*
X226502841Y-98950868D01*
X226479742Y-98942603D01*
X226457563Y-98932113D01*
X226436520Y-98919501D01*
X226416814Y-98904886D01*
X226398636Y-98888410D01*
X226382160Y-98870232D01*
X226367545Y-98850526D01*
X226354933Y-98829483D01*
X226344443Y-98807304D01*
X226336178Y-98784205D01*
X226330217Y-98760406D01*
X226326617Y-98736138D01*
X226325413Y-98711634D01*
X226325413Y-97811632D01*
X226326617Y-97787128D01*
X226330217Y-97762860D01*
X226336178Y-97739061D01*
X226344443Y-97715962D01*
X226354933Y-97693783D01*
X226367545Y-97672740D01*
X226382160Y-97653034D01*
X226398636Y-97634856D01*
X226416814Y-97618380D01*
X226436520Y-97603765D01*
X226457563Y-97591153D01*
X226479742Y-97580663D01*
X226502841Y-97572398D01*
X226526640Y-97566437D01*
X226550908Y-97562837D01*
X226575412Y-97561633D01*
X227225414Y-97561633D01*
X227249918Y-97562837D01*
X227249918Y-97562837D01*
G37*
D11*
X226900413Y-98261633D03*
D10*
G36*
X228991771Y-75787206D02*
G01*
X229016039Y-75790806D01*
X229039838Y-75796767D01*
X229062937Y-75805032D01*
X229085116Y-75815522D01*
X229106159Y-75828134D01*
X229125865Y-75842749D01*
X229144043Y-75859225D01*
X229160519Y-75877403D01*
X229175134Y-75897109D01*
X229187746Y-75918152D01*
X229198236Y-75940331D01*
X229206501Y-75963430D01*
X229212462Y-75987229D01*
X229216062Y-76011497D01*
X229217266Y-76036001D01*
X229217266Y-76686003D01*
X229216062Y-76710507D01*
X229212462Y-76734775D01*
X229206501Y-76758574D01*
X229198236Y-76781673D01*
X229187746Y-76803852D01*
X229175134Y-76824895D01*
X229160519Y-76844601D01*
X229144043Y-76862779D01*
X229125865Y-76879255D01*
X229106159Y-76893870D01*
X229085116Y-76906482D01*
X229062937Y-76916972D01*
X229039838Y-76925237D01*
X229016039Y-76931198D01*
X228991771Y-76934798D01*
X228967267Y-76936002D01*
X228067265Y-76936002D01*
X228042761Y-76934798D01*
X228018493Y-76931198D01*
X227994694Y-76925237D01*
X227971595Y-76916972D01*
X227949416Y-76906482D01*
X227928373Y-76893870D01*
X227908667Y-76879255D01*
X227890489Y-76862779D01*
X227874013Y-76844601D01*
X227859398Y-76824895D01*
X227846786Y-76803852D01*
X227836296Y-76781673D01*
X227828031Y-76758574D01*
X227822070Y-76734775D01*
X227818470Y-76710507D01*
X227817266Y-76686003D01*
X227817266Y-76036001D01*
X227818470Y-76011497D01*
X227822070Y-75987229D01*
X227828031Y-75963430D01*
X227836296Y-75940331D01*
X227846786Y-75918152D01*
X227859398Y-75897109D01*
X227874013Y-75877403D01*
X227890489Y-75859225D01*
X227908667Y-75842749D01*
X227928373Y-75828134D01*
X227949416Y-75815522D01*
X227971595Y-75805032D01*
X227994694Y-75796767D01*
X228018493Y-75790806D01*
X228042761Y-75787206D01*
X228067265Y-75786002D01*
X228967267Y-75786002D01*
X228991771Y-75787206D01*
X228991771Y-75787206D01*
G37*
D11*
X228517266Y-76361002D03*
D10*
G36*
X228991771Y-73737206D02*
G01*
X229016039Y-73740806D01*
X229039838Y-73746767D01*
X229062937Y-73755032D01*
X229085116Y-73765522D01*
X229106159Y-73778134D01*
X229125865Y-73792749D01*
X229144043Y-73809225D01*
X229160519Y-73827403D01*
X229175134Y-73847109D01*
X229187746Y-73868152D01*
X229198236Y-73890331D01*
X229206501Y-73913430D01*
X229212462Y-73937229D01*
X229216062Y-73961497D01*
X229217266Y-73986001D01*
X229217266Y-74636003D01*
X229216062Y-74660507D01*
X229212462Y-74684775D01*
X229206501Y-74708574D01*
X229198236Y-74731673D01*
X229187746Y-74753852D01*
X229175134Y-74774895D01*
X229160519Y-74794601D01*
X229144043Y-74812779D01*
X229125865Y-74829255D01*
X229106159Y-74843870D01*
X229085116Y-74856482D01*
X229062937Y-74866972D01*
X229039838Y-74875237D01*
X229016039Y-74881198D01*
X228991771Y-74884798D01*
X228967267Y-74886002D01*
X228067265Y-74886002D01*
X228042761Y-74884798D01*
X228018493Y-74881198D01*
X227994694Y-74875237D01*
X227971595Y-74866972D01*
X227949416Y-74856482D01*
X227928373Y-74843870D01*
X227908667Y-74829255D01*
X227890489Y-74812779D01*
X227874013Y-74794601D01*
X227859398Y-74774895D01*
X227846786Y-74753852D01*
X227836296Y-74731673D01*
X227828031Y-74708574D01*
X227822070Y-74684775D01*
X227818470Y-74660507D01*
X227817266Y-74636003D01*
X227817266Y-73986001D01*
X227818470Y-73961497D01*
X227822070Y-73937229D01*
X227828031Y-73913430D01*
X227836296Y-73890331D01*
X227846786Y-73868152D01*
X227859398Y-73847109D01*
X227874013Y-73827403D01*
X227890489Y-73809225D01*
X227908667Y-73792749D01*
X227928373Y-73778134D01*
X227949416Y-73765522D01*
X227971595Y-73755032D01*
X227994694Y-73746767D01*
X228018493Y-73740806D01*
X228042761Y-73737206D01*
X228067265Y-73736002D01*
X228967267Y-73736002D01*
X228991771Y-73737206D01*
X228991771Y-73737206D01*
G37*
D11*
X228517266Y-74311002D03*
D10*
G36*
X211991767Y-75787199D02*
G01*
X212016035Y-75790799D01*
X212039834Y-75796760D01*
X212062933Y-75805025D01*
X212085112Y-75815515D01*
X212106155Y-75828127D01*
X212125861Y-75842742D01*
X212144039Y-75859218D01*
X212160515Y-75877396D01*
X212175130Y-75897102D01*
X212187742Y-75918145D01*
X212198232Y-75940324D01*
X212206497Y-75963423D01*
X212212458Y-75987222D01*
X212216058Y-76011490D01*
X212217262Y-76035994D01*
X212217262Y-76685996D01*
X212216058Y-76710500D01*
X212212458Y-76734768D01*
X212206497Y-76758567D01*
X212198232Y-76781666D01*
X212187742Y-76803845D01*
X212175130Y-76824888D01*
X212160515Y-76844594D01*
X212144039Y-76862772D01*
X212125861Y-76879248D01*
X212106155Y-76893863D01*
X212085112Y-76906475D01*
X212062933Y-76916965D01*
X212039834Y-76925230D01*
X212016035Y-76931191D01*
X211991767Y-76934791D01*
X211967263Y-76935995D01*
X211067261Y-76935995D01*
X211042757Y-76934791D01*
X211018489Y-76931191D01*
X210994690Y-76925230D01*
X210971591Y-76916965D01*
X210949412Y-76906475D01*
X210928369Y-76893863D01*
X210908663Y-76879248D01*
X210890485Y-76862772D01*
X210874009Y-76844594D01*
X210859394Y-76824888D01*
X210846782Y-76803845D01*
X210836292Y-76781666D01*
X210828027Y-76758567D01*
X210822066Y-76734768D01*
X210818466Y-76710500D01*
X210817262Y-76685996D01*
X210817262Y-76035994D01*
X210818466Y-76011490D01*
X210822066Y-75987222D01*
X210828027Y-75963423D01*
X210836292Y-75940324D01*
X210846782Y-75918145D01*
X210859394Y-75897102D01*
X210874009Y-75877396D01*
X210890485Y-75859218D01*
X210908663Y-75842742D01*
X210928369Y-75828127D01*
X210949412Y-75815515D01*
X210971591Y-75805025D01*
X210994690Y-75796760D01*
X211018489Y-75790799D01*
X211042757Y-75787199D01*
X211067261Y-75785995D01*
X211967263Y-75785995D01*
X211991767Y-75787199D01*
X211991767Y-75787199D01*
G37*
D11*
X211517262Y-76360995D03*
D10*
G36*
X211991767Y-73737199D02*
G01*
X212016035Y-73740799D01*
X212039834Y-73746760D01*
X212062933Y-73755025D01*
X212085112Y-73765515D01*
X212106155Y-73778127D01*
X212125861Y-73792742D01*
X212144039Y-73809218D01*
X212160515Y-73827396D01*
X212175130Y-73847102D01*
X212187742Y-73868145D01*
X212198232Y-73890324D01*
X212206497Y-73913423D01*
X212212458Y-73937222D01*
X212216058Y-73961490D01*
X212217262Y-73985994D01*
X212217262Y-74635996D01*
X212216058Y-74660500D01*
X212212458Y-74684768D01*
X212206497Y-74708567D01*
X212198232Y-74731666D01*
X212187742Y-74753845D01*
X212175130Y-74774888D01*
X212160515Y-74794594D01*
X212144039Y-74812772D01*
X212125861Y-74829248D01*
X212106155Y-74843863D01*
X212085112Y-74856475D01*
X212062933Y-74866965D01*
X212039834Y-74875230D01*
X212016035Y-74881191D01*
X211991767Y-74884791D01*
X211967263Y-74885995D01*
X211067261Y-74885995D01*
X211042757Y-74884791D01*
X211018489Y-74881191D01*
X210994690Y-74875230D01*
X210971591Y-74866965D01*
X210949412Y-74856475D01*
X210928369Y-74843863D01*
X210908663Y-74829248D01*
X210890485Y-74812772D01*
X210874009Y-74794594D01*
X210859394Y-74774888D01*
X210846782Y-74753845D01*
X210836292Y-74731666D01*
X210828027Y-74708567D01*
X210822066Y-74684768D01*
X210818466Y-74660500D01*
X210817262Y-74635996D01*
X210817262Y-73985994D01*
X210818466Y-73961490D01*
X210822066Y-73937222D01*
X210828027Y-73913423D01*
X210836292Y-73890324D01*
X210846782Y-73868145D01*
X210859394Y-73847102D01*
X210874009Y-73827396D01*
X210890485Y-73809218D01*
X210908663Y-73792742D01*
X210928369Y-73778127D01*
X210949412Y-73765515D01*
X210971591Y-73755025D01*
X210994690Y-73746760D01*
X211018489Y-73740799D01*
X211042757Y-73737199D01*
X211067261Y-73735995D01*
X211967263Y-73735995D01*
X211991767Y-73737199D01*
X211991767Y-73737199D01*
G37*
D11*
X211517262Y-74310995D03*
D12*
X209835387Y-90773515D03*
D10*
G36*
X209941453Y-89394657D02*
G01*
X211214245Y-90667449D01*
X209729321Y-92152373D01*
X208456529Y-90879581D01*
X209941453Y-89394657D01*
X209941453Y-89394657D01*
G37*
D12*
X207784778Y-92824124D03*
D10*
G36*
X207890844Y-91445266D02*
G01*
X209163636Y-92718058D01*
X207678712Y-94202982D01*
X206405920Y-92930190D01*
X207890844Y-91445266D01*
X207890844Y-91445266D01*
G37*
D12*
X206229143Y-91268489D03*
D10*
G36*
X206335209Y-89889631D02*
G01*
X207608001Y-91162423D01*
X206123077Y-92647347D01*
X204850285Y-91374555D01*
X206335209Y-89889631D01*
X206335209Y-89889631D01*
G37*
D12*
X208279752Y-89217880D03*
D10*
G36*
X208385818Y-87839022D02*
G01*
X209658610Y-89111814D01*
X208173686Y-90596738D01*
X206900894Y-89323946D01*
X208385818Y-87839022D01*
X208385818Y-87839022D01*
G37*
G36*
X223491539Y-73737202D02*
G01*
X223515807Y-73740802D01*
X223539606Y-73746763D01*
X223562705Y-73755028D01*
X223584884Y-73765518D01*
X223605927Y-73778130D01*
X223625633Y-73792745D01*
X223643811Y-73809221D01*
X223660287Y-73827399D01*
X223674902Y-73847105D01*
X223687514Y-73868148D01*
X223698004Y-73890327D01*
X223706269Y-73913426D01*
X223712230Y-73937225D01*
X223715830Y-73961493D01*
X223717034Y-73985997D01*
X223717034Y-74635999D01*
X223715830Y-74660503D01*
X223712230Y-74684771D01*
X223706269Y-74708570D01*
X223698004Y-74731669D01*
X223687514Y-74753848D01*
X223674902Y-74774891D01*
X223660287Y-74794597D01*
X223643811Y-74812775D01*
X223625633Y-74829251D01*
X223605927Y-74843866D01*
X223584884Y-74856478D01*
X223562705Y-74866968D01*
X223539606Y-74875233D01*
X223515807Y-74881194D01*
X223491539Y-74884794D01*
X223467035Y-74885998D01*
X222567033Y-74885998D01*
X222542529Y-74884794D01*
X222518261Y-74881194D01*
X222494462Y-74875233D01*
X222471363Y-74866968D01*
X222449184Y-74856478D01*
X222428141Y-74843866D01*
X222408435Y-74829251D01*
X222390257Y-74812775D01*
X222373781Y-74794597D01*
X222359166Y-74774891D01*
X222346554Y-74753848D01*
X222336064Y-74731669D01*
X222327799Y-74708570D01*
X222321838Y-74684771D01*
X222318238Y-74660503D01*
X222317034Y-74635999D01*
X222317034Y-73985997D01*
X222318238Y-73961493D01*
X222321838Y-73937225D01*
X222327799Y-73913426D01*
X222336064Y-73890327D01*
X222346554Y-73868148D01*
X222359166Y-73847105D01*
X222373781Y-73827399D01*
X222390257Y-73809221D01*
X222408435Y-73792745D01*
X222428141Y-73778130D01*
X222449184Y-73765518D01*
X222471363Y-73755028D01*
X222494462Y-73746763D01*
X222518261Y-73740802D01*
X222542529Y-73737202D01*
X222567033Y-73735998D01*
X223467035Y-73735998D01*
X223491539Y-73737202D01*
X223491539Y-73737202D01*
G37*
D11*
X223017034Y-74310998D03*
D10*
G36*
X223491539Y-75787202D02*
G01*
X223515807Y-75790802D01*
X223539606Y-75796763D01*
X223562705Y-75805028D01*
X223584884Y-75815518D01*
X223605927Y-75828130D01*
X223625633Y-75842745D01*
X223643811Y-75859221D01*
X223660287Y-75877399D01*
X223674902Y-75897105D01*
X223687514Y-75918148D01*
X223698004Y-75940327D01*
X223706269Y-75963426D01*
X223712230Y-75987225D01*
X223715830Y-76011493D01*
X223717034Y-76035997D01*
X223717034Y-76685999D01*
X223715830Y-76710503D01*
X223712230Y-76734771D01*
X223706269Y-76758570D01*
X223698004Y-76781669D01*
X223687514Y-76803848D01*
X223674902Y-76824891D01*
X223660287Y-76844597D01*
X223643811Y-76862775D01*
X223625633Y-76879251D01*
X223605927Y-76893866D01*
X223584884Y-76906478D01*
X223562705Y-76916968D01*
X223539606Y-76925233D01*
X223515807Y-76931194D01*
X223491539Y-76934794D01*
X223467035Y-76935998D01*
X222567033Y-76935998D01*
X222542529Y-76934794D01*
X222518261Y-76931194D01*
X222494462Y-76925233D01*
X222471363Y-76916968D01*
X222449184Y-76906478D01*
X222428141Y-76893866D01*
X222408435Y-76879251D01*
X222390257Y-76862775D01*
X222373781Y-76844597D01*
X222359166Y-76824891D01*
X222346554Y-76803848D01*
X222336064Y-76781669D01*
X222327799Y-76758570D01*
X222321838Y-76734771D01*
X222318238Y-76710503D01*
X222317034Y-76685999D01*
X222317034Y-76035997D01*
X222318238Y-76011493D01*
X222321838Y-75987225D01*
X222327799Y-75963426D01*
X222336064Y-75940327D01*
X222346554Y-75918148D01*
X222359166Y-75897105D01*
X222373781Y-75877399D01*
X222390257Y-75859221D01*
X222408435Y-75842745D01*
X222428141Y-75828130D01*
X222449184Y-75815518D01*
X222471363Y-75805028D01*
X222494462Y-75796763D01*
X222518261Y-75790802D01*
X222542529Y-75787202D01*
X222567033Y-75785998D01*
X223467035Y-75785998D01*
X223491539Y-75787202D01*
X223491539Y-75787202D01*
G37*
D11*
X223017034Y-76360998D03*
D13*
X224017039Y-85635996D03*
X223217039Y-85635996D03*
X222417039Y-85635996D03*
X221617039Y-85635996D03*
X220817039Y-85635996D03*
X220017039Y-85635996D03*
X219217039Y-85635996D03*
X218417039Y-85635996D03*
X217617039Y-85635996D03*
X216817039Y-85635996D03*
X216017039Y-85635996D03*
D14*
X213817039Y-87835996D03*
X213817039Y-88635996D03*
X213817039Y-89435996D03*
X213817039Y-90235996D03*
X213817039Y-91035996D03*
X213817039Y-91835996D03*
X213817039Y-92635996D03*
X213817039Y-93435996D03*
X213817039Y-94235996D03*
X213817039Y-95035996D03*
X213817039Y-95835996D03*
D13*
X216017039Y-98035996D03*
X216817039Y-98035996D03*
X217617039Y-98035996D03*
X218417039Y-98035996D03*
X219217039Y-98035996D03*
X220017039Y-98035996D03*
X220817039Y-98035996D03*
X221617039Y-98035996D03*
X222417039Y-98035996D03*
X223217039Y-98035996D03*
X224017039Y-98035996D03*
D14*
X226217039Y-95835996D03*
X226217039Y-95035996D03*
X226217039Y-94235996D03*
X226217039Y-93435996D03*
X226217039Y-92635996D03*
X226217039Y-91835996D03*
X226217039Y-91035996D03*
X226217039Y-90235996D03*
X226217039Y-89435996D03*
X226217039Y-88635996D03*
X226217039Y-87835996D03*
M02*
