M48
METRIC,TZ
T1C0.300
T2C0.400
T3C0.600
T4C1.000
T5C1.702
T6C3.000
T7C3.988
%
G90
G05
T1
X60929Y-157540
X64273Y-138694
X69828Y-120524
X75383Y-102355
X80938Y-84185
X81311Y-163771
X86866Y-145601
X92421Y-127432
X96176Y-76892
X97976Y-109262
X101433Y-162941
X103531Y-91092
X106988Y-144771
X112543Y-126601
X118098Y-108431
X118769Y-83799
X121116Y-163547
X123653Y-90261
X126671Y-145377
X132226Y-127207
X136420Y-178474
X137781Y-109037
X138892Y-82968
X143328Y-155881
X143336Y-90868
X148883Y-137711
X154429Y-185391
X154438Y-119541
X158574Y-83575
X159993Y-101372
X161125Y-162653
X166681Y-144483
X172236Y-126313
X172706Y-191867
X175231Y-94078
X177791Y-108144
X180696Y-163626
X188589Y-203273
X189004Y-136451
X193029Y-100851
X195707Y-185656
X195908Y-80903
X195918Y-77306
X195960Y-113699
X198448Y-77306
X198449Y-79871
X200986Y-78891
X200988Y-77306
X203518Y-77306
X203518Y-81533
X204617Y-93066
X205147Y-89074
X206229Y-91268
X209835Y-90774
X211199Y-106406
X211517Y-74311
X211517Y-76361
X212348Y-116665
X213867Y-148304
X213867Y-167304
X214937Y-98046
X215678Y-88633
X215697Y-90224
X216812Y-94843
X216937Y-90651
X218392Y-117925
X218392Y-116665
X218862Y-88556
X219195Y-116665
X219195Y-117925
X219998Y-116665
X219998Y-117925
X220018Y-87543
X220801Y-116665
X220801Y-117925
X220817Y-83586
X221028Y-69823
X221605Y-117925
X221605Y-116665
X222408Y-117925
X222408Y-116665
X223018Y-72783
X223037Y-90601
X223162Y-94843
X226307Y-136875
X226580Y-82432
X227858Y-147674
X227858Y-148934
X228267Y-95016
X228267Y-88626
X228443Y-191482
X228448Y-189634
X228517Y-76361
X228658Y-167934
X228658Y-166674
X228661Y-148934
X228661Y-147674
X228950Y-98262
X229461Y-167934
X229464Y-147674
X229488Y-148934
X229498Y-166674
X230267Y-147674
X230291Y-148934
X230298Y-167934
X230301Y-166674
X232311Y-117295
X232923Y-190264
X239268Y-140047
X240041Y-207881
X240176Y-175007
X240866Y-102728
X247576Y-167222
X250481Y-111740
X255925Y-196475
X256036Y-129910
X259036Y-97172
X261591Y-148079
X267146Y-166249
X268279Y-104968
X273834Y-123138
X273976Y-189396
X276834Y-90400
X279389Y-141307
X284936Y-94464
X284944Y-159477
X290491Y-112634
X291851Y-182070
X293490Y-79897
X296046Y-130803
X301601Y-148973
X304619Y-93858
X307156Y-167143
X310174Y-112027
X313173Y-79290
X315729Y-130197
X321284Y-148367
X324741Y-94688
X326839Y-166537
X330296Y-112858
X333296Y-80121
X335851Y-131028
X341406Y-149198
X346961Y-167367
X347334Y-87781
X352889Y-105951
X355888Y-73214
X358444Y-124121
X363999Y-142290
X367343Y-161136
T2
X217042Y-67246
X217042Y-68596
X217892Y-67246
X217892Y-68596
X218742Y-67246
X218742Y-68596
X219592Y-67246
X219592Y-68596
X220442Y-67246
X220442Y-68596
X221292Y-67246
X221292Y-68596
X222142Y-67246
X222142Y-68596
X222992Y-67246
X222992Y-68596
T4
X193367Y-71751
X195907Y-71751
X198447Y-71751
X200987Y-71751
X203527Y-71751
X206067Y-71751
T5
X346501Y-81396
X356217Y-78425
X78263Y-96595
X87979Y-99566
X306323Y-160758
X316039Y-157787
X199078Y-180170
X208498Y-183976
X335018Y-124643
X344734Y-121672
X260758Y-141694
X270474Y-138724
X255203Y-123525
X264919Y-120554
X162873Y-95612
X172589Y-98583
X129551Y-139618
X139267Y-142588
X115423Y-120842
X125139Y-123812
X295213Y-124418
X304929Y-121448
X63809Y-151781
X73525Y-154751
X214937Y-141955
X225097Y-141955
X146216Y-85108
X155932Y-88079
X273001Y-116753
X282717Y-113782
X314896Y-123812
X324612Y-120842
X139300Y-172714
X149016Y-175685
X123996Y-157788
X133712Y-160758
X267446Y-98583
X277162Y-95612
X272921Y-183044
X282527Y-179736
X95301Y-121672
X105017Y-124643
X100856Y-103503
X110572Y-106473
X135106Y-121448
X144822Y-124418
X84190Y-158012
X93906Y-160982
X104313Y-157181
X114029Y-160152
X249648Y-105355
X259364Y-102384
X309340Y-105642
X319056Y-102672
X157507Y-179736
X167114Y-183044
X157318Y-113782
X167034Y-116753
X176076Y-186381
X185496Y-190187
X214937Y-160955
X225097Y-160955
X289658Y-106249
X299374Y-103278
X164005Y-156894
X173721Y-159864
X246743Y-160837
X256459Y-157866
X140661Y-103278
X150377Y-106249
X231478Y-110910
X241194Y-107939
X146208Y-150122
X155924Y-153092
X106411Y-85333
X116127Y-88303
X357611Y-117736
X367327Y-114765
X300768Y-142588
X310484Y-139618
X340573Y-142813
X350289Y-139842
X120978Y-102672
X130694Y-105642
X183576Y-157866
X193292Y-160837
X191960Y-197786
X201380Y-201592
X169560Y-138724
X179276Y-141694
X284103Y-88079
X293819Y-85108
X363166Y-135905
X372882Y-132935
X291018Y-175685
X300734Y-172714
X89745Y-139842
X99462Y-142813
X83818Y-78425
X93534Y-81396
X175115Y-120554
X184831Y-123525
X366509Y-154751
X376225Y-151781
X323908Y-88303
X333624Y-85333
X352056Y-99566
X361772Y-96595
X231537Y-183976
X240957Y-180170
X326006Y-160152
X335722Y-157181
X238434Y-133662
X248150Y-130691
X109868Y-139012
X119584Y-141982
X329463Y-106473
X339179Y-103503
X198840Y-107939
X208556Y-110910
X266313Y-159864
X276029Y-156894
X254538Y-190187
X263958Y-186381
X191884Y-130691
X201600Y-133662
X180670Y-102384
X190386Y-105355
X151763Y-131952
X161479Y-134922
X67153Y-132935
X76869Y-135905
X320451Y-141982
X330167Y-139012
X238654Y-201592
X248074Y-197786
X126533Y-84502
X136249Y-87473
X278556Y-134922
X288272Y-131952
X346128Y-160982
X355844Y-158012
X284111Y-153092
X293827Y-150122
X303785Y-87473
X313501Y-84502
X72708Y-114765
X82424Y-117736
T6
X159535Y-177748
X166366Y-177414
X159275Y-111724
X166090Y-111152
X178205Y-184501
X185044Y-184525
X216207Y-158415
X222557Y-155875
X290130Y-103448
X295459Y-99163
X165962Y-154836
X172778Y-154263
X247214Y-158037
X252544Y-153751
X142618Y-101220
X149433Y-100648
X231950Y-108109
X237280Y-103824
X148165Y-148064
X154980Y-147491
X108368Y-83275
X115183Y-82703
X358083Y-114935
X363412Y-110650
X301240Y-139788
X306570Y-135502
X341045Y-140012
X346375Y-135727
X122935Y-100614
X129750Y-100042
X185533Y-155809
X192348Y-155236
X194089Y-195907
X200928Y-195931
X171517Y-136666
X178333Y-136094
X284574Y-85278
X289904Y-80993
X363638Y-133105
X368968Y-128819
X291490Y-172885
X296820Y-168599
X91703Y-137784
X98518Y-137212
X85775Y-76368
X92590Y-75795
X177072Y-118496
X183888Y-117924
X366981Y-151951
X372311Y-147665
X324380Y-85503
X329710Y-81217
X352528Y-96765
X357857Y-92480
X231763Y-181145
X236699Y-176411
X326477Y-157351
X331807Y-153066
X238906Y-130862
X244236Y-126576
X111825Y-136954
X118640Y-136381
X329935Y-103673
X335265Y-99387
X200797Y-105882
X207612Y-105309
X266785Y-157064
X272115Y-152778
X254764Y-187356
X259700Y-182622
X193841Y-128634
X200656Y-128061
X182628Y-100327
X189443Y-99754
X153720Y-129894
X160535Y-129322
X69110Y-130877
X75925Y-130305
X320922Y-139182
X326252Y-134896
X238880Y-198762
X243816Y-194028
X128490Y-82444
X135305Y-81872
X279028Y-132122
X284358Y-127836
X346600Y-158182
X351930Y-153897
X284583Y-150292
X289913Y-146006
X304257Y-84672
X309587Y-80387
X74665Y-112707
X81480Y-112135
X346972Y-78596
X352302Y-74310
X80220Y-94538
X87035Y-93965
X306795Y-157958
X312125Y-153672
X201207Y-178291
X208046Y-178314
X335490Y-121842
X340820Y-117557
X261230Y-138894
X266560Y-134608
X255675Y-120724
X261005Y-116439
X164830Y-93555
X171645Y-92982
X131508Y-137560
X138323Y-136988
X117380Y-118784
X124195Y-118212
X295685Y-121618
X301014Y-117333
X65766Y-149723
X72581Y-149151
X216207Y-139415
X222557Y-136875
X148173Y-83051
X154988Y-82478
X273473Y-113952
X278803Y-109667
X315367Y-121012
X320697Y-116726
X141257Y-170657
X148073Y-170084
X125953Y-155730
X132768Y-155157
X267918Y-95782
X273248Y-91497
X273294Y-180229
X278472Y-175760
X97258Y-119615
X104073Y-119042
X102813Y-101445
X109628Y-100872
X137063Y-119390
X143878Y-118818
X86148Y-155954
X92963Y-155382
X106270Y-155124
X113085Y-154551
X250120Y-102554
X255450Y-98269
X309812Y-102842
X315142Y-98557
T7
X356914Y-98080
X236247Y-182073
X330864Y-158667
X243292Y-132177
X114726Y-140497
X334321Y-104988
X203698Y-109425
X271171Y-158379
X259248Y-188284
X196742Y-132177
X185528Y-103870
X156621Y-133437
X72011Y-134420
X325309Y-140497
X243364Y-199689
X131391Y-85987
X283414Y-133437
X350986Y-159497
X288969Y-151607
X308643Y-85987
X77566Y-116250
X351359Y-79911
X83121Y-98080
X311181Y-159273
X203788Y-182073
X339876Y-123158
X265616Y-140209
X260061Y-122039
X167731Y-97098
X134409Y-141103
X120281Y-122327
X300071Y-122933
X68667Y-153266
X220017Y-141955
X151074Y-86594
X277859Y-115267
X319754Y-122327
X144158Y-174200
X128854Y-159273
X272304Y-97098
X277724Y-181390
X100159Y-123158
X105714Y-104988
X139964Y-122933
X89048Y-159497
X109171Y-158667
X254506Y-103870
X314198Y-104157
X162311Y-181390
X162176Y-115267
X180786Y-188284
X220017Y-160955
X294516Y-104763
X168863Y-158379
X251601Y-159352
X145519Y-104763
X236336Y-109425
X151066Y-151607
X111269Y-86818
X362469Y-116250
X305626Y-141103
X345431Y-141327
X125836Y-104157
X188434Y-159352
X196670Y-199689
X174418Y-140209
X288961Y-86594
X368024Y-134420
X295876Y-174200
X94603Y-141327
X88676Y-79911
X179973Y-122039
X371367Y-153266
X328766Y-86818
T3
G00X215692Y-64636
M15
G01X215692Y-63836
M16
G05
G00X215692Y-68366
M15
G01X215692Y-66866
M16
G05
G00X224342Y-64636
M15
G01X224342Y-63836
M16
G05
G00X224342Y-68366
M15
G01X224342Y-66866
M16
G05
T0
M30
