  0
SECTION
  2
HEADER
  9
$ACADVER
  1
AC1014
  9
$HANDSEED
  5
FFFF
  9
$MEASUREMENT
 70
     1
  0
ENDSEC
  0
SECTION
  2
TABLES
  0
TABLE
  2
VPORT
  5
8
330
0
100
AcDbSymbolTable
 70
     4
  0
VPORT
  5
2E
330
8
100
AcDbSymbolTableRecord
100
AcDbViewportTableRecord
  2
*ACTIVE
 70
     0
 10
0.0
 20
0.0
 11
1.0
 21
1.0
 12
210.0
 22
148.5
 13
0.0
 23
0.0
 14
10.0
 24
10.0
 15
10.0
 25
10.0
 16
0.0
 26
0.0
 36
1.0
 17
0.0
 27
0.0
 37
0.0
 40
341.0
 41
1.24
 42
50.0
 43
0.0
 44
0.0
 50
0.0
 51
0.0
 71
     0
 72
   100
 73
     1
 74
     3
 75
     0
 76
     0
 77
     0
 78
     0
  0
ENDTAB
  0
TABLE
  2
LTYPE
  5
5
330
0
100
AcDbSymbolTable
 70
     1
  0
LTYPE
  5
14
330
5
100
AcDbSymbolTableRecord
100
AcDbLinetypeTableRecord
  2
BYBLOCK
 70
     0
  3

 72
    65
 73
     0
 40
0.0
  0
LTYPE
  5
15
330
5
100
AcDbSymbolTableRecord
100
AcDbLinetypeTableRecord
  2
BYLAYER
 70
     0
  3

 72
    65
 73
     0
 40
0.0
  0
LTYPE
  5
16
330
5
100
AcDbSymbolTableRecord
100
AcDbLinetypeTableRecord
  2
CONTINUOUS
 70
     0
  3
Solid line
 72
    65
 73
     0
 40
0.0
  0
ENDTAB
  0
TABLE
  2
LAYER
  5
2
100
AcDbSymbolTable
 70
10
  0
LAYER
  5
50
100
AcDbSymbolTableRecord
100
AcDbLayerTableRecord
  2
0
 70
0
  6
CONTINUOUS
  0
LAYER
  5
51
100
AcDbSymbolTableRecord
100
AcDbLayerTableRecord
  2
Bottom
 70
0
  6
CONTINUOUS
  0
LAYER
  5
52
100
AcDbSymbolTableRecord
100
AcDbLayerTableRecord
  2
Inner_Layer
 70
0
  6
CONTINUOUS
  0
LAYER
  5
53
100
AcDbSymbolTableRecord
100
AcDbLayerTableRecord
  2
Guts
 70
0
  6
CONTINUOUS
  0
LAYER
  5
54
100
AcDbSymbolTableRecord
100
AcDbLayerTableRecord
  2
Keycaps
 70
0
  6
CONTINUOUS
  0
LAYER
  5
55
100
AcDbSymbolTableRecord
100
AcDbLayerTableRecord
  2
PCB_for_Kicad
 70
0
  6
CONTINUOUS
  0
LAYER
  5
56
100
AcDbSymbolTableRecord
100
AcDbLayerTableRecord
  2
Switch
 70
0
  6
CONTINUOUS
  0
LAYER
  5
57
100
AcDbSymbolTableRecord
100
AcDbLayerTableRecord
  2
Outer_Perimeter
 70
0
  6
CONTINUOUS
  0
LAYER
  5
58
100
AcDbSymbolTableRecord
100
AcDbLayerTableRecord
  2
Top_Square
 70
0
  6
CONTINUOUS
  0
LAYER
  5
59
100
AcDbSymbolTableRecord
100
AcDbLayerTableRecord
  2
Top
 70
0
  6
CONTINUOUS
  0
ENDTAB
  0
TABLE
  2
STYLE
  5
3
330
0
100
AcDbSymbolTable
 70
     1
  0
STYLE
  5
11
330
3
100
AcDbSymbolTableRecord
100
AcDbTextStyleTableRecord
  2
STANDARD
 70
     0
 40
0.0
 41
1.0
 50
0.0
 71
     0
 42
2.5
  3
txt
  4

  0
ENDTAB
  0
TABLE
  2
VIEW
  5
6
330
0
100
AcDbSymbolTable
 70
     0
  0
ENDTAB
  0
TABLE
  2
UCS
  5
7
330
0
100
AcDbSymbolTable
 70
     0
  0
ENDTAB
  0
TABLE
  2
APPID
  5
9
330
0
100
AcDbSymbolTable
 70
     2
  0
APPID
  5
12
330
9
100
AcDbSymbolTableRecord
100
AcDbRegAppTableRecord
  2
ACAD
 70
     0
  0
ENDTAB
  0
TABLE
  2
DIMSTYLE
  5
A
330
0
100
AcDbSymbolTable
 70
     1
  0
DIMSTYLE
105
27
330
A
100
AcDbSymbolTableRecord
100
AcDbDimStyleTableRecord
  2
ISO-25
 70
     0
  3

  4

  5

  6

  7

 40
1.0
 41
2.5
 42
0.625
 43
3.75
 44
1.25
 45
0.0
 46
0.0
 47
0.0
 48
0.0
140
2.5
141
2.5
142
0.0
143
0.03937007874016
144
1.0
145
0.0
146
1.0
147
0.625
 71
     0
 72
     0
 73
     0
 74
     0
 75
     0
 76
     0
 77
     1
 78
     8
170
     0
171
     3
172
     1
173
     0
174
     0
175
     0
176
     0
177
     0
178
     0
270
     2
271
     2
272
     2
273
     2
274
     3
340
11
275
     0
280
     0
281
     0
282
     0
283
     0
284
     8
285
     0
286
     0
287
     3
288
     0
  0
ENDTAB
  0
TABLE
  2
BLOCK_RECORD
  5
1
330
0
100
AcDbSymbolTable
 70
     1
  0
BLOCK_RECORD
  5
1F
330
1
100
AcDbSymbolTableRecord
100
AcDbBlockTableRecord
  2
*MODEL_SPACE
  0
BLOCK_RECORD
  5
1B
330
1
100
AcDbSymbolTableRecord
100
AcDbBlockTableRecord
  2
*PAPER_SPACE
  0
ENDTAB
  0
ENDSEC
  0
SECTION
  2
BLOCKS
  0
BLOCK
  5
20
330
1F
100
AcDbEntity
  8
0
100
AcDbBlockBegin
  2
*MODEL_SPACE
 70
     0
 10
0.0
 20
0.0
 30
0.0
  3
*MODEL_SPACE
  1

  0
ENDBLK
  5
21
330
1F
100
AcDbEntity
  8
0
100
AcDbBlockEnd
  0
BLOCK
  5
1C
330
1B
100
AcDbEntity
 67
     1
  8
0
100
AcDbBlockBegin
  2
*PAPER_SPACE
  1

  0
ENDBLK
  5
1D
330
1B
100
AcDbEntity
 67
     1
  8
0
100
AcDbBlockEnd
  0
ENDSEC
  0
SECTION
  2
ENTITIES
  0
SPLINE
  5
100
100
AcDbEntity
  8
Bottom
 62
4
100
AcDbSpline
 70
8
 71
3
 72
8
 73
4
 74
0
 40
0
 40
0
 40
0
 40
0
 40
1
 40
1
 40
1
 40
1
 10
-167.687829
 20
-19.655570
 30
0.0
 10
-167.687831
 20
-20.953435
 30
0.0
 10
-168.739959
 20
-22.005561
 30
0.0
 10
-170.037823
 20
-22.005561
 30
0.0
  0
SPLINE
  5
101
100
AcDbEntity
  8
Bottom
 62
4
100
AcDbSpline
 70
8
 71
3
 72
8
 73
4
 74
0
 40
0
 40
0
 40
0
 40
0
 40
1
 40
1
 40
1
 40
1
 10
-170.037823
 20
-22.005561
 30
0.0
 10
-171.335688
 20
-22.005561
 30
0.0
 10
-172.387816
 20
-20.953435
 30
0.0
 10
-172.387818
 20
-19.655570
 30
0.0
  0
SPLINE
  5
102
100
AcDbEntity
  8
Bottom
 62
4
100
AcDbSpline
 70
8
 71
3
 72
8
 73
4
 74
0
 40
0
 40
0
 40
0
 40
0
 40
1
 40
1
 40
1
 40
1
 10
-172.387818
 20
-19.655570
 30
0.0
 10
-172.387818
 20
-19.032313
 30
0.0
 10
-172.140230
 20
-18.434583
 30
0.0
 10
-171.699521
 20
-17.993873
 30
0.0
  0
SPLINE
  5
103
100
AcDbEntity
  8
Bottom
 62
4
100
AcDbSpline
 70
8
 71
3
 72
8
 73
4
 74
0
 40
0
 40
0
 40
0
 40
0
 40
1
 40
1
 40
1
 40
1
 10
-171.699521
 20
-17.993873
 30
0.0
 10
-171.258811
 20
-17.553164
 30
0.0
 10
-170.661081
 20
-17.305576
 30
0.0
 10
-170.037823
 20
-17.305576
 30
0.0
  0
SPLINE
  5
104
100
AcDbEntity
  8
Bottom
 62
4
100
AcDbSpline
 70
8
 71
3
 72
8
 73
4
 74
0
 40
0
 40
0
 40
0
 40
0
 40
1
 40
1
 40
1
 40
1
 10
-170.037823
 20
-17.305576
 30
0.0
 10
-169.414566
 20
-17.305576
 30
0.0
 10
-168.816836
 20
-17.553164
 30
0.0
 10
-168.376126
 20
-17.993873
 30
0.0
  0
SPLINE
  5
105
100
AcDbEntity
  8
Bottom
 62
4
100
AcDbSpline
 70
8
 71
3
 72
8
 73
4
 74
0
 40
0
 40
0
 40
0
 40
0
 40
1
 40
1
 40
1
 40
1
 10
-168.376126
 20
-17.993873
 30
0.0
 10
-167.935417
 20
-18.434583
 30
0.0
 10
-167.687829
 20
-19.032313
 30
0.0
 10
-167.687829
 20
-19.655570
 30
0.0
  0
SPLINE
  5
106
100
AcDbEntity
  8
Bottom
 62
4
100
AcDbSpline
 70
8
 71
3
 72
8
 73
4
 74
0
 40
0
 40
0
 40
0
 40
0
 40
1
 40
1
 40
1
 40
1
 10
2.399425
 20
-71.650471
 30
0.0
 10
2.399425
 20
-72.273729
 30
0.0
 10
2.151837
 20
-72.871459
 30
0.0
 10
1.711127
 20
-73.312169
 30
0.0
  0
SPLINE
  5
107
100
AcDbEntity
  8
Bottom
 62
4
100
AcDbSpline
 70
8
 71
3
 72
8
 73
4
 74
0
 40
0
 40
0
 40
0
 40
0
 40
1
 40
1
 40
1
 40
1
 10
1.711127
 20
-73.312169
 30
0.0
 10
1.270418
 20
-73.752878
 30
0.0
 10
0.672687
 20
-74.000466
 30
0.0
 10
0.049430
 20
-74.000466
 30
0.0
  0
SPLINE
  5
108
100
AcDbEntity
  8
Bottom
 62
4
100
AcDbSpline
 70
8
 71
3
 72
8
 73
4
 74
0
 40
0
 40
0
 40
0
 40
0
 40
1
 40
1
 40
1
 40
1
 10
0.049430
 20
-74.000466
 30
0.0
 10
-1.248433
 20
-74.000461
 30
0.0
 10
-2.300555
 20
-72.948334
 30
0.0
 10
-2.300555
 20
-71.650471
 30
0.0
  0
SPLINE
  5
109
100
AcDbEntity
  8
Bottom
 62
4
100
AcDbSpline
 70
8
 71
3
 72
8
 73
4
 74
0
 40
0
 40
0
 40
0
 40
0
 40
1
 40
1
 40
1
 40
1
 10
-2.300555
 20
-71.650471
 30
0.0
 10
-2.300555
 20
-70.352609
 30
0.0
 10
-1.248433
 20
-69.300482
 30
0.0
 10
0.049430
 20
-69.300477
 30
0.0
  0
SPLINE
  5
10a
100
AcDbEntity
  8
Bottom
 62
4
100
AcDbSpline
 70
8
 71
3
 72
8
 73
4
 74
0
 40
0
 40
0
 40
0
 40
0
 40
1
 40
1
 40
1
 40
1
 10
0.049430
 20
-69.300477
 30
0.0
 10
0.672687
 20
-69.300477
 30
0.0
 10
1.270418
 20
-69.548065
 30
0.0
 10
1.711127
 20
-69.988774
 30
0.0
  0
SPLINE
  5
10b
100
AcDbEntity
  8
Bottom
 62
4
100
AcDbSpline
 70
8
 71
3
 72
8
 73
4
 74
0
 40
0
 40
0
 40
0
 40
0
 40
1
 40
1
 40
1
 40
1
 10
1.711127
 20
-69.988774
 30
0.0
 10
2.151837
 20
-70.429484
 30
0.0
 10
2.399425
 20
-71.027214
 30
0.0
 10
2.399425
 20
-71.650471
 30
0.0
  0
SPLINE
  5
10c
100
AcDbEntity
  8
Bottom
 62
4
100
AcDbSpline
 70
8
 71
3
 72
8
 73
4
 74
0
 40
0
 40
0
 40
0
 40
0
 40
1
 40
1
 40
1
 40
1
 10
172.486429
 20
-19.655578
 30
0.0
 10
172.486428
 20
-20.953444
 30
0.0
 10
171.434299
 20
-22.005571
 30
0.0
 10
170.136434
 20
-22.005571
 30
0.0
  0
SPLINE
  5
10d
100
AcDbEntity
  8
Bottom
 62
4
100
AcDbSpline
 70
8
 71
3
 72
8
 73
4
 74
0
 40
0
 40
0
 40
0
 40
0
 40
1
 40
1
 40
1
 40
1
 10
170.136434
 20
-22.005571
 30
0.0
 10
168.838568
 20
-22.005571
 30
0.0
 10
167.786440
 20
-20.953444
 30
0.0
 10
167.786439
 20
-19.655578
 30
0.0
  0
SPLINE
  5
10e
100
AcDbEntity
  8
Bottom
 62
4
100
AcDbSpline
 70
8
 71
3
 72
8
 73
4
 74
0
 40
0
 40
0
 40
0
 40
0
 40
1
 40
1
 40
1
 40
1
 10
167.786439
 20
-19.655578
 30
0.0
 10
167.786439
 20
-19.032321
 30
0.0
 10
168.034027
 20
-18.434591
 30
0.0
 10
168.474737
 20
-17.993881
 30
0.0
  0
SPLINE
  5
10f
100
AcDbEntity
  8
Bottom
 62
4
100
AcDbSpline
 70
8
 71
3
 72
8
 73
4
 74
0
 40
0
 40
0
 40
0
 40
0
 40
1
 40
1
 40
1
 40
1
 10
168.474737
 20
-17.993881
 30
0.0
 10
168.915446
 20
-17.553172
 30
0.0
 10
169.513177
 20
-17.305584
 30
0.0
 10
170.136434
 20
-17.305584
 30
0.0
  0
SPLINE
  5
110
100
AcDbEntity
  8
Bottom
 62
4
100
AcDbSpline
 70
8
 71
3
 72
8
 73
4
 74
0
 40
0
 40
0
 40
0
 40
0
 40
1
 40
1
 40
1
 40
1
 10
170.136434
 20
-17.305584
 30
0.0
 10
170.759691
 20
-17.305584
 30
0.0
 10
171.357422
 20
-17.553172
 30
0.0
 10
171.798131
 20
-17.993881
 30
0.0
  0
SPLINE
  5
111
100
AcDbEntity
  8
Bottom
 62
4
100
AcDbSpline
 70
8
 71
3
 72
8
 73
4
 74
0
 40
0
 40
0
 40
0
 40
0
 40
1
 40
1
 40
1
 40
1
 10
171.798131
 20
-17.993881
 30
0.0
 10
172.238841
 20
-18.434591
 30
0.0
 10
172.486429
 20
-19.032321
 30
0.0
 10
172.486429
 20
-19.655578
 30
0.0
  0
SPLINE
  5
112
100
AcDbEntity
  8
Bottom
 62
4
100
AcDbSpline
 70
8
 71
3
 72
8
 73
4
 74
0
 40
0
 40
0
 40
0
 40
0
 40
1
 40
1
 40
1
 40
1
 10
143.631619
 20
73.764719
 30
0.0
 10
143.631619
 20
73.141462
 30
0.0
 10
143.384031
 20
72.543732
 30
0.0
 10
142.943321
 20
72.103022
 30
0.0
  0
SPLINE
  5
113
100
AcDbEntity
  8
Bottom
 62
4
100
AcDbSpline
 70
8
 71
3
 72
8
 73
4
 74
0
 40
0
 40
0
 40
0
 40
0
 40
1
 40
1
 40
1
 40
1
 10
142.943321
 20
72.103022
 30
0.0
 10
142.502612
 20
71.662313
 30
0.0
 10
141.904882
 20
71.414725
 30
0.0
 10
141.281624
 20
71.414725
 30
0.0
  0
SPLINE
  5
114
100
AcDbEntity
  8
Bottom
 62
4
100
AcDbSpline
 70
8
 71
3
 72
8
 73
4
 74
0
 40
0
 40
0
 40
0
 40
0
 40
1
 40
1
 40
1
 40
1
 10
141.281624
 20
71.414725
 30
0.0
 10
140.658367
 20
71.414725
 30
0.0
 10
140.060636
 20
71.662313
 30
0.0
 10
139.619927
 20
72.103022
 30
0.0
  0
SPLINE
  5
115
100
AcDbEntity
  8
Bottom
 62
4
100
AcDbSpline
 70
8
 71
3
 72
8
 73
4
 74
0
 40
0
 40
0
 40
0
 40
0
 40
1
 40
1
 40
1
 40
1
 10
139.619927
 20
72.103022
 30
0.0
 10
139.179217
 20
72.543732
 30
0.0
 10
138.931629
 20
73.141462
 30
0.0
 10
138.931629
 20
73.764719
 30
0.0
  0
SPLINE
  5
116
100
AcDbEntity
  8
Bottom
 62
4
100
AcDbSpline
 70
8
 71
3
 72
8
 73
4
 74
0
 40
0
 40
0
 40
0
 40
0
 40
1
 40
1
 40
1
 40
1
 10
138.931629
 20
73.764719
 30
0.0
 10
138.931629
 20
74.387977
 30
0.0
 10
139.179217
 20
74.985707
 30
0.0
 10
139.619927
 20
75.426417
 30
0.0
  0
SPLINE
  5
117
100
AcDbEntity
  8
Bottom
 62
4
100
AcDbSpline
 70
8
 71
3
 72
8
 73
4
 74
0
 40
0
 40
0
 40
0
 40
0
 40
1
 40
1
 40
1
 40
1
 10
139.619927
 20
75.426417
 30
0.0
 10
140.060636
 20
75.867126
 30
0.0
 10
140.658367
 20
76.114714
 30
0.0
 10
141.281624
 20
76.114714
 30
0.0
  0
SPLINE
  5
118
100
AcDbEntity
  8
Bottom
 62
4
100
AcDbSpline
 70
8
 71
3
 72
8
 73
4
 74
0
 40
0
 40
0
 40
0
 40
0
 40
1
 40
1
 40
1
 40
1
 10
141.281624
 20
76.114714
 30
0.0
 10
141.904882
 20
76.114714
 30
0.0
 10
142.502612
 20
75.867126
 30
0.0
 10
142.943321
 20
75.426417
 30
0.0
  0
SPLINE
  5
119
100
AcDbEntity
  8
Bottom
 62
4
100
AcDbSpline
 70
8
 71
3
 72
8
 73
4
 74
0
 40
0
 40
0
 40
0
 40
0
 40
1
 40
1
 40
1
 40
1
 10
142.943321
 20
75.426417
 30
0.0
 10
143.384031
 20
74.985707
 30
0.0
 10
143.631619
 20
74.387977
 30
0.0
 10
143.631619
 20
73.764719
 30
0.0
  0
SPLINE
  5
11a
100
AcDbEntity
  8
Bottom
 62
4
100
AcDbSpline
 70
8
 71
3
 72
8
 73
4
 74
0
 40
0
 40
0
 40
0
 40
0
 40
1
 40
1
 40
1
 40
1
 10
-44.354342
 20
74.300729
 30
0.0
 10
-44.354342
 20
73.677472
 30
0.0
 10
-44.601930
 20
73.079741
 30
0.0
 10
-45.042639
 20
72.639032
 30
0.0
  0
SPLINE
  5
11b
100
AcDbEntity
  8
Bottom
 62
4
100
AcDbSpline
 70
8
 71
3
 72
8
 73
4
 74
0
 40
0
 40
0
 40
0
 40
0
 40
1
 40
1
 40
1
 40
1
 10
-45.042639
 20
72.639032
 30
0.0
 10
-45.483349
 20
72.198322
 30
0.0
 10
-46.081079
 20
71.950734
 30
0.0
 10
-46.704337
 20
71.950734
 30
0.0
  0
SPLINE
  5
11c
100
AcDbEntity
  8
Bottom
 62
4
100
AcDbSpline
 70
8
 71
3
 72
8
 73
4
 74
0
 40
0
 40
0
 40
0
 40
0
 40
1
 40
1
 40
1
 40
1
 10
-46.704337
 20
71.950734
 30
0.0
 10
-47.327594
 20
71.950734
 30
0.0
 10
-47.925324
 20
72.198322
 30
0.0
 10
-48.366034
 20
72.639032
 30
0.0
  0
SPLINE
  5
11d
100
AcDbEntity
  8
Bottom
 62
4
100
AcDbSpline
 70
8
 71
3
 72
8
 73
4
 74
0
 40
0
 40
0
 40
0
 40
0
 40
1
 40
1
 40
1
 40
1
 10
-48.366034
 20
72.639032
 30
0.0
 10
-48.806743
 20
73.079741
 30
0.0
 10
-49.054331
 20
73.677472
 30
0.0
 10
-49.054331
 20
74.300729
 30
0.0
  0
SPLINE
  5
11e
100
AcDbEntity
  8
Bottom
 62
4
100
AcDbSpline
 70
8
 71
3
 72
8
 73
4
 74
0
 40
0
 40
0
 40
0
 40
0
 40
1
 40
1
 40
1
 40
1
 10
-49.054331
 20
74.300729
 30
0.0
 10
-49.054331
 20
74.923986
 30
0.0
 10
-48.806743
 20
75.521717
 30
0.0
 10
-48.366034
 20
75.962426
 30
0.0
  0
SPLINE
  5
11f
100
AcDbEntity
  8
Bottom
 62
4
100
AcDbSpline
 70
8
 71
3
 72
8
 73
4
 74
0
 40
0
 40
0
 40
0
 40
0
 40
1
 40
1
 40
1
 40
1
 10
-48.366034
 20
75.962426
 30
0.0
 10
-47.925324
 20
76.403136
 30
0.0
 10
-47.327594
 20
76.650724
 30
0.0
 10
-46.704337
 20
76.650724
 30
0.0
  0
SPLINE
  5
120
100
AcDbEntity
  8
Bottom
 62
4
100
AcDbSpline
 70
8
 71
3
 72
8
 73
4
 74
0
 40
0
 40
0
 40
0
 40
0
 40
1
 40
1
 40
1
 40
1
 10
-46.704337
 20
76.650724
 30
0.0
 10
-46.081079
 20
76.650724
 30
0.0
 10
-45.483349
 20
76.403136
 30
0.0
 10
-45.042639
 20
75.962426
 30
0.0
  0
SPLINE
  5
121
100
AcDbEntity
  8
Bottom
 62
4
100
AcDbSpline
 70
8
 71
3
 72
8
 73
4
 74
0
 40
0
 40
0
 40
0
 40
0
 40
1
 40
1
 40
1
 40
1
 10
-45.042639
 20
75.962426
 30
0.0
 10
-44.601930
 20
75.521717
 30
0.0
 10
-44.354342
 20
74.923986
 30
0.0
 10
-44.354342
 20
74.300729
 30
0.0
  0
SPLINE
  5
122
100
AcDbEntity
  8
Bottom
 62
4
100
AcDbSpline
 70
8
 71
3
 72
8
 73
4
 74
0
 40
0
 40
0
 40
0
 40
0
 40
1
 40
1
 40
1
 40
1
 10
49.153231
 20
74.300729
 30
0.0
 10
49.153231
 20
73.677472
 30
0.0
 10
48.905643
 20
73.079741
 30
0.0
 10
48.464934
 20
72.639032
 30
0.0
  0
SPLINE
  5
123
100
AcDbEntity
  8
Bottom
 62
4
100
AcDbSpline
 70
8
 71
3
 72
8
 73
4
 74
0
 40
0
 40
0
 40
0
 40
0
 40
1
 40
1
 40
1
 40
1
 10
48.464934
 20
72.639032
 30
0.0
 10
48.024224
 20
72.198322
 30
0.0
 10
47.426494
 20
71.950734
 30
0.0
 10
46.803236
 20
71.950734
 30
0.0
  0
SPLINE
  5
124
100
AcDbEntity
  8
Bottom
 62
4
100
AcDbSpline
 70
8
 71
3
 72
8
 73
4
 74
0
 40
0
 40
0
 40
0
 40
0
 40
1
 40
1
 40
1
 40
1
 10
46.803236
 20
71.950734
 30
0.0
 10
46.179979
 20
71.950734
 30
0.0
 10
45.582249
 20
72.198322
 30
0.0
 10
45.141539
 20
72.639032
 30
0.0
  0
SPLINE
  5
125
100
AcDbEntity
  8
Bottom
 62
4
100
AcDbSpline
 70
8
 71
3
 72
8
 73
4
 74
0
 40
0
 40
0
 40
0
 40
0
 40
1
 40
1
 40
1
 40
1
 10
45.141539
 20
72.639032
 30
0.0
 10
44.700830
 20
73.079741
 30
0.0
 10
44.453242
 20
73.677472
 30
0.0
 10
44.453242
 20
74.300729
 30
0.0
  0
SPLINE
  5
126
100
AcDbEntity
  8
Bottom
 62
4
100
AcDbSpline
 70
8
 71
3
 72
8
 73
4
 74
0
 40
0
 40
0
 40
0
 40
0
 40
1
 40
1
 40
1
 40
1
 10
44.453242
 20
74.300729
 30
0.0
 10
44.453242
 20
74.923986
 30
0.0
 10
44.700830
 20
75.521717
 30
0.0
 10
45.141539
 20
75.962426
 30
0.0
  0
SPLINE
  5
127
100
AcDbEntity
  8
Bottom
 62
4
100
AcDbSpline
 70
8
 71
3
 72
8
 73
4
 74
0
 40
0
 40
0
 40
0
 40
0
 40
1
 40
1
 40
1
 40
1
 10
45.141539
 20
75.962426
 30
0.0
 10
45.582249
 20
76.403136
 30
0.0
 10
46.179979
 20
76.650724
 30
0.0
 10
46.803236
 20
76.650724
 30
0.0
  0
SPLINE
  5
128
100
AcDbEntity
  8
Bottom
 62
4
100
AcDbSpline
 70
8
 71
3
 72
8
 73
4
 74
0
 40
0
 40
0
 40
0
 40
0
 40
1
 40
1
 40
1
 40
1
 10
46.803236
 20
76.650724
 30
0.0
 10
47.426494
 20
76.650724
 30
0.0
 10
48.024224
 20
76.403136
 30
0.0
 10
48.464934
 20
75.962426
 30
0.0
  0
SPLINE
  5
129
100
AcDbEntity
  8
Bottom
 62
4
100
AcDbSpline
 70
8
 71
3
 72
8
 73
4
 74
0
 40
0
 40
0
 40
0
 40
0
 40
1
 40
1
 40
1
 40
1
 10
48.464934
 20
75.962426
 30
0.0
 10
48.905643
 20
75.521717
 30
0.0
 10
49.153231
 20
74.923986
 30
0.0
 10
49.153231
 20
74.300729
 30
0.0
  0
SPLINE
  5
12a
100
AcDbEntity
  8
Bottom
 62
4
100
AcDbSpline
 70
8
 71
3
 72
8
 73
4
 74
0
 40
0
 40
0
 40
0
 40
0
 40
1
 40
1
 40
1
 40
1
 10
-138.832423
 20
73.764727
 30
0.0
 10
-138.832423
 20
73.141470
 30
0.0
 10
-139.080011
 20
72.543739
 30
0.0
 10
-139.520720
 20
72.103030
 30
0.0
  0
SPLINE
  5
12b
100
AcDbEntity
  8
Bottom
 62
4
100
AcDbSpline
 70
8
 71
3
 72
8
 73
4
 74
0
 40
0
 40
0
 40
0
 40
0
 40
1
 40
1
 40
1
 40
1
 10
-139.520720
 20
72.103030
 30
0.0
 10
-139.961430
 20
71.662320
 30
0.0
 10
-140.559160
 20
71.414732
 30
0.0
 10
-141.182417
 20
71.414732
 30
0.0
  0
SPLINE
  5
12c
100
AcDbEntity
  8
Bottom
 62
4
100
AcDbSpline
 70
8
 71
3
 72
8
 73
4
 74
0
 40
0
 40
0
 40
0
 40
0
 40
1
 40
1
 40
1
 40
1
 10
-141.182417
 20
71.414732
 30
0.0
 10
-141.805675
 20
71.414732
 30
0.0
 10
-142.403405
 20
71.662320
 30
0.0
 10
-142.844115
 20
72.103030
 30
0.0
  0
SPLINE
  5
12d
100
AcDbEntity
  8
Bottom
 62
4
100
AcDbSpline
 70
8
 71
3
 72
8
 73
4
 74
0
 40
0
 40
0
 40
0
 40
0
 40
1
 40
1
 40
1
 40
1
 10
-142.844115
 20
72.103030
 30
0.0
 10
-143.284824
 20
72.543739
 30
0.0
 10
-143.532412
 20
73.141470
 30
0.0
 10
-143.532412
 20
73.764727
 30
0.0
  0
SPLINE
  5
12e
100
AcDbEntity
  8
Bottom
 62
4
100
AcDbSpline
 70
8
 71
3
 72
8
 73
4
 74
0
 40
0
 40
0
 40
0
 40
0
 40
1
 40
1
 40
1
 40
1
 10
-143.532412
 20
73.764727
 30
0.0
 10
-143.532412
 20
74.387984
 30
0.0
 10
-143.284824
 20
74.985715
 30
0.0
 10
-142.844115
 20
75.426424
 30
0.0
  0
SPLINE
  5
12f
100
AcDbEntity
  8
Bottom
 62
4
100
AcDbSpline
 70
8
 71
3
 72
8
 73
4
 74
0
 40
0
 40
0
 40
0
 40
0
 40
1
 40
1
 40
1
 40
1
 10
-142.844115
 20
75.426424
 30
0.0
 10
-142.403405
 20
75.867134
 30
0.0
 10
-141.805675
 20
76.114722
 30
0.0
 10
-141.182417
 20
76.114722
 30
0.0
  0
SPLINE
  5
130
100
AcDbEntity
  8
Bottom
 62
4
100
AcDbSpline
 70
8
 71
3
 72
8
 73
4
 74
0
 40
0
 40
0
 40
0
 40
0
 40
1
 40
1
 40
1
 40
1
 10
-141.182417
 20
76.114722
 30
0.0
 10
-140.559160
 20
76.114722
 30
0.0
 10
-139.961430
 20
75.867134
 30
0.0
 10
-139.520720
 20
75.426424
 30
0.0
  0
SPLINE
  5
131
100
AcDbEntity
  8
Bottom
 62
4
100
AcDbSpline
 70
8
 71
3
 72
8
 73
4
 74
0
 40
0
 40
0
 40
0
 40
0
 40
1
 40
1
 40
1
 40
1
 10
-139.520720
 20
75.426424
 30
0.0
 10
-139.080011
 20
74.985715
 30
0.0
 10
-138.832423
 20
74.387984
 30
0.0
 10
-138.832423
 20
73.764727
 30
0.0
  0
SPLINE
  5
132
100
AcDbEntity
  8
Bottom
 62
4
100
AcDbSpline
 70
8
 71
3
 72
8
 73
4
 74
0
 40
0
 40
0
 40
0
 40
0
 40
1
 40
1
 40
1
 40
1
 10
-144.897189
 20
79.034046
 30
0.0
 10
-145.449558
 20
79.034046
 30
0.0
 10
-146.028627
 20
78.605217
 30
0.0
 10
-146.190126
 20
78.076998
 30
0.0
  0
LINE
  5
133
100
AcDbEntity
  8
Bottom
 62
4
100
AcDbLine
 10
-146.190126
 20
78.076998
 30
0.0
 11
-176.793879
 21
-22.023651
 31
0.0
  0
SPLINE
  5
134
100
AcDbEntity
  8
Bottom
 62
4
100
AcDbSpline
 70
8
 71
3
 72
8
 73
4
 74
0
 40
0
 40
0
 40
0
 40
0
 40
1
 40
1
 40
1
 40
1
 10
-176.793879
 20
-22.023651
 30
0.0
 10
-176.955368
 20
-22.551870
 30
0.0
 10
-176.664979
 20
-23.130759
 30
0.0
 10
-176.144820
 20
-23.316588
 30
0.0
  0
LINE
  5
135
100
AcDbEntity
  8
Bottom
 62
4
100
AcDbLine
 10
-176.144820
 20
-23.316588
 30
0.0
 11
-21.408353
 21
-78.597326
 31
0.0
  0
SPLINE
  5
136
100
AcDbEntity
  8
Bottom
 62
4
100
AcDbSpline
 70
8
 71
3
 72
8
 73
4
 74
0
 40
0
 40
0
 40
0
 40
0
 40
1
 40
1
 40
1
 40
1
 10
-21.408353
 20
-78.597326
 30
0.0
 10
-20.888184
 20
-78.783156
 30
0.0
 10
-20.018716
 20
-78.934255
 30
0.0
 10
-19.466347
 20
-78.934255
 30
0.0
  0
LINE
  5
137
100
AcDbEntity
  8
Bottom
 62
4
100
AcDbLine
 10
-19.466347
 20
-78.934255
 30
0.0
 11
19.565287
 21
-78.934255
 31
0.0
  0
SPLINE
  5
138
100
AcDbEntity
  8
Bottom
 62
4
100
AcDbSpline
 70
8
 71
3
 72
8
 73
4
 74
0
 40
0
 40
0
 40
0
 40
0
 40
1
 40
1
 40
1
 40
1
 10
19.565287
 20
-78.934255
 30
0.0
 10
20.117625
 20
-78.934255
 30
0.0
 10
20.987104
 20
-78.783156
 30
0.0
 10
21.507272
 20
-78.597326
 30
0.0
  0
LINE
  5
139
100
AcDbEntity
  8
Bottom
 62
4
100
AcDbLine
 10
21.507272
 20
-78.597326
 30
0.0
 11
176.243222
 21
-23.316588
 31
0.0
  0
SPLINE
  5
13a
100
AcDbEntity
  8
Bottom
 62
4
100
AcDbSpline
 70
8
 71
3
 72
8
 73
4
 74
0
 40
0
 40
0
 40
0
 40
0
 40
1
 40
1
 40
1
 40
1
 10
176.243222
 20
-23.316588
 30
0.0
 10
176.763371
 20
-23.130759
 30
0.0
 10
177.054280
 20
-22.551870
 30
0.0
 10
176.892800
 20
-22.023651
 30
0.0
  0
LINE
  5
13b
100
AcDbEntity
  8
Bottom
 62
4
100
AcDbLine
 10
176.892800
 20
-22.023651
 30
0.0
 11
146.288518
 21
78.077518
 31
0.0
  0
SPLINE
  5
13c
100
AcDbEntity
  8
Bottom
 62
4
100
AcDbSpline
 70
8
 71
3
 72
8
 73
4
 74
0
 40
0
 40
0
 40
0
 40
0
 40
1
 40
1
 40
1
 40
1
 10
146.288518
 20
78.077518
 30
0.0
 10
146.127038
 20
78.605737
 30
0.0
 10
145.548450
 20
79.034046
 30
0.0
 10
144.996111
 20
79.034046
 30
0.0
  0
LINE
  5
13d
100
AcDbEntity
  8
Bottom
 62
4
100
AcDbLine
 10
144.996111
 20
79.034046
 30
0.0
 11
-144.897189
 21
79.034046
 31
0.0
  0
SPLINE
  5
13e
100
AcDbEntity
  8
Bottom
 62
7
100
AcDbSpline
 70
8
 71
3
 72
8
 73
4
 74
0
 40
0
 40
0
 40
0
 40
0
 40
1
 40
1
 40
1
 40
1
 10
-134.040245
 20
66.622972
 30
0.0
 10
-135.358261
 20
65.304957
 30
0.0
 10
-137.495187
 20
65.304957
 30
0.0
 10
-138.813203
 20
66.622972
 30
0.0
  0
SPLINE
  5
13f
100
AcDbEntity
  8
Bottom
 62
7
100
AcDbSpline
 70
8
 71
3
 72
8
 73
4
 74
0
 40
0
 40
0
 40
0
 40
0
 40
1
 40
1
 40
1
 40
1
 10
-138.813203
 20
66.622972
 30
0.0
 10
-140.131219
 20
67.940988
 30
0.0
 10
-140.131220
 20
70.077915
 30
0.0
 10
-138.813205
 20
71.395932
 30
0.0
  0
SPLINE
  5
140
100
AcDbEntity
  8
Bottom
 62
7
100
AcDbSpline
 70
8
 71
3
 72
8
 73
4
 74
0
 40
0
 40
0
 40
0
 40
0
 40
1
 40
1
 40
1
 40
1
 10
-138.813205
 20
71.395932
 30
0.0
 10
-138.180271
 20
72.028866
 30
0.0
 10
-137.321828
 20
72.384444
 30
0.0
 10
-136.426725
 20
72.384444
 30
0.0
  0
SPLINE
  5
141
100
AcDbEntity
  8
Bottom
 62
7
100
AcDbSpline
 70
8
 71
3
 72
8
 73
4
 74
0
 40
0
 40
0
 40
0
 40
0
 40
1
 40
1
 40
1
 40
1
 10
-136.426725
 20
72.384444
 30
0.0
 10
-135.531621
 20
72.384444
 30
0.0
 10
-134.673179
 20
72.028866
 30
0.0
 10
-134.040245
 20
71.395932
 30
0.0
  0
SPLINE
  5
142
100
AcDbEntity
  8
Bottom
 62
7
100
AcDbSpline
 70
8
 71
3
 72
8
 73
4
 74
0
 40
0
 40
0
 40
0
 40
0
 40
1
 40
1
 40
1
 40
1
 10
-134.040245
 20
71.395932
 30
0.0
 10
-132.722229
 20
70.077916
 30
0.0
 10
-132.722229
 20
67.940989
 30
0.0
 10
-134.040245
 20
66.622972
 30
0.0
  0
LINE
  5
143
100
AcDbEntity
  8
Bottom
 62
7
100
AcDbLine
 10
-134.040245
 20
66.622972
 30
0.0
 11
-134.040245
 21
66.622972
 31
0.0
  0
SPLINE
  5
144
100
AcDbEntity
  8
Bottom
 62
7
100
AcDbSpline
 70
8
 71
3
 72
8
 73
4
 74
0
 40
0
 40
0
 40
0
 40
0
 40
1
 40
1
 40
1
 40
1
 10
138.912850
 20
66.622972
 30
0.0
 10
137.594834
 20
65.304957
 30
0.0
 10
135.457909
 20
65.304957
 30
0.0
 10
134.139893
 20
66.622972
 30
0.0
  0
SPLINE
  5
145
100
AcDbEntity
  8
Bottom
 62
7
100
AcDbSpline
 70
8
 71
3
 72
8
 73
4
 74
0
 40
0
 40
0
 40
0
 40
0
 40
1
 40
1
 40
1
 40
1
 10
134.139893
 20
66.622972
 30
0.0
 10
132.821876
 20
67.940988
 30
0.0
 10
132.821875
 20
70.077915
 30
0.0
 10
134.139891
 20
71.395932
 30
0.0
  0
SPLINE
  5
146
100
AcDbEntity
  8
Bottom
 62
7
100
AcDbSpline
 70
8
 71
3
 72
8
 73
4
 74
0
 40
0
 40
0
 40
0
 40
0
 40
1
 40
1
 40
1
 40
1
 10
134.139891
 20
71.395932
 30
0.0
 10
134.772825
 20
72.028866
 30
0.0
 10
135.631267
 20
72.384444
 30
0.0
 10
136.526371
 20
72.384444
 30
0.0
  0
SPLINE
  5
147
100
AcDbEntity
  8
Bottom
 62
7
100
AcDbSpline
 70
8
 71
3
 72
8
 73
4
 74
0
 40
0
 40
0
 40
0
 40
0
 40
1
 40
1
 40
1
 40
1
 10
136.526371
 20
72.384444
 30
0.0
 10
137.421474
 20
72.384444
 30
0.0
 10
138.279917
 20
72.028866
 30
0.0
 10
138.912850
 20
71.395932
 30
0.0
  0
SPLINE
  5
148
100
AcDbEntity
  8
Bottom
 62
7
100
AcDbSpline
 70
8
 71
3
 72
8
 73
4
 74
0
 40
0
 40
0
 40
0
 40
0
 40
1
 40
1
 40
1
 40
1
 10
138.912850
 20
71.395932
 30
0.0
 10
140.230867
 20
70.077916
 30
0.0
 10
140.230867
 20
67.940989
 30
0.0
 10
138.912850
 20
66.622972
 30
0.0
  0
LINE
  5
149
100
AcDbEntity
  8
Bottom
 62
7
100
AcDbLine
 10
138.912850
 20
66.622972
 30
0.0
 11
138.912850
 21
66.622972
 31
0.0
  0
SPLINE
  5
14a
100
AcDbEntity
  8
Bottom
 62
7
100
AcDbSpline
 70
8
 71
3
 72
8
 73
4
 74
0
 40
0
 40
0
 40
0
 40
0
 40
1
 40
1
 40
1
 40
1
 10
167.767587
 20
-17.286842
 30
0.0
 10
166.449570
 20
-18.604857
 30
0.0
 10
164.312645
 20
-18.604857
 30
0.0
 10
162.994629
 20
-17.286842
 30
0.0
  0
SPLINE
  5
14b
100
AcDbEntity
  8
Bottom
 62
7
100
AcDbSpline
 70
8
 71
3
 72
8
 73
4
 74
0
 40
0
 40
0
 40
0
 40
0
 40
1
 40
1
 40
1
 40
1
 10
162.994629
 20
-17.286842
 30
0.0
 10
161.676612
 20
-15.968826
 30
0.0
 10
161.676611
 20
-13.831899
 30
0.0
 10
162.994627
 20
-12.513882
 30
0.0
  0
SPLINE
  5
14c
100
AcDbEntity
  8
Bottom
 62
7
100
AcDbSpline
 70
8
 71
3
 72
8
 73
4
 74
0
 40
0
 40
0
 40
0
 40
0
 40
1
 40
1
 40
1
 40
1
 10
162.994627
 20
-12.513882
 30
0.0
 10
163.627561
 20
-11.880948
 30
0.0
 10
164.486003
 20
-11.525370
 30
0.0
 10
165.381107
 20
-11.525370
 30
0.0
  0
SPLINE
  5
14d
100
AcDbEntity
  8
Bottom
 62
7
100
AcDbSpline
 70
8
 71
3
 72
8
 73
4
 74
0
 40
0
 40
0
 40
0
 40
0
 40
1
 40
1
 40
1
 40
1
 10
165.381107
 20
-11.525370
 30
0.0
 10
166.276210
 20
-11.525370
 30
0.0
 10
167.134653
 20
-11.880948
 30
0.0
 10
167.767587
 20
-12.513882
 30
0.0
  0
SPLINE
  5
14e
100
AcDbEntity
  8
Bottom
 62
7
100
AcDbSpline
 70
8
 71
3
 72
8
 73
4
 74
0
 40
0
 40
0
 40
0
 40
0
 40
1
 40
1
 40
1
 40
1
 10
167.767587
 20
-12.513882
 30
0.0
 10
169.085603
 20
-13.831899
 30
0.0
 10
169.085603
 20
-15.968825
 30
0.0
 10
167.767587
 20
-17.286842
 30
0.0
  0
LINE
  5
14f
100
AcDbEntity
  8
Bottom
 62
7
100
AcDbLine
 10
167.767587
 20
-17.286842
 30
0.0
 11
167.767587
 21
-17.286842
 31
0.0
  0
SPLINE
  5
150
100
AcDbEntity
  8
Bottom
 62
7
100
AcDbSpline
 70
8
 71
3
 72
8
 73
4
 74
0
 40
0
 40
0
 40
0
 40
0
 40
1
 40
1
 40
1
 40
1
 10
-162.896181
 20
-17.286842
 30
0.0
 10
-164.214197
 20
-18.604857
 30
0.0
 10
-166.351123
 20
-18.604857
 30
0.0
 10
-167.669139
 20
-17.286842
 30
0.0
  0
SPLINE
  5
151
100
AcDbEntity
  8
Bottom
 62
7
100
AcDbSpline
 70
8
 71
3
 72
8
 73
4
 74
0
 40
0
 40
0
 40
0
 40
0
 40
1
 40
1
 40
1
 40
1
 10
-167.669139
 20
-17.286842
 30
0.0
 10
-168.987156
 20
-15.968826
 30
0.0
 10
-168.987156
 20
-13.831899
 30
0.0
 10
-167.669141
 20
-12.513882
 30
0.0
  0
SPLINE
  5
152
100
AcDbEntity
  8
Bottom
 62
7
100
AcDbSpline
 70
8
 71
3
 72
8
 73
4
 74
0
 40
0
 40
0
 40
0
 40
0
 40
1
 40
1
 40
1
 40
1
 10
-167.669141
 20
-12.513882
 30
0.0
 10
-167.036207
 20
-11.880948
 30
0.0
 10
-166.177765
 20
-11.525370
 30
0.0
 10
-165.282661
 20
-11.525370
 30
0.0
  0
SPLINE
  5
153
100
AcDbEntity
  8
Bottom
 62
7
100
AcDbSpline
 70
8
 71
3
 72
8
 73
4
 74
0
 40
0
 40
0
 40
0
 40
0
 40
1
 40
1
 40
1
 40
1
 10
-165.282661
 20
-11.525370
 30
0.0
 10
-164.387557
 20
-11.525370
 30
0.0
 10
-163.529115
 20
-11.880948
 30
0.0
 10
-162.896181
 20
-12.513882
 30
0.0
  0
SPLINE
  5
154
100
AcDbEntity
  8
Bottom
 62
7
100
AcDbSpline
 70
8
 71
3
 72
8
 73
4
 74
0
 40
0
 40
0
 40
0
 40
0
 40
1
 40
1
 40
1
 40
1
 10
-162.896181
 20
-12.513882
 30
0.0
 10
-161.578165
 20
-13.831899
 30
0.0
 10
-161.578165
 20
-15.968825
 30
0.0
 10
-162.896181
 20
-17.286842
 30
0.0
  0
LINE
  5
155
100
AcDbEntity
  8
Bottom
 62
7
100
AcDbLine
 10
-162.896181
 20
-17.286842
 30
0.0
 11
-162.896181
 21
-17.286842
 31
0.0
  0
SPLINE
  5
156
100
AcDbEntity
  8
Bottom
 62
7
100
AcDbSpline
 70
8
 71
3
 72
8
 73
4
 74
0
 40
0
 40
0
 40
0
 40
0
 40
1
 40
1
 40
1
 40
1
 10
2.435453
 20
-67.311931
 30
0.0
 10
1.117437
 20
-68.629946
 30
0.0
 10
-1.019489
 20
-68.629946
 30
0.0
 10
-2.337505
 20
-67.311931
 30
0.0
  0
SPLINE
  5
157
100
AcDbEntity
  8
Bottom
 62
7
100
AcDbSpline
 70
8
 71
3
 72
8
 73
4
 74
0
 40
0
 40
0
 40
0
 40
0
 40
1
 40
1
 40
1
 40
1
 10
-2.337505
 20
-67.311931
 30
0.0
 10
-3.655522
 20
-65.993915
 30
0.0
 10
-3.655523
 20
-63.856988
 30
0.0
 10
-2.337507
 20
-62.538972
 30
0.0
  0
SPLINE
  5
158
100
AcDbEntity
  8
Bottom
 62
7
100
AcDbSpline
 70
8
 71
3
 72
8
 73
4
 74
0
 40
0
 40
0
 40
0
 40
0
 40
1
 40
1
 40
1
 40
1
 10
-2.337507
 20
-62.538972
 30
0.0
 10
-1.704573
 20
-61.906038
 30
0.0
 10
-0.846131
 20
-61.550459
 30
0.0
 10
0.048973
 20
-61.550459
 30
0.0
  0
SPLINE
  5
159
100
AcDbEntity
  8
Bottom
 62
7
100
AcDbSpline
 70
8
 71
3
 72
8
 73
4
 74
0
 40
0
 40
0
 40
0
 40
0
 40
1
 40
1
 40
1
 40
1
 10
0.048973
 20
-61.550459
 30
0.0
 10
0.944076
 20
-61.550459
 30
0.0
 10
1.802519
 20
-61.906038
 30
0.0
 10
2.435453
 20
-62.538972
 30
0.0
  0
SPLINE
  5
15a
100
AcDbEntity
  8
Bottom
 62
7
100
AcDbSpline
 70
8
 71
3
 72
8
 73
4
 74
0
 40
0
 40
0
 40
0
 40
0
 40
1
 40
1
 40
1
 40
1
 10
2.435453
 20
-62.538972
 30
0.0
 10
3.753469
 20
-63.856988
 30
0.0
 10
3.753469
 20
-65.993915
 30
0.0
 10
2.435453
 20
-67.311931
 30
0.0
  0
LINE
  5
15b
100
AcDbEntity
  8
Bottom
 62
7
100
AcDbLine
 10
2.435453
 20
-67.311931
 30
0.0
 11
2.435453
 21
-67.311931
 31
0.0
  0
LINE
  5
15c
100
AcDbEntity
  8
Bottom
 62
7
100
AcDbLine
 10
-17.930020
 20
6.675195
 30
0.0
 11
-19.191168
 21
6.675195
 31
0.0
  0
LINE
  5
15d
100
AcDbEntity
  8
Bottom
 62
7
100
AcDbLine
 10
-19.191168
 20
6.675195
 30
0.0
 11
-19.191168
 21
0.292778
 31
0.0
  0
LINE
  5
15e
100
AcDbEntity
  8
Bottom
 62
7
100
AcDbLine
 10
-19.191168
 20
0.292778
 30
0.0
 11
-17.930020
 21
-0.968343
 31
0.0
  0
LINE
  5
15f
100
AcDbEntity
  8
Bottom
 62
7
100
AcDbLine
 10
-17.930020
 20
-0.968343
 30
0.0
 11
-17.930020
 21
6.675195
 31
0.0
  0
LINE
  5
160
100
AcDbEntity
  8
Bottom
 62
7
100
AcDbLine
 10
-11.243145
 20
6.664220
 30
0.0
 11
-11.243145
 21
2.069336
 31
0.0
  0
LINE
  5
161
100
AcDbEntity
  8
Bottom
 62
7
100
AcDbLine
 10
-11.243145
 20
2.069336
 30
0.0
 11
-16.342484
 21
6.664220
 31
0.0
  0
LINE
  5
162
100
AcDbEntity
  8
Bottom
 62
7
100
AcDbLine
 10
-16.342484
 20
6.664220
 30
0.0
 11
-16.342484
 21
4.723211
 31
0.0
  0
LINE
  5
163
100
AcDbEntity
  8
Bottom
 62
7
100
AcDbLine
 10
-16.342484
 20
4.723211
 30
0.0
 11
-9.960078
 21
-1.023185
 31
0.0
  0
LINE
  5
164
100
AcDbEntity
  8
Bottom
 62
7
100
AcDbLine
 10
-9.960078
 20
-1.023185
 30
0.0
 11
-9.960078
 21
6.664220
 31
0.0
  0
LINE
  5
165
100
AcDbEntity
  8
Bottom
 62
7
100
AcDbLine
 10
-9.960078
 20
6.664220
 30
0.0
 11
-11.243145
 21
6.664220
 31
0.0
  0
SPLINE
  5
166
100
AcDbEntity
  8
Bottom
 62
7
100
AcDbSpline
 70
8
 71
3
 72
8
 73
4
 74
0
 40
0
 40
0
 40
0
 40
0
 40
1
 40
1
 40
1
 40
1
 10
-2.288455
 20
4.306460
 30
0.0
 10
-2.496854
 20
4.767054
 30
0.0
 10
-2.770964
 20
5.172804
 30
0.0
 10
-3.121903
 20
5.523712
 30
0.0
  0
SPLINE
  5
167
100
AcDbEntity
  8
Bottom
 62
7
100
AcDbSpline
 70
8
 71
3
 72
8
 73
4
 74
0
 40
0
 40
0
 40
0
 40
0
 40
1
 40
1
 40
1
 40
1
 10
-3.121903
 20
5.523712
 30
0.0
 10
-3.472812
 20
5.874642
 30
0.0
 10
-3.878581
 20
6.148809
 30
0.0
 10
-4.339150
 20
6.357184
 30
0.0
  0
SPLINE
  5
168
100
AcDbEntity
  8
Bottom
 62
7
100
AcDbSpline
 70
8
 71
3
 72
8
 73
4
 74
0
 40
0
 40
0
 40
0
 40
0
 40
1
 40
1
 40
1
 40
1
 10
-4.339150
 20
6.357184
 30
0.0
 10
-4.810719
 20
6.554507
 30
0.0
 10
-5.304178
 20
6.664220
 30
0.0
 10
-5.819617
 20
6.664220
 30
0.0
  0
LINE
  5
169
100
AcDbEntity
  8
Bottom
 62
7
100
AcDbLine
 10
-5.819617
 20
6.664220
 30
0.0
 11
-8.374751
 21
6.664220
 31
0.0
  0
LINE
  5
16a
100
AcDbEntity
  8
Bottom
 62
7
100
AcDbLine
 10
-8.374751
 20
6.664220
 30
0.0
 11
-7.113634
 21
5.370204
 31
0.0
  0
LINE
  5
16b
100
AcDbEntity
  8
Bottom
 62
7
100
AcDbLine
 10
-7.113634
 20
5.370204
 30
0.0
 11
-5.819617
 21
5.370204
 31
0.0
  0
SPLINE
  5
16c
100
AcDbEntity
  8
Bottom
 62
7
100
AcDbSpline
 70
8
 71
3
 72
8
 73
4
 74
0
 40
0
 40
0
 40
0
 40
0
 40
1
 40
1
 40
1
 40
1
 10
-5.819617
 20
5.370204
 30
0.0
 10
-5.479658
 20
5.370204
 30
0.0
 10
-5.150679
 20
5.304274
 30
0.0
 10
-4.843619
 20
5.172881
 30
0.0
  0
SPLINE
  5
16d
100
AcDbEntity
  8
Bottom
 62
7
100
AcDbSpline
 70
8
 71
3
 72
8
 73
4
 74
0
 40
0
 40
0
 40
0
 40
0
 40
1
 40
1
 40
1
 40
1
 10
-4.843619
 20
5.172881
 30
0.0
 10
-4.536550
 20
5.041253
 30
0.0
 10
-4.262391
 20
4.854868
 30
0.0
 10
-4.021141
 20
4.624570
 30
0.0
  0
SPLINE
  5
16e
100
AcDbEntity
  8
Bottom
 62
7
100
AcDbSpline
 70
8
 71
3
 72
8
 73
4
 74
0
 40
0
 40
0
 40
0
 40
0
 40
1
 40
1
 40
1
 40
1
 10
-4.021141
 20
4.624570
 30
0.0
 10
-3.790842
 20
4.383452
 30
0.0
 10
-3.604422
 20
4.120109
 30
0.0
 10
-3.472812
 20
3.802097
 30
0.0
  0
SPLINE
  5
16f
100
AcDbEntity
  8
Bottom
 62
7
100
AcDbSpline
 70
8
 71
3
 72
8
 73
4
 74
0
 40
0
 40
0
 40
0
 40
0
 40
1
 40
1
 40
1
 40
1
 10
-3.472812
 20
3.802097
 30
0.0
 10
-3.341183
 20
3.495034
 30
0.0
 10
-3.275483
 20
3.166051
 30
0.0
 10
-3.275483
 20
2.826091
 30
0.0
  0
SPLINE
  5
170
100
AcDbEntity
  8
Bottom
 62
7
100
AcDbSpline
 70
8
 71
3
 72
8
 73
4
 74
0
 40
0
 40
0
 40
0
 40
0
 40
1
 40
1
 40
1
 40
1
 10
-3.275483
 20
2.826091
 30
0.0
 10
-3.275483
 20
2.475162
 30
0.0
 10
-3.341383
 20
2.146176
 30
0.0
 10
-3.472812
 20
1.839114
 30
0.0
  0
SPLINE
  5
171
100
AcDbEntity
  8
Bottom
 62
7
100
AcDbSpline
 70
8
 71
3
 72
8
 73
4
 74
0
 40
0
 40
0
 40
0
 40
0
 40
1
 40
1
 40
1
 40
1
 10
-3.472812
 20
1.839114
 30
0.0
 10
-3.604442
 20
1.532052
 30
0.0
 10
-3.779872
 20
1.257909
 30
0.0
 10
-4.021141
 20
1.016640
 30
0.0
  0
SPLINE
  5
172
100
AcDbEntity
  8
Bottom
 62
7
100
AcDbSpline
 70
8
 71
3
 72
8
 73
4
 74
0
 40
0
 40
0
 40
0
 40
0
 40
1
 40
1
 40
1
 40
1
 10
-4.021141
 20
1.016640
 30
0.0
 10
-4.251441
 20
0.786344
 30
0.0
 10
-4.525580
 20
0.599916
 30
0.0
 10
-4.832639
 20
0.468307
 30
0.0
  0
SPLINE
  5
173
100
AcDbEntity
  8
Bottom
 62
7
100
AcDbSpline
 70
8
 71
3
 72
8
 73
4
 74
0
 40
0
 40
0
 40
0
 40
0
 40
1
 40
1
 40
1
 40
1
 10
-4.832639
 20
0.468307
 30
0.0
 10
-5.139699
 20
0.336936
 30
0.0
 10
-5.468688
 20
0.270983
 30
0.0
 10
-5.819617
 20
0.270983
 30
0.0
  0
LINE
  5
174
100
AcDbEntity
  8
Bottom
 62
7
100
AcDbLine
 10
-5.819617
 20
0.270983
 30
0.0
 11
-7.113634
 21
0.270983
 31
0.0
  0
LINE
  5
175
100
AcDbEntity
  8
Bottom
 62
7
100
AcDbLine
 10
-7.113634
 20
0.270983
 30
0.0
 11
-8.374751
 21
-1.012084
 31
0.0
  0
LINE
  5
176
100
AcDbEntity
  8
Bottom
 62
7
100
AcDbLine
 10
-8.374751
 20
-1.012084
 30
0.0
 11
-5.819617
 21
-1.012084
 31
0.0
  0
SPLINE
  5
177
100
AcDbEntity
  8
Bottom
 62
7
100
AcDbSpline
 70
8
 71
3
 72
8
 73
4
 74
0
 40
0
 40
0
 40
0
 40
0
 40
1
 40
1
 40
1
 40
1
 10
-5.819617
 20
-1.012084
 30
0.0
 10
-5.304178
 20
-1.012084
 30
0.0
 10
-4.810719
 20
-0.913414
 30
0.0
 10
-4.339150
 20
-0.715995
 30
0.0
  0
SPLINE
  5
178
100
AcDbEntity
  8
Bottom
 62
7
100
AcDbSpline
 70
8
 71
3
 72
8
 73
4
 74
0
 40
0
 40
0
 40
0
 40
0
 40
1
 40
1
 40
1
 40
1
 10
-4.339150
 20
-0.715995
 30
0.0
 10
-3.867611
 20
-0.507595
 30
0.0
 10
-3.461862
 20
-0.233479
 30
0.0
 10
-3.110923
 20
0.117453
 30
0.0
  0
SPLINE
  5
179
100
AcDbEntity
  8
Bottom
 62
7
100
AcDbSpline
 70
8
 71
3
 72
8
 73
4
 74
0
 40
0
 40
0
 40
0
 40
0
 40
1
 40
1
 40
1
 40
1
 10
-3.110923
 20
0.117453
 30
0.0
 10
-2.770964
 20
0.468359
 30
0.0
 10
-2.496804
 20
0.874134
 30
0.0
 10
-2.288455
 20
1.334728
 30
0.0
  0
SPLINE
  5
17a
100
AcDbEntity
  8
Bottom
 62
7
100
AcDbSpline
 70
8
 71
3
 72
8
 73
4
 74
0
 40
0
 40
0
 40
0
 40
0
 40
1
 40
1
 40
1
 40
1
 10
-2.288455
 20
1.334728
 30
0.0
 10
-2.091125
 20
1.806270
 30
0.0
 10
-1.992366
 20
2.299759
 30
0.0
 10
-1.992366
 20
2.826145
 30
0.0
  0
SPLINE
  5
17b
100
AcDbEntity
  8
Bottom
 62
7
100
AcDbSpline
 70
8
 71
3
 72
8
 73
4
 74
0
 40
0
 40
0
 40
0
 40
0
 40
1
 40
1
 40
1
 40
1
 10
-1.992366
 20
2.826145
 30
0.0
 10
-1.992366
 20
3.341558
 30
0.0
 10
-2.091065
 20
3.835047
 30
0.0
 10
-2.288455
 20
4.306588
 30
0.0
  0
LINE
  5
17c
100
AcDbEntity
  8
Bottom
 62
7
100
AcDbLine
 10
-2.288455
 20
4.306588
 30
0.0
 11
-2.288455
 21
4.306460
 31
0.0
  0
SPLINE
  5
17d
100
AcDbEntity
  8
Bottom
 62
7
100
AcDbSpline
 70
8
 71
3
 72
8
 73
4
 74
0
 40
0
 40
0
 40
0
 40
0
 40
1
 40
1
 40
1
 40
1
 10
4.703260
 20
2.178996
 30
0.0
 10
4.703260
 20
1.652612
 30
0.0
 10
4.505930
 20
1.202990
 30
0.0
 10
4.122051
 20
0.830136
 30
0.0
  0
SPLINE
  5
17e
100
AcDbEntity
  8
Bottom
 62
7
100
AcDbSpline
 70
8
 71
3
 72
8
 73
4
 74
0
 40
0
 40
0
 40
0
 40
0
 40
1
 40
1
 40
1
 40
1
 10
4.122051
 20
0.830136
 30
0.0
 10
3.749202
 20
0.457283
 30
0.0
 10
3.299583
 20
0.259906
 30
0.0
 10
2.773194
 20
0.259906
 30
0.0
  0
SPLINE
  5
17f
100
AcDbEntity
  8
Bottom
 62
7
100
AcDbSpline
 70
8
 71
3
 72
8
 73
4
 74
0
 40
0
 40
0
 40
0
 40
0
 40
1
 40
1
 40
1
 40
1
 10
2.773194
 20
0.259906
 30
0.0
 10
2.246805
 20
0.259906
 30
0.0
 10
1.786216
 20
0.457230
 30
0.0
 10
1.413357
 20
0.830136
 30
0.0
  0
SPLINE
  5
180
100
AcDbEntity
  8
Bottom
 62
7
100
AcDbSpline
 70
8
 71
3
 72
8
 73
4
 74
0
 40
0
 40
0
 40
0
 40
0
 40
1
 40
1
 40
1
 40
1
 10
1.413357
 20
0.830136
 30
0.0
 10
1.040508
 20
1.202990
 30
0.0
 10
0.854078
 20
1.652612
 30
0.0
 10
0.854078
 20
2.178996
 30
0.0
  0
LINE
  5
181
100
AcDbEntity
  8
Bottom
 62
7
100
AcDbLine
 10
0.854078
 20
2.178996
 30
0.0
 11
0.854078
 21
6.664220
 31
0.0
  0
LINE
  5
182
100
AcDbEntity
  8
Bottom
 62
7
100
AcDbLine
 10
0.854078
 20
6.664220
 30
0.0
 11
-0.407039
 21
6.664220
 31
0.0
  0
LINE
  5
183
100
AcDbEntity
  8
Bottom
 62
7
100
AcDbLine
 10
-0.407039
 20
6.664220
 30
0.0
 11
-0.407039
 21
2.178996
 31
0.0
  0
SPLINE
  5
184
100
AcDbEntity
  8
Bottom
 62
7
100
AcDbSpline
 70
8
 71
3
 72
8
 73
4
 74
0
 40
0
 40
0
 40
0
 40
0
 40
1
 40
1
 40
1
 40
1
 10
-0.407039
 20
2.178996
 30
0.0
 10
-0.407039
 20
1.301678
 30
0.0
 10
-0.099980
 20
0.545021
 30
0.0
 10
0.514119
 20
-0.091026
 30
0.0
  0
SPLINE
  5
185
100
AcDbEntity
  8
Bottom
 62
7
100
AcDbSpline
 70
8
 71
3
 72
8
 73
4
 74
0
 40
0
 40
0
 40
0
 40
0
 40
1
 40
1
 40
1
 40
1
 10
0.514119
 20
-0.091026
 30
0.0
 10
1.150167
 20
-0.705150
 30
0.0
 10
1.906846
 20
-1.012211
 30
0.0
 10
2.773194
 20
-1.012211
 30
0.0
  0
SPLINE
  5
186
100
AcDbEntity
  8
Bottom
 62
7
100
AcDbSpline
 70
8
 71
3
 72
8
 73
4
 74
0
 40
0
 40
0
 40
0
 40
0
 40
1
 40
1
 40
1
 40
1
 10
2.773194
 20
-1.012211
 30
0.0
 10
3.650512
 20
-1.012211
 30
0.0
 10
4.407170
 20
-0.705150
 30
0.0
 10
5.043219
 20
-0.091026
 30
0.0
  0
SPLINE
  5
187
100
AcDbEntity
  8
Bottom
 62
7
100
AcDbSpline
 70
8
 71
3
 72
8
 73
4
 74
0
 40
0
 40
0
 40
0
 40
0
 40
1
 40
1
 40
1
 40
1
 10
5.043219
 20
-0.091026
 30
0.0
 10
5.668317
 20
0.534048
 30
0.0
 10
5.975347
 20
1.290730
 30
0.0
 10
5.975347
 20
2.178996
 30
0.0
  0
LINE
  5
188
100
AcDbEntity
  8
Bottom
 62
7
100
AcDbLine
 10
5.975347
 20
2.178996
 30
0.0
 11
4.703260
 21
2.178996
 31
0.0
  0
LINE
  5
189
100
AcDbEntity
  8
Bottom
 62
7
100
AcDbLine
 10
12.850732
 20
6.631325
 30
0.0
 11
8.694491
 21
6.631325
 31
0.0
  0
SPLINE
  5
18a
100
AcDbEntity
  8
Bottom
 62
7
100
AcDbSpline
 70
8
 71
3
 72
8
 73
4
 74
0
 40
0
 40
0
 40
0
 40
0
 40
1
 40
1
 40
1
 40
1
 10
8.694491
 20
6.631325
 30
0.0
 10
8.069412
 20
6.631325
 30
0.0
 10
7.543033
 20
6.411850
 30
0.0
 10
7.115334
 20
5.973357
 30
0.0
  0
SPLINE
  5
18b
100
AcDbEntity
  8
Bottom
 62
7
100
AcDbSpline
 70
8
 71
3
 72
8
 73
4
 74
0
 40
0
 40
0
 40
0
 40
0
 40
1
 40
1
 40
1
 40
1
 10
7.115334
 20
5.973357
 30
0.0
 10
6.928825
 20
5.786847
 30
0.0
 10
6.775405
 20
5.578556
 30
0.0
 10
6.676685
 20
5.348281
 30
0.0
  0
LINE
  5
18c
100
AcDbEntity
  8
Bottom
 62
7
100
AcDbLine
 10
6.676685
 20
5.348281
 30
0.0
 11
11.567684
 21
5.348281
 31
0.0
  0
LINE
  5
18d
100
AcDbEntity
  8
Bottom
 62
7
100
AcDbLine
 10
11.567684
 20
5.348281
 30
0.0
 11
12.850732
 21
6.631325
 31
0.0
  0
SPLINE
  5
18e
100
AcDbEntity
  8
Bottom
 62
7
100
AcDbSpline
 70
8
 71
3
 72
8
 73
4
 74
0
 40
0
 40
0
 40
0
 40
0
 40
1
 40
1
 40
1
 40
1
 10
12.192753
 20
2.771174
 30
0.0
 10
11.754114
 20
3.209845
 30
0.0
 10
11.227725
 20
3.429168
 30
0.0
 10
10.613606
 20
3.429168
 30
0.0
  0
LINE
  5
18f
100
AcDbEntity
  8
Bottom
 62
7
100
AcDbLine
 10
10.613606
 20
3.429168
 30
0.0
 11
6.676685
 21
3.429168
 31
0.0
  0
SPLINE
  5
190
100
AcDbEntity
  8
Bottom
 62
7
100
AcDbSpline
 70
8
 71
3
 72
8
 73
4
 74
0
 40
0
 40
0
 40
0
 40
0
 40
1
 40
1
 40
1
 40
1
 10
6.676685
 20
3.429168
 30
0.0
 10
6.786425
 20
3.198873
 30
0.0
 10
6.928935
 20
3.001470
 30
0.0
 10
7.115334
 20
2.804070
 30
0.0
  0
SPLINE
  5
191
100
AcDbEntity
  8
Bottom
 62
7
100
AcDbSpline
 70
8
 71
3
 72
8
 73
4
 74
0
 40
0
 40
0
 40
0
 40
0
 40
1
 40
1
 40
1
 40
1
 10
7.115334
 20
2.804070
 30
0.0
 10
7.554003
 20
2.376397
 30
0.0
 10
8.080392
 20
2.157075
 30
0.0
 10
8.694491
 20
2.157075
 30
0.0
  0
LINE
  5
192
100
AcDbEntity
  8
Bottom
 62
7
100
AcDbLine
 10
8.694491
 20
2.157075
 30
0.0
 11
10.613606
 21
2.157075
 31
0.0
  0
SPLINE
  5
193
100
AcDbEntity
  8
Bottom
 62
7
100
AcDbSpline
 70
8
 71
3
 72
8
 73
4
 74
0
 40
0
 40
0
 40
0
 40
0
 40
1
 40
1
 40
1
 40
1
 10
10.613606
 20
2.157075
 30
0.0
 10
10.876796
 20
2.157075
 30
0.0
 10
11.096115
 20
2.058405
 30
0.0
 10
11.282545
 20
1.871934
 30
0.0
  0
SPLINE
  5
194
100
AcDbEntity
  8
Bottom
 62
7
100
AcDbSpline
 70
8
 71
3
 72
8
 73
4
 74
0
 40
0
 40
0
 40
0
 40
0
 40
1
 40
1
 40
1
 40
1
 10
11.282545
 20
1.871934
 30
0.0
 10
11.479875
 20
1.674610
 30
0.0
 10
11.567684
 20
1.455210
 30
0.0
 10
11.567684
 20
1.192042
 30
0.0
  0
SPLINE
  5
195
100
AcDbEntity
  8
Bottom
 62
7
100
AcDbSpline
 70
8
 71
3
 72
8
 73
4
 74
0
 40
0
 40
0
 40
0
 40
0
 40
1
 40
1
 40
1
 40
1
 10
11.567684
 20
1.192042
 30
0.0
 10
11.567684
 20
1.060414
 30
0.0
 10
11.544984
 20
0.939899
 30
0.0
 10
11.501985
 20
0.819162
 30
0.0
  0
SPLINE
  5
196
100
AcDbEntity
  8
Bottom
 62
7
100
AcDbSpline
 70
8
 71
3
 72
8
 73
4
 74
0
 40
0
 40
0
 40
0
 40
0
 40
1
 40
1
 40
1
 40
1
 10
11.501985
 20
0.819162
 30
0.0
 10
11.458185
 20
0.698604
 30
0.0
 10
11.381435
 20
0.599941
 30
0.0
 10
11.293585
 20
0.512127
 30
0.0
  0
SPLINE
  5
197
100
AcDbEntity
  8
Bottom
 62
7
100
AcDbSpline
 70
8
 71
3
 72
8
 73
4
 74
0
 40
0
 40
0
 40
0
 40
0
 40
1
 40
1
 40
1
 40
1
 10
11.293585
 20
0.512127
 30
0.0
 10
11.205785
 20
0.424267
 30
0.0
 10
11.107075
 20
0.358594
 30
0.0
 10
10.986526
 20
0.314803
 30
0.0
  0
SPLINE
  5
198
100
AcDbEntity
  8
Bottom
 62
7
100
AcDbSpline
 70
8
 71
3
 72
8
 73
4
 74
0
 40
0
 40
0
 40
0
 40
0
 40
1
 40
1
 40
1
 40
1
 10
10.986526
 20
0.314803
 30
0.0
 10
10.865966
 20
0.271013
 30
0.0
 10
10.745156
 20
0.238033
 30
0.0
 10
10.613666
 20
0.238033
 30
0.0
  0
LINE
  5
199
100
AcDbEntity
  8
Bottom
 62
7
100
AcDbLine
 10
10.613666
 20
0.238033
 30
0.0
 11
7.751453
 21
0.238033
 31
0.0
  0
LINE
  5
19a
100
AcDbEntity
  8
Bottom
 62
7
100
AcDbLine
 10
7.751453
 20
0.238033
 30
0.0
 11
6.468406
 21
-1.045011
 31
0.0
  0
LINE
  5
19b
100
AcDbEntity
  8
Bottom
 62
7
100
AcDbLine
 10
6.468406
 20
-1.045011
 30
0.0
 11
10.613666
 21
-1.045011
 31
0.0
  0
SPLINE
  5
19c
100
AcDbEntity
  8
Bottom
 62
7
100
AcDbSpline
 70
8
 71
3
 72
8
 73
4
 74
0
 40
0
 40
0
 40
0
 40
0
 40
1
 40
1
 40
1
 40
1
 10
10.613666
 20
-1.045011
 30
0.0
 10
11.227775
 20
-1.045011
 30
0.0
 10
11.754154
 20
-0.825537
 30
0.0
 10
12.192833
 20
-0.387040
 30
0.0
  0
SPLINE
  5
19d
100
AcDbEntity
  8
Bottom
 62
7
100
AcDbSpline
 70
8
 71
3
 72
8
 73
4
 74
0
 40
0
 40
0
 40
0
 40
0
 40
1
 40
1
 40
1
 40
1
 10
12.192833
 20
-0.387040
 30
0.0
 10
12.390153
 20
-0.189717
 30
0.0
 10
12.532782
 20
0.018733
 30
0.0
 10
12.642452
 20
0.238033
 30
0.0
  0
SPLINE
  5
19e
100
AcDbEntity
  8
Bottom
 62
7
100
AcDbSpline
 70
8
 71
3
 72
8
 73
4
 74
0
 40
0
 40
0
 40
0
 40
0
 40
1
 40
1
 40
1
 40
1
 10
12.642452
 20
0.238033
 30
0.0
 10
12.784912
 20
0.534121
 30
0.0
 10
12.861672
 20
0.852156
 30
0.0
 10
12.861672
 20
1.192141
 30
0.0
  0
SPLINE
  5
19f
100
AcDbEntity
  8
Bottom
 62
7
100
AcDbSpline
 70
8
 71
3
 72
8
 73
4
 74
0
 40
0
 40
0
 40
0
 40
0
 40
1
 40
1
 40
1
 40
1
 10
12.861672
 20
1.192141
 30
0.0
 10
12.861672
 20
1.543048
 30
0.0
 10
12.784872
 20
1.861084
 30
0.0
 10
12.642452
 20
2.157172
 30
0.0
  0
SPLINE
  5
1a0
100
AcDbEntity
  8
Bottom
 62
7
100
AcDbSpline
 70
8
 71
3
 72
8
 73
4
 74
0
 40
0
 40
0
 40
0
 40
0
 40
1
 40
1
 40
1
 40
1
 10
12.642452
 20
2.157172
 30
0.0
 10
12.532702
 20
2.376648
 30
0.0
 10
12.379253
 20
2.584844
 30
0.0
 10
12.192833
 20
2.771273
 30
0.0
  0
LINE
  5
1a1
100
AcDbEntity
  8
Bottom
 62
7
100
AcDbLine
 10
12.192833
 20
2.771273
 30
0.0
 11
12.192753
 21
2.771174
 31
0.0
  0
LINE
  5
1a2
100
AcDbEntity
  8
Bottom
 62
7
100
AcDbLine
 10
13.900609
 20
6.631325
 30
0.0
 11
13.900609
 21
5.348281
 31
0.0
  0
LINE
  5
1a3
100
AcDbEntity
  8
Bottom
 62
7
100
AcDbLine
 10
13.900609
 20
5.348281
 30
0.0
 11
16.455744
 21
5.348281
 31
0.0
  0
LINE
  5
1a4
100
AcDbEntity
  8
Bottom
 62
7
100
AcDbLine
 10
16.455744
 20
5.348281
 30
0.0
 11
16.455744
 21
4.065188
 31
0.0
  0
LINE
  5
1a5
100
AcDbEntity
  8
Bottom
 62
7
100
AcDbLine
 10
16.455744
 20
4.065188
 30
0.0
 11
17.727831
 21
4.065188
 31
0.0
  0
LINE
  5
1a6
100
AcDbEntity
  8
Bottom
 62
7
100
AcDbLine
 10
17.727831
 20
4.065188
 30
0.0
 11
17.727831
 21
5.348281
 31
0.0
  0
LINE
  5
1a7
100
AcDbEntity
  8
Bottom
 62
7
100
AcDbLine
 10
17.727831
 20
5.348281
 30
0.0
 11
20.293975
 21
5.348281
 31
0.0
  0
LINE
  5
1a8
100
AcDbEntity
  8
Bottom
 62
7
100
AcDbLine
 10
20.293975
 20
5.348281
 30
0.0
 11
20.293975
 21
6.631325
 31
0.0
  0
LINE
  5
1a9
100
AcDbEntity
  8
Bottom
 62
7
100
AcDbLine
 10
20.293975
 20
6.631325
 30
0.0
 11
13.900609
 21
6.631325
 31
0.0
  0
LINE
  5
1aa
100
AcDbEntity
  8
Bottom
 62
7
100
AcDbLine
 10
17.738811
 20
-1.045082
 30
0.0
 11
17.738811
 21
0.237959
 31
0.0
  0
LINE
  5
1ab
100
AcDbEntity
  8
Bottom
 62
7
100
AcDbLine
 10
17.738811
 20
0.237959
 30
0.0
 11
16.455744
 21
0.237959
 31
0.0
  0
LINE
  5
1ac
100
AcDbEntity
  8
Bottom
 62
7
100
AcDbLine
 10
16.455744
 20
0.237959
 30
0.0
 11
16.455744
 21
-1.045082
 31
0.0
  0
LINE
  5
1ad
100
AcDbEntity
  8
Bottom
 62
7
100
AcDbLine
 10
16.455744
 20
-1.045082
 30
0.0
 11
17.738811
 21
-1.045082
 31
0.0
  0
SPLINE
  5
1ae
100
AcDbEntity
  8
Bottom
 62
7
100
AcDbSpline
 70
8
 71
3
 72
8
 73
4
 74
0
 40
0
 40
0
 40
0
 40
0
 40
1
 40
1
 40
1
 40
1
 10
27.350969
 20
2.650538
 30
0.0
 10
27.658039
 20
3.089183
 30
0.0
 10
27.811558
 20
3.571701
 30
0.0
 10
27.811558
 20
4.098086
 30
0.0
  0
SPLINE
  5
1af
100
AcDbEntity
  8
Bottom
 62
7
100
AcDbSpline
 70
8
 71
3
 72
8
 73
4
 74
0
 40
0
 40
0
 40
0
 40
0
 40
1
 40
1
 40
1
 40
1
 10
27.811558
 20
4.098086
 30
0.0
 10
27.811558
 20
4.799949
 30
0.0
 10
27.559319
 20
5.403102
 30
0.0
 10
27.054880
 20
5.907539
 30
0.0
  0
SPLINE
  5
1b0
100
AcDbEntity
  8
Bottom
 62
7
100
AcDbSpline
 70
8
 71
3
 72
8
 73
4
 74
0
 40
0
 40
0
 40
0
 40
0
 40
1
 40
1
 40
1
 40
1
 10
27.054880
 20
5.907539
 30
0.0
 10
26.550441
 20
6.412002
 30
0.0
 10
25.958233
 20
6.664220
 30
0.0
 10
25.256404
 20
6.664220
 30
0.0
  0
LINE
  5
1b1
100
AcDbEntity
  8
Bottom
 62
7
100
AcDbLine
 10
25.256404
 20
6.664220
 30
0.0
 11
21.889742
 21
6.664220
 31
0.0
  0
LINE
  5
1b2
100
AcDbEntity
  8
Bottom
 62
7
100
AcDbLine
 10
21.889742
 20
6.664220
 30
0.0
 11
22.624480
 21
5.370204
 31
0.0
  0
LINE
  5
1b3
100
AcDbEntity
  8
Bottom
 62
7
100
AcDbLine
 10
22.624480
 20
5.370204
 30
0.0
 11
25.256404
 21
5.370204
 31
0.0
  0
SPLINE
  5
1b4
100
AcDbEntity
  8
Bottom
 62
7
100
AcDbSpline
 70
8
 71
3
 72
8
 73
4
 74
0
 40
0
 40
0
 40
0
 40
0
 40
1
 40
1
 40
1
 40
1
 10
25.256404
 20
5.370204
 30
0.0
 10
25.596353
 20
5.370204
 30
0.0
 10
25.903423
 20
5.249647
 30
0.0
 10
26.144662
 20
4.997352
 30
0.0
  0
SPLINE
  5
1b5
100
AcDbEntity
  8
Bottom
 62
7
100
AcDbSpline
 70
8
 71
3
 72
8
 73
4
 74
0
 40
0
 40
0
 40
0
 40
0
 40
1
 40
1
 40
1
 40
1
 10
26.144662
 20
4.997352
 30
0.0
 10
26.396912
 20
4.745231
 30
0.0
 10
26.528501
 20
4.449019
 30
0.0
 10
26.528501
 20
4.098086
 30
0.0
  0
SPLINE
  5
1b6
100
AcDbEntity
  8
Bottom
 62
7
100
AcDbSpline
 70
8
 71
3
 72
8
 73
4
 74
0
 40
0
 40
0
 40
0
 40
0
 40
1
 40
1
 40
1
 40
1
 10
26.528501
 20
4.098086
 30
0.0
 10
26.528501
 20
3.747205
 30
0.0
 10
26.396872
 20
3.451115
 30
0.0
 10
26.144662
 20
3.198873
 30
0.0
  0
SPLINE
  5
1b7
100
AcDbEntity
  8
Bottom
 62
7
100
AcDbSpline
 70
8
 71
3
 72
8
 73
4
 74
0
 40
0
 40
0
 40
0
 40
0
 40
1
 40
1
 40
1
 40
1
 10
26.144662
 20
3.198873
 30
0.0
 10
25.903293
 20
2.946727
 30
0.0
 10
25.596353
 20
2.815044
 30
0.0
 10
25.256404
 20
2.815044
 30
0.0
  0
LINE
  5
1b8
100
AcDbEntity
  8
Bottom
 62
7
100
AcDbLine
 10
25.256404
 20
2.815044
 30
0.0
 11
24.104947
 21
2.825124
 31
0.0
  0
LINE
  5
1b9
100
AcDbEntity
  8
Bottom
 62
7
100
AcDbLine
 10
24.104947
 20
2.825124
 30
0.0
 11
26.342062
 21
-1.013105
 31
0.0
  0
LINE
  5
1ba
100
AcDbEntity
  8
Bottom
 62
7
100
AcDbLine
 10
26.342062
 20
-1.013105
 30
0.0
 11
27.811558
 21
-1.013105
 31
0.0
  0
LINE
  5
1bb
100
AcDbEntity
  8
Bottom
 62
7
100
AcDbLine
 10
27.811558
 20
-1.013105
 30
0.0
 11
26.232412
 21
1.739421
 31
0.0
  0
SPLINE
  5
1bc
100
AcDbEntity
  8
Bottom
 62
7
100
AcDbSpline
 70
8
 71
3
 72
8
 73
4
 74
0
 40
0
 40
0
 40
0
 40
0
 40
1
 40
1
 40
1
 40
1
 10
26.232412
 20
1.739421
 30
0.0
 10
26.682021
 20
1.914839
 30
0.0
 10
27.054880
 20
2.221937
 30
0.0
 10
27.350969
 20
2.649634
 30
0.0
  0
LINE
  5
1bd
100
AcDbEntity
  8
Bottom
 62
7
100
AcDbLine
 10
27.350969
 20
2.649634
 30
0.0
 11
27.350969
 21
2.650538
 31
0.0
  0
LINE
  5
1be
100
AcDbEntity
  8
Bottom
 62
7
100
AcDbLine
 10
30.668802
 20
6.675195
 30
0.0
 11
29.407685
 21
6.675195
 31
0.0
  0
LINE
  5
1bf
100
AcDbEntity
  8
Bottom
 62
7
100
AcDbLine
 10
29.407685
 20
6.675195
 30
0.0
 11
29.407685
 21
0.292778
 31
0.0
  0
LINE
  5
1c0
100
AcDbEntity
  8
Bottom
 62
7
100
AcDbLine
 10
29.407685
 20
0.292778
 30
0.0
 11
30.668802
 21
-0.968343
 31
0.0
  0
LINE
  5
1c1
100
AcDbEntity
  8
Bottom
 62
7
100
AcDbLine
 10
30.668802
 20
-0.968343
 30
0.0
 11
30.668802
 21
6.675195
 31
0.0
  0
LINE
  5
1c2
100
AcDbEntity
  8
Bottom
 62
7
100
AcDbLine
 10
32.256339
 20
-0.913525
 30
0.0
 11
32.256339
 21
-1.023268
 31
0.0
  0
LINE
  5
1c3
100
AcDbEntity
  8
Bottom
 62
7
100
AcDbLine
 10
32.256339
 20
-1.023268
 30
0.0
 11
37.366667
 21
-1.023268
 31
0.0
  0
LINE
  5
1c4
100
AcDbEntity
  8
Bottom
 62
7
100
AcDbLine
 10
37.366667
 20
-1.023268
 30
0.0
 11
37.366667
 21
0.259799
 31
0.0
  0
LINE
  5
1c5
100
AcDbEntity
  8
Bottom
 62
7
100
AcDbLine
 10
37.366667
 20
0.259799
 30
0.0
 11
33.517486
 21
0.259799
 31
0.0
  0
LINE
  5
1c6
100
AcDbEntity
  8
Bottom
 62
7
100
AcDbLine
 10
33.517486
 20
0.259799
 30
0.0
 11
32.256339
 21
-0.913525
 31
0.0
  0
LINE
  5
1c7
100
AcDbEntity
  8
Bottom
 62
7
100
AcDbLine
 10
32.256339
 20
6.664220
 30
0.0
 11
33.517486
 21
5.370204
 31
0.0
  0
LINE
  5
1c8
100
AcDbEntity
  8
Bottom
 62
7
100
AcDbLine
 10
33.517486
 20
5.370204
 30
0.0
 11
37.366667
 21
5.370204
 31
0.0
  0
LINE
  5
1c9
100
AcDbEntity
  8
Bottom
 62
7
100
AcDbLine
 10
37.366667
 20
5.370204
 30
0.0
 11
37.366667
 21
6.664220
 31
0.0
  0
LINE
  5
1ca
100
AcDbEntity
  8
Bottom
 62
7
100
AcDbLine
 10
37.366667
 20
6.664220
 30
0.0
 11
32.256339
 21
6.664220
 31
0.0
  0
LINE
  5
1cb
100
AcDbEntity
  8
Bottom
 62
7
100
AcDbLine
 10
37.366667
 20
2.178996
 30
0.0
 11
37.366667
 21
3.451115
 31
0.0
  0
LINE
  5
1cc
100
AcDbEntity
  8
Bottom
 62
7
100
AcDbLine
 10
37.366667
 20
3.451115
 30
0.0
 11
32.256339
 21
3.451115
 31
0.0
  0
LINE
  5
1cd
100
AcDbEntity
  8
Bottom
 62
7
100
AcDbLine
 10
32.256339
 20
3.451115
 30
0.0
 11
32.256339
 21
2.178996
 31
0.0
  0
LINE
  5
1ce
100
AcDbEntity
  8
Bottom
 62
7
100
AcDbLine
 10
32.256339
 20
2.178996
 30
0.0
 11
37.366667
 21
2.178996
 31
0.0
  0
LINE
  5
1cf
100
AcDbEntity
  8
Bottom
 62
7
100
AcDbLine
 10
45.342790
 20
6.631325
 30
0.0
 11
41.186549
 21
6.631325
 31
0.0
  0
SPLINE
  5
1d0
100
AcDbEntity
  8
Bottom
 62
7
100
AcDbSpline
 70
8
 71
3
 72
8
 73
4
 74
0
 40
0
 40
0
 40
0
 40
0
 40
1
 40
1
 40
1
 40
1
 10
41.186549
 20
6.631325
 30
0.0
 10
40.561480
 20
6.631325
 30
0.0
 10
40.035091
 20
6.411850
 30
0.0
 10
39.607392
 20
5.973357
 30
0.0
  0
SPLINE
  5
1d1
100
AcDbEntity
  8
Bottom
 62
7
100
AcDbSpline
 70
8
 71
3
 72
8
 73
4
 74
0
 40
0
 40
0
 40
0
 40
0
 40
1
 40
1
 40
1
 40
1
 10
39.607392
 20
5.973357
 30
0.0
 10
39.420883
 20
5.786847
 30
0.0
 10
39.267433
 20
5.578556
 30
0.0
 10
39.168743
 20
5.348281
 30
0.0
  0
LINE
  5
1d2
100
AcDbEntity
  8
Bottom
 62
7
100
AcDbLine
 10
39.168743
 20
5.348281
 30
0.0
 11
44.059722
 21
5.348281
 31
0.0
  0
LINE
  5
1d3
100
AcDbEntity
  8
Bottom
 62
7
100
AcDbLine
 10
44.059722
 20
5.348281
 30
0.0
 11
45.342790
 21
6.631325
 31
0.0
  0
SPLINE
  5
1d4
100
AcDbEntity
  8
Bottom
 62
7
100
AcDbSpline
 70
8
 71
3
 72
8
 73
4
 74
0
 40
0
 40
0
 40
0
 40
0
 40
1
 40
1
 40
1
 40
1
 10
44.684791
 20
2.771174
 30
0.0
 10
44.246152
 20
3.209845
 30
0.0
 10
43.719753
 20
3.429168
 30
0.0
 10
43.105635
 20
3.429168
 30
0.0
  0
LINE
  5
1d5
100
AcDbEntity
  8
Bottom
 62
7
100
AcDbLine
 10
43.105635
 20
3.429168
 30
0.0
 11
39.168743
 21
3.429168
 31
0.0
  0
SPLINE
  5
1d6
100
AcDbEntity
  8
Bottom
 62
7
100
AcDbSpline
 70
8
 71
3
 72
8
 73
4
 74
0
 40
0
 40
0
 40
0
 40
0
 40
1
 40
1
 40
1
 40
1
 10
39.168743
 20
3.429168
 30
0.0
 10
39.278493
 20
3.198873
 30
0.0
 10
39.420943
 20
3.001470
 30
0.0
 10
39.607392
 20
2.804070
 30
0.0
  0
SPLINE
  5
1d7
100
AcDbEntity
  8
Bottom
 62
7
100
AcDbSpline
 70
8
 71
3
 72
8
 73
4
 74
0
 40
0
 40
0
 40
0
 40
0
 40
1
 40
1
 40
1
 40
1
 10
39.607392
 20
2.804070
 30
0.0
 10
40.046041
 20
2.376397
 30
0.0
 10
40.572420
 20
2.157075
 30
0.0
 10
41.186549
 20
2.157075
 30
0.0
  0
LINE
  5
1d8
100
AcDbEntity
  8
Bottom
 62
7
100
AcDbLine
 10
41.186549
 20
2.157075
 30
0.0
 11
43.105635
 21
2.157075
 31
0.0
  0
SPLINE
  5
1d9
100
AcDbEntity
  8
Bottom
 62
7
100
AcDbSpline
 70
8
 71
3
 72
8
 73
4
 74
0
 40
0
 40
0
 40
0
 40
0
 40
1
 40
1
 40
1
 40
1
 10
43.105635
 20
2.157075
 30
0.0
 10
43.368834
 20
2.157075
 30
0.0
 10
43.588183
 20
2.058405
 30
0.0
 10
43.774603
 20
1.871934
 30
0.0
  0
SPLINE
  5
1da
100
AcDbEntity
  8
Bottom
 62
7
100
AcDbSpline
 70
8
 71
3
 72
8
 73
4
 74
0
 40
0
 40
0
 40
0
 40
0
 40
1
 40
1
 40
1
 40
1
 10
43.774603
 20
1.871934
 30
0.0
 10
43.971923
 20
1.674610
 30
0.0
 10
44.059722
 20
1.455210
 30
0.0
 10
44.059722
 20
1.192042
 30
0.0
  0
SPLINE
  5
1db
100
AcDbEntity
  8
Bottom
 62
7
100
AcDbSpline
 70
8
 71
3
 72
8
 73
4
 74
0
 40
0
 40
0
 40
0
 40
0
 40
1
 40
1
 40
1
 40
1
 10
44.059722
 20
1.192042
 30
0.0
 10
44.059722
 20
1.060414
 30
0.0
 10
44.037022
 20
0.939899
 30
0.0
 10
43.993823
 20
0.819162
 30
0.0
  0
SPLINE
  5
1dc
100
AcDbEntity
  8
Bottom
 62
7
100
AcDbSpline
 70
8
 71
3
 72
8
 73
4
 74
0
 40
0
 40
0
 40
0
 40
0
 40
1
 40
1
 40
1
 40
1
 10
43.993823
 20
0.819162
 30
0.0
 10
43.950023
 20
0.698604
 30
0.0
 10
43.873263
 20
0.599941
 30
0.0
 10
43.785423
 20
0.512127
 30
0.0
  0
SPLINE
  5
1dd
100
AcDbEntity
  8
Bottom
 62
7
100
AcDbSpline
 70
8
 71
3
 72
8
 73
4
 74
0
 40
0
 40
0
 40
0
 40
0
 40
1
 40
1
 40
1
 40
1
 10
43.785423
 20
0.512127
 30
0.0
 10
43.697623
 20
0.424267
 30
0.0
 10
43.598913
 20
0.358594
 30
0.0
 10
43.478354
 20
0.314803
 30
0.0
  0
SPLINE
  5
1de
100
AcDbEntity
  8
Bottom
 62
7
100
AcDbSpline
 70
8
 71
3
 72
8
 73
4
 74
0
 40
0
 40
0
 40
0
 40
0
 40
1
 40
1
 40
1
 40
1
 10
43.478354
 20
0.314803
 30
0.0
 10
43.357794
 20
0.271013
 30
0.0
 10
43.236984
 20
0.238033
 30
0.0
 10
43.105505
 20
0.238033
 30
0.0
  0
LINE
  5
1df
100
AcDbEntity
  8
Bottom
 62
7
100
AcDbLine
 10
43.105505
 20
0.238033
 30
0.0
 11
40.243291
 21
0.238033
 31
0.0
  0
LINE
  5
1e0
100
AcDbEntity
  8
Bottom
 62
7
100
AcDbLine
 10
40.243291
 20
0.238033
 30
0.0
 11
38.960234
 21
-1.045011
 31
0.0
  0
LINE
  5
1e1
100
AcDbEntity
  8
Bottom
 62
7
100
AcDbLine
 10
38.960234
 20
-1.045011
 30
0.0
 11
43.105505
 21
-1.045011
 31
0.0
  0
SPLINE
  5
1e2
100
AcDbEntity
  8
Bottom
 62
7
100
AcDbSpline
 70
8
 71
3
 72
8
 73
4
 74
0
 40
0
 40
0
 40
0
 40
0
 40
1
 40
1
 40
1
 40
1
 10
43.105505
 20
-1.045011
 30
0.0
 10
43.719613
 20
-1.045011
 30
0.0
 10
44.246002
 20
-0.825537
 30
0.0
 10
44.684651
 20
-0.387040
 30
0.0
  0
SPLINE
  5
1e3
100
AcDbEntity
  8
Bottom
 62
7
100
AcDbSpline
 70
8
 71
3
 72
8
 73
4
 74
0
 40
0
 40
0
 40
0
 40
0
 40
1
 40
1
 40
1
 40
1
 10
44.684651
 20
-0.387040
 30
0.0
 10
44.881971
 20
-0.189717
 30
0.0
 10
45.024610
 20
0.018733
 30
0.0
 10
45.134270
 20
0.238033
 30
0.0
  0
SPLINE
  5
1e4
100
AcDbEntity
  8
Bottom
 62
7
100
AcDbSpline
 70
8
 71
3
 72
8
 73
4
 74
0
 40
0
 40
0
 40
0
 40
0
 40
1
 40
1
 40
1
 40
1
 10
45.134270
 20
0.238033
 30
0.0
 10
45.276730
 20
0.534121
 30
0.0
 10
45.353740
 20
0.852156
 30
0.0
 10
45.353740
 20
1.192141
 30
0.0
  0
SPLINE
  5
1e5
100
AcDbEntity
  8
Bottom
 62
7
100
AcDbSpline
 70
8
 71
3
 72
8
 73
4
 74
0
 40
0
 40
0
 40
0
 40
0
 40
1
 40
1
 40
1
 40
1
 10
45.353740
 20
1.192141
 30
0.0
 10
45.353740
 20
1.543048
 30
0.0
 10
45.276940
 20
1.861084
 30
0.0
 10
45.134270
 20
2.157172
 30
0.0
  0
SPLINE
  5
1e6
100
AcDbEntity
  8
Bottom
 62
7
100
AcDbSpline
 70
8
 71
3
 72
8
 73
4
 74
0
 40
0
 40
0
 40
0
 40
0
 40
1
 40
1
 40
1
 40
1
 10
45.134270
 20
2.157172
 30
0.0
 10
45.024520
 20
2.376648
 30
0.0
 10
44.871081
 20
2.584844
 30
0.0
 10
44.684651
 20
2.771273
 30
0.0
  0
LINE
  5
1e7
100
AcDbEntity
  8
Bottom
 62
7
100
AcDbLine
 10
44.684651
 20
2.771273
 30
0.0
 11
44.684791
 21
2.771174
 31
0.0
  0
SPLINE
  5
1e8
100
AcDbEntity
  8
Bottom
 62
7
100
AcDbSpline
 70
8
 71
3
 72
8
 73
4
 74
0
 40
0
 40
0
 40
0
 40
0
 40
1
 40
1
 40
1
 40
1
 10
-24.047419
 20
8.407196
 30
0.0
 10
-25.132090
 20
9.491869
 30
0.0
 10
-26.456024
 20
10.050158
 30
0.0
 10
-27.987323
 20
10.050158
 30
0.0
  0
SPLINE
  5
1e9
100
AcDbEntity
  8
Bottom
 62
7
100
AcDbSpline
 70
8
 71
3
 72
8
 73
4
 74
0
 40
0
 40
0
 40
0
 40
0
 40
1
 40
1
 40
1
 40
1
 10
-27.987323
 20
10.050158
 30
0.0
 10
-29.550524
 20
10.050158
 30
0.0
 10
-30.858509
 20
9.491869
 30
0.0
 10
-31.943179
 20
8.407196
 30
0.0
  0
SPLINE
  5
1ea
100
AcDbEntity
  8
Bottom
 62
7
100
AcDbSpline
 70
8
 71
3
 72
8
 73
4
 74
0
 40
0
 40
0
 40
0
 40
0
 40
1
 40
1
 40
1
 40
1
 10
-31.943179
 20
8.407196
 30
0.0
 10
-33.027848
 20
7.306575
 30
0.0
 10
-33.570184
 20
5.998594
 30
0.0
 10
-33.570184
 20
4.451347
 30
0.0
  0
SPLINE
  5
1eb
100
AcDbEntity
  8
Bottom
 62
7
100
AcDbSpline
 70
8
 71
3
 72
8
 73
4
 74
0
 40
0
 40
0
 40
0
 40
0
 40
1
 40
1
 40
1
 40
1
 10
-33.570184
 20
4.451347
 30
0.0
 10
-33.570184
 20
2.920048
 30
0.0
 10
-33.027848
 20
1.596110
 30
0.0
 10
-31.943179
 20
0.511436
 30
0.0
  0
SPLINE
  5
1ec
100
AcDbEntity
  8
Bottom
 62
7
100
AcDbSpline
 70
8
 71
3
 72
8
 73
4
 74
0
 40
0
 40
0
 40
0
 40
0
 40
1
 40
1
 40
1
 40
1
 10
-31.943179
 20
0.511436
 30
0.0
 10
-30.858509
 20
-0.573227
 30
0.0
 10
-29.534574
 20
-1.131516
 30
0.0
 10
-27.987323
 20
-1.131516
 30
0.0
  0
SPLINE
  5
1ed
100
AcDbEntity
  8
Bottom
 62
7
100
AcDbSpline
 70
8
 71
3
 72
8
 73
4
 74
0
 40
0
 40
0
 40
0
 40
0
 40
1
 40
1
 40
1
 40
1
 10
-27.987323
 20
-1.131516
 30
0.0
 10
-26.456024
 20
-1.131516
 30
0.0
 10
-25.132090
 20
-0.573227
 30
0.0
 10
-24.047419
 20
0.511436
 30
0.0
  0
SPLINE
  5
1ee
100
AcDbEntity
  8
Bottom
 62
7
100
AcDbSpline
 70
8
 71
3
 72
8
 73
4
 74
0
 40
0
 40
0
 40
0
 40
0
 40
1
 40
1
 40
1
 40
1
 10
-24.047419
 20
0.511436
 30
0.0
 10
-22.946798
 20
1.596110
 30
0.0
 10
-22.388513
 20
2.904091
 30
0.0
 10
-22.388513
 20
4.451347
 30
0.0
  0
SPLINE
  5
1ef
100
AcDbEntity
  8
Bottom
 62
7
100
AcDbSpline
 70
8
 71
3
 72
8
 73
4
 74
0
 40
0
 40
0
 40
0
 40
0
 40
1
 40
1
 40
1
 40
1
 10
-22.388513
 20
4.451347
 30
0.0
 10
-22.404461
 20
5.998594
 30
0.0
 10
-22.946798
 20
7.306575
 30
0.0
 10
-24.047419
 20
8.407196
 30
0.0
  0
LINE
  5
1f0
100
AcDbEntity
  8
Bottom
 62
7
100
AcDbLine
 10
-24.047419
 20
8.407196
 30
0.0
 11
-24.047419
 21
8.407196
 31
0.0
  0
SPLINE
  5
1f1
100
AcDbEntity
  8
Bottom
 62
7
100
AcDbSpline
 70
8
 71
3
 72
8
 73
4
 74
0
 40
0
 40
0
 40
0
 40
0
 40
1
 40
1
 40
1
 40
1
 10
-25.371355
 20
1.819427
 30
0.0
 10
-26.105102
 20
1.101631
 30
0.0
 10
-26.982408
 20
0.734754
 30
0.0
 10
-27.987323
 20
0.734754
 30
0.0
  0
SPLINE
  5
1f2
100
AcDbEntity
  8
Bottom
 62
7
100
AcDbSpline
 70
8
 71
3
 72
8
 73
4
 74
0
 40
0
 40
0
 40
0
 40
0
 40
1
 40
1
 40
1
 40
1
 10
-27.987323
 20
0.734754
 30
0.0
 10
-29.008190
 20
0.734754
 30
0.0
 10
-29.901447
 20
1.101631
 30
0.0
 10
-30.635195
 20
1.819427
 30
0.0
  0
SPLINE
  5
1f3
100
AcDbEntity
  8
Bottom
 62
7
100
AcDbSpline
 70
8
 71
3
 72
8
 73
4
 74
0
 40
0
 40
0
 40
0
 40
0
 40
1
 40
1
 40
1
 40
1
 10
-30.635195
 20
1.819427
 30
0.0
 10
-31.352991
 20
2.553171
 30
0.0
 10
-31.703913
 20
3.446432
 30
0.0
 10
-31.703913
 20
4.451347
 30
0.0
  0
SPLINE
  5
1f4
100
AcDbEntity
  8
Bottom
 62
7
100
AcDbSpline
 70
8
 71
3
 72
8
 73
4
 74
0
 40
0
 40
0
 40
0
 40
0
 40
1
 40
1
 40
1
 40
1
 10
-31.703913
 20
4.451347
 30
0.0
 10
-31.703913
 20
5.472210
 30
0.0
 10
-31.352991
 20
6.349513
 30
0.0
 10
-30.635195
 20
7.083267
 30
0.0
  0
SPLINE
  5
1f5
100
AcDbEntity
  8
Bottom
 62
7
100
AcDbSpline
 70
8
 71
3
 72
8
 73
4
 74
0
 40
0
 40
0
 40
0
 40
0
 40
1
 40
1
 40
1
 40
1
 10
-30.635195
 20
7.083267
 30
0.0
 10
-29.901447
 20
7.817011
 30
0.0
 10
-29.008190
 20
8.167930
 30
0.0
 10
-27.987323
 20
8.167930
 30
0.0
  0
SPLINE
  5
1f6
100
AcDbEntity
  8
Bottom
 62
7
100
AcDbSpline
 70
8
 71
3
 72
8
 73
4
 74
0
 40
0
 40
0
 40
0
 40
0
 40
1
 40
1
 40
1
 40
1
 10
-27.987323
 20
8.167930
 30
0.0
 10
-26.982408
 20
8.167930
 30
0.0
 10
-26.105102
 20
7.817011
 30
0.0
 10
-25.371355
 20
7.083267
 30
0.0
  0
SPLINE
  5
1f7
100
AcDbEntity
  8
Bottom
 62
7
100
AcDbSpline
 70
8
 71
3
 72
8
 73
4
 74
0
 40
0
 40
0
 40
0
 40
0
 40
1
 40
1
 40
1
 40
1
 10
-25.371355
 20
7.083267
 30
0.0
 10
-24.637608
 20
6.349513
 30
0.0
 10
-24.286685
 20
5.472210
 30
0.0
 10
-24.286685
 20
4.451347
 30
0.0
  0
SPLINE
  5
1f8
100
AcDbEntity
  8
Bottom
 62
7
100
AcDbSpline
 70
8
 71
3
 72
8
 73
4
 74
0
 40
0
 40
0
 40
0
 40
0
 40
1
 40
1
 40
1
 40
1
 10
-24.286685
 20
4.451347
 30
0.0
 10
-24.286685
 20
3.446432
 30
0.0
 10
-24.637608
 20
2.553171
 30
0.0
 10
-25.371355
 20
1.819427
 30
0.0
  0
LINE
  5
1f9
100
AcDbEntity
  8
Bottom
 62
7
100
AcDbLine
 10
-25.371355
 20
1.819427
 30
0.0
 11
-25.371355
 21
1.819427
 31
0.0
  0
LINE
  5
1fa
100
AcDbEntity
  8
Bottom
 62
7
100
AcDbLine
 10
-22.200692
 20
0.268177
 30
0.0
 11
-22.200692
 21
-1.119563
 31
0.0
  0
LINE
  5
1fb
100
AcDbEntity
  8
Bottom
 62
7
100
AcDbLine
 10
-22.200692
 20
-1.119563
 30
0.0
 11
-20.812953
 21
-1.131526
 31
0.0
  0
LINE
  5
1fc
100
AcDbEntity
  8
Bottom
 62
7
100
AcDbLine
 10
-20.812953
 20
-1.131526
 30
0.0
 11
-20.812953
 21
-1.119563
 31
0.0
  0
LINE
  5
1fd
100
AcDbEntity
  8
Bottom
 62
7
100
AcDbLine
 10
-20.812953
 20
-1.119563
 30
0.0
 11
-20.812953
 21
-1.119563
 31
0.0
  0
LINE
  5
1fe
100
AcDbEntity
  8
Bottom
 62
7
100
AcDbLine
 10
-20.812953
 20
-1.119563
 30
0.0
 11
-20.812953
 21
0.268177
 31
0.0
  0
LINE
  5
1ff
100
AcDbEntity
  8
Bottom
 62
7
100
AcDbLine
 10
-20.812953
 20
0.268177
 30
0.0
 11
-22.200692
 21
0.268177
 31
0.0
  0
LINE
  5
200
100
AcDbEntity
  8
Bottom
 62
7
100
AcDbLine
 10
-39.671608
 20
10.050158
 30
0.0
 11
-45.254468
 21
-1.131516
 31
0.0
  0
LINE
  5
201
100
AcDbEntity
  8
Bottom
 62
7
100
AcDbLine
 10
-45.254468
 20
-1.131516
 30
0.0
 11
-43.180834
 21
-1.131516
 31
0.0
  0
LINE
  5
202
100
AcDbEntity
  8
Bottom
 62
7
100
AcDbLine
 10
-43.180834
 20
-1.131516
 30
0.0
 11
-41.314564
 21
2.585076
 31
0.0
  0
LINE
  5
203
100
AcDbEntity
  8
Bottom
 62
7
100
AcDbLine
 10
-41.314564
 20
2.585076
 30
0.0
 11
-39.671608
 21
5.870982
 31
0.0
  0
LINE
  5
204
100
AcDbEntity
  8
Bottom
 62
7
100
AcDbLine
 10
-39.671608
 20
5.870982
 30
0.0
 11
-38.044603
 21
2.585076
 31
0.0
  0
LINE
  5
205
100
AcDbEntity
  8
Bottom
 62
7
100
AcDbLine
 10
-38.044603
 20
2.585076
 30
0.0
 11
-35.955018
 21
2.585076
 31
0.0
  0
LINE
  5
206
100
AcDbEntity
  8
Bottom
 62
7
100
AcDbLine
 10
-35.955018
 20
2.585076
 30
0.0
 11
-39.671608
 21
10.050158
 31
0.0
  0
LINE
  5
207
100
AcDbEntity
  8
Bottom
 62
7
100
AcDbLine
 10
-35.013908
 20
0.718806
 30
0.0
 11
-37.103492
 21
0.718806
 31
0.0
  0
LINE
  5
208
100
AcDbEntity
  8
Bottom
 62
7
100
AcDbLine
 10
-37.103492
 20
0.718806
 30
0.0
 11
-36.178333
 21
-1.131516
 31
0.0
  0
LINE
  5
209
100
AcDbEntity
  8
Bottom
 62
7
100
AcDbLine
 10
-36.178333
 20
-1.131516
 30
0.0
 11
-34.104699
 21
-1.131516
 31
0.0
  0
LINE
  5
20a
100
AcDbEntity
  8
Bottom
 62
7
100
AcDbLine
 10
-34.104699
 20
-1.131516
 30
0.0
 11
-35.013908
 21
0.718806
 31
0.0
  0
LINE
  5
20b
100
AcDbEntity
  8
Bottom
 62
7
100
AcDbLine
 10
-22.200692
 20
0.268177
 30
0.0
 11
-22.200692
 21
-1.119563
 31
0.0
  0
LINE
  5
20c
100
AcDbEntity
  8
Bottom
 62
7
100
AcDbLine
 10
-22.200692
 20
-1.119563
 30
0.0
 11
-20.812953
 21
-1.131526
 31
0.0
  0
LINE
  5
20d
100
AcDbEntity
  8
Bottom
 62
7
100
AcDbLine
 10
-20.812953
 20
-1.131526
 30
0.0
 11
-20.812953
 21
-1.119563
 31
0.0
  0
LINE
  5
20e
100
AcDbEntity
  8
Bottom
 62
7
100
AcDbLine
 10
-20.812953
 20
-1.119563
 30
0.0
 11
-20.812953
 21
-1.119563
 31
0.0
  0
LINE
  5
20f
100
AcDbEntity
  8
Bottom
 62
7
100
AcDbLine
 10
-20.812953
 20
-1.119563
 30
0.0
 11
-20.812953
 21
0.268177
 31
0.0
  0
LINE
  5
210
100
AcDbEntity
  8
Bottom
 62
7
100
AcDbLine
 10
-20.812953
 20
0.268177
 30
0.0
 11
-22.200692
 21
0.268177
 31
0.0
  0
LINE
  5
211
100
AcDbEntity
  8
Bottom
 62
7
100
AcDbLine
 10
-18.835448
 20
-5.485411
 30
0.0
 11
-21.061323
 21
-9.943527
 31
0.0
  0
LINE
  5
212
100
AcDbEntity
  8
Bottom
 62
7
100
AcDbLine
 10
-21.061323
 20
-9.943527
 30
0.0
 11
-20.234565
 21
-9.943527
 31
0.0
  0
LINE
  5
213
100
AcDbEntity
  8
Bottom
 62
7
100
AcDbLine
 10
-20.234565
 20
-9.943527
 30
0.0
 11
-19.490487
 21
-8.461728
 31
0.0
  0
LINE
  5
214
100
AcDbEntity
  8
Bottom
 62
7
100
AcDbLine
 10
-19.490487
 20
-8.461728
 30
0.0
 11
-18.835448
 21
-7.151639
 31
0.0
  0
LINE
  5
215
100
AcDbEntity
  8
Bottom
 62
7
100
AcDbLine
 10
-18.835448
 20
-7.151639
 30
0.0
 11
-18.186760
 21
-8.461728
 31
0.0
  0
LINE
  5
216
100
AcDbEntity
  8
Bottom
 62
7
100
AcDbLine
 10
-18.186760
 20
-8.461728
 30
0.0
 11
-17.353642
 21
-8.461728
 31
0.0
  0
LINE
  5
217
100
AcDbEntity
  8
Bottom
 62
7
100
AcDbLine
 10
-17.353642
 20
-8.461728
 30
0.0
 11
-18.835448
 21
-5.485411
 31
0.0
  0
LINE
  5
218
100
AcDbEntity
  8
Bottom
 62
7
100
AcDbLine
 10
-16.978422
 20
-9.205807
 30
0.0
 11
-17.811541
 21
-9.205807
 31
0.0
  0
LINE
  5
219
100
AcDbEntity
  8
Bottom
 62
7
100
AcDbLine
 10
-17.811541
 20
-9.205807
 30
0.0
 11
-17.442681
 21
-9.943527
 31
0.0
  0
LINE
  5
21a
100
AcDbEntity
  8
Bottom
 62
7
100
AcDbLine
 10
-17.442681
 20
-9.943527
 30
0.0
 11
-16.615923
 21
-9.943527
 31
0.0
  0
LINE
  5
21b
100
AcDbEntity
  8
Bottom
 62
7
100
AcDbLine
 10
-16.615923
 20
-9.943527
 30
0.0
 11
-16.978422
 21
-9.205807
 31
0.0
  0
SPLINE
  5
21c
100
AcDbEntity
  8
Bottom
 62
7
100
AcDbSpline
 70
8
 71
3
 72
8
 73
4
 74
0
 40
0
 40
0
 40
0
 40
0
 40
1
 40
1
 40
1
 40
1
 10
-12.493142
 20
-6.140748
 30
0.0
 10
-12.925591
 20
-5.708291
 30
0.0
 10
-13.453450
 20
-5.485704
 30
0.0
 10
-14.063969
 20
-5.485704
 30
0.0
  0
SPLINE
  5
21d
100
AcDbEntity
  8
Bottom
 62
7
100
AcDbSpline
 70
8
 71
3
 72
8
 73
4
 74
0
 40
0
 40
0
 40
0
 40
0
 40
1
 40
1
 40
1
 40
1
 10
-14.063969
 20
-5.485704
 30
0.0
 10
-14.687217
 20
-5.485704
 30
0.0
 10
-15.208706
 20
-5.708291
 30
0.0
 10
-15.641165
 20
-6.140748
 30
0.0
  0
SPLINE
  5
21e
100
AcDbEntity
  8
Bottom
 62
7
100
AcDbSpline
 70
8
 71
3
 72
8
 73
4
 74
0
 40
0
 40
0
 40
0
 40
0
 40
1
 40
1
 40
1
 40
1
 10
-15.641165
 20
-6.140748
 30
0.0
 10
-16.073624
 20
-6.579563
 30
0.0
 10
-16.289854
 20
-7.101054
 30
0.0
 10
-16.289854
 20
-7.717941
 30
0.0
  0
SPLINE
  5
21f
100
AcDbEntity
  8
Bottom
 62
7
100
AcDbSpline
 70
8
 71
3
 72
8
 73
4
 74
0
 40
0
 40
0
 40
0
 40
0
 40
1
 40
1
 40
1
 40
1
 10
-16.289854
 20
-7.717941
 30
0.0
 10
-16.289854
 20
-8.328468
 30
0.0
 10
-16.073624
 20
-8.856318
 30
0.0
 10
-15.641165
 20
-9.288775
 30
0.0
  0
SPLINE
  5
220
100
AcDbEntity
  8
Bottom
 62
7
100
AcDbSpline
 70
8
 71
3
 72
8
 73
4
 74
0
 40
0
 40
0
 40
0
 40
0
 40
1
 40
1
 40
1
 40
1
 10
-15.641165
 20
-9.288775
 30
0.0
 10
-15.208706
 20
-9.721232
 30
0.0
 10
-14.680857
 20
-9.943820
 30
0.0
 10
-14.063969
 20
-9.943820
 30
0.0
  0
SPLINE
  5
221
100
AcDbEntity
  8
Bottom
 62
7
100
AcDbSpline
 70
8
 71
3
 72
8
 73
4
 74
0
 40
0
 40
0
 40
0
 40
0
 40
1
 40
1
 40
1
 40
1
 10
-14.063969
 20
-9.943820
 30
0.0
 10
-13.453450
 20
-9.943820
 30
0.0
 10
-12.925591
 20
-9.721232
 30
0.0
 10
-12.493142
 20
-9.288775
 30
0.0
  0
SPLINE
  5
222
100
AcDbEntity
  8
Bottom
 62
7
100
AcDbSpline
 70
8
 71
3
 72
8
 73
4
 74
0
 40
0
 40
0
 40
0
 40
0
 40
1
 40
1
 40
1
 40
1
 10
-12.493142
 20
-9.288775
 30
0.0
 10
-12.054333
 20
-8.856318
 30
0.0
 10
-11.831744
 20
-8.334828
 30
0.0
 10
-11.831744
 20
-7.717941
 30
0.0
  0
SPLINE
  5
223
100
AcDbEntity
  8
Bottom
 62
7
100
AcDbSpline
 70
8
 71
3
 72
8
 73
4
 74
0
 40
0
 40
0
 40
0
 40
0
 40
1
 40
1
 40
1
 40
1
 10
-11.831744
 20
-7.717941
 30
0.0
 10
-11.837744
 20
-7.101054
 30
0.0
 10
-12.054333
 20
-6.579563
 30
0.0
 10
-12.493142
 20
-6.140748
 30
0.0
  0
LINE
  5
224
100
AcDbEntity
  8
Bottom
 62
7
100
AcDbLine
 10
-12.493142
 20
-6.140748
 30
0.0
 11
-12.493142
 21
-6.140748
 31
0.0
  0
SPLINE
  5
225
100
AcDbEntity
  8
Bottom
 62
7
100
AcDbSpline
 70
8
 71
3
 72
8
 73
4
 74
0
 40
0
 40
0
 40
0
 40
0
 40
1
 40
1
 40
1
 40
1
 10
-13.020991
 20
-8.767285
 30
0.0
 10
-13.313531
 20
-9.053468
 30
0.0
 10
-13.663310
 20
-9.199740
 30
0.0
 10
-14.063969
 20
-9.199740
 30
0.0
  0
SPLINE
  5
226
100
AcDbEntity
  8
Bottom
 62
7
100
AcDbSpline
 70
8
 71
3
 72
8
 73
4
 74
0
 40
0
 40
0
 40
0
 40
0
 40
1
 40
1
 40
1
 40
1
 10
-14.063969
 20
-9.199740
 30
0.0
 10
-14.470988
 20
-9.199740
 30
0.0
 10
-14.827127
 20
-9.053462
 30
0.0
 10
-15.119677
 20
-8.767285
 30
0.0
  0
SPLINE
  5
227
100
AcDbEntity
  8
Bottom
 62
7
100
AcDbSpline
 70
8
 71
3
 72
8
 73
4
 74
0
 40
0
 40
0
 40
0
 40
0
 40
1
 40
1
 40
1
 40
1
 10
-15.119677
 20
-8.767285
 30
0.0
 10
-15.405856
 20
-8.474739
 30
0.0
 10
-15.545776
 20
-8.118600
 30
0.0
 10
-15.545776
 20
-7.717941
 30
0.0
  0
SPLINE
  5
228
100
AcDbEntity
  8
Bottom
 62
7
100
AcDbSpline
 70
8
 71
3
 72
8
 73
4
 74
0
 40
0
 40
0
 40
0
 40
0
 40
1
 40
1
 40
1
 40
1
 10
-15.545776
 20
-7.717941
 30
0.0
 10
-15.545776
 20
-7.310924
 30
0.0
 10
-15.405856
 20
-6.961143
 30
0.0
 10
-15.119677
 20
-6.668599
 30
0.0
  0
SPLINE
  5
229
100
AcDbEntity
  8
Bottom
 62
7
100
AcDbSpline
 70
8
 71
3
 72
8
 73
4
 74
0
 40
0
 40
0
 40
0
 40
0
 40
1
 40
1
 40
1
 40
1
 10
-15.119677
 20
-6.668599
 30
0.0
 10
-14.827127
 20
-6.376054
 30
0.0
 10
-14.470988
 20
-6.236142
 30
0.0
 10
-14.063969
 20
-6.236142
 30
0.0
  0
SPLINE
  5
22a
100
AcDbEntity
  8
Bottom
 62
7
100
AcDbSpline
 70
8
 71
3
 72
8
 73
4
 74
0
 40
0
 40
0
 40
0
 40
0
 40
1
 40
1
 40
1
 40
1
 10
-14.063969
 20
-6.236142
 30
0.0
 10
-13.663310
 20
-6.236142
 30
0.0
 10
-13.313531
 20
-6.376054
 30
0.0
 10
-13.020991
 20
-6.668599
 30
0.0
  0
SPLINE
  5
22b
100
AcDbEntity
  8
Bottom
 62
7
100
AcDbSpline
 70
8
 71
3
 72
8
 73
4
 74
0
 40
0
 40
0
 40
0
 40
0
 40
1
 40
1
 40
1
 40
1
 10
-13.020991
 20
-6.668599
 30
0.0
 10
-12.728442
 20
-6.961143
 30
0.0
 10
-12.588532
 20
-7.310924
 30
0.0
 10
-12.588532
 20
-7.717941
 30
0.0
  0
SPLINE
  5
22c
100
AcDbEntity
  8
Bottom
 62
7
100
AcDbSpline
 70
8
 71
3
 72
8
 73
4
 74
0
 40
0
 40
0
 40
0
 40
0
 40
1
 40
1
 40
1
 40
1
 10
-12.588532
 20
-7.717941
 30
0.0
 10
-12.588532
 20
-8.118600
 30
0.0
 10
-12.728442
 20
-8.474739
 30
0.0
 10
-13.020991
 20
-8.767285
 30
0.0
  0
LINE
  5
22d
100
AcDbEntity
  8
Bottom
 62
7
100
AcDbLine
 10
-13.020991
 20
-8.767285
 30
0.0
 11
-13.020991
 21
-8.767285
 31
0.0
  0
SPLINE
  5
22e
100
AcDbEntity
  8
Bottom
 62
7
100
AcDbSpline
 70
8
 71
3
 72
8
 73
4
 74
0
 40
0
 40
0
 40
0
 40
0
 40
1
 40
1
 40
1
 40
1
 10
-7.742093
 20
-6.852736
 30
0.0
 10
-7.862923
 20
-6.585630
 30
0.0
 10
-8.021912
 20
-6.350323
 30
0.0
 10
-8.225422
 20
-6.146813
 30
0.0
  0
SPLINE
  5
22f
100
AcDbEntity
  8
Bottom
 62
7
100
AcDbSpline
 70
8
 71
3
 72
8
 73
4
 74
0
 40
0
 40
0
 40
0
 40
0
 40
1
 40
1
 40
1
 40
1
 10
-8.225422
 20
-6.146813
 30
0.0
 10
-8.428931
 20
-5.943306
 30
0.0
 10
-8.664241
 20
-5.784314
 30
0.0
 10
-8.931340
 20
-5.663480
 30
0.0
  0
SPLINE
  5
230
100
AcDbEntity
  8
Bottom
 62
7
100
AcDbSpline
 70
8
 71
3
 72
8
 73
4
 74
0
 40
0
 40
0
 40
0
 40
0
 40
1
 40
1
 40
1
 40
1
 10
-8.931340
 20
-5.663480
 30
0.0
 10
-9.204810
 20
-5.549013
 30
0.0
 10
-9.490989
 20
-5.485413
 30
0.0
 10
-9.789898
 20
-5.485413
 30
0.0
  0
LINE
  5
231
100
AcDbEntity
  8
Bottom
 62
7
100
AcDbLine
 10
-9.789898
 20
-5.485413
 30
0.0
 11
-11.271695
 21
-5.485413
 31
0.0
  0
LINE
  5
232
100
AcDbEntity
  8
Bottom
 62
7
100
AcDbLine
 10
-11.271695
 20
-5.485413
 30
0.0
 11
-10.540337
 21
-6.235851
 31
0.0
  0
LINE
  5
233
100
AcDbEntity
  8
Bottom
 62
7
100
AcDbLine
 10
-10.540337
 20
-6.235851
 30
0.0
 11
-9.789898
 21
-6.235851
 31
0.0
  0
SPLINE
  5
234
100
AcDbEntity
  8
Bottom
 62
7
100
AcDbSpline
 70
8
 71
3
 72
8
 73
4
 74
0
 40
0
 40
0
 40
0
 40
0
 40
1
 40
1
 40
1
 40
1
 10
-9.789898
 20
-6.235851
 30
0.0
 10
-9.592749
 20
-6.235851
 30
0.0
 10
-9.401959
 20
-6.274011
 30
0.0
 10
-9.223890
 20
-6.350319
 30
0.0
  0
SPLINE
  5
235
100
AcDbEntity
  8
Bottom
 62
7
100
AcDbSpline
 70
8
 71
3
 72
8
 73
4
 74
0
 40
0
 40
0
 40
0
 40
0
 40
1
 40
1
 40
1
 40
1
 10
-9.223890
 20
-6.350319
 30
0.0
 10
-9.045820
 20
-6.426629
 30
0.0
 10
-8.886830
 20
-6.534753
 30
0.0
 10
-8.746911
 20
-6.668302
 30
0.0
  0
SPLINE
  5
236
100
AcDbEntity
  8
Bottom
 62
7
100
AcDbSpline
 70
8
 71
3
 72
8
 73
4
 74
0
 40
0
 40
0
 40
0
 40
0
 40
1
 40
1
 40
1
 40
1
 10
-8.746911
 20
-6.668302
 30
0.0
 10
-8.613371
 20
-6.808214
 30
0.0
 10
-8.505251
 20
-6.960846
 30
0.0
 10
-8.428931
 20
-7.145275
 30
0.0
  0
SPLINE
  5
237
100
AcDbEntity
  8
Bottom
 62
7
100
AcDbSpline
 70
8
 71
3
 72
8
 73
4
 74
0
 40
0
 40
0
 40
0
 40
0
 40
1
 40
1
 40
1
 40
1
 10
-8.428931
 20
-7.145275
 30
0.0
 10
-8.352632
 20
-7.323343
 30
0.0
 10
-8.314462
 20
-7.514134
 30
0.0
 10
-8.314462
 20
-7.711284
 30
0.0
  0
SPLINE
  5
238
100
AcDbEntity
  8
Bottom
 62
7
100
AcDbSpline
 70
8
 71
3
 72
8
 73
4
 74
0
 40
0
 40
0
 40
0
 40
0
 40
1
 40
1
 40
1
 40
1
 10
-8.314462
 20
-7.711284
 30
0.0
 10
-8.314462
 20
-7.914793
 30
0.0
 10
-8.352662
 20
-8.105583
 30
0.0
 10
-8.428931
 20
-8.283653
 30
0.0
  0
SPLINE
  5
239
100
AcDbEntity
  8
Bottom
 62
7
100
AcDbSpline
 70
8
 71
3
 72
8
 73
4
 74
0
 40
0
 40
0
 40
0
 40
0
 40
1
 40
1
 40
1
 40
1
 10
-8.428931
 20
-8.283653
 30
0.0
 10
-8.505231
 20
-8.461720
 30
0.0
 10
-8.607001
 20
-8.620714
 30
0.0
 10
-8.746911
 20
-8.760628
 30
0.0
  0
SPLINE
  5
23a
100
AcDbEntity
  8
Bottom
 62
7
100
AcDbSpline
 70
8
 71
3
 72
8
 73
4
 74
0
 40
0
 40
0
 40
0
 40
0
 40
1
 40
1
 40
1
 40
1
 10
-8.746911
 20
-8.760628
 30
0.0
 10
-8.880460
 20
-8.894173
 30
0.0
 10
-9.039460
 20
-9.002293
 30
0.0
 10
-9.217530
 20
-9.078609
 30
0.0
  0
SPLINE
  5
23b
100
AcDbEntity
  8
Bottom
 62
7
100
AcDbSpline
 70
8
 71
3
 72
8
 73
4
 74
0
 40
0
 40
0
 40
0
 40
0
 40
1
 40
1
 40
1
 40
1
 10
-9.217530
 20
-9.078609
 30
0.0
 10
-9.395599
 20
-9.154919
 30
0.0
 10
-9.586389
 20
-9.193077
 30
0.0
 10
-9.789898
 20
-9.193077
 30
0.0
  0
LINE
  5
23c
100
AcDbEntity
  8
Bottom
 62
7
100
AcDbLine
 10
-9.789898
 20
-9.193077
 30
0.0
 11
-10.540337
 21
-9.193077
 31
0.0
  0
LINE
  5
23d
100
AcDbEntity
  8
Bottom
 62
7
100
AcDbLine
 10
-10.540337
 20
-9.193077
 30
0.0
 11
-11.271695
 21
-9.937157
 31
0.0
  0
LINE
  5
23e
100
AcDbEntity
  8
Bottom
 62
7
100
AcDbLine
 10
-11.271695
 20
-9.937157
 30
0.0
 11
-9.789898
 21
-9.937157
 31
0.0
  0
SPLINE
  5
23f
100
AcDbEntity
  8
Bottom
 62
7
100
AcDbSpline
 70
8
 71
3
 72
8
 73
4
 74
0
 40
0
 40
0
 40
0
 40
0
 40
1
 40
1
 40
1
 40
1
 10
-9.789898
 20
-9.937157
 30
0.0
 10
-9.490989
 20
-9.937157
 30
0.0
 10
-9.204810
 20
-9.879927
 30
0.0
 10
-8.931340
 20
-9.765455
 30
0.0
  0
SPLINE
  5
240
100
AcDbEntity
  8
Bottom
 62
7
100
AcDbSpline
 70
8
 71
3
 72
8
 73
4
 74
0
 40
0
 40
0
 40
0
 40
0
 40
1
 40
1
 40
1
 40
1
 10
-8.931340
 20
-9.765455
 30
0.0
 10
-8.657881
 20
-9.644622
 30
0.0
 10
-8.422571
 20
-9.485632
 30
0.0
 10
-8.219062
 20
-9.282122
 30
0.0
  0
SPLINE
  5
241
100
AcDbEntity
  8
Bottom
 62
7
100
AcDbSpline
 70
8
 71
3
 72
8
 73
4
 74
0
 40
0
 40
0
 40
0
 40
0
 40
1
 40
1
 40
1
 40
1
 10
-8.219062
 20
-9.282122
 30
0.0
 10
-8.021912
 20
-9.078613
 30
0.0
 10
-7.862923
 20
-8.843307
 30
0.0
 10
-7.742093
 20
-8.576202
 30
0.0
  0
SPLINE
  5
242
100
AcDbEntity
  8
Bottom
 62
7
100
AcDbSpline
 70
8
 71
3
 72
8
 73
4
 74
0
 40
0
 40
0
 40
0
 40
0
 40
1
 40
1
 40
1
 40
1
 10
-7.742093
 20
-8.576202
 30
0.0
 10
-7.627623
 20
-8.302737
 30
0.0
 10
-7.570383
 20
-8.016551
 30
0.0
 10
-7.570383
 20
-7.711288
 30
0.0
  0
SPLINE
  5
243
100
AcDbEntity
  8
Bottom
 62
7
100
AcDbSpline
 70
8
 71
3
 72
8
 73
4
 74
0
 40
0
 40
0
 40
0
 40
0
 40
1
 40
1
 40
1
 40
1
 10
-7.570383
 20
-7.711288
 30
0.0
 10
-7.570383
 20
-7.412385
 30
0.0
 10
-7.627583
 20
-7.126201
 30
0.0
 10
-7.742093
 20
-6.852736
 30
0.0
  0
LINE
  5
244
100
AcDbEntity
  8
Bottom
 62
7
100
AcDbLine
 10
-7.742093
 20
-6.852736
 30
0.0
 11
-7.742093
 21
-6.852736
 31
0.0
  0
SPLINE
  5
245
100
AcDbEntity
  8
Bottom
 62
7
100
AcDbSpline
 70
8
 71
3
 72
8
 73
4
 74
0
 40
0
 40
0
 40
0
 40
0
 40
1
 40
1
 40
1
 40
1
 10
-2.953173
 20
-6.140455
 30
0.0
 10
-3.385633
 20
-5.707998
 30
0.0
 10
-3.913481
 20
-5.485411
 30
0.0
 10
-4.524010
 20
-5.485411
 30
0.0
  0
SPLINE
  5
246
100
AcDbEntity
  8
Bottom
 62
7
100
AcDbSpline
 70
8
 71
3
 72
8
 73
4
 74
0
 40
0
 40
0
 40
0
 40
0
 40
1
 40
1
 40
1
 40
1
 10
-4.524010
 20
-5.485411
 30
0.0
 10
-5.147259
 20
-5.485411
 30
0.0
 10
-5.668747
 20
-5.707998
 30
0.0
 10
-6.101206
 20
-6.140455
 30
0.0
  0
SPLINE
  5
247
100
AcDbEntity
  8
Bottom
 62
7
100
AcDbSpline
 70
8
 71
3
 72
8
 73
4
 74
0
 40
0
 40
0
 40
0
 40
0
 40
1
 40
1
 40
1
 40
1
 10
-6.101206
 20
-6.140455
 30
0.0
 10
-6.533656
 20
-6.579270
 30
0.0
 10
-6.749885
 20
-7.100761
 30
0.0
 10
-6.749885
 20
-7.717648
 30
0.0
  0
SPLINE
  5
248
100
AcDbEntity
  8
Bottom
 62
7
100
AcDbSpline
 70
8
 71
3
 72
8
 73
4
 74
0
 40
0
 40
0
 40
0
 40
0
 40
1
 40
1
 40
1
 40
1
 10
-6.749885
 20
-7.717648
 30
0.0
 10
-6.749885
 20
-8.328175
 30
0.0
 10
-6.533656
 20
-8.856025
 30
0.0
 10
-6.101206
 20
-9.288482
 30
0.0
  0
SPLINE
  5
249
100
AcDbEntity
  8
Bottom
 62
7
100
AcDbSpline
 70
8
 71
3
 72
8
 73
4
 74
0
 40
0
 40
0
 40
0
 40
0
 40
1
 40
1
 40
1
 40
1
 10
-6.101206
 20
-9.288482
 30
0.0
 10
-5.668747
 20
-9.720939
 30
0.0
 10
-5.140899
 20
-9.943527
 30
0.0
 10
-4.524010
 20
-9.943527
 30
0.0
  0
SPLINE
  5
24a
100
AcDbEntity
  8
Bottom
 62
7
100
AcDbSpline
 70
8
 71
3
 72
8
 73
4
 74
0
 40
0
 40
0
 40
0
 40
0
 40
1
 40
1
 40
1
 40
1
 10
-4.524010
 20
-9.943527
 30
0.0
 10
-3.913481
 20
-9.943527
 30
0.0
 10
-3.385633
 20
-9.720939
 30
0.0
 10
-2.953173
 20
-9.288482
 30
0.0
  0
SPLINE
  5
24b
100
AcDbEntity
  8
Bottom
 62
7
100
AcDbSpline
 70
8
 71
3
 72
8
 73
4
 74
0
 40
0
 40
0
 40
0
 40
0
 40
1
 40
1
 40
1
 40
1
 10
-2.953173
 20
-9.288482
 30
0.0
 10
-2.514364
 20
-8.856025
 30
0.0
 10
-2.291775
 20
-8.334535
 30
0.0
 10
-2.291775
 20
-7.717648
 30
0.0
  0
SPLINE
  5
24c
100
AcDbEntity
  8
Bottom
 62
7
100
AcDbSpline
 70
8
 71
3
 72
8
 73
4
 74
0
 40
0
 40
0
 40
0
 40
0
 40
1
 40
1
 40
1
 40
1
 10
-2.291775
 20
-7.717648
 30
0.0
 10
-2.297775
 20
-7.100761
 30
0.0
 10
-2.514364
 20
-6.579270
 30
0.0
 10
-2.953173
 20
-6.140455
 30
0.0
  0
LINE
  5
24d
100
AcDbEntity
  8
Bottom
 62
7
100
AcDbLine
 10
-2.953173
 20
-6.140455
 30
0.0
 11
-2.953173
 21
-6.140455
 31
0.0
  0
SPLINE
  5
24e
100
AcDbEntity
  8
Bottom
 62
7
100
AcDbSpline
 70
8
 71
3
 72
8
 73
4
 74
0
 40
0
 40
0
 40
0
 40
0
 40
1
 40
1
 40
1
 40
1
 10
-3.481032
 20
-8.766992
 30
0.0
 10
-3.773572
 20
-9.053175
 30
0.0
 10
-4.123351
 20
-9.199447
 30
0.0
 10
-4.524010
 20
-9.199447
 30
0.0
  0
SPLINE
  5
24f
100
AcDbEntity
  8
Bottom
 62
7
100
AcDbSpline
 70
8
 71
3
 72
8
 73
4
 74
0
 40
0
 40
0
 40
0
 40
0
 40
1
 40
1
 40
1
 40
1
 10
-4.524010
 20
-9.199447
 30
0.0
 10
-4.931029
 20
-9.199447
 30
0.0
 10
-5.287168
 20
-9.053169
 30
0.0
 10
-5.579708
 20
-8.766992
 30
0.0
  0
SPLINE
  5
250
100
AcDbEntity
  8
Bottom
 62
7
100
AcDbSpline
 70
8
 71
3
 72
8
 73
4
 74
0
 40
0
 40
0
 40
0
 40
0
 40
1
 40
1
 40
1
 40
1
 10
-5.579708
 20
-8.766992
 30
0.0
 10
-5.865897
 20
-8.474446
 30
0.0
 10
-6.005807
 20
-8.118307
 30
0.0
 10
-6.005807
 20
-7.717648
 30
0.0
  0
SPLINE
  5
251
100
AcDbEntity
  8
Bottom
 62
7
100
AcDbSpline
 70
8
 71
3
 72
8
 73
4
 74
0
 40
0
 40
0
 40
0
 40
0
 40
1
 40
1
 40
1
 40
1
 10
-6.005807
 20
-7.717648
 30
0.0
 10
-6.005807
 20
-7.310631
 30
0.0
 10
-5.865897
 20
-6.960850
 30
0.0
 10
-5.579708
 20
-6.668306
 30
0.0
  0
SPLINE
  5
252
100
AcDbEntity
  8
Bottom
 62
7
100
AcDbSpline
 70
8
 71
3
 72
8
 73
4
 74
0
 40
0
 40
0
 40
0
 40
0
 40
1
 40
1
 40
1
 40
1
 10
-5.579708
 20
-6.668306
 30
0.0
 10
-5.287168
 20
-6.375761
 30
0.0
 10
-4.931029
 20
-6.235849
 30
0.0
 10
-4.524010
 20
-6.235849
 30
0.0
  0
SPLINE
  5
253
100
AcDbEntity
  8
Bottom
 62
7
100
AcDbSpline
 70
8
 71
3
 72
8
 73
4
 74
0
 40
0
 40
0
 40
0
 40
0
 40
1
 40
1
 40
1
 40
1
 10
-4.524010
 20
-6.235849
 30
0.0
 10
-4.123351
 20
-6.235849
 30
0.0
 10
-3.773572
 20
-6.375761
 30
0.0
 10
-3.481032
 20
-6.668306
 30
0.0
  0
SPLINE
  5
254
100
AcDbEntity
  8
Bottom
 62
7
100
AcDbSpline
 70
8
 71
3
 72
8
 73
4
 74
0
 40
0
 40
0
 40
0
 40
0
 40
1
 40
1
 40
1
 40
1
 10
-3.481032
 20
-6.668306
 30
0.0
 10
-3.188483
 20
-6.960850
 30
0.0
 10
-3.048573
 20
-7.310631
 30
0.0
 10
-3.048573
 20
-7.717648
 30
0.0
  0
SPLINE
  5
255
100
AcDbEntity
  8
Bottom
 62
7
100
AcDbSpline
 70
8
 71
3
 72
8
 73
4
 74
0
 40
0
 40
0
 40
0
 40
0
 40
1
 40
1
 40
1
 40
1
 10
-3.048573
 20
-7.717648
 30
0.0
 10
-3.048573
 20
-8.118307
 30
0.0
 10
-3.188483
 20
-8.474446
 30
0.0
 10
-3.481032
 20
-8.766992
 30
0.0
  0
LINE
  5
256
100
AcDbEntity
  8
Bottom
 62
7
100
AcDbLine
 10
-3.481032
 20
-8.766992
 30
0.0
 11
-3.481032
 21
-8.766992
 31
0.0
  0
LINE
  5
257
100
AcDbEntity
  8
Bottom
 62
7
100
AcDbLine
 10
-1.004148
 20
-5.485510
 30
0.0
 11
-1.951736
 21
-5.485510
 31
0.0
  0
LINE
  5
258
100
AcDbEntity
  8
Bottom
 62
7
100
AcDbLine
 10
-1.951736
 20
-5.485510
 30
0.0
 11
-0.209190
 21
-7.717747
 31
0.0
  0
LINE
  5
259
100
AcDbEntity
  8
Bottom
 62
7
100
AcDbLine
 10
-0.209190
 20
-7.717747
 30
0.0
 11
0.255069
 21
-7.113580
 31
0.0
  0
LINE
  5
25a
100
AcDbEntity
  8
Bottom
 62
7
100
AcDbLine
 10
0.255069
 20
-7.113580
 30
0.0
 11
-1.004148
 21
-5.485510
 31
0.0
  0
LINE
  5
25b
100
AcDbEntity
  8
Bottom
 62
7
100
AcDbLine
 10
-1.951736
 20
-9.937266
 30
0.0
 11
-1.004148
 21
-9.937266
 31
0.0
  0
LINE
  5
25c
100
AcDbEntity
  8
Bottom
 62
7
100
AcDbLine
 10
-1.004148
 20
-9.937266
 30
0.0
 11
0.255069
 21
-8.315554
 31
0.0
  0
LINE
  5
25d
100
AcDbEntity
  8
Bottom
 62
7
100
AcDbLine
 10
0.255069
 20
-8.315554
 30
0.0
 11
-0.209190
 21
-7.717747
 31
0.0
  0
LINE
  5
25e
100
AcDbEntity
  8
Bottom
 62
7
100
AcDbLine
 10
-0.209190
 20
-7.717747
 30
0.0
 11
-1.951736
 21
-9.937266
 31
0.0
  0
LINE
  5
25f
100
AcDbEntity
  8
Bottom
 62
7
100
AcDbLine
 10
2.468225
 20
-5.485510
 30
0.0
 11
1.526997
 21
-5.485510
 31
0.0
  0
LINE
  5
260
100
AcDbEntity
  8
Bottom
 62
7
100
AcDbLine
 10
1.526997
 20
-5.485510
 30
0.0
 11
0.255069
 21
-7.113580
 31
0.0
  0
LINE
  5
261
100
AcDbEntity
  8
Bottom
 62
7
100
AcDbLine
 10
0.255069
 20
-7.113580
 30
0.0
 11
0.732038
 21
-7.717747
 31
0.0
  0
LINE
  5
262
100
AcDbEntity
  8
Bottom
 62
7
100
AcDbLine
 10
0.732038
 20
-7.717747
 30
0.0
 11
2.468225
 21
-5.485510
 31
0.0
  0
LINE
  5
263
100
AcDbEntity
  8
Bottom
 62
7
100
AcDbLine
 10
0.255069
 20
-8.315554
 30
0.0
 11
1.526997
 21
-9.937266
 31
0.0
  0
LINE
  5
264
100
AcDbEntity
  8
Bottom
 62
7
100
AcDbLine
 10
1.526997
 20
-9.937266
 30
0.0
 11
2.468225
 21
-9.937266
 31
0.0
  0
LINE
  5
265
100
AcDbEntity
  8
Bottom
 62
7
100
AcDbLine
 10
2.468225
 20
-9.937266
 30
0.0
 11
0.732038
 21
-7.717747
 31
0.0
  0
LINE
  5
266
100
AcDbEntity
  8
Bottom
 62
7
100
AcDbLine
 10
0.732038
 20
-7.717747
 30
0.0
 11
0.255069
 21
-8.315554
 31
0.0
  0
LINE
  5
267
100
AcDbEntity
  8
Bottom
 62
7
100
AcDbLine
 10
7.261634
 20
-6.973569
 30
0.0
 11
6.902115
 21
-6.248335
 31
0.0
  0
LINE
  5
268
100
AcDbEntity
  8
Bottom
 62
7
100
AcDbLine
 10
6.902115
 20
-6.248335
 30
0.0
 11
6.536396
 21
-5.529300
 31
0.0
  0
LINE
  5
269
100
AcDbEntity
  8
Bottom
 62
7
100
AcDbLine
 10
6.536396
 20
-5.529300
 30
0.0
 11
7.893893
 21
-8.250476
 31
0.0
  0
LINE
  5
26a
100
AcDbEntity
  8
Bottom
 62
7
100
AcDbLine
 10
7.893893
 20
-8.250476
 30
0.0
 11
7.261634
 21
-6.973569
 31
0.0
  0
LINE
  5
26b
100
AcDbEntity
  8
Bottom
 62
7
100
AcDbLine
 10
6.536396
 20
-5.529300
 30
0.0
 11
5.730587
 21
-5.529300
 31
0.0
  0
LINE
  5
26c
100
AcDbEntity
  8
Bottom
 62
7
100
AcDbLine
 10
5.730587
 20
-5.529300
 30
0.0
 11
7.900083
 21
-9.868304
 31
0.0
  0
LINE
  5
26d
100
AcDbEntity
  8
Bottom
 62
7
100
AcDbLine
 10
7.900083
 20
-9.868304
 30
0.0
 11
8.302992
 21
-9.056291
 31
0.0
  0
LINE
  5
26e
100
AcDbEntity
  8
Bottom
 62
7
100
AcDbLine
 10
8.302992
 20
-9.056291
 30
0.0
 11
6.536396
 21
-5.529300
 31
0.0
  0
LINE
  5
26f
100
AcDbEntity
  8
Bottom
 62
7
100
AcDbLine
 10
9.257580
 20
-5.529300
 30
0.0
 11
8.302992
 21
-7.432264
 31
0.0
  0
LINE
  5
270
100
AcDbEntity
  8
Bottom
 62
7
100
AcDbLine
 10
8.302992
 20
-7.432264
 30
0.0
 11
8.712101
 21
-8.244277
 31
0.0
  0
LINE
  5
271
100
AcDbEntity
  8
Bottom
 62
7
100
AcDbLine
 10
8.712101
 20
-8.244277
 30
0.0
 11
10.063388
 21
-5.529300
 31
0.0
  0
LINE
  5
272
100
AcDbEntity
  8
Bottom
 62
7
100
AcDbLine
 10
10.063388
 20
-5.529300
 30
0.0
 11
9.257580
 21
-5.529300
 31
0.0
  0
SPLINE
  5
273
100
AcDbEntity
  8
Bottom
 62
7
100
AcDbSpline
 70
8
 71
3
 72
8
 73
4
 74
0
 40
0
 40
0
 40
0
 40
0
 40
1
 40
1
 40
1
 40
1
 10
14.654988
 20
-6.155356
 30
0.0
 10
14.320268
 20
-5.814435
 30
0.0
 10
13.923559
 20
-5.616081
 30
0.0
 10
13.471060
 20
-5.547896
 30
0.0
  0
SPLINE
  5
274
100
AcDbEntity
  8
Bottom
 62
7
100
AcDbSpline
 70
8
 71
3
 72
8
 73
4
 74
0
 40
0
 40
0
 40
0
 40
0
 40
1
 40
1
 40
1
 40
1
 10
13.471060
 20
-5.547896
 30
0.0
 10
13.359480
 20
-5.535496
 30
0.0
 10
13.241711
 20
-5.523106
 30
0.0
 10
13.123941
 20
-5.523106
 30
0.0
  0
SPLINE
  5
275
100
AcDbEntity
  8
Bottom
 62
7
100
AcDbSpline
 70
8
 71
3
 72
8
 73
4
 74
0
 40
0
 40
0
 40
0
 40
0
 40
1
 40
1
 40
1
 40
1
 10
13.123941
 20
-5.523106
 30
0.0
 10
12.714832
 20
-5.516906
 30
0.0
 10
12.349113
 20
-5.616086
 30
0.0
 10
12.020593
 20
-5.814439
 30
0.0
  0
SPLINE
  5
276
100
AcDbEntity
  8
Bottom
 62
7
100
AcDbSpline
 70
8
 71
3
 72
8
 73
4
 74
0
 40
0
 40
0
 40
0
 40
0
 40
1
 40
1
 40
1
 40
1
 10
12.020593
 20
-5.814439
 30
0.0
 10
11.871824
 20
-5.907419
 30
0.0
 10
11.723064
 20
-6.018992
 30
0.0
 10
11.586694
 20
-6.155360
 30
0.0
  0
SPLINE
  5
277
100
AcDbEntity
  8
Bottom
 62
7
100
AcDbSpline
 70
8
 71
3
 72
8
 73
4
 74
0
 40
0
 40
0
 40
0
 40
0
 40
1
 40
1
 40
1
 40
1
 10
11.586694
 20
-6.155360
 30
0.0
 10
11.165185
 20
-6.576863
 30
0.0
 10
10.954436
 20
-7.091345
 30
0.0
 10
10.960636
 20
-7.686409
 30
0.0
  0
SPLINE
  5
278
100
AcDbEntity
  8
Bottom
 62
7
100
AcDbSpline
 70
8
 71
3
 72
8
 73
4
 74
0
 40
0
 40
0
 40
0
 40
0
 40
1
 40
1
 40
1
 40
1
 10
10.960636
 20
-7.686409
 30
0.0
 10
10.954636
 20
-8.293870
 30
0.0
 10
11.165185
 20
-8.808351
 30
0.0
 10
11.586694
 20
-9.229855
 30
0.0
  0
SPLINE
  5
279
100
AcDbEntity
  8
Bottom
 62
7
100
AcDbSpline
 70
8
 71
3
 72
8
 73
4
 74
0
 40
0
 40
0
 40
0
 40
0
 40
1
 40
1
 40
1
 40
1
 10
11.586694
 20
-9.229855
 30
0.0
 10
11.933814
 20
-9.570777
 30
0.0
 10
12.330523
 20
-9.775329
 30
0.0
 10
12.789212
 20
-9.831117
 30
0.0
  0
SPLINE
  5
27a
100
AcDbEntity
  8
Bottom
 62
7
100
AcDbSpline
 70
8
 71
3
 72
8
 73
4
 74
0
 40
0
 40
0
 40
0
 40
0
 40
1
 40
1
 40
1
 40
1
 10
12.789212
 20
-9.831117
 30
0.0
 10
12.900791
 20
-9.849707
 30
0.0
 10
13.006161
 20
-9.855907
 30
0.0
 10
13.123941
 20
-9.855907
 30
0.0
  0
SPLINE
  5
27b
100
AcDbEntity
  8
Bottom
 62
7
100
AcDbSpline
 70
8
 71
3
 72
8
 73
4
 74
0
 40
0
 40
0
 40
0
 40
0
 40
1
 40
1
 40
1
 40
1
 10
13.123941
 20
-9.855907
 30
0.0
 10
13.533040
 20
-9.855907
 30
0.0
 10
13.904959
 20
-9.756727
 30
0.0
 10
14.233488
 20
-9.558376
 30
0.0
  0
SPLINE
  5
27c
100
AcDbEntity
  8
Bottom
 62
7
100
AcDbSpline
 70
8
 71
3
 72
8
 73
4
 74
0
 40
0
 40
0
 40
0
 40
0
 40
1
 40
1
 40
1
 40
1
 10
14.233488
 20
-9.558376
 30
0.0
 10
14.382248
 20
-9.465396
 30
0.0
 10
14.524818
 20
-9.353822
 30
0.0
 10
14.654988
 20
-9.223653
 30
0.0
  0
SPLINE
  5
27d
100
AcDbEntity
  8
Bottom
 62
7
100
AcDbSpline
 70
8
 71
3
 72
8
 73
4
 74
0
 40
0
 40
0
 40
0
 40
0
 40
1
 40
1
 40
1
 40
1
 10
14.654988
 20
-9.223653
 30
0.0
 10
15.082687
 20
-8.795951
 30
0.0
 10
15.293436
 20
-8.287667
 30
0.0
 10
15.287246
 20
-7.686405
 30
0.0
  0
SPLINE
  5
27e
100
AcDbEntity
  8
Bottom
 62
7
100
AcDbSpline
 70
8
 71
3
 72
8
 73
4
 74
0
 40
0
 40
0
 40
0
 40
0
 40
1
 40
1
 40
1
 40
1
 10
15.287246
 20
-7.686405
 30
0.0
 10
15.293246
 20
-7.091341
 30
0.0
 10
15.082687
 20
-6.576859
 30
0.0
 10
14.654988
 20
-6.155356
 30
0.0
  0
LINE
  5
27f
100
AcDbEntity
  8
Bottom
 62
7
100
AcDbLine
 10
14.654988
 20
-6.155356
 30
0.0
 11
14.654988
 21
-6.155356
 31
0.0
  0
SPLINE
  5
280
100
AcDbEntity
  8
Bottom
 62
7
100
AcDbSpline
 70
8
 71
3
 72
8
 73
4
 74
0
 40
0
 40
0
 40
0
 40
0
 40
1
 40
1
 40
1
 40
1
 10
12.491682
 20
-7.816575
 30
0.0
 10
12.243743
 20
-8.064518
 30
0.0
 10
12.119773
 20
-8.362050
 30
0.0
 10
12.119773
 20
-8.709171
 30
0.0
  0
SPLINE
  5
281
100
AcDbEntity
  8
Bottom
 62
7
100
AcDbSpline
 70
8
 71
3
 72
8
 73
4
 74
0
 40
0
 40
0
 40
0
 40
0
 40
1
 40
1
 40
1
 40
1
 10
12.119773
 20
-8.709171
 30
0.0
 10
12.119773
 20
-8.715371
 30
0.0
 10
12.119773
 20
-8.721571
 30
0.0
 10
12.119773
 20
-8.727771
 30
0.0
  0
SPLINE
  5
282
100
AcDbEntity
  8
Bottom
 62
7
100
AcDbSpline
 70
8
 71
3
 72
8
 73
4
 74
0
 40
0
 40
0
 40
0
 40
0
 40
1
 40
1
 40
1
 40
1
 10
12.119773
 20
-8.727771
 30
0.0
 10
12.113773
 20
-8.721571
 30
0.0
 10
12.107373
 20
-8.715371
 30
0.0
 10
12.101173
 20
-8.709171
 30
0.0
  0
SPLINE
  5
283
100
AcDbEntity
  8
Bottom
 62
7
100
AcDbSpline
 70
8
 71
3
 72
8
 73
4
 74
0
 40
0
 40
0
 40
0
 40
0
 40
1
 40
1
 40
1
 40
1
 10
12.101173
 20
-8.709171
 30
0.0
 10
11.822234
 20
-8.430234
 30
0.0
 10
11.685864
 20
-8.089312
 30
0.0
 10
11.679674
 20
-7.686405
 30
0.0
  0
SPLINE
  5
284
100
AcDbEntity
  8
Bottom
 62
7
100
AcDbSpline
 70
8
 71
3
 72
8
 73
4
 74
0
 40
0
 40
0
 40
0
 40
0
 40
1
 40
1
 40
1
 40
1
 10
11.679674
 20
-7.686405
 30
0.0
 10
11.679674
 20
-7.289696
 30
0.0
 10
11.822234
 20
-6.948775
 30
0.0
 10
12.101173
 20
-6.669838
 30
0.0
  0
SPLINE
  5
285
100
AcDbEntity
  8
Bottom
 62
7
100
AcDbSpline
 70
8
 71
3
 72
8
 73
4
 74
0
 40
0
 40
0
 40
0
 40
0
 40
1
 40
1
 40
1
 40
1
 10
12.101173
 20
-6.669838
 30
0.0
 10
12.380113
 20
-6.384704
 30
0.0
 10
12.727232
 20
-6.248335
 30
0.0
 10
13.130141
 20
-6.242136
 30
0.0
  0
SPLINE
  5
286
100
AcDbEntity
  8
Bottom
 62
7
100
AcDbSpline
 70
8
 71
3
 72
8
 73
4
 74
0
 40
0
 40
0
 40
0
 40
0
 40
1
 40
1
 40
1
 40
1
 10
13.130141
 20
-6.242136
 30
0.0
 10
13.154941
 20
-6.242136
 30
0.0
 10
13.185941
 20
-6.248336
 30
0.0
 10
13.216941
 20
-6.248336
 30
0.0
  0
SPLINE
  5
287
100
AcDbEntity
  8
Bottom
 62
7
100
AcDbSpline
 70
8
 71
3
 72
8
 73
4
 74
0
 40
0
 40
0
 40
0
 40
0
 40
1
 40
1
 40
1
 40
1
 10
13.216941
 20
-6.248336
 30
0.0
 10
13.229341
 20
-6.260736
 30
0.0
 10
13.241741
 20
-6.266936
 30
0.0
 10
13.254141
 20
-6.279326
 30
0.0
  0
SPLINE
  5
288
100
AcDbEntity
  8
Bottom
 62
7
100
AcDbSpline
 70
8
 71
3
 72
8
 73
4
 74
0
 40
0
 40
0
 40
0
 40
0
 40
1
 40
1
 40
1
 40
1
 10
13.254141
 20
-6.279326
 30
0.0
 10
13.359510
 20
-6.384702
 30
0.0
 10
13.415300
 20
-6.514872
 30
0.0
 10
13.415300
 20
-6.663638
 30
0.0
  0
SPLINE
  5
289
100
AcDbEntity
  8
Bottom
 62
7
100
AcDbSpline
 70
8
 71
3
 72
8
 73
4
 74
0
 40
0
 40
0
 40
0
 40
0
 40
1
 40
1
 40
1
 40
1
 10
13.415300
 20
-6.663638
 30
0.0
 10
13.421300
 20
-6.812404
 30
0.0
 10
13.365700
 20
-6.942574
 30
0.0
 10
13.254141
 20
-7.054148
 30
0.0
  0
LINE
  5
28a
100
AcDbEntity
  8
Bottom
 62
7
100
AcDbLine
 10
13.254141
 20
-7.054148
 30
0.0
 11
12.491682
 21
-7.816575
 31
0.0
  0
SPLINE
  5
28b
100
AcDbEntity
  8
Bottom
 62
7
100
AcDbSpline
 70
8
 71
3
 72
8
 73
4
 74
0
 40
0
 40
0
 40
0
 40
0
 40
1
 40
1
 40
1
 40
1
 10
14.146709
 20
-8.709171
 30
0.0
 10
13.867769
 20
-8.988106
 30
0.0
 10
13.526850
 20
-9.130674
 30
0.0
 10
13.130141
 20
-9.136872
 30
0.0
  0
SPLINE
  5
28c
100
AcDbEntity
  8
Bottom
 62
7
100
AcDbSpline
 70
8
 71
3
 72
8
 73
4
 74
0
 40
0
 40
0
 40
0
 40
0
 40
1
 40
1
 40
1
 40
1
 10
13.130141
 20
-9.136872
 30
0.0
 10
13.099141
 20
-9.136872
 30
0.0
 10
13.068141
 20
-9.130672
 30
0.0
 10
13.043341
 20
-9.130672
 30
0.0
  0
SPLINE
  5
28d
100
AcDbEntity
  8
Bottom
 62
7
100
AcDbSpline
 70
8
 71
3
 72
8
 73
4
 74
0
 40
0
 40
0
 40
0
 40
0
 40
1
 40
1
 40
1
 40
1
 10
13.043341
 20
-9.130672
 30
0.0
 10
13.030941
 20
-9.118272
 30
0.0
 10
13.012341
 20
-9.105882
 30
0.0
 10
12.999941
 20
-9.093482
 30
0.0
  0
SPLINE
  5
28e
100
AcDbEntity
  8
Bottom
 62
7
100
AcDbSpline
 70
8
 71
3
 72
8
 73
4
 74
0
 40
0
 40
0
 40
0
 40
0
 40
1
 40
1
 40
1
 40
1
 10
12.999941
 20
-9.093482
 30
0.0
 10
12.894561
 20
-8.994302
 30
0.0
 10
12.844972
 20
-8.864134
 30
0.0
 10
12.844972
 20
-8.709171
 30
0.0
  0
SPLINE
  5
28f
100
AcDbEntity
  8
Bottom
 62
7
100
AcDbSpline
 70
8
 71
3
 72
8
 73
4
 74
0
 40
0
 40
0
 40
0
 40
0
 40
1
 40
1
 40
1
 40
1
 10
12.844972
 20
-8.709171
 30
0.0
 10
12.844972
 20
-8.560404
 30
0.0
 10
12.894571
 20
-8.430234
 30
0.0
 10
12.999941
 20
-8.324859
 30
0.0
  0
LINE
  5
290
100
AcDbEntity
  8
Bottom
 62
7
100
AcDbLine
 10
12.999941
 20
-8.324859
 30
0.0
 11
13.762360
 21
-7.562433
 31
0.0
  0
SPLINE
  5
291
100
AcDbEntity
  8
Bottom
 62
7
100
AcDbSpline
 70
8
 71
3
 72
8
 73
4
 74
0
 40
0
 40
0
 40
0
 40
0
 40
1
 40
1
 40
1
 40
1
 10
13.762360
 20
-7.562433
 30
0.0
 10
14.010309
 20
-7.314491
 30
0.0
 10
14.134279
 20
-7.016958
 30
0.0
 10
14.134279
 20
-6.669838
 30
0.0
  0
SPLINE
  5
292
100
AcDbEntity
  8
Bottom
 62
7
100
AcDbSpline
 70
8
 71
3
 72
8
 73
4
 74
0
 40
0
 40
0
 40
0
 40
0
 40
1
 40
1
 40
1
 40
1
 10
14.134279
 20
-6.669838
 30
0.0
 10
14.134279
 20
-6.663638
 30
0.0
 10
14.134279
 20
-6.663638
 30
0.0
 10
14.134279
 20
-6.657438
 30
0.0
  0
SPLINE
  5
293
100
AcDbEntity
  8
Bottom
 62
7
100
AcDbSpline
 70
8
 71
3
 72
8
 73
4
 74
0
 40
0
 40
0
 40
0
 40
0
 40
1
 40
1
 40
1
 40
1
 10
14.134279
 20
-6.657438
 30
0.0
 10
14.140279
 20
-6.663638
 30
0.0
 10
14.140279
 20
-6.663638
 30
0.0
 10
14.146679
 20
-6.669838
 30
0.0
  0
SPLINE
  5
294
100
AcDbEntity
  8
Bottom
 62
7
100
AcDbSpline
 70
8
 71
3
 72
8
 73
4
 74
0
 40
0
 40
0
 40
0
 40
0
 40
1
 40
1
 40
1
 40
1
 10
14.146679
 20
-6.669838
 30
0.0
 10
14.425608
 20
-6.948775
 30
0.0
 10
14.568178
 20
-7.289696
 30
0.0
 10
14.574378
 20
-7.686405
 30
0.0
  0
SPLINE
  5
295
100
AcDbEntity
  8
Bottom
 62
7
100
AcDbSpline
 70
8
 71
3
 72
8
 73
4
 74
0
 40
0
 40
0
 40
0
 40
0
 40
1
 40
1
 40
1
 40
1
 10
14.574378
 20
-7.686405
 30
0.0
 10
14.568378
 20
-8.089312
 30
0.0
 10
14.425608
 20
-8.430234
 30
0.0
 10
14.146679
 20
-8.709171
 30
0.0
  0
LINE
  5
296
100
AcDbEntity
  8
Bottom
 62
7
100
AcDbLine
 10
14.146679
 20
-8.709171
 30
0.0
 11
14.146709
 21
-8.709171
 31
0.0
  0
LINE
  5
297
100
AcDbEntity
  8
Bottom
 62
7
100
AcDbLine
 10
16.190684
 20
-9.192660
 30
0.0
 11
16.190684
 21
-9.911694
 31
0.0
  0
LINE
  5
298
100
AcDbEntity
  8
Bottom
 62
7
100
AcDbLine
 10
16.190684
 20
-9.911694
 30
0.0
 11
16.909723
 21
-9.917894
 31
0.0
  0
LINE
  5
299
100
AcDbEntity
  8
Bottom
 62
7
100
AcDbLine
 10
16.909723
 20
-9.917894
 30
0.0
 11
16.909723
 21
-9.911694
 31
0.0
  0
LINE
  5
29a
100
AcDbEntity
  8
Bottom
 62
7
100
AcDbLine
 10
16.909723
 20
-9.911694
 30
0.0
 11
16.909723
 21
-9.911694
 31
0.0
  0
LINE
  5
29b
100
AcDbEntity
  8
Bottom
 62
7
100
AcDbLine
 10
16.909723
 20
-9.911694
 30
0.0
 11
16.909723
 21
-9.192660
 31
0.0
  0
LINE
  5
29c
100
AcDbEntity
  8
Bottom
 62
7
100
AcDbLine
 10
16.909723
 20
-9.192660
 30
0.0
 11
16.190684
 21
-9.192660
 31
0.0
  0
LINE
  5
29d
100
AcDbEntity
  8
Bottom
 62
7
100
AcDbLine
 10
20.261405
 20
-7.078944
 30
0.0
 11
21.160203
 21
-5.523102
 31
0.0
  0
LINE
  5
29e
100
AcDbEntity
  8
Bottom
 62
7
100
AcDbLine
 10
21.160203
 20
-5.523102
 30
0.0
 11
20.329595
 21
-5.523102
 31
0.0
  0
LINE
  5
29f
100
AcDbEntity
  8
Bottom
 62
7
100
AcDbLine
 10
20.329595
 20
-5.523102
 30
0.0
 11
19.065078
 21
-7.692604
 31
0.0
  0
LINE
  5
2a0
100
AcDbEntity
  8
Bottom
 62
7
100
AcDbLine
 10
19.065078
 20
-7.692604
 30
0.0
 11
19.715936
 21
-7.692604
 31
0.0
  0
SPLINE
  5
2a1
100
AcDbEntity
  8
Bottom
 62
7
100
AcDbSpline
 70
8
 71
3
 72
8
 73
4
 74
0
 40
0
 40
0
 40
0
 40
0
 40
1
 40
1
 40
1
 40
1
 10
19.715936
 20
-7.692604
 30
0.0
 10
19.908086
 20
-7.692604
 30
0.0
 10
20.081646
 20
-7.760784
 30
0.0
 10
20.218015
 20
-7.903356
 30
0.0
  0
SPLINE
  5
2a2
100
AcDbEntity
  8
Bottom
 62
7
100
AcDbSpline
 70
8
 71
3
 72
8
 73
4
 74
0
 40
0
 40
0
 40
0
 40
0
 40
1
 40
1
 40
1
 40
1
 10
20.218015
 20
-7.903356
 30
0.0
 10
20.360585
 20
-8.045922
 30
0.0
 10
20.434965
 20
-8.219483
 30
0.0
 10
20.434965
 20
-8.417837
 30
0.0
  0
SPLINE
  5
2a3
100
AcDbEntity
  8
Bottom
 62
7
100
AcDbSpline
 70
8
 71
3
 72
8
 73
4
 74
0
 40
0
 40
0
 40
0
 40
0
 40
1
 40
1
 40
1
 40
1
 10
20.434965
 20
-8.417837
 30
0.0
 10
20.434965
 20
-8.609993
 30
0.0
 10
20.360565
 20
-8.783554
 30
0.0
 10
20.218015
 20
-8.926120
 30
0.0
  0
SPLINE
  5
2a4
100
AcDbEntity
  8
Bottom
 62
7
100
AcDbSpline
 70
8
 71
3
 72
8
 73
4
 74
0
 40
0
 40
0
 40
0
 40
0
 40
1
 40
1
 40
1
 40
1
 10
20.218015
 20
-8.926120
 30
0.0
 10
20.081646
 20
-9.062489
 30
0.0
 10
19.908086
 20
-9.136872
 30
0.0
 10
19.715936
 20
-9.136872
 30
0.0
  0
LINE
  5
2a5
100
AcDbEntity
  8
Bottom
 62
7
100
AcDbLine
 10
19.715936
 20
-9.136872
 30
0.0
 11
18.228270
 21
-9.136872
 31
0.0
  0
LINE
  5
2a6
100
AcDbEntity
  8
Bottom
 62
7
100
AcDbLine
 10
18.228270
 20
-9.136872
 30
0.0
 11
17.812971
 21
-9.862106
 31
0.0
  0
LINE
  5
2a7
100
AcDbEntity
  8
Bottom
 62
7
100
AcDbLine
 10
17.812971
 20
-9.862106
 30
0.0
 11
19.715936
 21
-9.862106
 31
0.0
  0
SPLINE
  5
2a8
100
AcDbEntity
  8
Bottom
 62
7
100
AcDbSpline
 70
8
 71
3
 72
8
 73
4
 74
0
 40
0
 40
0
 40
0
 40
0
 40
1
 40
1
 40
1
 40
1
 10
19.715936
 20
-9.862106
 30
0.0
 10
20.112645
 20
-9.862106
 30
0.0
 10
20.447365
 20
-9.719538
 30
0.0
 10
20.732494
 20
-9.434404
 30
0.0
  0
SPLINE
  5
2a9
100
AcDbEntity
  8
Bottom
 62
7
100
AcDbSpline
 70
8
 71
3
 72
8
 73
4
 74
0
 40
0
 40
0
 40
0
 40
0
 40
1
 40
1
 40
1
 40
1
 10
20.732494
 20
-9.434404
 30
0.0
 10
21.017633
 20
-9.149270
 30
0.0
 10
21.160203
 20
-8.814546
 30
0.0
 10
21.160203
 20
-8.417837
 30
0.0
  0
SPLINE
  5
2aa
100
AcDbEntity
  8
Bottom
 62
7
100
AcDbSpline
 70
8
 71
3
 72
8
 73
4
 74
0
 40
0
 40
0
 40
0
 40
0
 40
1
 40
1
 40
1
 40
1
 10
21.160203
 20
-8.417837
 30
0.0
 10
21.160203
 20
-8.114107
 30
0.0
 10
21.073403
 20
-7.841370
 30
0.0
 10
20.899864
 20
-7.599625
 30
0.0
  0
SPLINE
  5
2ab
100
AcDbEntity
  8
Bottom
 62
7
100
AcDbSpline
 70
8
 71
3
 72
8
 73
4
 74
0
 40
0
 40
0
 40
0
 40
0
 40
1
 40
1
 40
1
 40
1
 10
20.899864
 20
-7.599625
 30
0.0
 10
20.732494
 20
-7.357881
 30
0.0
 10
20.521745
 20
-7.184320
 30
0.0
 10
20.261405
 20
-7.078944
 30
0.0
  0
LINE
  5
2ac
100
AcDbEntity
  8
Bottom
 62
7
100
AcDbLine
 10
20.261405
 20
-7.078944
 30
0.0
 11
20.261405
 21
-7.078944
 31
0.0
  0
LINE
  5
2ad
100
AcDbEntity
  8
Bottom
 62
7
100
AcDbLine
 10
19.492787
 20
-5.523102
 30
0.0
 11
17.812971
 21
-5.516902
 31
0.0
  0
LINE
  5
2ae
100
AcDbEntity
  8
Bottom
 62
7
100
AcDbLine
 10
17.812971
 20
-5.516902
 30
0.0
 11
17.812971
 21
-6.242135
 31
0.0
  0
LINE
  5
2af
100
AcDbEntity
  8
Bottom
 62
7
100
AcDbLine
 10
17.812971
 20
-6.242135
 30
0.0
 11
19.077478
 21
-6.242135
 31
0.0
  0
LINE
  5
2b0
100
AcDbEntity
  8
Bottom
 62
7
100
AcDbLine
 10
19.077478
 20
-6.242135
 30
0.0
 11
19.492787
 21
-5.523102
 31
0.0
  0
ENDSEC
  0
SECTION
  2
OBJECTS
  0
DICTIONARY
  5
C
330
0
100
AcDbDictionary
  3
ACAD_GROUP
350
D
  3
ACAD_MLINESTYLE
350
17
  0
DICTIONARY
  5
D
330
C
100
AcDbDictionary
  0
DICTIONARY
  5
1A
330
C
100
AcDbDictionary
  0
DICTIONARY
  5
17
330
C
100
AcDbDictionary
  3
STANDARD
350
18
  0
DICTIONARY
  5
19
330
C
100
AcDbDictionary
  0
ENDSEC
  0
EOF
