  0
SECTION
  2
HEADER
  9
$ACADVER
  1
AC1014
  9
$HANDSEED
  5
FFFF
  9
$MEASUREMENT
 70
     1
  0
ENDSEC
  0
SECTION
  2
TABLES
  0
TABLE
  2
VPORT
  5
8
330
0
100
AcDbSymbolTable
 70
     4
  0
VPORT
  5
2E
330
8
100
AcDbSymbolTableRecord
100
AcDbViewportTableRecord
  2
*ACTIVE
 70
     0
 10
0.0
 20
0.0
 11
1.0
 21
1.0
 12
210.0
 22
148.5
 13
0.0
 23
0.0
 14
10.0
 24
10.0
 15
10.0
 25
10.0
 16
0.0
 26
0.0
 36
1.0
 17
0.0
 27
0.0
 37
0.0
 40
341.0
 41
1.24
 42
50.0
 43
0.0
 44
0.0
 50
0.0
 51
0.0
 71
     0
 72
   100
 73
     1
 74
     3
 75
     0
 76
     0
 77
     0
 78
     0
  0
ENDTAB
  0
TABLE
  2
LTYPE
  5
5
330
0
100
AcDbSymbolTable
 70
     1
  0
LTYPE
  5
14
330
5
100
AcDbSymbolTableRecord
100
AcDbLinetypeTableRecord
  2
BYBLOCK
 70
     0
  3

 72
    65
 73
     0
 40
0.0
  0
LTYPE
  5
15
330
5
100
AcDbSymbolTableRecord
100
AcDbLinetypeTableRecord
  2
BYLAYER
 70
     0
  3

 72
    65
 73
     0
 40
0.0
  0
LTYPE
  5
16
330
5
100
AcDbSymbolTableRecord
100
AcDbLinetypeTableRecord
  2
CONTINUOUS
 70
     0
  3
Solid line
 72
    65
 73
     0
 40
0.0
  0
ENDTAB
  0
TABLE
  2
LAYER
  5
2
100
AcDbSymbolTable
 70
10
  0
LAYER
  5
50
100
AcDbSymbolTableRecord
100
AcDbLayerTableRecord
  2
0
 70
0
  6
CONTINUOUS
  0
LAYER
  5
51
100
AcDbSymbolTableRecord
100
AcDbLayerTableRecord
  2
Bottom
 70
0
  6
CONTINUOUS
  0
LAYER
  5
52
100
AcDbSymbolTableRecord
100
AcDbLayerTableRecord
  2
Inner_Layer
 70
0
  6
CONTINUOUS
  0
LAYER
  5
53
100
AcDbSymbolTableRecord
100
AcDbLayerTableRecord
  2
Guts
 70
0
  6
CONTINUOUS
  0
LAYER
  5
54
100
AcDbSymbolTableRecord
100
AcDbLayerTableRecord
  2
Keycaps
 70
0
  6
CONTINUOUS
  0
LAYER
  5
55
100
AcDbSymbolTableRecord
100
AcDbLayerTableRecord
  2
PCB_for_Kicad
 70
0
  6
CONTINUOUS
  0
LAYER
  5
56
100
AcDbSymbolTableRecord
100
AcDbLayerTableRecord
  2
Switch
 70
0
  6
CONTINUOUS
  0
LAYER
  5
57
100
AcDbSymbolTableRecord
100
AcDbLayerTableRecord
  2
Outer_Perimeter
 70
0
  6
CONTINUOUS
  0
LAYER
  5
58
100
AcDbSymbolTableRecord
100
AcDbLayerTableRecord
  2
Top_Square
 70
0
  6
CONTINUOUS
  0
LAYER
  5
59
100
AcDbSymbolTableRecord
100
AcDbLayerTableRecord
  2
Top
 70
0
  6
CONTINUOUS
  0
ENDTAB
  0
TABLE
  2
STYLE
  5
3
330
0
100
AcDbSymbolTable
 70
     1
  0
STYLE
  5
11
330
3
100
AcDbSymbolTableRecord
100
AcDbTextStyleTableRecord
  2
STANDARD
 70
     0
 40
0.0
 41
1.0
 50
0.0
 71
     0
 42
2.5
  3
txt
  4

  0
ENDTAB
  0
TABLE
  2
VIEW
  5
6
330
0
100
AcDbSymbolTable
 70
     0
  0
ENDTAB
  0
TABLE
  2
UCS
  5
7
330
0
100
AcDbSymbolTable
 70
     0
  0
ENDTAB
  0
TABLE
  2
APPID
  5
9
330
0
100
AcDbSymbolTable
 70
     2
  0
APPID
  5
12
330
9
100
AcDbSymbolTableRecord
100
AcDbRegAppTableRecord
  2
ACAD
 70
     0
  0
ENDTAB
  0
TABLE
  2
DIMSTYLE
  5
A
330
0
100
AcDbSymbolTable
 70
     1
  0
DIMSTYLE
105
27
330
A
100
AcDbSymbolTableRecord
100
AcDbDimStyleTableRecord
  2
ISO-25
 70
     0
  3

  4

  5

  6

  7

 40
1.0
 41
2.5
 42
0.625
 43
3.75
 44
1.25
 45
0.0
 46
0.0
 47
0.0
 48
0.0
140
2.5
141
2.5
142
0.0
143
0.03937007874016
144
1.0
145
0.0
146
1.0
147
0.625
 71
     0
 72
     0
 73
     0
 74
     0
 75
     0
 76
     0
 77
     1
 78
     8
170
     0
171
     3
172
     1
173
     0
174
     0
175
     0
176
     0
177
     0
178
     0
270
     2
271
     2
272
     2
273
     2
274
     3
340
11
275
     0
280
     0
281
     0
282
     0
283
     0
284
     8
285
     0
286
     0
287
     3
288
     0
  0
ENDTAB
  0
TABLE
  2
BLOCK_RECORD
  5
1
330
0
100
AcDbSymbolTable
 70
     1
  0
BLOCK_RECORD
  5
1F
330
1
100
AcDbSymbolTableRecord
100
AcDbBlockTableRecord
  2
*MODEL_SPACE
  0
BLOCK_RECORD
  5
1B
330
1
100
AcDbSymbolTableRecord
100
AcDbBlockTableRecord
  2
*PAPER_SPACE
  0
ENDTAB
  0
ENDSEC
  0
SECTION
  2
BLOCKS
  0
BLOCK
  5
20
330
1F
100
AcDbEntity
  8
0
100
AcDbBlockBegin
  2
*MODEL_SPACE
 70
     0
 10
0.0
 20
0.0
 30
0.0
  3
*MODEL_SPACE
  1

  0
ENDBLK
  5
21
330
1F
100
AcDbEntity
  8
0
100
AcDbBlockEnd
  0
BLOCK
  5
1C
330
1B
100
AcDbEntity
 67
     1
  8
0
100
AcDbBlockBegin
  2
*PAPER_SPACE
  1

  0
ENDBLK
  5
1D
330
1B
100
AcDbEntity
 67
     1
  8
0
100
AcDbBlockEnd
  0
ENDSEC
  0
SECTION
  2
ENTITIES
  0
LINE
  5
100
100
AcDbEntity
  8
Switch
 62
4
100
AcDbLine
 10
-6.863055
 20
3.398874
 30
0.0
 11
6.961915
 21
3.398874
 31
0.0
  0
LINE
  5
101
100
AcDbEntity
  8
Switch
 62
4
100
AcDbLine
 10
6.961915
 20
3.398874
 30
0.0
 11
6.961915
 21
-10.426095
 31
0.0
  0
LINE
  5
102
100
AcDbEntity
  8
Switch
 62
4
100
AcDbLine
 10
6.961915
 20
-10.426095
 30
0.0
 11
-6.863055
 21
-10.426095
 31
0.0
  0
LINE
  5
103
100
AcDbEntity
  8
Switch
 62
4
100
AcDbLine
 10
-6.863055
 20
-10.426095
 30
0.0
 11
-6.863055
 21
3.398874
 31
0.0
  0
LINE
  5
104
100
AcDbEntity
  8
Switch
 62
4
100
AcDbLine
 10
-6.863055
 20
-15.601083
 30
0.0
 11
6.961915
 21
-15.601083
 31
0.0
  0
LINE
  5
105
100
AcDbEntity
  8
Switch
 62
4
100
AcDbLine
 10
6.961915
 20
-15.601083
 30
0.0
 11
6.961915
 21
-29.426053
 31
0.0
  0
LINE
  5
106
100
AcDbEntity
  8
Switch
 62
4
100
AcDbLine
 10
6.961915
 20
-29.426053
 30
0.0
 11
-6.863055
 21
-29.426053
 31
0.0
  0
LINE
  5
107
100
AcDbEntity
  8
Switch
 62
4
100
AcDbLine
 10
-6.863055
 20
-29.426053
 30
0.0
 11
-6.863055
 21
-15.601083
 31
0.0
  0
LINE
  5
108
100
AcDbEntity
  8
Switch
 62
4
100
AcDbLine
 10
7.737004
 20
33.605737
 30
0.0
 11
20.957888
 21
37.647766
 31
0.0
  0
LINE
  5
109
100
AcDbEntity
  8
Switch
 62
4
100
AcDbLine
 10
20.957888
 20
37.647766
 30
0.0
 11
24.999918
 21
24.426882
 31
0.0
  0
LINE
  5
10a
100
AcDbEntity
  8
Switch
 62
4
100
AcDbLine
 10
24.999918
 20
24.426882
 30
0.0
 11
11.779034
 21
20.384853
 31
0.0
  0
LINE
  5
10b
100
AcDbEntity
  8
Switch
 62
4
100
AcDbLine
 10
11.779034
 20
20.384853
 30
0.0
 11
7.737004
 21
33.605737
 31
0.0
  0
LINE
  5
10c
100
AcDbEntity
  8
Switch
 62
4
100
AcDbLine
 10
25.906726
 20
39.160778
 30
0.0
 11
39.127610
 21
43.202808
 31
0.0
  0
LINE
  5
10d
100
AcDbEntity
  8
Switch
 62
4
100
AcDbLine
 10
39.127610
 20
43.202808
 30
0.0
 11
43.169640
 21
29.981924
 31
0.0
  0
LINE
  5
10e
100
AcDbEntity
  8
Switch
 62
4
100
AcDbLine
 10
43.169640
 20
29.981924
 30
0.0
 11
29.948756
 21
25.939894
 31
0.0
  0
LINE
  5
10f
100
AcDbEntity
  8
Switch
 62
4
100
AcDbLine
 10
29.948756
 20
25.939894
 30
0.0
 11
25.906726
 21
39.160778
 31
0.0
  0
LINE
  5
110
100
AcDbEntity
  8
Switch
 62
4
100
AcDbLine
 10
43.704418
 20
45.932773
 30
0.0
 11
56.925302
 21
49.974803
 31
0.0
  0
LINE
  5
111
100
AcDbEntity
  8
Switch
 62
4
100
AcDbLine
 10
56.925302
 20
49.974803
 30
0.0
 11
60.967332
 21
36.753919
 31
0.0
  0
LINE
  5
112
100
AcDbEntity
  8
Switch
 62
4
100
AcDbLine
 10
60.967332
 20
36.753919
 30
0.0
 11
47.746448
 21
32.711889
 31
0.0
  0
LINE
  5
113
100
AcDbEntity
  8
Switch
 62
4
100
AcDbLine
 10
47.746448
 20
32.711889
 30
0.0
 11
43.704418
 21
45.932773
 31
0.0
  0
LINE
  5
114
100
AcDbEntity
  8
Switch
 62
4
100
AcDbLine
 10
60.361147
 20
56.436692
 30
0.0
 11
73.582031
 21
60.478722
 31
0.0
  0
LINE
  5
115
100
AcDbEntity
  8
Switch
 62
4
100
AcDbLine
 10
73.582031
 20
60.478722
 30
0.0
 11
77.624061
 21
47.257838
 31
0.0
  0
LINE
  5
116
100
AcDbEntity
  8
Switch
 62
4
100
AcDbLine
 10
77.624061
 20
47.257838
 30
0.0
 11
64.403177
 21
43.215808
 31
0.0
  0
LINE
  5
117
100
AcDbEntity
  8
Switch
 62
4
100
AcDbLine
 10
64.403177
 20
43.215808
 30
0.0
 11
60.361147
 21
56.436692
 31
0.0
  0
LINE
  5
118
100
AcDbEntity
  8
Switch
 62
4
100
AcDbLine
 10
80.043928
 20
57.042860
 30
0.0
 11
93.264812
 21
61.084890
 31
0.0
  0
LINE
  5
119
100
AcDbEntity
  8
Switch
 62
4
100
AcDbLine
 10
93.264812
 20
61.084890
 30
0.0
 11
97.306842
 21
47.864006
 31
0.0
  0
LINE
  5
11a
100
AcDbEntity
  8
Switch
 62
4
100
AcDbLine
 10
97.306842
 20
47.864006
 30
0.0
 11
84.085958
 21
43.821976
 31
0.0
  0
LINE
  5
11b
100
AcDbEntity
  8
Switch
 62
4
100
AcDbLine
 10
84.085958
 20
43.821976
 30
0.0
 11
80.043928
 21
57.042860
 31
0.0
  0
LINE
  5
11c
100
AcDbEntity
  8
Switch
 62
4
100
AcDbLine
 10
100.166287
 20
56.212262
 30
0.0
 11
113.387171
 21
60.254291
 31
0.0
  0
LINE
  5
11d
100
AcDbEntity
  8
Switch
 62
4
100
AcDbLine
 10
113.387171
 20
60.254291
 30
0.0
 11
117.429200
 21
47.033408
 31
0.0
  0
LINE
  5
11e
100
AcDbEntity
  8
Switch
 62
4
100
AcDbLine
 10
117.429200
 20
47.033408
 30
0.0
 11
104.208317
 21
42.991378
 31
0.0
  0
LINE
  5
11f
100
AcDbEntity
  8
Switch
 62
4
100
AcDbLine
 10
104.208317
 20
42.991378
 30
0.0
 11
100.166287
 21
56.212262
 31
0.0
  0
LINE
  5
120
100
AcDbEntity
  8
Switch
 62
4
100
AcDbLine
 10
122.758961
 20
63.119535
 30
0.0
 11
135.979845
 21
67.161565
 31
0.0
  0
LINE
  5
121
100
AcDbEntity
  8
Switch
 62
4
100
AcDbLine
 10
135.979845
 20
67.161565
 30
0.0
 11
140.021875
 21
53.940681
 31
0.0
  0
LINE
  5
122
100
AcDbEntity
  8
Switch
 62
4
100
AcDbLine
 10
140.021875
 20
53.940681
 30
0.0
 11
126.800991
 21
49.898651
 31
0.0
  0
LINE
  5
123
100
AcDbEntity
  8
Switch
 62
4
100
AcDbLine
 10
126.800991
 20
49.898651
 30
0.0
 11
122.758961
 21
63.119535
 31
0.0
  0
LINE
  5
124
100
AcDbEntity
  8
Switch
 62
4
100
AcDbLine
 10
128.314042
 20
44.949791
 30
0.0
 11
141.534926
 21
48.991821
 31
0.0
  0
LINE
  5
125
100
AcDbEntity
  8
Switch
 62
4
100
AcDbLine
 10
141.534926
 20
48.991821
 30
0.0
 11
145.576956
 21
35.770937
 31
0.0
  0
LINE
  5
126
100
AcDbEntity
  8
Switch
 62
4
100
AcDbLine
 10
145.576956
 20
35.770937
 30
0.0
 11
132.356072
 21
31.728907
 31
0.0
  0
LINE
  5
127
100
AcDbEntity
  8
Switch
 62
4
100
AcDbLine
 10
132.356072
 20
31.728907
 30
0.0
 11
128.314042
 21
44.949791
 31
0.0
  0
LINE
  5
128
100
AcDbEntity
  8
Switch
 62
4
100
AcDbLine
 10
105.721366
 20
38.042517
 30
0.0
 11
118.942250
 21
42.084547
 31
0.0
  0
LINE
  5
129
100
AcDbEntity
  8
Switch
 62
4
100
AcDbLine
 10
118.942250
 20
42.084547
 30
0.0
 11
122.984280
 21
28.863663
 31
0.0
  0
LINE
  5
12a
100
AcDbEntity
  8
Switch
 62
4
100
AcDbLine
 10
122.984280
 20
28.863663
 30
0.0
 11
109.763396
 21
24.821633
 31
0.0
  0
LINE
  5
12b
100
AcDbEntity
  8
Switch
 62
4
100
AcDbLine
 10
109.763396
 20
24.821633
 30
0.0
 11
105.721366
 21
38.042517
 31
0.0
  0
LINE
  5
12c
100
AcDbEntity
  8
Switch
 62
4
100
AcDbLine
 10
85.598978
 20
38.873110
 30
0.0
 11
98.819862
 21
42.915140
 31
0.0
  0
LINE
  5
12d
100
AcDbEntity
  8
Switch
 62
4
100
AcDbLine
 10
98.819862
 20
42.915140
 30
0.0
 11
102.861892
 21
29.694256
 31
0.0
  0
LINE
  5
12e
100
AcDbEntity
  8
Switch
 62
4
100
AcDbLine
 10
102.861892
 20
29.694256
 30
0.0
 11
89.641008
 21
25.652226
 31
0.0
  0
LINE
  5
12f
100
AcDbEntity
  8
Switch
 62
4
100
AcDbLine
 10
89.641008
 20
25.652226
 30
0.0
 11
85.598978
 21
38.873110
 31
0.0
  0
LINE
  5
130
100
AcDbEntity
  8
Switch
 62
4
100
AcDbLine
 10
65.916188
 20
38.266939
 30
0.0
 11
79.137072
 21
42.308969
 31
0.0
  0
LINE
  5
131
100
AcDbEntity
  8
Switch
 62
4
100
AcDbLine
 10
79.137072
 20
42.308969
 30
0.0
 11
83.179102
 21
29.088085
 31
0.0
  0
LINE
  5
132
100
AcDbEntity
  8
Switch
 62
4
100
AcDbLine
 10
83.179102
 20
29.088085
 30
0.0
 11
69.958218
 21
25.046055
 31
0.0
  0
LINE
  5
133
100
AcDbEntity
  8
Switch
 62
4
100
AcDbLine
 10
69.958218
 20
25.046055
 30
0.0
 11
65.916188
 21
38.266939
 31
0.0
  0
LINE
  5
134
100
AcDbEntity
  8
Switch
 62
4
100
AcDbLine
 10
49.259468
 20
27.763023
 30
0.0
 11
62.480352
 21
31.805053
 31
0.0
  0
LINE
  5
135
100
AcDbEntity
  8
Switch
 62
4
100
AcDbLine
 10
62.480352
 20
31.805053
 30
0.0
 11
66.522382
 21
18.584169
 31
0.0
  0
LINE
  5
136
100
AcDbEntity
  8
Switch
 62
4
100
AcDbLine
 10
66.522382
 20
18.584169
 30
0.0
 11
53.301498
 21
14.542139
 31
0.0
  0
LINE
  5
137
100
AcDbEntity
  8
Switch
 62
4
100
AcDbLine
 10
53.301498
 20
14.542139
 30
0.0
 11
49.259468
 21
27.763023
 31
0.0
  0
LINE
  5
138
100
AcDbEntity
  8
Switch
 62
4
100
AcDbLine
 10
31.461778
 20
20.991020
 30
0.0
 11
44.682662
 21
25.033050
 31
0.0
  0
LINE
  5
139
100
AcDbEntity
  8
Switch
 62
4
100
AcDbLine
 10
44.682662
 20
25.033050
 30
0.0
 11
48.724692
 21
11.812166
 31
0.0
  0
LINE
  5
13a
100
AcDbEntity
  8
Switch
 62
4
100
AcDbLine
 10
48.724692
 20
11.812166
 30
0.0
 11
35.503808
 21
7.770136
 31
0.0
  0
LINE
  5
13b
100
AcDbEntity
  8
Switch
 62
4
100
AcDbLine
 10
35.503808
 20
7.770136
 30
0.0
 11
31.461778
 21
20.991020
 31
0.0
  0
LINE
  5
13c
100
AcDbEntity
  8
Switch
 62
4
100
AcDbLine
 10
14.693000
 20
10.853698
 30
0.0
 11
27.913884
 21
14.895728
 31
0.0
  0
LINE
  5
13d
100
AcDbEntity
  8
Switch
 62
4
100
AcDbLine
 10
27.913884
 20
14.895728
 30
0.0
 11
31.955914
 21
1.674844
 31
0.0
  0
LINE
  5
13e
100
AcDbEntity
  8
Switch
 62
4
100
AcDbLine
 10
31.955914
 20
1.674844
 30
0.0
 11
18.735030
 21
-2.367186
 31
0.0
  0
LINE
  5
13f
100
AcDbEntity
  8
Switch
 62
4
100
AcDbLine
 10
18.735030
 20
-2.367186
 30
0.0
 11
14.693000
 21
10.853698
 31
0.0
  0
LINE
  5
140
100
AcDbEntity
  8
Switch
 62
4
100
AcDbLine
 10
23.001197
 20
-16.321257
 30
0.0
 11
36.222081
 21
-12.279227
 31
0.0
  0
LINE
  5
141
100
AcDbEntity
  8
Switch
 62
4
100
AcDbLine
 10
36.222081
 20
-12.279227
 30
0.0
 11
40.264111
 21
-25.500111
 31
0.0
  0
LINE
  5
142
100
AcDbEntity
  8
Switch
 62
4
100
AcDbLine
 10
40.264111
 20
-25.500111
 30
0.0
 11
27.043227
 21
-29.542141
 31
0.0
  0
LINE
  5
143
100
AcDbEntity
  8
Switch
 62
4
100
AcDbLine
 10
27.043227
 20
-29.542141
 30
0.0
 11
23.001197
 21
-16.321257
 31
0.0
  0
LINE
  5
144
100
AcDbEntity
  8
Switch
 62
4
100
AcDbLine
 10
37.016832
 20
2.821259
 30
0.0
 11
50.237716
 21
6.863289
 31
0.0
  0
LINE
  5
145
100
AcDbEntity
  8
Switch
 62
4
100
AcDbLine
 10
50.237716
 20
6.863289
 30
0.0
 11
54.279745
 21
-6.357595
 31
0.0
  0
LINE
  5
146
100
AcDbEntity
  8
Switch
 62
4
100
AcDbLine
 10
54.279745
 20
-6.357595
 30
0.0
 11
41.058861
 21
-10.399625
 31
0.0
  0
LINE
  5
147
100
AcDbEntity
  8
Switch
 62
4
100
AcDbLine
 10
41.058861
 20
-10.399625
 30
0.0
 11
37.016832
 21
2.821259
 31
0.0
  0
LINE
  5
148
100
AcDbEntity
  8
Switch
 62
4
100
AcDbLine
 10
54.814524
 20
9.593255
 30
0.0
 11
68.035408
 21
13.635285
 31
0.0
  0
LINE
  5
149
100
AcDbEntity
  8
Switch
 62
4
100
AcDbLine
 10
68.035408
 20
13.635285
 30
0.0
 11
72.077438
 21
0.414401
 31
0.0
  0
LINE
  5
14a
100
AcDbEntity
  8
Switch
 62
4
100
AcDbLine
 10
72.077438
 20
0.414401
 30
0.0
 11
58.856554
 21
-3.627629
 31
0.0
  0
LINE
  5
14b
100
AcDbEntity
  8
Switch
 62
4
100
AcDbLine
 10
58.856554
 20
-3.627629
 30
0.0
 11
54.814524
 21
9.593255
 31
0.0
  0
LINE
  5
14c
100
AcDbEntity
  8
Switch
 62
4
100
AcDbLine
 10
71.471257
 20
20.097159
 30
0.0
 11
84.692141
 21
24.139189
 31
0.0
  0
LINE
  5
14d
100
AcDbEntity
  8
Switch
 62
4
100
AcDbLine
 10
84.692141
 20
24.139189
 30
0.0
 11
88.734171
 21
10.918305
 31
0.0
  0
LINE
  5
14e
100
AcDbEntity
  8
Switch
 62
4
100
AcDbLine
 10
88.734171
 20
10.918305
 30
0.0
 11
75.513287
 21
6.876276
 31
0.0
  0
LINE
  5
14f
100
AcDbEntity
  8
Switch
 62
4
100
AcDbLine
 10
75.513287
 20
6.876276
 30
0.0
 11
71.471257
 21
20.097159
 31
0.0
  0
LINE
  5
150
100
AcDbEntity
  8
Switch
 62
4
100
AcDbLine
 10
91.154038
 20
20.703327
 30
0.0
 11
104.374922
 21
24.745357
 31
0.0
  0
LINE
  5
151
100
AcDbEntity
  8
Switch
 62
4
100
AcDbLine
 10
104.374922
 20
24.745357
 30
0.0
 11
108.416952
 21
11.524473
 31
0.0
  0
LINE
  5
152
100
AcDbEntity
  8
Switch
 62
4
100
AcDbLine
 10
108.416952
 20
11.524473
 30
0.0
 11
95.196068
 21
7.482443
 31
0.0
  0
LINE
  5
153
100
AcDbEntity
  8
Switch
 62
4
100
AcDbLine
 10
95.196068
 20
7.482443
 30
0.0
 11
91.154038
 21
20.703327
 31
0.0
  0
LINE
  5
154
100
AcDbEntity
  8
Switch
 62
4
100
AcDbLine
 10
111.276423
 20
19.872745
 30
0.0
 11
124.497307
 21
23.914775
 31
0.0
  0
LINE
  5
155
100
AcDbEntity
  8
Switch
 62
4
100
AcDbLine
 10
124.497307
 20
23.914775
 30
0.0
 11
128.539337
 21
10.693891
 31
0.0
  0
LINE
  5
156
100
AcDbEntity
  8
Switch
 62
4
100
AcDbLine
 10
128.539337
 20
10.693891
 30
0.0
 11
115.318453
 21
6.651861
 31
0.0
  0
LINE
  5
157
100
AcDbEntity
  8
Switch
 62
4
100
AcDbLine
 10
115.318453
 20
6.651861
 30
0.0
 11
111.276423
 21
19.872745
 31
0.0
  0
LINE
  5
158
100
AcDbEntity
  8
Switch
 62
4
100
AcDbLine
 10
133.869099
 20
26.780019
 30
0.0
 11
147.089983
 21
30.822049
 31
0.0
  0
LINE
  5
159
100
AcDbEntity
  8
Switch
 62
4
100
AcDbLine
 10
147.089983
 20
30.822049
 30
0.0
 11
151.132013
 21
17.601165
 31
0.0
  0
LINE
  5
15a
100
AcDbEntity
  8
Switch
 62
4
100
AcDbLine
 10
151.132013
 20
17.601165
 30
0.0
 11
137.911129
 21
13.559135
 31
0.0
  0
LINE
  5
15b
100
AcDbEntity
  8
Switch
 62
4
100
AcDbLine
 10
137.911129
 20
13.559135
 30
0.0
 11
133.869099
 21
26.780019
 31
0.0
  0
LINE
  5
15c
100
AcDbEntity
  8
Switch
 62
4
100
AcDbLine
 10
139.424176
 20
8.610285
 30
0.0
 11
152.645060
 21
12.652314
 31
0.0
  0
LINE
  5
15d
100
AcDbEntity
  8
Switch
 62
4
100
AcDbLine
 10
152.645060
 20
12.652314
 30
0.0
 11
156.687089
 21
-0.568570
 31
0.0
  0
LINE
  5
15e
100
AcDbEntity
  8
Switch
 62
4
100
AcDbLine
 10
156.687089
 20
-0.568570
 30
0.0
 11
143.466205
 21
-4.610599
 31
0.0
  0
LINE
  5
15f
100
AcDbEntity
  8
Switch
 62
4
100
AcDbLine
 10
143.466205
 20
-4.610599
 30
0.0
 11
139.424176
 21
8.610285
 31
0.0
  0
LINE
  5
160
100
AcDbEntity
  8
Switch
 62
4
100
AcDbLine
 10
116.831471
 20
1.703002
 30
0.0
 11
130.052355
 21
5.745031
 31
0.0
  0
LINE
  5
161
100
AcDbEntity
  8
Switch
 62
4
100
AcDbLine
 10
130.052355
 20
5.745031
 30
0.0
 11
134.094385
 21
-7.475853
 31
0.0
  0
LINE
  5
162
100
AcDbEntity
  8
Switch
 62
4
100
AcDbLine
 10
134.094385
 20
-7.475853
 30
0.0
 11
120.873501
 21
-11.517882
 31
0.0
  0
LINE
  5
163
100
AcDbEntity
  8
Switch
 62
4
100
AcDbLine
 10
120.873501
 20
-11.517882
 30
0.0
 11
116.831471
 21
1.703002
 31
0.0
  0
LINE
  5
164
100
AcDbEntity
  8
Switch
 62
4
100
AcDbLine
 10
96.709072
 20
2.533580
 30
0.0
 11
109.929956
 21
6.575610
 31
0.0
  0
LINE
  5
165
100
AcDbEntity
  8
Switch
 62
4
100
AcDbLine
 10
109.929956
 20
6.575610
 30
0.0
 11
113.971985
 21
-6.645274
 31
0.0
  0
LINE
  5
166
100
AcDbEntity
  8
Switch
 62
4
100
AcDbLine
 10
113.971985
 20
-6.645274
 30
0.0
 11
100.751101
 21
-10.687304
 31
0.0
  0
LINE
  5
167
100
AcDbEntity
  8
Switch
 62
4
100
AcDbLine
 10
100.751101
 20
-10.687304
 30
0.0
 11
96.709072
 21
2.533580
 31
0.0
  0
LINE
  5
168
100
AcDbEntity
  8
Switch
 62
4
100
AcDbLine
 10
77.026296
 20
1.927413
 30
0.0
 11
90.247180
 21
5.969443
 31
0.0
  0
LINE
  5
169
100
AcDbEntity
  8
Switch
 62
4
100
AcDbLine
 10
90.247180
 20
5.969443
 30
0.0
 11
94.289210
 21
-7.251441
 31
0.0
  0
LINE
  5
16a
100
AcDbEntity
  8
Switch
 62
4
100
AcDbLine
 10
94.289210
 20
-7.251441
 30
0.0
 11
81.068326
 21
-11.293471
 31
0.0
  0
LINE
  5
16b
100
AcDbEntity
  8
Switch
 62
4
100
AcDbLine
 10
81.068326
 20
-11.293471
 30
0.0
 11
77.026296
 21
1.927413
 31
0.0
  0
LINE
  5
16c
100
AcDbEntity
  8
Switch
 62
4
100
AcDbLine
 10
60.369553
 20
-8.576494
 30
0.0
 11
73.590437
 21
-4.534464
 31
0.0
  0
LINE
  5
16d
100
AcDbEntity
  8
Switch
 62
4
100
AcDbLine
 10
73.590437
 20
-4.534464
 30
0.0
 11
77.632467
 21
-17.755348
 31
0.0
  0
LINE
  5
16e
100
AcDbEntity
  8
Switch
 62
4
100
AcDbLine
 10
77.632467
 20
-17.755348
 30
0.0
 11
64.411583
 21
-21.797378
 31
0.0
  0
LINE
  5
16f
100
AcDbEntity
  8
Switch
 62
4
100
AcDbLine
 10
64.411583
 20
-21.797378
 30
0.0
 11
60.369553
 21
-8.576494
 31
0.0
  0
LINE
  5
170
100
AcDbEntity
  8
Switch
 62
4
100
AcDbLine
 10
42.571879
 20
-15.348484
 30
0.0
 11
55.792763
 21
-11.306454
 31
0.0
  0
LINE
  5
171
100
AcDbEntity
  8
Switch
 62
4
100
AcDbLine
 10
55.792763
 20
-11.306454
 30
0.0
 11
59.834793
 21
-24.527338
 31
0.0
  0
LINE
  5
172
100
AcDbEntity
  8
Switch
 62
4
100
AcDbLine
 10
59.834793
 20
-24.527338
 30
0.0
 11
46.613909
 21
-28.569368
 31
0.0
  0
LINE
  5
173
100
AcDbEntity
  8
Switch
 62
4
100
AcDbLine
 10
46.613909
 20
-28.569368
 30
0.0
 11
42.571879
 21
-15.348484
 31
0.0
  0
LINE
  5
174
100
AcDbEntity
  8
Switch
 62
4
100
AcDbLine
 10
67.276821
 20
-31.169151
 30
0.0
 11
80.497705
 21
-27.127121
 31
0.0
  0
LINE
  5
175
100
AcDbEntity
  8
Switch
 62
4
100
AcDbLine
 10
80.497705
 20
-27.127121
 30
0.0
 11
84.539735
 21
-40.348005
 31
0.0
  0
LINE
  5
176
100
AcDbEntity
  8
Switch
 62
4
100
AcDbLine
 10
84.539735
 20
-40.348005
 30
0.0
 11
71.318851
 21
-44.390035
 31
0.0
  0
LINE
  5
177
100
AcDbEntity
  8
Switch
 62
4
100
AcDbLine
 10
71.318851
 20
-44.390035
 30
0.0
 11
67.276821
 21
-31.169151
 31
0.0
  0
LINE
  5
178
100
AcDbEntity
  8
Switch
 62
4
100
AcDbLine
 10
82.581346
 20
-16.242337
 30
0.0
 11
95.802230
 21
-12.200307
 31
0.0
  0
LINE
  5
179
100
AcDbEntity
  8
Switch
 62
4
100
AcDbLine
 10
95.802230
 20
-12.200307
 30
0.0
 11
99.844260
 21
-25.421191
 31
0.0
  0
LINE
  5
17a
100
AcDbEntity
  8
Switch
 62
4
100
AcDbLine
 10
99.844260
 20
-25.421191
 30
0.0
 11
86.623376
 21
-29.463221
 31
0.0
  0
LINE
  5
17b
100
AcDbEntity
  8
Switch
 62
4
100
AcDbLine
 10
86.623376
 20
-29.463221
 30
0.0
 11
82.581346
 21
-16.242337
 31
0.0
  0
LINE
  5
17c
100
AcDbEntity
  8
Switch
 62
4
100
AcDbLine
 10
102.264136
 20
-15.636166
 30
0.0
 11
115.485020
 21
-11.594136
 31
0.0
  0
LINE
  5
17d
100
AcDbEntity
  8
Switch
 62
4
100
AcDbLine
 10
115.485020
 20
-11.594136
 30
0.0
 11
119.527050
 21
-24.815020
 31
0.0
  0
LINE
  5
17e
100
AcDbEntity
  8
Switch
 62
4
100
AcDbLine
 10
119.527050
 20
-24.815020
 30
0.0
 11
106.306166
 21
-28.857050
 31
0.0
  0
LINE
  5
17f
100
AcDbEntity
  8
Switch
 62
4
100
AcDbLine
 10
106.306166
 20
-28.857050
 30
0.0
 11
102.264136
 21
-15.636166
 31
0.0
  0
LINE
  5
180
100
AcDbEntity
  8
Switch
 62
4
100
AcDbLine
 10
122.386521
 20
-16.466749
 30
0.0
 11
135.607405
 21
-12.424719
 31
0.0
  0
LINE
  5
181
100
AcDbEntity
  8
Switch
 62
4
100
AcDbLine
 10
135.607405
 20
-12.424719
 30
0.0
 11
139.649435
 21
-25.645603
 31
0.0
  0
LINE
  5
182
100
AcDbEntity
  8
Switch
 62
4
100
AcDbLine
 10
139.649435
 20
-25.645603
 30
0.0
 11
126.428551
 21
-29.687633
 31
0.0
  0
LINE
  5
183
100
AcDbEntity
  8
Switch
 62
4
100
AcDbLine
 10
126.428551
 20
-29.687633
 30
0.0
 11
122.386521
 21
-16.466749
 31
0.0
  0
LINE
  5
184
100
AcDbEntity
  8
Switch
 62
4
100
AcDbLine
 10
142.767747
 20
-10.235582
 30
0.0
 11
155.988631
 21
-6.193553
 31
0.0
  0
LINE
  5
185
100
AcDbEntity
  8
Switch
 62
4
100
AcDbLine
 10
155.988631
 20
-6.193553
 30
0.0
 11
160.030661
 21
-19.414437
 31
0.0
  0
LINE
  5
186
100
AcDbEntity
  8
Switch
 62
4
100
AcDbLine
 10
160.030661
 20
-19.414437
 30
0.0
 11
146.809777
 21
-23.456466
 31
0.0
  0
LINE
  5
187
100
AcDbEntity
  8
Switch
 62
4
100
AcDbLine
 10
146.809777
 20
-23.456466
 30
0.0
 11
142.767747
 21
-10.235582
 31
0.0
  0
LINE
  5
188
100
AcDbEntity
  8
Switch
 62
4
100
AcDbLine
 10
48.969523
 20
-38.663480
 30
0.0
 11
62.041289
 21
-34.162511
 31
0.0
  0
LINE
  5
189
100
AcDbEntity
  8
Switch
 62
4
100
AcDbLine
 10
62.041289
 20
-34.162511
 30
0.0
 11
66.542258
 21
-47.234277
 31
0.0
  0
LINE
  5
18a
100
AcDbEntity
  8
Switch
 62
4
100
AcDbLine
 10
66.542258
 20
-47.234277
 30
0.0
 11
53.470493
 21
-51.735246
 31
0.0
  0
LINE
  5
18b
100
AcDbEntity
  8
Switch
 62
4
100
AcDbLine
 10
53.470493
 20
-51.735246
 30
0.0
 11
48.969523
 21
-38.663480
 31
0.0
  0
LINE
  5
18c
100
AcDbEntity
  8
Switch
 62
4
100
AcDbLine
 10
30.281624
 20
-46.022930
 30
0.0
 11
43.099913
 21
-40.844005
 31
0.0
  0
LINE
  5
18d
100
AcDbEntity
  8
Switch
 62
4
100
AcDbLine
 10
43.099913
 20
-40.844005
 30
0.0
 11
48.278837
 21
-53.662294
 31
0.0
  0
LINE
  5
18e
100
AcDbEntity
  8
Switch
 62
4
100
AcDbLine
 10
48.278837
 20
-53.662294
 30
0.0
 11
35.460549
 21
-58.841218
 31
0.0
  0
LINE
  5
18f
100
AcDbEntity
  8
Switch
 62
4
100
AcDbLine
 10
35.460549
 20
-58.841218
 30
0.0
 11
30.281624
 21
-46.022930
 31
0.0
  0
LINE
  5
190
100
AcDbEntity
  8
Switch
 62
4
100
AcDbLine
 10
14.397723
 20
-57.428658
 30
0.0
 11
27.216012
 21
-52.249734
 31
0.0
  0
LINE
  5
191
100
AcDbEntity
  8
Switch
 62
4
100
AcDbLine
 10
27.216012
 20
-52.249734
 30
0.0
 11
32.394936
 21
-65.068022
 31
0.0
  0
LINE
  5
192
100
AcDbEntity
  8
Switch
 62
4
100
AcDbLine
 10
32.394936
 20
-65.068022
 30
0.0
 11
19.576648
 21
-70.246947
 31
0.0
  0
LINE
  5
193
100
AcDbEntity
  8
Switch
 62
4
100
AcDbLine
 10
19.576648
 20
-70.246947
 30
0.0
 11
14.397723
 21
-57.428658
 31
0.0
  0
LINE
  5
194
100
AcDbEntity
  8
Switch
 62
4
100
AcDbLine
 10
7.280207
 20
-39.812186
 30
0.0
 11
20.098495
 21
-34.633262
 31
0.0
  0
LINE
  5
195
100
AcDbEntity
  8
Switch
 62
4
100
AcDbLine
 10
20.098495
 20
-34.633262
 30
0.0
 11
25.277420
 21
-47.451550
 31
0.0
  0
LINE
  5
196
100
AcDbEntity
  8
Switch
 62
4
100
AcDbLine
 10
25.277420
 20
-47.451550
 30
0.0
 11
12.459131
 21
-52.630475
 31
0.0
  0
LINE
  5
197
100
AcDbEntity
  8
Switch
 62
4
100
AcDbLine
 10
12.459131
 20
-52.630475
 30
0.0
 11
7.280207
 21
-39.812186
 31
0.0
  0
SPLINE
  5
198
100
AcDbEntity
  8
Switch
 62
4
100
AcDbSpline
 70
8
 71
3
 72
8
 73
4
 74
0
 40
0
 40
0
 40
0
 40
0
 40
1
 40
1
 40
1
 40
1
 10
0.774208
 20
-70.925672
 30
0.0
 10
0.481061
 20
-70.632525
 30
0.0
 10
0.040191
 20
-70.544830
 30
0.0
 10
-0.342824
 20
-70.703480
 30
0.0
  0
SPLINE
  5
199
100
AcDbEntity
  8
Switch
 62
4
100
AcDbSpline
 70
8
 71
3
 72
8
 73
4
 74
0
 40
0
 40
0
 40
0
 40
0
 40
1
 40
1
 40
1
 40
1
 10
-0.342824
 20
-70.703480
 30
0.0
 10
-0.725840
 20
-70.862131
 30
0.0
 10
-0.975572
 20
-71.235882
 30
0.0
 10
-0.975572
 20
-71.650455
 30
0.0
  0
SPLINE
  5
19a
100
AcDbEntity
  8
Switch
 62
4
100
AcDbSpline
 70
8
 71
3
 72
8
 73
4
 74
0
 40
0
 40
0
 40
0
 40
0
 40
1
 40
1
 40
1
 40
1
 10
-0.975572
 20
-71.650455
 30
0.0
 10
-0.975572
 20
-72.065028
 30
0.0
 10
-0.725840
 20
-72.438779
 30
0.0
 10
-0.342824
 20
-72.597429
 30
0.0
  0
SPLINE
  5
19b
100
AcDbEntity
  8
Switch
 62
4
100
AcDbSpline
 70
8
 71
3
 72
8
 73
4
 74
0
 40
0
 40
0
 40
0
 40
0
 40
1
 40
1
 40
1
 40
1
 10
-0.342824
 20
-72.597429
 30
0.0
 10
0.040191
 20
-72.756079
 30
0.0
 10
0.481061
 20
-72.668385
 30
0.0
 10
0.774208
 20
-72.375238
 30
0.0
  0
SPLINE
  5
19c
100
AcDbEntity
  8
Switch
 62
4
100
AcDbSpline
 70
8
 71
3
 72
8
 73
4
 74
0
 40
0
 40
0
 40
0
 40
0
 40
1
 40
1
 40
1
 40
1
 10
0.774208
 20
-72.375238
 30
0.0
 10
1.174495
 20
-71.974951
 30
0.0
 10
1.174495
 20
-71.325958
 30
0.0
 10
0.774208
 20
-70.925672
 30
0.0
  0
LINE
  5
19d
100
AcDbEntity
  8
Switch
 62
4
100
AcDbLine
 10
0.774208
 20
-70.925672
 30
0.0
 11
0.774208
 21
-70.925672
 31
0.0
  0
LINE
  5
19e
100
AcDbEntity
  8
Switch
 62
4
100
AcDbLine
 10
-7.638154
 20
33.605734
 30
0.0
 11
-20.859038
 21
37.647764
 31
0.0
  0
LINE
  5
19f
100
AcDbEntity
  8
Switch
 62
4
100
AcDbLine
 10
-20.859038
 20
37.647764
 30
0.0
 11
-24.901068
 21
24.426880
 31
0.0
  0
LINE
  5
1a0
100
AcDbEntity
  8
Switch
 62
4
100
AcDbLine
 10
-24.901068
 20
24.426880
 30
0.0
 11
-11.680184
 21
20.384850
 31
0.0
  0
LINE
  5
1a1
100
AcDbEntity
  8
Switch
 62
4
100
AcDbLine
 10
-11.680184
 20
20.384850
 30
0.0
 11
-7.638154
 21
33.605734
 31
0.0
  0
LINE
  5
1a2
100
AcDbEntity
  8
Switch
 62
4
100
AcDbLine
 10
-25.807875
 20
39.160775
 30
0.0
 11
-39.028759
 21
43.202805
 31
0.0
  0
LINE
  5
1a3
100
AcDbEntity
  8
Switch
 62
4
100
AcDbLine
 10
-39.028759
 20
43.202805
 30
0.0
 11
-43.070789
 21
29.981921
 31
0.0
  0
LINE
  5
1a4
100
AcDbEntity
  8
Switch
 62
4
100
AcDbLine
 10
-43.070789
 20
29.981921
 30
0.0
 11
-29.849905
 21
25.939891
 31
0.0
  0
LINE
  5
1a5
100
AcDbEntity
  8
Switch
 62
4
100
AcDbLine
 10
-29.849905
 20
25.939891
 30
0.0
 11
-25.807875
 21
39.160775
 31
0.0
  0
LINE
  5
1a6
100
AcDbEntity
  8
Switch
 62
4
100
AcDbLine
 10
-43.605568
 20
45.932771
 30
0.0
 11
-56.826452
 21
49.974801
 31
0.0
  0
LINE
  5
1a7
100
AcDbEntity
  8
Switch
 62
4
100
AcDbLine
 10
-56.826452
 20
49.974801
 30
0.0
 11
-60.868482
 21
36.753917
 31
0.0
  0
LINE
  5
1a8
100
AcDbEntity
  8
Switch
 62
4
100
AcDbLine
 10
-60.868482
 20
36.753917
 30
0.0
 11
-47.647598
 21
32.711887
 31
0.0
  0
LINE
  5
1a9
100
AcDbEntity
  8
Switch
 62
4
100
AcDbLine
 10
-47.647598
 20
32.711887
 30
0.0
 11
-43.605568
 21
45.932771
 31
0.0
  0
LINE
  5
1aa
100
AcDbEntity
  8
Switch
 62
4
100
AcDbLine
 10
-60.262278
 20
56.436684
 30
0.0
 11
-73.483162
 21
60.478714
 31
0.0
  0
LINE
  5
1ab
100
AcDbEntity
  8
Switch
 62
4
100
AcDbLine
 10
-73.483162
 20
60.478714
 30
0.0
 11
-77.525192
 21
47.257830
 31
0.0
  0
LINE
  5
1ac
100
AcDbEntity
  8
Switch
 62
4
100
AcDbLine
 10
-77.525192
 20
47.257830
 30
0.0
 11
-64.304308
 21
43.215800
 31
0.0
  0
LINE
  5
1ad
100
AcDbEntity
  8
Switch
 62
4
100
AcDbLine
 10
-64.304308
 20
43.215800
 30
0.0
 11
-60.262278
 21
56.436684
 31
0.0
  0
LINE
  5
1ae
100
AcDbEntity
  8
Switch
 62
4
100
AcDbLine
 10
-79.945054
 20
57.042851
 30
0.0
 11
-93.165938
 21
61.084881
 31
0.0
  0
LINE
  5
1af
100
AcDbEntity
  8
Switch
 62
4
100
AcDbLine
 10
-93.165938
 20
61.084881
 30
0.0
 11
-97.207968
 21
47.863997
 31
0.0
  0
LINE
  5
1b0
100
AcDbEntity
  8
Switch
 62
4
100
AcDbLine
 10
-97.207968
 20
47.863997
 30
0.0
 11
-83.987083
 21
43.821967
 31
0.0
  0
LINE
  5
1b1
100
AcDbEntity
  8
Switch
 62
4
100
AcDbLine
 10
-83.987083
 20
43.821967
 30
0.0
 11
-79.945054
 21
57.042851
 31
0.0
  0
LINE
  5
1b2
100
AcDbEntity
  8
Switch
 62
4
100
AcDbLine
 10
-100.067417
 20
56.212253
 30
0.0
 11
-113.288301
 21
60.254283
 31
0.0
  0
LINE
  5
1b3
100
AcDbEntity
  8
Switch
 62
4
100
AcDbLine
 10
-113.288301
 20
60.254283
 30
0.0
 11
-117.330330
 21
47.033399
 31
0.0
  0
LINE
  5
1b4
100
AcDbEntity
  8
Switch
 62
4
100
AcDbLine
 10
-117.330330
 20
47.033399
 30
0.0
 11
-104.109446
 21
42.991369
 31
0.0
  0
LINE
  5
1b5
100
AcDbEntity
  8
Switch
 62
4
100
AcDbLine
 10
-104.109446
 20
42.991369
 30
0.0
 11
-100.067417
 21
56.212253
 31
0.0
  0
LINE
  5
1b6
100
AcDbEntity
  8
Switch
 62
4
100
AcDbLine
 10
-122.660095
 20
63.119528
 30
0.0
 11
-135.880979
 21
67.161557
 31
0.0
  0
LINE
  5
1b7
100
AcDbEntity
  8
Switch
 62
4
100
AcDbLine
 10
-135.880979
 20
67.161557
 30
0.0
 11
-139.923009
 21
53.940673
 31
0.0
  0
LINE
  5
1b8
100
AcDbEntity
  8
Switch
 62
4
100
AcDbLine
 10
-139.923009
 20
53.940673
 30
0.0
 11
-126.702125
 21
49.898644
 31
0.0
  0
LINE
  5
1b9
100
AcDbEntity
  8
Switch
 62
4
100
AcDbLine
 10
-126.702125
 20
49.898644
 30
0.0
 11
-122.660095
 21
63.119528
 31
0.0
  0
LINE
  5
1ba
100
AcDbEntity
  8
Switch
 62
4
100
AcDbLine
 10
-128.215171
 20
44.949796
 30
0.0
 11
-141.436055
 21
48.991826
 31
0.0
  0
LINE
  5
1bb
100
AcDbEntity
  8
Switch
 62
4
100
AcDbLine
 10
-141.436055
 20
48.991826
 30
0.0
 11
-145.478085
 21
35.770942
 31
0.0
  0
LINE
  5
1bc
100
AcDbEntity
  8
Switch
 62
4
100
AcDbLine
 10
-145.478085
 20
35.770942
 30
0.0
 11
-132.257201
 21
31.728912
 31
0.0
  0
LINE
  5
1bd
100
AcDbEntity
  8
Switch
 62
4
100
AcDbLine
 10
-132.257201
 20
31.728912
 30
0.0
 11
-128.215171
 21
44.949796
 31
0.0
  0
LINE
  5
1be
100
AcDbEntity
  8
Switch
 62
4
100
AcDbLine
 10
-105.622492
 20
38.042521
 30
0.0
 11
-118.843376
 21
42.084551
 31
0.0
  0
LINE
  5
1bf
100
AcDbEntity
  8
Switch
 62
4
100
AcDbLine
 10
-118.843376
 20
42.084551
 30
0.0
 11
-122.885406
 21
28.863667
 31
0.0
  0
LINE
  5
1c0
100
AcDbEntity
  8
Switch
 62
4
100
AcDbLine
 10
-122.885406
 20
28.863667
 30
0.0
 11
-109.664522
 21
24.821637
 31
0.0
  0
LINE
  5
1c1
100
AcDbEntity
  8
Switch
 62
4
100
AcDbLine
 10
-109.664522
 20
24.821637
 30
0.0
 11
-105.622492
 21
38.042521
 31
0.0
  0
LINE
  5
1c2
100
AcDbEntity
  8
Switch
 62
4
100
AcDbLine
 10
-85.500100
 20
38.873111
 30
0.0
 11
-98.720984
 21
42.915141
 31
0.0
  0
LINE
  5
1c3
100
AcDbEntity
  8
Switch
 62
4
100
AcDbLine
 10
-98.720984
 20
42.915141
 30
0.0
 11
-102.763014
 21
29.694257
 31
0.0
  0
LINE
  5
1c4
100
AcDbEntity
  8
Switch
 62
4
100
AcDbLine
 10
-102.763014
 20
29.694257
 30
0.0
 11
-89.542130
 21
25.652227
 31
0.0
  0
LINE
  5
1c5
100
AcDbEntity
  8
Switch
 62
4
100
AcDbLine
 10
-89.542130
 20
25.652227
 30
0.0
 11
-85.500100
 21
38.873111
 31
0.0
  0
LINE
  5
1c6
100
AcDbEntity
  8
Switch
 62
4
100
AcDbLine
 10
-65.817318
 20
38.266934
 30
0.0
 11
-79.038202
 21
42.308964
 31
0.0
  0
LINE
  5
1c7
100
AcDbEntity
  8
Switch
 62
4
100
AcDbLine
 10
-79.038202
 20
42.308964
 30
0.0
 11
-83.080231
 21
29.088080
 31
0.0
  0
LINE
  5
1c8
100
AcDbEntity
  8
Switch
 62
4
100
AcDbLine
 10
-83.080231
 20
29.088080
 30
0.0
 11
-69.859347
 21
25.046050
 31
0.0
  0
LINE
  5
1c9
100
AcDbEntity
  8
Switch
 62
4
100
AcDbLine
 10
-69.859347
 20
25.046050
 30
0.0
 11
-65.817318
 21
38.266934
 31
0.0
  0
LINE
  5
1ca
100
AcDbEntity
  8
Switch
 62
4
100
AcDbLine
 10
-49.160616
 20
27.763026
 30
0.0
 11
-62.381500
 21
31.805056
 31
0.0
  0
LINE
  5
1cb
100
AcDbEntity
  8
Switch
 62
4
100
AcDbLine
 10
-62.381500
 20
31.805056
 30
0.0
 11
-66.423530
 21
18.584172
 31
0.0
  0
LINE
  5
1cc
100
AcDbEntity
  8
Switch
 62
4
100
AcDbLine
 10
-66.423530
 20
18.584172
 30
0.0
 11
-53.202646
 21
14.542142
 31
0.0
  0
LINE
  5
1cd
100
AcDbEntity
  8
Switch
 62
4
100
AcDbLine
 10
-53.202646
 20
14.542142
 30
0.0
 11
-49.160616
 21
27.763026
 31
0.0
  0
LINE
  5
1ce
100
AcDbEntity
  8
Switch
 62
4
100
AcDbLine
 10
-31.362926
 20
20.991024
 30
0.0
 11
-44.583810
 21
25.033054
 31
0.0
  0
LINE
  5
1cf
100
AcDbEntity
  8
Switch
 62
4
100
AcDbLine
 10
-44.583810
 20
25.033054
 30
0.0
 11
-48.625840
 21
11.812170
 31
0.0
  0
LINE
  5
1d0
100
AcDbEntity
  8
Switch
 62
4
100
AcDbLine
 10
-48.625840
 20
11.812170
 30
0.0
 11
-35.404956
 21
7.770140
 31
0.0
  0
LINE
  5
1d1
100
AcDbEntity
  8
Switch
 62
4
100
AcDbLine
 10
-35.404956
 20
7.770140
 30
0.0
 11
-31.362926
 21
20.991024
 31
0.0
  0
LINE
  5
1d2
100
AcDbEntity
  8
Switch
 62
4
100
AcDbLine
 10
-14.594147
 20
10.853706
 30
0.0
 11
-27.815031
 21
14.895735
 31
0.0
  0
LINE
  5
1d3
100
AcDbEntity
  8
Switch
 62
4
100
AcDbLine
 10
-27.815031
 20
14.895735
 30
0.0
 11
-31.857061
 21
1.674851
 31
0.0
  0
LINE
  5
1d4
100
AcDbEntity
  8
Switch
 62
4
100
AcDbLine
 10
-31.857061
 20
1.674851
 30
0.0
 11
-18.636177
 21
-2.367178
 31
0.0
  0
LINE
  5
1d5
100
AcDbEntity
  8
Switch
 62
4
100
AcDbLine
 10
-18.636177
 20
-2.367178
 30
0.0
 11
-14.594147
 21
10.853706
 31
0.0
  0
LINE
  5
1d6
100
AcDbEntity
  8
Switch
 62
4
100
AcDbLine
 10
-22.902345
 20
-16.321256
 30
0.0
 11
-36.123229
 21
-12.279226
 31
0.0
  0
LINE
  5
1d7
100
AcDbEntity
  8
Switch
 62
4
100
AcDbLine
 10
-36.123229
 20
-12.279226
 30
0.0
 11
-40.165259
 21
-25.500110
 31
0.0
  0
LINE
  5
1d8
100
AcDbEntity
  8
Switch
 62
4
100
AcDbLine
 10
-40.165259
 20
-25.500110
 30
0.0
 11
-26.944375
 21
-29.542140
 31
0.0
  0
LINE
  5
1d9
100
AcDbEntity
  8
Switch
 62
4
100
AcDbLine
 10
-26.944375
 20
-29.542140
 30
0.0
 11
-22.902345
 21
-16.321256
 31
0.0
  0
LINE
  5
1da
100
AcDbEntity
  8
Switch
 62
4
100
AcDbLine
 10
-36.917979
 20
2.821264
 30
0.0
 11
-50.138863
 21
6.863294
 31
0.0
  0
LINE
  5
1db
100
AcDbEntity
  8
Switch
 62
4
100
AcDbLine
 10
-50.138863
 20
6.863294
 30
0.0
 11
-54.180893
 21
-6.357590
 31
0.0
  0
LINE
  5
1dc
100
AcDbEntity
  8
Switch
 62
4
100
AcDbLine
 10
-54.180893
 20
-6.357590
 30
0.0
 11
-40.960008
 21
-10.399620
 31
0.0
  0
LINE
  5
1dd
100
AcDbEntity
  8
Switch
 62
4
100
AcDbLine
 10
-40.960008
 20
-10.399620
 30
0.0
 11
-36.917979
 21
2.821264
 31
0.0
  0
LINE
  5
1de
100
AcDbEntity
  8
Switch
 62
4
100
AcDbLine
 10
-54.715669
 20
9.593267
 30
0.0
 11
-67.936553
 21
13.635297
 31
0.0
  0
LINE
  5
1df
100
AcDbEntity
  8
Switch
 62
4
100
AcDbLine
 10
-67.936553
 20
13.635297
 30
0.0
 11
-71.978583
 21
0.414412
 31
0.0
  0
LINE
  5
1e0
100
AcDbEntity
  8
Switch
 62
4
100
AcDbLine
 10
-71.978583
 20
0.414412
 30
0.0
 11
-58.757699
 21
-3.627617
 31
0.0
  0
LINE
  5
1e1
100
AcDbEntity
  8
Switch
 62
4
100
AcDbLine
 10
-58.757699
 20
-3.627617
 30
0.0
 11
-54.715669
 21
9.593267
 31
0.0
  0
LINE
  5
1e2
100
AcDbEntity
  8
Switch
 62
4
100
AcDbLine
 10
-71.372386
 20
20.097158
 30
0.0
 11
-84.593270
 21
24.139188
 31
0.0
  0
LINE
  5
1e3
100
AcDbEntity
  8
Switch
 62
4
100
AcDbLine
 10
-84.593270
 20
24.139188
 30
0.0
 11
-88.635300
 21
10.918304
 31
0.0
  0
LINE
  5
1e4
100
AcDbEntity
  8
Switch
 62
4
100
AcDbLine
 10
-88.635300
 20
10.918304
 30
0.0
 11
-75.414416
 21
6.876274
 31
0.0
  0
LINE
  5
1e5
100
AcDbEntity
  8
Switch
 62
4
100
AcDbLine
 10
-75.414416
 20
6.876274
 30
0.0
 11
-71.372386
 21
20.097158
 31
0.0
  0
LINE
  5
1e6
100
AcDbEntity
  8
Switch
 62
4
100
AcDbLine
 10
-91.055159
 20
20.703332
 30
0.0
 11
-104.276043
 21
24.745362
 31
0.0
  0
LINE
  5
1e7
100
AcDbEntity
  8
Switch
 62
4
100
AcDbLine
 10
-104.276043
 20
24.745362
 30
0.0
 11
-108.318073
 21
11.524478
 31
0.0
  0
LINE
  5
1e8
100
AcDbEntity
  8
Switch
 62
4
100
AcDbLine
 10
-108.318073
 20
11.524478
 30
0.0
 11
-95.097189
 21
7.482448
 31
0.0
  0
LINE
  5
1e9
100
AcDbEntity
  8
Switch
 62
4
100
AcDbLine
 10
-95.097189
 20
7.482448
 30
0.0
 11
-91.055159
 21
20.703332
 31
0.0
  0
LINE
  5
1ea
100
AcDbEntity
  8
Switch
 62
4
100
AcDbLine
 10
-111.177551
 20
19.872742
 30
0.0
 11
-124.398435
 21
23.914772
 31
0.0
  0
LINE
  5
1eb
100
AcDbEntity
  8
Switch
 62
4
100
AcDbLine
 10
-124.398435
 20
23.914772
 30
0.0
 11
-128.440465
 21
10.693888
 31
0.0
  0
LINE
  5
1ec
100
AcDbEntity
  8
Switch
 62
4
100
AcDbLine
 10
-128.440465
 20
10.693888
 30
0.0
 11
-115.219581
 21
6.651858
 31
0.0
  0
LINE
  5
1ed
100
AcDbEntity
  8
Switch
 62
4
100
AcDbLine
 10
-115.219581
 20
6.651858
 30
0.0
 11
-111.177551
 21
19.872742
 31
0.0
  0
LINE
  5
1ee
100
AcDbEntity
  8
Switch
 62
4
100
AcDbLine
 10
-133.770230
 20
26.780017
 30
0.0
 11
-146.991114
 21
30.822047
 31
0.0
  0
LINE
  5
1ef
100
AcDbEntity
  8
Switch
 62
4
100
AcDbLine
 10
-146.991114
 20
30.822047
 30
0.0
 11
-151.033144
 21
17.601163
 31
0.0
  0
LINE
  5
1f0
100
AcDbEntity
  8
Switch
 62
4
100
AcDbLine
 10
-151.033144
 20
17.601163
 30
0.0
 11
-137.812259
 21
13.559133
 31
0.0
  0
LINE
  5
1f1
100
AcDbEntity
  8
Switch
 62
4
100
AcDbLine
 10
-137.812259
 20
13.559133
 30
0.0
 11
-133.770230
 21
26.780017
 31
0.0
  0
LINE
  5
1f2
100
AcDbEntity
  8
Switch
 62
4
100
AcDbLine
 10
-139.325308
 20
8.610275
 30
0.0
 11
-152.546192
 21
12.652305
 31
0.0
  0
LINE
  5
1f3
100
AcDbEntity
  8
Switch
 62
4
100
AcDbLine
 10
-152.546192
 20
12.652305
 30
0.0
 11
-156.588222
 21
-0.568579
 31
0.0
  0
LINE
  5
1f4
100
AcDbEntity
  8
Switch
 62
4
100
AcDbLine
 10
-156.588222
 20
-0.568579
 30
0.0
 11
-143.367338
 21
-4.610609
 31
0.0
  0
LINE
  5
1f5
100
AcDbEntity
  8
Switch
 62
4
100
AcDbLine
 10
-143.367338
 20
-4.610609
 30
0.0
 11
-139.325308
 21
8.610275
 31
0.0
  0
LINE
  5
1f6
100
AcDbEntity
  8
Switch
 62
4
100
AcDbLine
 10
-116.732601
 20
1.702992
 30
0.0
 11
-129.953485
 21
5.745022
 31
0.0
  0
LINE
  5
1f7
100
AcDbEntity
  8
Switch
 62
4
100
AcDbLine
 10
-129.953485
 20
5.745022
 30
0.0
 11
-133.995515
 21
-7.475862
 31
0.0
  0
LINE
  5
1f8
100
AcDbEntity
  8
Switch
 62
4
100
AcDbLine
 10
-133.995515
 20
-7.475862
 30
0.0
 11
-120.774631
 21
-11.517892
 31
0.0
  0
LINE
  5
1f9
100
AcDbEntity
  8
Switch
 62
4
100
AcDbLine
 10
-120.774631
 20
-11.517892
 30
0.0
 11
-116.732601
 21
1.702992
 31
0.0
  0
LINE
  5
1fa
100
AcDbEntity
  8
Switch
 62
4
100
AcDbLine
 10
-96.610206
 20
2.533560
 30
0.0
 11
-109.831090
 21
6.575590
 31
0.0
  0
LINE
  5
1fb
100
AcDbEntity
  8
Switch
 62
4
100
AcDbLine
 10
-109.831090
 20
6.575590
 30
0.0
 11
-113.873119
 21
-6.645294
 31
0.0
  0
LINE
  5
1fc
100
AcDbEntity
  8
Switch
 62
4
100
AcDbLine
 10
-113.873119
 20
-6.645294
 30
0.0
 11
-100.652235
 21
-10.687324
 31
0.0
  0
LINE
  5
1fd
100
AcDbEntity
  8
Switch
 62
4
100
AcDbLine
 10
-100.652235
 20
-10.687324
 30
0.0
 11
-96.610206
 21
2.533560
 31
0.0
  0
LINE
  5
1fe
100
AcDbEntity
  8
Switch
 62
4
100
AcDbLine
 10
-76.927426
 20
1.927405
 30
0.0
 11
-90.148310
 21
5.969435
 31
0.0
  0
LINE
  5
1ff
100
AcDbEntity
  8
Switch
 62
4
100
AcDbLine
 10
-90.148310
 20
5.969435
 30
0.0
 11
-94.190340
 21
-7.251449
 31
0.0
  0
LINE
  5
200
100
AcDbEntity
  8
Switch
 62
4
100
AcDbLine
 10
-94.190340
 20
-7.251449
 30
0.0
 11
-80.969456
 21
-11.293479
 31
0.0
  0
LINE
  5
201
100
AcDbEntity
  8
Switch
 62
4
100
AcDbLine
 10
-80.969456
 20
-11.293479
 30
0.0
 11
-76.927426
 21
1.927405
 31
0.0
  0
LINE
  5
202
100
AcDbEntity
  8
Switch
 62
4
100
AcDbLine
 10
-60.270706
 20
-8.576508
 30
0.0
 11
-73.491590
 21
-4.534479
 31
0.0
  0
LINE
  5
203
100
AcDbEntity
  8
Switch
 62
4
100
AcDbLine
 10
-73.491590
 20
-4.534479
 30
0.0
 11
-77.533620
 21
-17.755363
 31
0.0
  0
LINE
  5
204
100
AcDbEntity
  8
Switch
 62
4
100
AcDbLine
 10
-77.533620
 20
-17.755363
 30
0.0
 11
-64.312736
 21
-21.797393
 31
0.0
  0
LINE
  5
205
100
AcDbEntity
  8
Switch
 62
4
100
AcDbLine
 10
-64.312736
 20
-21.797393
 30
0.0
 11
-60.270706
 21
-8.576508
 31
0.0
  0
LINE
  5
206
100
AcDbEntity
  8
Switch
 62
4
100
AcDbLine
 10
-42.473029
 20
-15.348486
 30
0.0
 11
-55.693913
 21
-11.306456
 31
0.0
  0
LINE
  5
207
100
AcDbEntity
  8
Switch
 62
4
100
AcDbLine
 10
-55.693913
 20
-11.306456
 30
0.0
 11
-59.735943
 21
-24.527340
 31
0.0
  0
LINE
  5
208
100
AcDbEntity
  8
Switch
 62
4
100
AcDbLine
 10
-59.735943
 20
-24.527340
 30
0.0
 11
-46.515058
 21
-28.569370
 31
0.0
  0
LINE
  5
209
100
AcDbEntity
  8
Switch
 62
4
100
AcDbLine
 10
-46.515058
 20
-28.569370
 30
0.0
 11
-42.473029
 21
-15.348486
 31
0.0
  0
LINE
  5
20a
100
AcDbEntity
  8
Switch
 62
4
100
AcDbLine
 10
-67.177972
 20
-31.169158
 30
0.0
 11
-80.398856
 21
-27.127129
 31
0.0
  0
LINE
  5
20b
100
AcDbEntity
  8
Switch
 62
4
100
AcDbLine
 10
-80.398856
 20
-27.127129
 30
0.0
 11
-84.440886
 21
-40.348013
 31
0.0
  0
LINE
  5
20c
100
AcDbEntity
  8
Switch
 62
4
100
AcDbLine
 10
-84.440886
 20
-40.348013
 30
0.0
 11
-71.220002
 21
-44.390042
 31
0.0
  0
LINE
  5
20d
100
AcDbEntity
  8
Switch
 62
4
100
AcDbLine
 10
-71.220002
 20
-44.390042
 30
0.0
 11
-67.177972
 21
-31.169158
 31
0.0
  0
LINE
  5
20e
100
AcDbEntity
  8
Switch
 62
4
100
AcDbLine
 10
-82.482479
 20
-16.242355
 30
0.0
 11
-95.703363
 21
-12.200325
 31
0.0
  0
LINE
  5
20f
100
AcDbEntity
  8
Switch
 62
4
100
AcDbLine
 10
-95.703363
 20
-12.200325
 30
0.0
 11
-99.745393
 21
-25.421209
 31
0.0
  0
LINE
  5
210
100
AcDbEntity
  8
Switch
 62
4
100
AcDbLine
 10
-99.745393
 20
-25.421209
 30
0.0
 11
-86.524509
 21
-29.463239
 31
0.0
  0
LINE
  5
211
100
AcDbEntity
  8
Switch
 62
4
100
AcDbLine
 10
-86.524509
 20
-29.463239
 30
0.0
 11
-82.482479
 21
-16.242355
 31
0.0
  0
LINE
  5
212
100
AcDbEntity
  8
Switch
 62
4
100
AcDbLine
 10
-102.165265
 20
-15.636187
 30
0.0
 11
-115.386149
 21
-11.594158
 31
0.0
  0
LINE
  5
213
100
AcDbEntity
  8
Switch
 62
4
100
AcDbLine
 10
-115.386149
 20
-11.594158
 30
0.0
 11
-119.428179
 21
-24.815042
 31
0.0
  0
LINE
  5
214
100
AcDbEntity
  8
Switch
 62
4
100
AcDbLine
 10
-119.428179
 20
-24.815042
 30
0.0
 11
-106.207295
 21
-28.857071
 31
0.0
  0
LINE
  5
215
100
AcDbEntity
  8
Switch
 62
4
100
AcDbLine
 10
-106.207295
 20
-28.857071
 30
0.0
 11
-102.165265
 21
-15.636187
 31
0.0
  0
LINE
  5
216
100
AcDbEntity
  8
Switch
 62
4
100
AcDbLine
 10
-122.287654
 20
-16.466768
 30
0.0
 11
-135.508538
 21
-12.424738
 31
0.0
  0
LINE
  5
217
100
AcDbEntity
  8
Switch
 62
4
100
AcDbLine
 10
-135.508538
 20
-12.424738
 30
0.0
 11
-139.550568
 21
-25.645622
 31
0.0
  0
LINE
  5
218
100
AcDbEntity
  8
Switch
 62
4
100
AcDbLine
 10
-139.550568
 20
-25.645622
 30
0.0
 11
-126.329684
 21
-29.687652
 31
0.0
  0
LINE
  5
219
100
AcDbEntity
  8
Switch
 62
4
100
AcDbLine
 10
-126.329684
 20
-29.687652
 30
0.0
 11
-122.287654
 21
-16.466768
 31
0.0
  0
LINE
  5
21a
100
AcDbEntity
  8
Switch
 62
4
100
AcDbLine
 10
-142.668883
 20
-10.235601
 30
0.0
 11
-155.889767
 21
-6.193571
 31
0.0
  0
LINE
  5
21b
100
AcDbEntity
  8
Switch
 62
4
100
AcDbLine
 10
-155.889767
 20
-6.193571
 30
0.0
 11
-159.931797
 21
-19.414455
 31
0.0
  0
LINE
  5
21c
100
AcDbEntity
  8
Switch
 62
4
100
AcDbLine
 10
-159.931797
 20
-19.414455
 30
0.0
 11
-146.710913
 21
-23.456485
 31
0.0
  0
LINE
  5
21d
100
AcDbEntity
  8
Switch
 62
4
100
AcDbLine
 10
-146.710913
 20
-23.456485
 30
0.0
 11
-142.668883
 21
-10.235601
 31
0.0
  0
LINE
  5
21e
100
AcDbEntity
  8
Switch
 62
4
100
AcDbLine
 10
-48.870646
 20
-38.663508
 30
0.0
 11
-61.942412
 21
-34.162538
 31
0.0
  0
LINE
  5
21f
100
AcDbEntity
  8
Switch
 62
4
100
AcDbLine
 10
-61.942412
 20
-34.162538
 30
0.0
 11
-66.443381
 21
-47.234304
 31
0.0
  0
LINE
  5
220
100
AcDbEntity
  8
Switch
 62
4
100
AcDbLine
 10
-66.443381
 20
-47.234304
 30
0.0
 11
-53.371616
 21
-51.735274
 31
0.0
  0
LINE
  5
221
100
AcDbEntity
  8
Switch
 62
4
100
AcDbLine
 10
-53.371616
 20
-51.735274
 30
0.0
 11
-48.870646
 21
-38.663508
 31
0.0
  0
LINE
  5
222
100
AcDbEntity
  8
Switch
 62
4
100
AcDbLine
 10
-30.182764
 20
-46.022938
 30
0.0
 11
-43.001052
 21
-40.844014
 31
0.0
  0
LINE
  5
223
100
AcDbEntity
  8
Switch
 62
4
100
AcDbLine
 10
-43.001052
 20
-40.844014
 30
0.0
 11
-48.179977
 21
-53.662302
 31
0.0
  0
LINE
  5
224
100
AcDbEntity
  8
Switch
 62
4
100
AcDbLine
 10
-48.179977
 20
-53.662302
 30
0.0
 11
-35.361688
 21
-58.841227
 31
0.0
  0
LINE
  5
225
100
AcDbEntity
  8
Switch
 62
4
100
AcDbLine
 10
-35.361688
 20
-58.841227
 30
0.0
 11
-30.182764
 21
-46.022938
 31
0.0
  0
LINE
  5
226
100
AcDbEntity
  8
Switch
 62
4
100
AcDbLine
 10
-14.298848
 20
-57.428658
 30
0.0
 11
-27.117137
 21
-52.249734
 31
0.0
  0
LINE
  5
227
100
AcDbEntity
  8
Switch
 62
4
100
AcDbLine
 10
-27.117137
 20
-52.249734
 30
0.0
 11
-32.296061
 21
-65.068022
 31
0.0
  0
LINE
  5
228
100
AcDbEntity
  8
Switch
 62
4
100
AcDbLine
 10
-32.296061
 20
-65.068022
 30
0.0
 11
-19.477773
 21
-70.246947
 31
0.0
  0
LINE
  5
229
100
AcDbEntity
  8
Switch
 62
4
100
AcDbLine
 10
-19.477773
 20
-70.246947
 30
0.0
 11
-14.298848
 21
-57.428658
 31
0.0
  0
LINE
  5
22a
100
AcDbEntity
  8
Switch
 62
4
100
AcDbLine
 10
-7.181339
 20
-39.812204
 30
0.0
 11
-19.999627
 21
-34.633279
 31
0.0
  0
LINE
  5
22b
100
AcDbEntity
  8
Switch
 62
4
100
AcDbLine
 10
-19.999627
 20
-34.633279
 30
0.0
 11
-25.178552
 21
-47.451568
 31
0.0
  0
LINE
  5
22c
100
AcDbEntity
  8
Switch
 62
4
100
AcDbLine
 10
-25.178552
 20
-47.451568
 30
0.0
 11
-12.360263
 21
-52.630492
 31
0.0
  0
LINE
  5
22d
100
AcDbEntity
  8
Switch
 62
4
100
AcDbLine
 10
-12.360263
 20
-52.630492
 30
0.0
 11
-7.181339
 21
-39.812204
 31
0.0
  0
SPLINE
  5
22e
100
AcDbEntity
  8
Switch
 62
4
100
AcDbSpline
 70
8
 71
3
 72
8
 73
4
 74
0
 40
0
 40
0
 40
0
 40
0
 40
1
 40
1
 40
1
 40
1
 10
-144.897189
 20
79.034046
 30
0.0
 10
-145.449558
 20
79.034046
 30
0.0
 10
-146.028627
 20
78.605217
 30
0.0
 10
-146.190126
 20
78.076998
 30
0.0
  0
LINE
  5
22f
100
AcDbEntity
  8
Switch
 62
4
100
AcDbLine
 10
-146.190126
 20
78.076998
 30
0.0
 11
-176.793879
 21
-22.023651
 31
0.0
  0
SPLINE
  5
230
100
AcDbEntity
  8
Switch
 62
4
100
AcDbSpline
 70
8
 71
3
 72
8
 73
4
 74
0
 40
0
 40
0
 40
0
 40
0
 40
1
 40
1
 40
1
 40
1
 10
-176.793879
 20
-22.023651
 30
0.0
 10
-176.955368
 20
-22.551870
 30
0.0
 10
-176.664979
 20
-23.130759
 30
0.0
 10
-176.144820
 20
-23.316588
 30
0.0
  0
LINE
  5
231
100
AcDbEntity
  8
Switch
 62
4
100
AcDbLine
 10
-176.144820
 20
-23.316588
 30
0.0
 11
-21.408353
 21
-78.597326
 31
0.0
  0
SPLINE
  5
232
100
AcDbEntity
  8
Switch
 62
4
100
AcDbSpline
 70
8
 71
3
 72
8
 73
4
 74
0
 40
0
 40
0
 40
0
 40
0
 40
1
 40
1
 40
1
 40
1
 10
-21.408353
 20
-78.597326
 30
0.0
 10
-20.888184
 20
-78.783156
 30
0.0
 10
-20.018716
 20
-78.934255
 30
0.0
 10
-19.466347
 20
-78.934255
 30
0.0
  0
LINE
  5
233
100
AcDbEntity
  8
Switch
 62
4
100
AcDbLine
 10
-19.466347
 20
-78.934255
 30
0.0
 11
19.565287
 21
-78.934255
 31
0.0
  0
SPLINE
  5
234
100
AcDbEntity
  8
Switch
 62
4
100
AcDbSpline
 70
8
 71
3
 72
8
 73
4
 74
0
 40
0
 40
0
 40
0
 40
0
 40
1
 40
1
 40
1
 40
1
 10
19.565287
 20
-78.934255
 30
0.0
 10
20.117625
 20
-78.934255
 30
0.0
 10
20.987104
 20
-78.783156
 30
0.0
 10
21.507272
 20
-78.597326
 30
0.0
  0
LINE
  5
235
100
AcDbEntity
  8
Switch
 62
4
100
AcDbLine
 10
21.507272
 20
-78.597326
 30
0.0
 11
176.243222
 21
-23.316588
 31
0.0
  0
SPLINE
  5
236
100
AcDbEntity
  8
Switch
 62
4
100
AcDbSpline
 70
8
 71
3
 72
8
 73
4
 74
0
 40
0
 40
0
 40
0
 40
0
 40
1
 40
1
 40
1
 40
1
 10
176.243222
 20
-23.316588
 30
0.0
 10
176.763371
 20
-23.130759
 30
0.0
 10
177.054280
 20
-22.551870
 30
0.0
 10
176.892800
 20
-22.023651
 30
0.0
  0
LINE
  5
237
100
AcDbEntity
  8
Switch
 62
4
100
AcDbLine
 10
176.892800
 20
-22.023651
 30
0.0
 11
146.288518
 21
78.077518
 31
0.0
  0
SPLINE
  5
238
100
AcDbEntity
  8
Switch
 62
4
100
AcDbSpline
 70
8
 71
3
 72
8
 73
4
 74
0
 40
0
 40
0
 40
0
 40
0
 40
1
 40
1
 40
1
 40
1
 10
146.288518
 20
78.077518
 30
0.0
 10
146.127038
 20
78.605737
 30
0.0
 10
145.548450
 20
79.034046
 30
0.0
 10
144.996111
 20
79.034046
 30
0.0
  0
LINE
  5
239
100
AcDbEntity
  8
Switch
 62
4
100
AcDbLine
 10
144.996111
 20
79.034046
 30
0.0
 11
-144.897189
 21
79.034046
 31
0.0
  0
SPLINE
  5
23a
100
AcDbEntity
  8
Switch
 62
4
100
AcDbSpline
 70
8
 71
3
 72
8
 73
4
 74
0
 40
0
 40
0
 40
0
 40
0
 40
1
 40
1
 40
1
 40
1
 10
-140.457627
 20
74.489511
 30
0.0
 10
-140.857913
 20
74.889797
 30
0.0
 10
-141.506906
 20
74.889797
 30
0.0
 10
-141.907193
 20
74.489511
 30
0.0
  0
SPLINE
  5
23b
100
AcDbEntity
  8
Switch
 62
4
100
AcDbSpline
 70
8
 71
3
 72
8
 73
4
 74
0
 40
0
 40
0
 40
0
 40
0
 40
1
 40
1
 40
1
 40
1
 10
-141.907193
 20
74.489511
 30
0.0
 10
-142.307479
 20
74.089224
 30
0.0
 10
-142.307479
 20
73.440232
 30
0.0
 10
-141.907193
 20
73.039945
 30
0.0
  0
SPLINE
  5
23c
100
AcDbEntity
  8
Switch
 62
4
100
AcDbSpline
 70
8
 71
3
 72
8
 73
4
 74
0
 40
0
 40
0
 40
0
 40
0
 40
1
 40
1
 40
1
 40
1
 10
-141.907193
 20
73.039945
 30
0.0
 10
-141.506906
 20
72.639659
 30
0.0
 10
-140.857913
 20
72.639659
 30
0.0
 10
-140.457627
 20
73.039945
 30
0.0
  0
SPLINE
  5
23d
100
AcDbEntity
  8
Switch
 62
4
100
AcDbSpline
 70
8
 71
3
 72
8
 73
4
 74
0
 40
0
 40
0
 40
0
 40
0
 40
1
 40
1
 40
1
 40
1
 10
-140.457627
 20
73.039945
 30
0.0
 10
-140.265403
 20
73.232169
 30
0.0
 10
-140.157412
 20
73.492882
 30
0.0
 10
-140.157412
 20
73.764728
 30
0.0
  0
SPLINE
  5
23e
100
AcDbEntity
  8
Switch
 62
4
100
AcDbSpline
 70
8
 71
3
 72
8
 73
4
 74
0
 40
0
 40
0
 40
0
 40
0
 40
1
 40
1
 40
1
 40
1
 10
-140.157412
 20
73.764728
 30
0.0
 10
-140.157412
 20
74.036574
 30
0.0
 10
-140.265403
 20
74.297286
 30
0.0
 10
-140.457627
 20
74.489511
 30
0.0
  0
LINE
  5
23f
100
AcDbEntity
  8
Switch
 62
4
100
AcDbLine
 10
-140.457627
 20
74.489511
 30
0.0
 11
-140.457627
 21
74.489511
 31
0.0
  0
SPLINE
  5
240
100
AcDbEntity
  8
Switch
 62
4
100
AcDbSpline
 70
8
 71
3
 72
8
 73
4
 74
0
 40
0
 40
0
 40
0
 40
0
 40
1
 40
1
 40
1
 40
1
 10
-45.979552
 20
75.025504
 30
0.0
 10
-46.272700
 20
75.318651
 30
0.0
 10
-46.713570
 20
75.406345
 30
0.0
 10
-47.096585
 20
75.247695
 30
0.0
  0
SPLINE
  5
241
100
AcDbEntity
  8
Switch
 62
4
100
AcDbSpline
 70
8
 71
3
 72
8
 73
4
 74
0
 40
0
 40
0
 40
0
 40
0
 40
1
 40
1
 40
1
 40
1
 10
-47.096585
 20
75.247695
 30
0.0
 10
-47.479600
 20
75.089045
 30
0.0
 10
-47.729333
 20
74.715294
 30
0.0
 10
-47.729333
 20
74.300721
 30
0.0
  0
SPLINE
  5
242
100
AcDbEntity
  8
Switch
 62
4
100
AcDbSpline
 70
8
 71
3
 72
8
 73
4
 74
0
 40
0
 40
0
 40
0
 40
0
 40
1
 40
1
 40
1
 40
1
 10
-47.729333
 20
74.300721
 30
0.0
 10
-47.729333
 20
73.886148
 30
0.0
 10
-47.479600
 20
73.512397
 30
0.0
 10
-47.096585
 20
73.353746
 30
0.0
  0
SPLINE
  5
243
100
AcDbEntity
  8
Switch
 62
4
100
AcDbSpline
 70
8
 71
3
 72
8
 73
4
 74
0
 40
0
 40
0
 40
0
 40
0
 40
1
 40
1
 40
1
 40
1
 10
-47.096585
 20
73.353746
 30
0.0
 10
-46.713570
 20
73.195096
 30
0.0
 10
-46.272700
 20
73.282791
 30
0.0
 10
-45.979552
 20
73.575938
 30
0.0
  0
SPLINE
  5
244
100
AcDbEntity
  8
Switch
 62
4
100
AcDbSpline
 70
8
 71
3
 72
8
 73
4
 74
0
 40
0
 40
0
 40
0
 40
0
 40
1
 40
1
 40
1
 40
1
 10
-45.979552
 20
73.575938
 30
0.0
 10
-45.579266
 20
73.976224
 30
0.0
 10
-45.579266
 20
74.625217
 30
0.0
 10
-45.979552
 20
75.025504
 30
0.0
  0
LINE
  5
245
100
AcDbEntity
  8
Switch
 62
4
100
AcDbLine
 10
-45.979552
 20
75.025504
 30
0.0
 11
-45.979552
 21
75.025504
 31
0.0
  0
SPLINE
  5
246
100
AcDbEntity
  8
Switch
 62
4
100
AcDbSpline
 70
8
 71
3
 72
8
 73
4
 74
0
 40
0
 40
0
 40
0
 40
0
 40
1
 40
1
 40
1
 40
1
 10
47.528031
 20
75.025526
 30
0.0
 10
47.234883
 20
75.318673
 30
0.0
 10
46.794014
 20
75.406367
 30
0.0
 10
46.410998
 20
75.247717
 30
0.0
  0
SPLINE
  5
247
100
AcDbEntity
  8
Switch
 62
4
100
AcDbSpline
 70
8
 71
3
 72
8
 73
4
 74
0
 40
0
 40
0
 40
0
 40
0
 40
1
 40
1
 40
1
 40
1
 10
46.410998
 20
75.247717
 30
0.0
 10
46.027983
 20
75.089067
 30
0.0
 10
45.778250
 20
74.715316
 30
0.0
 10
45.778250
 20
74.300743
 30
0.0
  0
SPLINE
  5
248
100
AcDbEntity
  8
Switch
 62
4
100
AcDbSpline
 70
8
 71
3
 72
8
 73
4
 74
0
 40
0
 40
0
 40
0
 40
0
 40
1
 40
1
 40
1
 40
1
 10
45.778250
 20
74.300743
 30
0.0
 10
45.778250
 20
73.886170
 30
0.0
 10
46.027983
 20
73.512418
 30
0.0
 10
46.410998
 20
73.353768
 30
0.0
  0
SPLINE
  5
249
100
AcDbEntity
  8
Switch
 62
4
100
AcDbSpline
 70
8
 71
3
 72
8
 73
4
 74
0
 40
0
 40
0
 40
0
 40
0
 40
1
 40
1
 40
1
 40
1
 10
46.410998
 20
73.353768
 30
0.0
 10
46.794014
 20
73.195118
 30
0.0
 10
47.234883
 20
73.282813
 30
0.0
 10
47.528031
 20
73.575960
 30
0.0
  0
SPLINE
  5
24a
100
AcDbEntity
  8
Switch
 62
4
100
AcDbSpline
 70
8
 71
3
 72
8
 73
4
 74
0
 40
0
 40
0
 40
0
 40
0
 40
1
 40
1
 40
1
 40
1
 10
47.528031
 20
73.575960
 30
0.0
 10
47.720255
 20
73.768184
 30
0.0
 10
47.828245
 20
74.028896
 30
0.0
 10
47.828245
 20
74.300743
 30
0.0
  0
SPLINE
  5
24b
100
AcDbEntity
  8
Switch
 62
4
100
AcDbSpline
 70
8
 71
3
 72
8
 73
4
 74
0
 40
0
 40
0
 40
0
 40
0
 40
1
 40
1
 40
1
 40
1
 10
47.828245
 20
74.300743
 30
0.0
 10
47.828245
 20
74.572589
 30
0.0
 10
47.720255
 20
74.833301
 30
0.0
 10
47.528031
 20
75.025526
 30
0.0
  0
LINE
  5
24c
100
AcDbEntity
  8
Switch
 62
4
100
AcDbLine
 10
47.528031
 20
75.025526
 30
0.0
 11
47.528031
 21
75.025526
 31
0.0
  0
SPLINE
  5
24d
100
AcDbEntity
  8
Switch
 62
4
100
AcDbSpline
 70
8
 71
3
 72
8
 73
4
 74
0
 40
0
 40
0
 40
0
 40
0
 40
1
 40
1
 40
1
 40
1
 10
142.006386
 20
74.489514
 30
0.0
 10
141.713239
 20
74.782662
 30
0.0
 10
141.272369
 20
74.870356
 30
0.0
 10
140.889354
 20
74.711706
 30
0.0
  0
SPLINE
  5
24e
100
AcDbEntity
  8
Switch
 62
4
100
AcDbSpline
 70
8
 71
3
 72
8
 73
4
 74
0
 40
0
 40
0
 40
0
 40
0
 40
1
 40
1
 40
1
 40
1
 10
140.889354
 20
74.711706
 30
0.0
 10
140.506339
 20
74.553056
 30
0.0
 10
140.256606
 20
74.179304
 30
0.0
 10
140.256606
 20
73.764731
 30
0.0
  0
SPLINE
  5
24f
100
AcDbEntity
  8
Switch
 62
4
100
AcDbSpline
 70
8
 71
3
 72
8
 73
4
 74
0
 40
0
 40
0
 40
0
 40
0
 40
1
 40
1
 40
1
 40
1
 10
140.256606
 20
73.764731
 30
0.0
 10
140.256606
 20
73.350159
 30
0.0
 10
140.506339
 20
72.976407
 30
0.0
 10
140.889354
 20
72.817757
 30
0.0
  0
SPLINE
  5
250
100
AcDbEntity
  8
Switch
 62
4
100
AcDbSpline
 70
8
 71
3
 72
8
 73
4
 74
0
 40
0
 40
0
 40
0
 40
0
 40
1
 40
1
 40
1
 40
1
 10
140.889354
 20
72.817757
 30
0.0
 10
141.272369
 20
72.659107
 30
0.0
 10
141.713239
 20
72.746801
 30
0.0
 10
142.006386
 20
73.039949
 30
0.0
  0
SPLINE
  5
251
100
AcDbEntity
  8
Switch
 62
4
100
AcDbSpline
 70
8
 71
3
 72
8
 73
4
 74
0
 40
0
 40
0
 40
0
 40
0
 40
1
 40
1
 40
1
 40
1
 10
142.006386
 20
73.039949
 30
0.0
 10
142.198611
 20
73.232173
 30
0.0
 10
142.306601
 20
73.492885
 30
0.0
 10
142.306601
 20
73.764731
 30
0.0
  0
SPLINE
  5
252
100
AcDbEntity
  8
Switch
 62
4
100
AcDbSpline
 70
8
 71
3
 72
8
 73
4
 74
0
 40
0
 40
0
 40
0
 40
0
 40
1
 40
1
 40
1
 40
1
 10
142.306601
 20
73.764731
 30
0.0
 10
142.306601
 20
74.036578
 30
0.0
 10
142.198611
 20
74.297290
 30
0.0
 10
142.006386
 20
74.489514
 30
0.0
  0
LINE
  5
253
100
AcDbEntity
  8
Switch
 62
4
100
AcDbLine
 10
142.006386
 20
74.489514
 30
0.0
 11
142.006386
 21
74.489514
 31
0.0
  0
SPLINE
  5
254
100
AcDbEntity
  8
Switch
 62
4
100
AcDbSpline
 70
8
 71
3
 72
8
 73
4
 74
0
 40
0
 40
0
 40
0
 40
0
 40
1
 40
1
 40
1
 40
1
 10
170.861203
 20
-18.930778
 30
0.0
 10
170.460916
 20
-18.530492
 30
0.0
 10
169.811924
 20
-18.530492
 30
0.0
 10
169.411637
 20
-18.930778
 30
0.0
  0
SPLINE
  5
255
100
AcDbEntity
  8
Switch
 62
4
100
AcDbSpline
 70
8
 71
3
 72
8
 73
4
 74
0
 40
0
 40
0
 40
0
 40
0
 40
1
 40
1
 40
1
 40
1
 10
169.411637
 20
-18.930778
 30
0.0
 10
169.011351
 20
-19.331065
 30
0.0
 10
169.011351
 20
-19.980057
 30
0.0
 10
169.411637
 20
-20.380344
 30
0.0
  0
SPLINE
  5
256
100
AcDbEntity
  8
Switch
 62
4
100
AcDbSpline
 70
8
 71
3
 72
8
 73
4
 74
0
 40
0
 40
0
 40
0
 40
0
 40
1
 40
1
 40
1
 40
1
 10
169.411637
 20
-20.380344
 30
0.0
 10
169.811924
 20
-20.780630
 30
0.0
 10
170.460916
 20
-20.780630
 30
0.0
 10
170.861203
 20
-20.380344
 30
0.0
  0
SPLINE
  5
257
100
AcDbEntity
  8
Switch
 62
4
100
AcDbSpline
 70
8
 71
3
 72
8
 73
4
 74
0
 40
0
 40
0
 40
0
 40
0
 40
1
 40
1
 40
1
 40
1
 10
170.861203
 20
-20.380344
 30
0.0
 10
171.053427
 20
-20.188119
 30
0.0
 10
171.161418
 20
-19.927407
 30
0.0
 10
171.161418
 20
-19.655561
 30
0.0
  0
SPLINE
  5
258
100
AcDbEntity
  8
Switch
 62
4
100
AcDbSpline
 70
8
 71
3
 72
8
 73
4
 74
0
 40
0
 40
0
 40
0
 40
0
 40
1
 40
1
 40
1
 40
1
 10
171.161418
 20
-19.655561
 30
0.0
 10
171.161418
 20
-19.383715
 30
0.0
 10
171.053427
 20
-19.123002
 30
0.0
 10
170.861203
 20
-18.930778
 30
0.0
  0
LINE
  5
259
100
AcDbEntity
  8
Switch
 62
4
100
AcDbLine
 10
170.861203
 20
-18.930778
 30
0.0
 11
170.861203
 21
-18.930778
 31
0.0
  0
SPLINE
  5
25a
100
AcDbEntity
  8
Switch
 62
4
100
AcDbSpline
 70
8
 71
3
 72
8
 73
4
 74
0
 40
0
 40
0
 40
0
 40
0
 40
1
 40
1
 40
1
 40
1
 10
-169.132789
 20
-19.174345
 30
0.0
 10
-169.398552
 20
-18.674517
 30
0.0
 10
-170.019187
 20
-18.484770
 30
0.0
 10
-170.519015
 20
-18.750533
 30
0.0
  0
SPLINE
  5
25b
100
AcDbEntity
  8
Switch
 62
4
100
AcDbSpline
 70
8
 71
3
 72
8
 73
4
 74
0
 40
0
 40
0
 40
0
 40
0
 40
1
 40
1
 40
1
 40
1
 10
-170.519015
 20
-18.750533
 30
0.0
 10
-171.018843
 20
-19.016297
 30
0.0
 10
-171.208591
 20
-19.636932
 30
0.0
 10
-170.942827
 20
-20.136760
 30
0.0
  0
SPLINE
  5
25c
100
AcDbEntity
  8
Switch
 62
4
100
AcDbSpline
 70
8
 71
3
 72
8
 73
4
 74
0
 40
0
 40
0
 40
0
 40
0
 40
1
 40
1
 40
1
 40
1
 10
-170.942827
 20
-20.136760
 30
0.0
 10
-170.677064
 20
-20.636588
 30
0.0
 10
-170.056429
 20
-20.826335
 30
0.0
 10
-169.556601
 20
-20.560572
 30
0.0
  0
SPLINE
  5
25d
100
AcDbEntity
  8
Switch
 62
4
100
AcDbSpline
 70
8
 71
3
 72
8
 73
4
 74
0
 40
0
 40
0
 40
0
 40
0
 40
1
 40
1
 40
1
 40
1
 10
-169.556601
 20
-20.560572
 30
0.0
 10
-169.316574
 20
-20.432948
 30
0.0
 10
-169.137078
 20
-20.215201
 30
0.0
 10
-169.057598
 20
-19.955233
 30
0.0
  0
SPLINE
  5
25e
100
AcDbEntity
  8
Switch
 62
4
100
AcDbSpline
 70
8
 71
3
 72
8
 73
4
 74
0
 40
0
 40
0
 40
0
 40
0
 40
1
 40
1
 40
1
 40
1
 10
-169.057598
 20
-19.955233
 30
0.0
 10
-168.978117
 20
-19.695265
 30
0.0
 10
-169.005164
 20
-19.414371
 30
0.0
 10
-169.132789
 20
-19.174345
 30
0.0
  0
LINE
  5
25f
100
AcDbEntity
  8
Switch
 62
4
100
AcDbLine
 10
-169.132789
 20
-19.174345
 30
0.0
 11
-169.132789
 21
-19.174345
 31
0.0
  0
ENDSEC
  0
SECTION
  2
OBJECTS
  0
DICTIONARY
  5
C
330
0
100
AcDbDictionary
  3
ACAD_GROUP
350
D
  3
ACAD_MLINESTYLE
350
17
  0
DICTIONARY
  5
D
330
C
100
AcDbDictionary
  0
DICTIONARY
  5
1A
330
C
100
AcDbDictionary
  0
DICTIONARY
  5
17
330
C
100
AcDbDictionary
  3
STANDARD
350
18
  0
DICTIONARY
  5
19
330
C
100
AcDbDictionary
  0
ENDSEC
  0
EOF
