  0
SECTION
  2
HEADER
  9
$ACADVER
  1
AC1014
  9
$HANDSEED
  5
FFFF
  9
$MEASUREMENT
 70
     1
  0
ENDSEC
  0
SECTION
  2
TABLES
  0
TABLE
  2
VPORT
  5
8
330
0
100
AcDbSymbolTable
 70
     4
  0
VPORT
  5
2E
330
8
100
AcDbSymbolTableRecord
100
AcDbViewportTableRecord
  2
*ACTIVE
 70
     0
 10
0.0
 20
0.0
 11
1.0
 21
1.0
 12
210.0
 22
148.5
 13
0.0
 23
0.0
 14
10.0
 24
10.0
 15
10.0
 25
10.0
 16
0.0
 26
0.0
 36
1.0
 17
0.0
 27
0.0
 37
0.0
 40
341.0
 41
1.24
 42
50.0
 43
0.0
 44
0.0
 50
0.0
 51
0.0
 71
     0
 72
   100
 73
     1
 74
     3
 75
     0
 76
     0
 77
     0
 78
     0
  0
ENDTAB
  0
TABLE
  2
LTYPE
  5
5
330
0
100
AcDbSymbolTable
 70
     1
  0
LTYPE
  5
14
330
5
100
AcDbSymbolTableRecord
100
AcDbLinetypeTableRecord
  2
BYBLOCK
 70
     0
  3

 72
    65
 73
     0
 40
0.0
  0
LTYPE
  5
15
330
5
100
AcDbSymbolTableRecord
100
AcDbLinetypeTableRecord
  2
BYLAYER
 70
     0
  3

 72
    65
 73
     0
 40
0.0
  0
LTYPE
  5
16
330
5
100
AcDbSymbolTableRecord
100
AcDbLinetypeTableRecord
  2
CONTINUOUS
 70
     0
  3
Solid line
 72
    65
 73
     0
 40
0.0
  0
ENDTAB
  0
TABLE
  2
LAYER
  5
2
100
AcDbSymbolTable
 70
11
  0
LAYER
  5
50
100
AcDbSymbolTableRecord
100
AcDbLayerTableRecord
  2
0
 70
0
  6
CONTINUOUS
  0
LAYER
  5
51
100
AcDbSymbolTableRecord
100
AcDbLayerTableRecord
  2
Bottom
 70
0
  6
CONTINUOUS
  0
LAYER
  5
52
100
AcDbSymbolTableRecord
100
AcDbLayerTableRecord
  2
Inner_Layer
 70
0
  6
CONTINUOUS
  0
LAYER
  5
53
100
AcDbSymbolTableRecord
100
AcDbLayerTableRecord
  2
Guts
 70
0
  6
CONTINUOUS
  0
LAYER
  5
54
100
AcDbSymbolTableRecord
100
AcDbLayerTableRecord
  2
Keycaps
 70
0
  6
CONTINUOUS
  0
LAYER
  5
55
100
AcDbSymbolTableRecord
100
AcDbLayerTableRecord
  2
PCB_for_Kicad
 70
0
  6
CONTINUOUS
  0
LAYER
  5
56
100
AcDbSymbolTableRecord
100
AcDbLayerTableRecord
  2
Switch
 70
0
  6
CONTINUOUS
  0
LAYER
  5
57
100
AcDbSymbolTableRecord
100
AcDbLayerTableRecord
  2
Outer_Perimeter
 70
0
  6
CONTINUOUS
  0
LAYER
  5
58
100
AcDbSymbolTableRecord
100
AcDbLayerTableRecord
  2
Top_Square
 70
0
  6
CONTINUOUS
  0
LAYER
  5
59
100
AcDbSymbolTableRecord
100
AcDbLayerTableRecord
  2
Top_blind_holes
 70
0
  6
CONTINUOUS
  0
LAYER
  5
5a
100
AcDbSymbolTableRecord
100
AcDbLayerTableRecord
  2
Top
 70
0
  6
CONTINUOUS
  0
ENDTAB
  0
TABLE
  2
STYLE
  5
3
330
0
100
AcDbSymbolTable
 70
     1
  0
STYLE
  5
11
330
3
100
AcDbSymbolTableRecord
100
AcDbTextStyleTableRecord
  2
STANDARD
 70
     0
 40
0.0
 41
1.0
 50
0.0
 71
     0
 42
2.5
  3
txt
  4

  0
ENDTAB
  0
TABLE
  2
VIEW
  5
6
330
0
100
AcDbSymbolTable
 70
     0
  0
ENDTAB
  0
TABLE
  2
UCS
  5
7
330
0
100
AcDbSymbolTable
 70
     0
  0
ENDTAB
  0
TABLE
  2
APPID
  5
9
330
0
100
AcDbSymbolTable
 70
     2
  0
APPID
  5
12
330
9
100
AcDbSymbolTableRecord
100
AcDbRegAppTableRecord
  2
ACAD
 70
     0
  0
ENDTAB
  0
TABLE
  2
DIMSTYLE
  5
A
330
0
100
AcDbSymbolTable
 70
     1
  0
DIMSTYLE
105
27
330
A
100
AcDbSymbolTableRecord
100
AcDbDimStyleTableRecord
  2
ISO-25
 70
     0
  3

  4

  5

  6

  7

 40
1.0
 41
2.5
 42
0.625
 43
3.75
 44
1.25
 45
0.0
 46
0.0
 47
0.0
 48
0.0
140
2.5
141
2.5
142
0.0
143
0.03937007874016
144
1.0
145
0.0
146
1.0
147
0.625
 71
     0
 72
     0
 73
     0
 74
     0
 75
     0
 76
     0
 77
     1
 78
     8
170
     0
171
     3
172
     1
173
     0
174
     0
175
     0
176
     0
177
     0
178
     0
270
     2
271
     2
272
     2
273
     2
274
     3
340
11
275
     0
280
     0
281
     0
282
     0
283
     0
284
     8
285
     0
286
     0
287
     3
288
     0
  0
ENDTAB
  0
TABLE
  2
BLOCK_RECORD
  5
1
330
0
100
AcDbSymbolTable
 70
     1
  0
BLOCK_RECORD
  5
1F
330
1
100
AcDbSymbolTableRecord
100
AcDbBlockTableRecord
  2
*MODEL_SPACE
  0
BLOCK_RECORD
  5
1B
330
1
100
AcDbSymbolTableRecord
100
AcDbBlockTableRecord
  2
*PAPER_SPACE
  0
ENDTAB
  0
ENDSEC
  0
SECTION
  2
BLOCKS
  0
BLOCK
  5
20
330
1F
100
AcDbEntity
  8
0
100
AcDbBlockBegin
  2
*MODEL_SPACE
 70
     0
 10
0.0
 20
0.0
 30
0.0
  3
*MODEL_SPACE
  1

  0
ENDBLK
  5
21
330
1F
100
AcDbEntity
  8
0
100
AcDbBlockEnd
  0
BLOCK
  5
1C
330
1B
100
AcDbEntity
 67
     1
  8
0
100
AcDbBlockBegin
  2
*PAPER_SPACE
  1

  0
ENDBLK
  5
1D
330
1B
100
AcDbEntity
 67
     1
  8
0
100
AcDbBlockEnd
  0
ENDSEC
  0
SECTION
  2
ENTITIES
  0
SPLINE
  5
100
100
AcDbEntity
  8
Top
 62
4
100
AcDbSpline
 70
8
 71
3
 72
8
 73
4
 74
0
 40
0
 40
0
 40
0
 40
0
 40
1
 40
1
 40
1
 40
1
 10
141.803208
 20
72.319420
 30
0.0
 10
141.737008
 20
72.313020
 30
0.0
 10
141.670468
 20
72.299880
 30
0.0
 10
141.604268
 20
72.279630
 30
0.0
  0
SPLINE
  5
101
100
AcDbEntity
  8
Top
 62
4
100
AcDbSpline
 70
8
 71
3
 72
8
 73
4
 74
0
 40
0
 40
0
 40
0
 40
0
 40
1
 40
1
 40
1
 40
1
 10
141.604268
 20
72.279630
 30
0.0
 10
126.548126
 20
67.676843
 30
0.0
 10
111.223275
 20
62.991388
 30
0.0
 10
98.331544
 20
59.049976
 30
0.0
  0
SPLINE
  5
102
100
AcDbEntity
  8
Top
 62
4
100
AcDbSpline
 70
8
 71
3
 72
8
 73
4
 74
0
 40
0
 40
0
 40
0
 40
0
 40
1
 40
1
 40
1
 40
1
 10
98.331544
 20
59.049976
 30
0.0
 10
97.803305
 20
58.888485
 30
0.0
 10
97.244007
 20
59.185801
 30
0.0
 10
97.082537
 20
59.714017
 30
0.0
  0
LINE
  5
103
100
AcDbEntity
  8
Top
 62
4
100
AcDbLine
 10
97.082537
 20
59.714017
 30
0.0
 11
95.715170
 21
64.186603
 31
0.0
  0
SPLINE
  5
104
100
AcDbEntity
  8
Top
 62
4
100
AcDbSpline
 70
8
 71
3
 72
8
 73
4
 74
0
 40
0
 40
0
 40
0
 40
0
 40
1
 40
1
 40
1
 40
1
 10
95.715170
 20
64.186603
 30
0.0
 10
95.553670
 20
64.714818
 30
0.0
 10
94.994372
 20
65.012125
 30
0.0
 10
94.466153
 20
64.850643
 30
0.0
  0
LINE
  5
105
100
AcDbEntity
  8
Top
 62
4
100
AcDbLine
 10
94.466153
 20
64.850643
 30
0.0
 11
78.209299
 21
59.880931
 31
0.0
  0
SPLINE
  5
106
100
AcDbEntity
  8
Top
 62
4
100
AcDbSpline
 70
8
 71
3
 72
8
 73
4
 74
0
 40
0
 40
0
 40
0
 40
0
 40
1
 40
1
 40
1
 40
1
 10
78.209299
 20
59.880931
 30
0.0
 10
77.681080
 20
59.719450
 30
0.0
 10
77.121791
 20
60.016760
 30
0.0
 10
76.960282
 20
60.544972
 30
0.0
  0
LINE
  5
107
100
AcDbEntity
  8
Top
 62
4
100
AcDbLine
 10
76.960282
 20
60.544972
 30
0.0
 11
76.032172
 21
63.580439
 31
0.0
  0
SPLINE
  5
108
100
AcDbEntity
  8
Top
 62
4
100
AcDbSpline
 70
8
 71
3
 72
8
 73
4
 74
0
 40
0
 40
0
 40
0
 40
0
 40
1
 40
1
 40
1
 40
1
 10
76.032172
 20
63.580439
 30
0.0
 10
75.870662
 20
64.108651
 30
0.0
 10
75.311363
 20
64.405970
 30
0.0
 10
74.783154
 20
64.244480
 30
0.0
  0
LINE
  5
109
100
AcDbEntity
  8
Top
 62
4
100
AcDbLine
 10
74.783154
 20
64.244480
 30
0.0
 11
57.259723
 21
58.887196
 31
0.0
  0
SPLINE
  5
10a
100
AcDbEntity
  8
Top
 62
4
100
AcDbSpline
 70
8
 71
3
 72
8
 73
4
 74
0
 40
0
 40
0
 40
0
 40
0
 40
1
 40
1
 40
1
 40
1
 10
57.259723
 20
58.887196
 30
0.0
 10
56.731504
 20
58.725705
 30
0.0
 10
56.434165
 20
58.166391
 30
0.0
 10
56.595675
 20
57.638179
 30
0.0
  0
LINE
  5
10b
100
AcDbEntity
  8
Top
 62
4
100
AcDbLine
 10
56.595675
 20
57.638179
 30
0.0
 11
57.523783
 21
54.602712
 31
0.0
  0
SPLINE
  5
10c
100
AcDbEntity
  8
Top
 62
4
100
AcDbSpline
 70
8
 71
3
 72
8
 73
4
 74
0
 40
0
 40
0
 40
0
 40
0
 40
1
 40
1
 40
1
 40
1
 10
57.523783
 20
54.602712
 30
0.0
 10
57.685292
 20
54.074500
 30
0.0
 10
57.387953
 20
53.515205
 30
0.0
 10
56.859744
 20
53.353696
 30
0.0
  0
LINE
  5
10d
100
AcDbEntity
  8
Top
 62
4
100
AcDbLine
 10
56.859744
 20
53.353696
 30
0.0
 11
40.602890
 21
48.382952
 31
0.0
  0
SPLINE
  5
10e
100
AcDbEntity
  8
Top
 62
4
100
AcDbSpline
 70
8
 71
3
 72
8
 73
4
 74
0
 40
0
 40
0
 40
0
 40
0
 40
1
 40
1
 40
1
 40
1
 10
40.602890
 20
48.382952
 30
0.0
 10
40.103101
 20
48.208015
 30
0.0
 10
39.929252
 20
47.804381
 30
0.0
 10
39.839112
 20
47.518923
 30
0.0
  0
SPLINE
  5
10f
100
AcDbEntity
  8
Top
 62
4
100
AcDbSpline
 70
8
 71
3
 72
8
 73
4
 74
0
 40
0
 40
0
 40
0
 40
0
 40
1
 40
1
 40
1
 40
1
 10
39.839112
 20
47.518923
 30
0.0
 10
39.710262
 20
47.082927
 30
0.0
 10
39.508303
 20
46.717473
 30
0.0
 10
39.061904
 20
46.580998
 30
0.0
  0
LINE
  5
110
100
AcDbEntity
  8
Top
 62
4
100
AcDbLine
 10
39.061904
 20
46.580998
 30
0.0
 11
4.635140
 21
36.056081
 31
0.0
  0
SPLINE
  5
111
100
AcDbEntity
  8
Top
 62
4
100
AcDbSpline
 70
8
 71
3
 72
8
 73
4
 74
0
 40
0
 40
0
 40
0
 40
0
 40
1
 40
1
 40
1
 40
1
 10
4.635140
 20
36.056081
 30
0.0
 10
4.106921
 20
35.894594
 30
0.0
 10
3.809612
 20
35.335282
 30
0.0
 10
3.971101
 20
34.807066
 30
0.0
  0
LINE
  5
112
100
AcDbEntity
  8
Top
 62
4
100
AcDbLine
 10
3.971101
 20
34.807066
 30
0.0
 11
23.394158
 21
-28.721726
 31
0.0
  0
SPLINE
  5
113
100
AcDbEntity
  8
Top
 62
4
100
AcDbSpline
 70
8
 71
3
 72
8
 73
4
 74
0
 40
0
 40
0
 40
0
 40
0
 40
1
 40
1
 40
1
 40
1
 10
23.394158
 20
-28.721726
 30
0.0
 10
23.555648
 20
-29.249955
 30
0.0
 10
23.271188
 20
-29.846004
 30
0.0
 10
22.759060
 20
-30.052913
 30
0.0
  0
LINE
  5
114
100
AcDbEntity
  8
Top
 62
4
100
AcDbLine
 10
22.759060
 20
-30.052913
 30
0.0
 11
3.976271
 21
-37.641587
 31
0.0
  0
SPLINE
  5
115
100
AcDbEntity
  8
Top
 62
4
100
AcDbSpline
 70
8
 71
3
 72
8
 73
4
 74
0
 40
0
 40
0
 40
0
 40
0
 40
1
 40
1
 40
1
 40
1
 10
3.976271
 20
-37.641587
 30
0.0
 10
3.464142
 20
-37.848486
 30
0.0
 10
3.216933
 20
-38.431175
 30
0.0
 10
3.423852
 20
-38.943304
 30
0.0
  0
LINE
  5
116
100
AcDbEntity
  8
Top
 62
4
100
AcDbLine
 10
3.423852
 20
-38.943304
 30
0.0
 11
17.405911
 21
-73.550417
 31
0.0
  0
SPLINE
  5
117
100
AcDbEntity
  8
Top
 62
4
100
AcDbSpline
 70
8
 71
3
 72
8
 73
4
 74
0
 40
0
 40
0
 40
0
 40
0
 40
1
 40
1
 40
1
 40
1
 10
17.405911
 20
-73.550417
 30
0.0
 10
17.612821
 20
-74.062546
 30
0.0
 10
18.195630
 20
-74.309545
 30
0.0
 10
18.707639
 20
-74.102326
 30
0.0
  0
LINE
  5
118
100
AcDbEntity
  8
Top
 62
4
100
AcDbLine
 10
18.707639
 20
-74.102326
 30
0.0
 11
52.034215
 21
-60.614286
 31
0.0
  0
SPLINE
  5
119
100
AcDbEntity
  8
Top
 62
4
100
AcDbSpline
 70
8
 71
3
 72
8
 73
4
 74
0
 40
0
 40
0
 40
0
 40
0
 40
1
 40
1
 40
1
 40
1
 10
52.034215
 20
-60.614286
 30
0.0
 10
52.546224
 20
-60.407066
 30
0.0
 10
53.384712
 20
-60.093387
 30
0.0
 10
53.906961
 20
-59.913557
 30
0.0
  0
LINE
  5
11a
100
AcDbEntity
  8
Top
 62
4
100
AcDbLine
 10
53.906961
 20
-59.913557
 30
0.0
 11
71.233512
 21
-53.947521
 31
0.0
  0
SPLINE
  5
11b
100
AcDbEntity
  8
Top
 62
4
100
AcDbSpline
 70
8
 71
3
 72
8
 73
4
 74
0
 40
0
 40
0
 40
0
 40
0
 40
1
 40
1
 40
1
 40
1
 10
71.233512
 20
-53.947521
 30
0.0
 10
71.667681
 20
-53.771151
 30
0.0
 10
71.856831
 20
-53.523681
 30
0.0
 10
71.967321
 20
-53.043193
 30
0.0
  0
SPLINE
  5
11c
100
AcDbEntity
  8
Top
 62
4
100
AcDbSpline
 70
8
 71
3
 72
8
 73
4
 74
0
 40
0
 40
0
 40
0
 40
0
 40
1
 40
1
 40
1
 40
1
 10
71.967321
 20
-53.043193
 30
0.0
 10
72.070490
 20
-52.702863
 30
0.0
 10
72.303760
 20
-52.323774
 30
0.0
 10
72.742979
 20
-52.189494
 30
0.0
  0
LINE
  5
11d
100
AcDbEntity
  8
Top
 62
4
100
AcDbLine
 10
72.742979
 20
-52.189494
 30
0.0
 11
88.993635
 21
-47.221335
 31
0.0
  0
SPLINE
  5
11e
100
AcDbEntity
  8
Top
 62
4
100
AcDbSpline
 70
8
 71
3
 72
8
 73
4
 74
0
 40
0
 40
0
 40
0
 40
0
 40
1
 40
1
 40
1
 40
1
 10
88.993635
 20
-47.221335
 30
0.0
 10
89.521844
 20
-47.059846
 30
0.0
 10
89.819153
 20
-46.500537
 30
0.0
 10
89.657683
 20
-45.972318
 30
0.0
  0
LINE
  5
11f
100
AcDbEntity
  8
Top
 62
4
100
AcDbLine
 10
89.657683
 20
-45.972318
 30
0.0
 11
86.025342
 21
-34.090385
 31
0.0
  0
SPLINE
  5
120
100
AcDbEntity
  8
Top
 62
4
100
AcDbSpline
 70
8
 71
3
 72
8
 73
4
 74
0
 40
0
 40
0
 40
0
 40
0
 40
1
 40
1
 40
1
 40
1
 10
86.025342
 20
-34.090385
 30
0.0
 10
85.863862
 20
-33.562166
 30
0.0
 10
86.161171
 20
-33.002847
 30
0.0
 10
86.689380
 20
-32.841367
 30
0.0
  0
LINE
  5
121
100
AcDbEntity
  8
Top
 62
4
100
AcDbLine
 10
86.689380
 20
-32.841367
 30
0.0
 11
101.678627
 21
-28.259227
 31
0.0
  0
SPLINE
  5
122
100
AcDbEntity
  8
Top
 62
4
100
AcDbSpline
 70
8
 71
3
 72
8
 73
4
 74
0
 40
0
 40
0
 40
0
 40
0
 40
1
 40
1
 40
1
 40
1
 10
101.678627
 20
-28.259227
 30
0.0
 10
102.206836
 20
-28.097748
 30
0.0
 10
102.766114
 20
-28.395047
 30
0.0
 10
102.927644
 20
-28.923266
 30
0.0
  0
LINE
  5
123
100
AcDbEntity
  8
Top
 62
4
100
AcDbLine
 10
102.927644
 20
-28.923266
 30
0.0
 11
103.855742
 21
-31.958739
 31
0.0
  0
SPLINE
  5
124
100
AcDbEntity
  8
Top
 62
4
100
AcDbSpline
 70
8
 71
3
 72
8
 73
4
 74
0
 40
0
 40
0
 40
0
 40
0
 40
1
 40
1
 40
1
 40
1
 10
103.855742
 20
-31.958739
 30
0.0
 10
104.017252
 20
-32.486958
 30
0.0
 10
104.576550
 20
-32.784277
 30
0.0
 10
105.104759
 20
-32.622778
 30
0.0
  0
LINE
  5
125
100
AcDbEntity
  8
Top
 62
4
100
AcDbLine
 10
105.104759
 20
-32.622778
 30
0.0
 11
121.362123
 21
-27.652549
 31
0.0
  0
SPLINE
  5
126
100
AcDbEntity
  8
Top
 62
4
100
AcDbSpline
 70
8
 71
3
 72
8
 73
4
 74
0
 40
0
 40
0
 40
0
 40
0
 40
1
 40
1
 40
1
 40
1
 10
121.362123
 20
-27.652549
 30
0.0
 10
121.890342
 20
-27.491059
 30
0.0
 10
122.449641
 20
-27.788378
 30
0.0
 10
122.611141
 20
-28.316587
 30
0.0
  0
LINE
  5
127
100
AcDbEntity
  8
Top
 62
4
100
AcDbLine
 10
122.611141
 20
-28.316587
 30
0.0
 11
123.978507
 21
-32.789177
 31
0.0
  0
SPLINE
  5
128
100
AcDbEntity
  8
Top
 62
4
100
AcDbSpline
 70
8
 71
3
 72
8
 73
4
 74
0
 40
0
 40
0
 40
0
 40
0
 40
1
 40
1
 40
1
 40
1
 10
123.978507
 20
-32.789177
 30
0.0
 10
124.139977
 20
-33.317386
 30
0.0
 10
124.699306
 20
-33.614706
 30
0.0
 10
125.227525
 20
-33.453216
 30
0.0
  0
LINE
  5
129
100
AcDbEntity
  8
Top
 62
4
100
AcDbLine
 10
125.227525
 20
-33.453216
 30
0.0
 11
165.343846
 21
-21.188363
 31
0.0
  0
SPLINE
  5
12a
100
AcDbEntity
  8
Top
 62
4
100
AcDbSpline
 70
8
 71
3
 72
8
 73
4
 74
0
 40
0
 40
0
 40
0
 40
0
 40
1
 40
1
 40
1
 40
1
 10
165.343846
 20
-21.188363
 30
0.0
 10
165.872035
 20
-21.026863
 30
0.0
 10
166.169374
 20
-20.467562
 30
0.0
 10
166.007874
 20
-19.939344
 30
0.0
  0
LINE
  5
12b
100
AcDbEntity
  8
Top
 62
4
100
AcDbLine
 10
166.007874
 20
-19.939344
 30
0.0
 11
161.038165
 21
-3.683007
 31
0.0
  0
SPLINE
  5
12c
100
AcDbEntity
  8
Top
 62
4
100
AcDbSpline
 70
8
 71
3
 72
8
 73
4
 74
0
 40
0
 40
0
 40
0
 40
0
 40
1
 40
1
 40
1
 40
1
 10
161.038165
 20
-3.683007
 30
0.0
 10
160.876686
 20
-3.154786
 30
0.0
 10
161.173995
 20
-2.595513
 30
0.0
 10
161.702214
 20
-2.433991
 30
0.0
  0
LINE
  5
12d
100
AcDbEntity
  8
Top
 62
4
100
AcDbLine
 10
161.702214
 20
-2.433991
 30
0.0
 11
164.211618
 21
-1.666598
 31
0.0
  0
SPLINE
  5
12e
100
AcDbEntity
  8
Top
 62
4
100
AcDbSpline
 70
8
 71
3
 72
8
 73
4
 74
0
 40
0
 40
0
 40
0
 40
0
 40
1
 40
1
 40
1
 40
1
 10
164.211618
 20
-1.666598
 30
0.0
 10
164.739807
 20
-1.505073
 30
0.0
 10
165.037147
 20
-0.945798
 30
0.0
 10
164.875647
 20
-0.417579
 30
0.0
  0
LINE
  5
12f
100
AcDbEntity
  8
Top
 62
4
100
AcDbLine
 10
164.875647
 20
-0.417579
 30
0.0
 11
143.100805
 21
70.805821
 31
0.0
  0
LINE
  5
130
100
AcDbEntity
  8
Top
 62
4
100
AcDbLine
 10
143.100805
 20
70.805821
 30
0.0
 11
143.100805
 21
70.806350
 31
0.0
  0
LINE
  5
131
100
AcDbEntity
  8
Top
 62
4
100
AcDbLine
 10
143.100805
 20
70.806350
 30
0.0
 11
142.853286
 21
71.615602
 31
0.0
  0
SPLINE
  5
132
100
AcDbEntity
  8
Top
 62
4
100
AcDbSpline
 70
8
 71
3
 72
8
 73
4
 74
0
 40
0
 40
0
 40
0
 40
0
 40
1
 40
1
 40
1
 40
1
 10
142.853286
 20
71.615602
 30
0.0
 10
142.711546
 20
72.079169
 30
0.0
 10
142.267467
 20
72.364021
 30
0.0
 10
141.803738
 20
72.319433
 30
0.0
  0
LINE
  5
133
100
AcDbEntity
  8
Top
 62
4
100
AcDbLine
 10
141.803738
 20
72.319433
 30
0.0
 11
141.803208
 21
72.319420
 31
0.0
  0
SPLINE
  5
134
100
AcDbEntity
  8
Top
 62
4
100
AcDbSpline
 70
8
 71
3
 72
8
 73
4
 74
0
 40
0
 40
0
 40
0
 40
0
 40
1
 40
1
 40
1
 40
1
 10
-10.113278
 20
-31.675880
 30
0.0
 10
-10.113278
 20
-32.228229
 30
0.0
 10
-9.665509
 20
-32.675998
 30
0.0
 10
-9.113160
 20
-32.675998
 30
0.0
  0
LINE
  5
135
100
AcDbEntity
  8
Top
 62
4
100
AcDbLine
 10
-9.113160
 20
-32.675998
 30
0.0
 11
9.211920
 21
-32.675998
 31
0.0
  0
SPLINE
  5
136
100
AcDbEntity
  8
Top
 62
4
100
AcDbSpline
 70
8
 71
3
 72
8
 73
4
 74
0
 40
0
 40
0
 40
0
 40
0
 40
1
 40
1
 40
1
 40
1
 10
9.211920
 20
-32.675998
 30
0.0
 10
9.764278
 20
-32.675998
 30
0.0
 10
10.212047
 20
-32.228229
 30
0.0
 10
10.212047
 20
-31.675880
 30
0.0
  0
LINE
  5
137
100
AcDbEntity
  8
Top
 62
4
100
AcDbLine
 10
10.212047
 20
-31.675880
 30
0.0
 11
10.212047
 21
5.648516
 31
0.0
  0
SPLINE
  5
138
100
AcDbEntity
  8
Top
 62
4
100
AcDbSpline
 70
8
 71
3
 72
8
 73
4
 74
0
 40
0
 40
0
 40
0
 40
0
 40
1
 40
1
 40
1
 40
1
 10
10.212047
 20
5.648516
 30
0.0
 10
10.212047
 20
6.200869
 30
0.0
 10
9.764278
 20
6.648639
 30
0.0
 10
9.211920
 20
6.648639
 30
0.0
  0
LINE
  5
139
100
AcDbEntity
  8
Top
 62
4
100
AcDbLine
 10
9.211920
 20
6.648639
 30
0.0
 11
-9.113160
 21
6.648639
 31
0.0
  0
SPLINE
  5
13a
100
AcDbEntity
  8
Top
 62
4
100
AcDbSpline
 70
8
 71
3
 72
8
 73
4
 74
0
 40
0
 40
0
 40
0
 40
0
 40
1
 40
1
 40
1
 40
1
 10
-9.113160
 20
6.648639
 30
0.0
 10
-9.665509
 20
6.648639
 30
0.0
 10
-10.113278
 20
6.200869
 30
0.0
 10
-10.113278
 20
5.648516
 30
0.0
  0
LINE
  5
13b
100
AcDbEntity
  8
Top
 62
4
100
AcDbLine
 10
-10.113278
 20
5.648516
 30
0.0
 11
-10.113278
 21
-31.675880
 31
0.0
  0
SPLINE
  5
13c
100
AcDbEntity
  8
Top
 62
4
100
AcDbSpline
 70
8
 71
3
 72
8
 73
4
 74
0
 40
0
 40
0
 40
0
 40
0
 40
1
 40
1
 40
1
 40
1
 10
-141.704346
 20
72.319420
 30
0.0
 10
-141.638146
 20
72.313020
 30
0.0
 10
-141.571607
 20
72.299880
 30
0.0
 10
-141.505407
 20
72.279630
 30
0.0
  0
SPLINE
  5
13d
100
AcDbEntity
  8
Top
 62
4
100
AcDbSpline
 70
8
 71
3
 72
8
 73
4
 74
0
 40
0
 40
0
 40
0
 40
0
 40
1
 40
1
 40
1
 40
1
 10
-141.505407
 20
72.279630
 30
0.0
 10
-126.449260
 20
67.676843
 30
0.0
 10
-111.124414
 20
62.991388
 30
0.0
 10
-98.232682
 20
59.049976
 30
0.0
  0
SPLINE
  5
13e
100
AcDbEntity
  8
Top
 62
4
100
AcDbSpline
 70
8
 71
3
 72
8
 73
4
 74
0
 40
0
 40
0
 40
0
 40
0
 40
1
 40
1
 40
1
 40
1
 10
-98.232682
 20
59.049976
 30
0.0
 10
-97.704444
 20
58.888485
 30
0.0
 10
-97.145145
 20
59.185801
 30
0.0
 10
-96.983665
 20
59.714017
 30
0.0
  0
LINE
  5
13f
100
AcDbEntity
  8
Top
 62
4
100
AcDbLine
 10
-96.983665
 20
59.714017
 30
0.0
 11
-95.616298
 21
64.186603
 31
0.0
  0
SPLINE
  5
140
100
AcDbEntity
  8
Top
 62
4
100
AcDbSpline
 70
8
 71
3
 72
8
 73
4
 74
0
 40
0
 40
0
 40
0
 40
0
 40
1
 40
1
 40
1
 40
1
 10
-95.616298
 20
64.186603
 30
0.0
 10
-95.454799
 20
64.714818
 30
0.0
 10
-94.895500
 20
65.012125
 30
0.0
 10
-94.367291
 20
64.850643
 30
0.0
  0
LINE
  5
141
100
AcDbEntity
  8
Top
 62
4
100
AcDbLine
 10
-94.367291
 20
64.850643
 30
0.0
 11
-78.110437
 21
59.880931
 31
0.0
  0
SPLINE
  5
142
100
AcDbEntity
  8
Top
 62
4
100
AcDbSpline
 70
8
 71
3
 72
8
 73
4
 74
0
 40
0
 40
0
 40
0
 40
0
 40
1
 40
1
 40
1
 40
1
 10
-78.110437
 20
59.880931
 30
0.0
 10
-77.582218
 20
59.719450
 30
0.0
 10
-77.022919
 20
60.016760
 30
0.0
 10
-76.861410
 20
60.544972
 30
0.0
  0
LINE
  5
143
100
AcDbEntity
  8
Top
 62
4
100
AcDbLine
 10
-76.861410
 20
60.544972
 30
0.0
 11
-75.933302
 21
63.580439
 31
0.0
  0
SPLINE
  5
144
100
AcDbEntity
  8
Top
 62
4
100
AcDbSpline
 70
8
 71
3
 72
8
 73
4
 74
0
 40
0
 40
0
 40
0
 40
0
 40
1
 40
1
 40
1
 40
1
 10
-75.933302
 20
63.580439
 30
0.0
 10
-75.771792
 20
64.108651
 30
0.0
 10
-75.212493
 20
64.405970
 30
0.0
 10
-74.684285
 20
64.244480
 30
0.0
  0
LINE
  5
145
100
AcDbEntity
  8
Top
 62
4
100
AcDbLine
 10
-74.684285
 20
64.244480
 30
0.0
 11
-57.160853
 21
58.887196
 31
0.0
  0
SPLINE
  5
146
100
AcDbEntity
  8
Top
 62
4
100
AcDbSpline
 70
8
 71
3
 72
8
 73
4
 74
0
 40
0
 40
0
 40
0
 40
0
 40
1
 40
1
 40
1
 40
1
 10
-57.160853
 20
58.887196
 30
0.0
 10
-56.632635
 20
58.725705
 30
0.0
 10
-56.335295
 20
58.166391
 30
0.0
 10
-56.496805
 20
57.638179
 30
0.0
  0
LINE
  5
147
100
AcDbEntity
  8
Top
 62
4
100
AcDbLine
 10
-56.496805
 20
57.638179
 30
0.0
 11
-57.424913
 21
54.602712
 31
0.0
  0
SPLINE
  5
148
100
AcDbEntity
  8
Top
 62
4
100
AcDbSpline
 70
8
 71
3
 72
8
 73
4
 74
0
 40
0
 40
0
 40
0
 40
0
 40
1
 40
1
 40
1
 40
1
 10
-57.424913
 20
54.602712
 30
0.0
 10
-57.586422
 20
54.074500
 30
0.0
 10
-57.289083
 20
53.515205
 30
0.0
 10
-56.760874
 20
53.353696
 30
0.0
  0
LINE
  5
149
100
AcDbEntity
  8
Top
 62
4
100
AcDbLine
 10
-56.760874
 20
53.353696
 30
0.0
 11
-40.504020
 21
48.382952
 31
0.0
  0
SPLINE
  5
14a
100
AcDbEntity
  8
Top
 62
4
100
AcDbSpline
 70
8
 71
3
 72
8
 73
4
 74
0
 40
0
 40
0
 40
0
 40
0
 40
1
 40
1
 40
1
 40
1
 10
-40.504020
 20
48.382952
 30
0.0
 10
-40.004231
 20
48.208015
 30
0.0
 10
-39.830382
 20
47.804381
 30
0.0
 10
-39.740242
 20
47.518923
 30
0.0
  0
SPLINE
  5
14b
100
AcDbEntity
  8
Top
 62
4
100
AcDbSpline
 70
8
 71
3
 72
8
 73
4
 74
0
 40
0
 40
0
 40
0
 40
0
 40
1
 40
1
 40
1
 40
1
 10
-39.740242
 20
47.518923
 30
0.0
 10
-39.611392
 20
47.082927
 30
0.0
 10
-39.409433
 20
46.717473
 30
0.0
 10
-38.963034
 20
46.580998
 30
0.0
  0
LINE
  5
14c
100
AcDbEntity
  8
Top
 62
4
100
AcDbLine
 10
-38.963034
 20
46.580998
 30
0.0
 11
-4.536280
 21
36.056081
 31
0.0
  0
SPLINE
  5
14d
100
AcDbEntity
  8
Top
 62
4
100
AcDbSpline
 70
8
 71
3
 72
8
 73
4
 74
0
 40
0
 40
0
 40
0
 40
0
 40
1
 40
1
 40
1
 40
1
 10
-4.536280
 20
36.056081
 30
0.0
 10
-4.008061
 20
35.894594
 30
0.0
 10
-3.710752
 20
35.335282
 30
0.0
 10
-3.872241
 20
34.807066
 30
0.0
  0
LINE
  5
14e
100
AcDbEntity
  8
Top
 62
4
100
AcDbLine
 10
-3.872241
 20
34.807066
 30
0.0
 11
-23.295288
 21
-28.721726
 31
0.0
  0
SPLINE
  5
14f
100
AcDbEntity
  8
Top
 62
4
100
AcDbSpline
 70
8
 71
3
 72
8
 73
4
 74
0
 40
0
 40
0
 40
0
 40
0
 40
1
 40
1
 40
1
 40
1
 10
-23.295288
 20
-28.721726
 30
0.0
 10
-23.456778
 20
-29.249955
 30
0.0
 10
-23.172319
 20
-29.846004
 30
0.0
 10
-22.660190
 20
-30.052913
 30
0.0
  0
LINE
  5
150
100
AcDbEntity
  8
Top
 62
4
100
AcDbLine
 10
-22.660190
 20
-30.052913
 30
0.0
 11
-3.877411
 21
-37.641587
 31
0.0
  0
SPLINE
  5
151
100
AcDbEntity
  8
Top
 62
4
100
AcDbSpline
 70
8
 71
3
 72
8
 73
4
 74
0
 40
0
 40
0
 40
0
 40
0
 40
1
 40
1
 40
1
 40
1
 10
-3.877411
 20
-37.641587
 30
0.0
 10
-3.365283
 20
-37.848486
 30
0.0
 10
-3.118073
 20
-38.431175
 30
0.0
 10
-3.324993
 20
-38.943304
 30
0.0
  0
LINE
  5
152
100
AcDbEntity
  8
Top
 62
4
100
AcDbLine
 10
-3.324993
 20
-38.943304
 30
0.0
 11
-17.307042
 21
-73.550417
 31
0.0
  0
SPLINE
  5
153
100
AcDbEntity
  8
Top
 62
4
100
AcDbSpline
 70
8
 71
3
 72
8
 73
4
 74
0
 40
0
 40
0
 40
0
 40
0
 40
1
 40
1
 40
1
 40
1
 10
-17.307042
 20
-73.550417
 30
0.0
 10
-17.513951
 20
-74.062546
 30
0.0
 10
-18.096760
 20
-74.309545
 30
0.0
 10
-18.608769
 20
-74.102326
 30
0.0
  0
LINE
  5
154
100
AcDbEntity
  8
Top
 62
4
100
AcDbLine
 10
-18.608769
 20
-74.102326
 30
0.0
 11
-51.935345
 21
-60.614286
 31
0.0
  0
SPLINE
  5
155
100
AcDbEntity
  8
Top
 62
4
100
AcDbSpline
 70
8
 71
3
 72
8
 73
4
 74
0
 40
0
 40
0
 40
0
 40
0
 40
1
 40
1
 40
1
 40
1
 10
-51.935345
 20
-60.614286
 30
0.0
 10
-52.447354
 20
-60.407066
 30
0.0
 10
-53.285842
 20
-60.093387
 30
0.0
 10
-53.808091
 20
-59.913557
 30
0.0
  0
LINE
  5
156
100
AcDbEntity
  8
Top
 62
4
100
AcDbLine
 10
-53.808091
 20
-59.913557
 30
0.0
 11
-71.134642
 21
-53.947521
 31
0.0
  0
SPLINE
  5
157
100
AcDbEntity
  8
Top
 62
4
100
AcDbSpline
 70
8
 71
3
 72
8
 73
4
 74
0
 40
0
 40
0
 40
0
 40
0
 40
1
 40
1
 40
1
 40
1
 10
-71.134642
 20
-53.947521
 30
0.0
 10
-71.568812
 20
-53.771151
 30
0.0
 10
-71.757961
 20
-53.523681
 30
0.0
 10
-71.868451
 20
-53.043193
 30
0.0
  0
SPLINE
  5
158
100
AcDbEntity
  8
Top
 62
4
100
AcDbSpline
 70
8
 71
3
 72
8
 73
4
 74
0
 40
0
 40
0
 40
0
 40
0
 40
1
 40
1
 40
1
 40
1
 10
-71.868451
 20
-53.043193
 30
0.0
 10
-71.971621
 20
-52.702863
 30
0.0
 10
-72.204890
 20
-52.323774
 30
0.0
 10
-72.644109
 20
-52.189494
 30
0.0
  0
LINE
  5
159
100
AcDbEntity
  8
Top
 62
4
100
AcDbLine
 10
-72.644109
 20
-52.189494
 30
0.0
 11
-88.894763
 21
-47.221335
 31
0.0
  0
SPLINE
  5
15a
100
AcDbEntity
  8
Top
 62
4
100
AcDbSpline
 70
8
 71
3
 72
8
 73
4
 74
0
 40
0
 40
0
 40
0
 40
0
 40
1
 40
1
 40
1
 40
1
 10
-88.894763
 20
-47.221335
 30
0.0
 10
-89.422972
 20
-47.059846
 30
0.0
 10
-89.720291
 20
-46.500537
 30
0.0
 10
-89.558812
 20
-45.972318
 30
0.0
  0
LINE
  5
15b
100
AcDbEntity
  8
Top
 62
4
100
AcDbLine
 10
-89.558812
 20
-45.972318
 30
0.0
 11
-85.926480
 21
-34.090385
 31
0.0
  0
SPLINE
  5
15c
100
AcDbEntity
  8
Top
 62
4
100
AcDbSpline
 70
8
 71
3
 72
8
 73
4
 74
0
 40
0
 40
0
 40
0
 40
0
 40
1
 40
1
 40
1
 40
1
 10
-85.926480
 20
-34.090385
 30
0.0
 10
-85.765000
 20
-33.562166
 30
0.0
 10
-86.062299
 20
-33.002847
 30
0.0
 10
-86.590518
 20
-32.841367
 30
0.0
  0
LINE
  5
15d
100
AcDbEntity
  8
Top
 62
4
100
AcDbLine
 10
-86.590518
 20
-32.841367
 30
0.0
 11
-101.579765
 21
-28.259227
 31
0.0
  0
SPLINE
  5
15e
100
AcDbEntity
  8
Top
 62
4
100
AcDbSpline
 70
8
 71
3
 72
8
 73
4
 74
0
 40
0
 40
0
 40
0
 40
0
 40
1
 40
1
 40
1
 40
1
 10
-101.579765
 20
-28.259227
 30
0.0
 10
-102.107974
 20
-28.097748
 30
0.0
 10
-102.667253
 20
-28.395047
 30
0.0
 10
-102.828782
 20
-28.923266
 30
0.0
  0
LINE
  5
15f
100
AcDbEntity
  8
Top
 62
4
100
AcDbLine
 10
-102.828782
 20
-28.923266
 30
0.0
 11
-103.756880
 21
-31.958739
 31
0.0
  0
SPLINE
  5
160
100
AcDbEntity
  8
Top
 62
4
100
AcDbSpline
 70
8
 71
3
 72
8
 73
4
 74
0
 40
0
 40
0
 40
0
 40
0
 40
1
 40
1
 40
1
 40
1
 10
-103.756880
 20
-31.958739
 30
0.0
 10
-103.918380
 20
-32.486958
 30
0.0
 10
-104.477689
 20
-32.784277
 30
0.0
 10
-105.005897
 20
-32.622778
 30
0.0
  0
LINE
  5
161
100
AcDbEntity
  8
Top
 62
4
100
AcDbLine
 10
-105.005897
 20
-32.622778
 30
0.0
 11
-121.263261
 21
-27.652549
 31
0.0
  0
SPLINE
  5
162
100
AcDbEntity
  8
Top
 62
4
100
AcDbSpline
 70
8
 71
3
 72
8
 73
4
 74
0
 40
0
 40
0
 40
0
 40
0
 40
1
 40
1
 40
1
 40
1
 10
-121.263261
 20
-27.652549
 30
0.0
 10
-121.791480
 20
-27.491059
 30
0.0
 10
-122.350779
 20
-27.788378
 30
0.0
 10
-122.512279
 20
-28.316587
 30
0.0
  0
LINE
  5
163
100
AcDbEntity
  8
Top
 62
4
100
AcDbLine
 10
-122.512279
 20
-28.316587
 30
0.0
 11
-123.879646
 21
-32.789177
 31
0.0
  0
SPLINE
  5
164
100
AcDbEntity
  8
Top
 62
4
100
AcDbSpline
 70
8
 71
3
 72
8
 73
4
 74
0
 40
0
 40
0
 40
0
 40
0
 40
1
 40
1
 40
1
 40
1
 10
-123.879646
 20
-32.789177
 30
0.0
 10
-124.041115
 20
-33.317386
 30
0.0
 10
-124.600444
 20
-33.614706
 30
0.0
 10
-125.128663
 20
-33.453216
 30
0.0
  0
LINE
  5
165
100
AcDbEntity
  8
Top
 62
4
100
AcDbLine
 10
-125.128663
 20
-33.453216
 30
0.0
 11
-165.244984
 21
-21.188363
 31
0.0
  0
SPLINE
  5
166
100
AcDbEntity
  8
Top
 62
4
100
AcDbSpline
 70
8
 71
3
 72
8
 73
4
 74
0
 40
0
 40
0
 40
0
 40
0
 40
1
 40
1
 40
1
 40
1
 10
-165.244984
 20
-21.188363
 30
0.0
 10
-165.773173
 20
-21.026863
 30
0.0
 10
-166.070512
 20
-20.467562
 30
0.0
 10
-165.909013
 20
-19.939344
 30
0.0
  0
LINE
  5
167
100
AcDbEntity
  8
Top
 62
4
100
AcDbLine
 10
-165.909013
 20
-19.939344
 30
0.0
 11
-160.939304
 21
-3.683007
 31
0.0
  0
SPLINE
  5
168
100
AcDbEntity
  8
Top
 62
4
100
AcDbSpline
 70
8
 71
3
 72
8
 73
4
 74
0
 40
0
 40
0
 40
0
 40
0
 40
1
 40
1
 40
1
 40
1
 10
-160.939304
 20
-3.683007
 30
0.0
 10
-160.777824
 20
-3.154786
 30
0.0
 10
-161.075133
 20
-2.595513
 30
0.0
 10
-161.603352
 20
-2.433991
 30
0.0
  0
LINE
  5
169
100
AcDbEntity
  8
Top
 62
4
100
AcDbLine
 10
-161.603352
 20
-2.433991
 30
0.0
 11
-164.112757
 21
-1.666598
 31
0.0
  0
SPLINE
  5
16a
100
AcDbEntity
  8
Top
 62
4
100
AcDbSpline
 70
8
 71
3
 72
8
 73
4
 74
0
 40
0
 40
0
 40
0
 40
0
 40
1
 40
1
 40
1
 40
1
 10
-164.112757
 20
-1.666598
 30
0.0
 10
-164.640945
 20
-1.505073
 30
0.0
 10
-164.938285
 20
-0.945798
 30
0.0
 10
-164.776785
 20
-0.417579
 30
0.0
  0
LINE
  5
16b
100
AcDbEntity
  8
Top
 62
4
100
AcDbLine
 10
-164.776785
 20
-0.417579
 30
0.0
 11
-143.001933
 21
70.805821
 31
0.0
  0
LINE
  5
16c
100
AcDbEntity
  8
Top
 62
4
100
AcDbLine
 10
-143.001933
 20
70.805821
 30
0.0
 11
-143.001933
 21
70.806350
 31
0.0
  0
LINE
  5
16d
100
AcDbEntity
  8
Top
 62
4
100
AcDbLine
 10
-143.001933
 20
70.806350
 30
0.0
 11
-142.754424
 21
71.615602
 31
0.0
  0
SPLINE
  5
16e
100
AcDbEntity
  8
Top
 62
4
100
AcDbSpline
 70
8
 71
3
 72
8
 73
4
 74
0
 40
0
 40
0
 40
0
 40
0
 40
1
 40
1
 40
1
 40
1
 10
-142.754424
 20
71.615602
 30
0.0
 10
-142.612684
 20
72.079169
 30
0.0
 10
-142.168605
 20
72.364021
 30
0.0
 10
-141.704876
 20
72.319433
 30
0.0
  0
LINE
  5
16f
100
AcDbEntity
  8
Top
 62
4
100
AcDbLine
 10
-141.704876
 20
72.319433
 30
0.0
 11
-141.704346
 21
72.319420
 31
0.0
  0
SPLINE
  5
170
100
AcDbEntity
  8
Top
 62
4
100
AcDbSpline
 70
8
 71
3
 72
8
 73
4
 74
0
 40
0
 40
0
 40
0
 40
0
 40
1
 40
1
 40
1
 40
1
 10
-144.897189
 20
79.034046
 30
0.0
 10
-145.449558
 20
79.034046
 30
0.0
 10
-146.028627
 20
78.605217
 30
0.0
 10
-146.190126
 20
78.076998
 30
0.0
  0
LINE
  5
171
100
AcDbEntity
  8
Top
 62
4
100
AcDbLine
 10
-146.190126
 20
78.076998
 30
0.0
 11
-176.793879
 21
-22.023651
 31
0.0
  0
SPLINE
  5
172
100
AcDbEntity
  8
Top
 62
4
100
AcDbSpline
 70
8
 71
3
 72
8
 73
4
 74
0
 40
0
 40
0
 40
0
 40
0
 40
1
 40
1
 40
1
 40
1
 10
-176.793879
 20
-22.023651
 30
0.0
 10
-176.955368
 20
-22.551870
 30
0.0
 10
-176.664979
 20
-23.130759
 30
0.0
 10
-176.144820
 20
-23.316588
 30
0.0
  0
LINE
  5
173
100
AcDbEntity
  8
Top
 62
4
100
AcDbLine
 10
-176.144820
 20
-23.316588
 30
0.0
 11
-21.408353
 21
-78.597326
 31
0.0
  0
SPLINE
  5
174
100
AcDbEntity
  8
Top
 62
4
100
AcDbSpline
 70
8
 71
3
 72
8
 73
4
 74
0
 40
0
 40
0
 40
0
 40
0
 40
1
 40
1
 40
1
 40
1
 10
-21.408353
 20
-78.597326
 30
0.0
 10
-20.888184
 20
-78.783156
 30
0.0
 10
-20.018716
 20
-78.934255
 30
0.0
 10
-19.466347
 20
-78.934255
 30
0.0
  0
LINE
  5
175
100
AcDbEntity
  8
Top
 62
4
100
AcDbLine
 10
-19.466347
 20
-78.934255
 30
0.0
 11
19.565287
 21
-78.934255
 31
0.0
  0
SPLINE
  5
176
100
AcDbEntity
  8
Top
 62
4
100
AcDbSpline
 70
8
 71
3
 72
8
 73
4
 74
0
 40
0
 40
0
 40
0
 40
0
 40
1
 40
1
 40
1
 40
1
 10
19.565287
 20
-78.934255
 30
0.0
 10
20.117625
 20
-78.934255
 30
0.0
 10
20.987104
 20
-78.783156
 30
0.0
 10
21.507272
 20
-78.597326
 30
0.0
  0
LINE
  5
177
100
AcDbEntity
  8
Top
 62
4
100
AcDbLine
 10
21.507272
 20
-78.597326
 30
0.0
 11
176.243222
 21
-23.316588
 31
0.0
  0
SPLINE
  5
178
100
AcDbEntity
  8
Top
 62
4
100
AcDbSpline
 70
8
 71
3
 72
8
 73
4
 74
0
 40
0
 40
0
 40
0
 40
0
 40
1
 40
1
 40
1
 40
1
 10
176.243222
 20
-23.316588
 30
0.0
 10
176.763371
 20
-23.130759
 30
0.0
 10
177.054280
 20
-22.551870
 30
0.0
 10
176.892800
 20
-22.023651
 30
0.0
  0
LINE
  5
179
100
AcDbEntity
  8
Top
 62
4
100
AcDbLine
 10
176.892800
 20
-22.023651
 30
0.0
 11
146.288518
 21
78.077518
 31
0.0
  0
SPLINE
  5
17a
100
AcDbEntity
  8
Top
 62
4
100
AcDbSpline
 70
8
 71
3
 72
8
 73
4
 74
0
 40
0
 40
0
 40
0
 40
0
 40
1
 40
1
 40
1
 40
1
 10
146.288518
 20
78.077518
 30
0.0
 10
146.127038
 20
78.605737
 30
0.0
 10
145.548450
 20
79.034046
 30
0.0
 10
144.996111
 20
79.034046
 30
0.0
  0
LINE
  5
17b
100
AcDbEntity
  8
Top
 62
4
100
AcDbLine
 10
144.996111
 20
79.034046
 30
0.0
 11
-144.897189
 21
79.034046
 31
0.0
  0
SPLINE
  5
17c
100
AcDbEntity
  8
Top
 62
4
100
AcDbSpline
 70
8
 71
3
 72
8
 73
4
 74
0
 40
0
 40
0
 40
0
 40
0
 40
1
 40
1
 40
1
 40
1
 10
-141.182229
 20
76.449229
 30
0.0
 10
-142.268005
 20
76.449229
 30
0.0
 10
-143.246869
 20
75.795173
 30
0.0
 10
-143.662378
 20
74.792046
 30
0.0
  0
SPLINE
  5
17d
100
AcDbEntity
  8
Top
 62
4
100
AcDbSpline
 70
8
 71
3
 72
8
 73
4
 74
0
 40
0
 40
0
 40
0
 40
0
 40
1
 40
1
 40
1
 40
1
 10
-143.662378
 20
74.792046
 30
0.0
 10
-144.077886
 20
73.788919
 30
0.0
 10
-143.848212
 20
72.634271
 30
0.0
 10
-143.080453
 20
71.866511
 30
0.0
  0
SPLINE
  5
17e
100
AcDbEntity
  8
Top
 62
4
100
AcDbSpline
 70
8
 71
3
 72
8
 73
4
 74
0
 40
0
 40
0
 40
0
 40
0
 40
1
 40
1
 40
1
 40
1
 10
-143.080453
 20
71.866511
 30
0.0
 10
-142.312693
 20
71.098751
 30
0.0
 10
-141.158044
 20
70.869077
 30
0.0
 10
-140.154917
 20
71.284585
 30
0.0
  0
SPLINE
  5
17f
100
AcDbEntity
  8
Top
 62
4
100
AcDbSpline
 70
8
 71
3
 72
8
 73
4
 74
0
 40
0
 40
0
 40
0
 40
0
 40
1
 40
1
 40
1
 40
1
 10
-140.154917
 20
71.284585
 30
0.0
 10
-139.151791
 20
71.700094
 30
0.0
 10
-138.497735
 20
72.678958
 30
0.0
 10
-138.497735
 20
73.764735
 30
0.0
  0
SPLINE
  5
180
100
AcDbEntity
  8
Top
 62
4
100
AcDbSpline
 70
8
 71
3
 72
8
 73
4
 74
0
 40
0
 40
0
 40
0
 40
0
 40
1
 40
1
 40
1
 40
1
 10
-138.497735
 20
73.764735
 30
0.0
 10
-138.497735
 20
74.476707
 30
0.0
 10
-138.780564
 20
75.159518
 30
0.0
 10
-139.284005
 20
75.662959
 30
0.0
  0
SPLINE
  5
181
100
AcDbEntity
  8
Top
 62
4
100
AcDbSpline
 70
8
 71
3
 72
8
 73
4
 74
0
 40
0
 40
0
 40
0
 40
0
 40
1
 40
1
 40
1
 40
1
 10
-139.284005
 20
75.662959
 30
0.0
 10
-139.787445
 20
76.166399
 30
0.0
 10
-140.470257
 20
76.449229
 30
0.0
 10
-141.182229
 20
76.449229
 30
0.0
  0
LINE
  5
182
100
AcDbEntity
  8
Top
 62
4
100
AcDbLine
 10
-141.182229
 20
76.449229
 30
0.0
 11
-141.182229
 21
76.449229
 31
0.0
  0
SPLINE
  5
183
100
AcDbEntity
  8
Top
 62
4
100
AcDbSpline
 70
8
 71
3
 72
8
 73
4
 74
0
 40
0
 40
0
 40
0
 40
0
 40
1
 40
1
 40
1
 40
1
 10
-170.037825
 20
-16.971061
 30
0.0
 10
-171.123601
 20
-16.971061
 30
0.0
 10
-172.102465
 20
-17.625117
 30
0.0
 10
-172.517974
 20
-18.628244
 30
0.0
  0
SPLINE
  5
184
100
AcDbEntity
  8
Top
 62
4
100
AcDbSpline
 70
8
 71
3
 72
8
 73
4
 74
0
 40
0
 40
0
 40
0
 40
0
 40
1
 40
1
 40
1
 40
1
 10
-172.517974
 20
-18.628244
 30
0.0
 10
-172.933483
 20
-19.631371
 30
0.0
 10
-172.703809
 20
-20.786020
 30
0.0
 10
-171.936049
 20
-21.553779
 30
0.0
  0
SPLINE
  5
185
100
AcDbEntity
  8
Top
 62
4
100
AcDbSpline
 70
8
 71
3
 72
8
 73
4
 74
0
 40
0
 40
0
 40
0
 40
0
 40
1
 40
1
 40
1
 40
1
 10
-171.936049
 20
-21.553779
 30
0.0
 10
-171.168289
 20
-22.321539
 30
0.0
 10
-170.013640
 20
-22.551213
 30
0.0
 10
-169.010513
 20
-22.135705
 30
0.0
  0
SPLINE
  5
186
100
AcDbEntity
  8
Top
 62
4
100
AcDbSpline
 70
8
 71
3
 72
8
 73
4
 74
0
 40
0
 40
0
 40
0
 40
0
 40
1
 40
1
 40
1
 40
1
 10
-169.010513
 20
-22.135705
 30
0.0
 10
-168.007387
 20
-21.720196
 30
0.0
 10
-167.353331
 20
-20.741332
 30
0.0
 10
-167.353331
 20
-19.655555
 30
0.0
  0
SPLINE
  5
187
100
AcDbEntity
  8
Top
 62
4
100
AcDbSpline
 70
8
 71
3
 72
8
 73
4
 74
0
 40
0
 40
0
 40
0
 40
0
 40
1
 40
1
 40
1
 40
1
 10
-167.353331
 20
-19.655555
 30
0.0
 10
-167.353331
 20
-18.943583
 30
0.0
 10
-167.636160
 20
-18.260772
 30
0.0
 10
-168.139601
 20
-17.757332
 30
0.0
  0
SPLINE
  5
188
100
AcDbEntity
  8
Top
 62
4
100
AcDbSpline
 70
8
 71
3
 72
8
 73
4
 74
0
 40
0
 40
0
 40
0
 40
0
 40
1
 40
1
 40
1
 40
1
 10
-168.139601
 20
-17.757332
 30
0.0
 10
-168.643041
 20
-17.253891
 30
0.0
 10
-169.325853
 20
-16.971061
 30
0.0
 10
-170.037825
 20
-16.971061
 30
0.0
  0
LINE
  5
189
100
AcDbEntity
  8
Top
 62
4
100
AcDbLine
 10
-170.037825
 20
-16.971061
 30
0.0
 11
-170.037825
 21
-16.971061
 31
0.0
  0
SPLINE
  5
18a
100
AcDbEntity
  8
Top
 62
4
100
AcDbSpline
 70
8
 71
3
 72
8
 73
4
 74
0
 40
0
 40
0
 40
0
 40
0
 40
1
 40
1
 40
1
 40
1
 10
0.049429
 20
-68.965967
 30
0.0
 10
-1.036348
 20
-68.965967
 30
0.0
 10
-2.015212
 20
-69.620023
 30
0.0
 10
-2.430720
 20
-70.623150
 30
0.0
  0
SPLINE
  5
18b
100
AcDbEntity
  8
Top
 62
4
100
AcDbSpline
 70
8
 71
3
 72
8
 73
4
 74
0
 40
0
 40
0
 40
0
 40
0
 40
1
 40
1
 40
1
 40
1
 10
-2.430720
 20
-70.623150
 30
0.0
 10
-2.846229
 20
-71.626277
 30
0.0
 10
-2.616555
 20
-72.780925
 30
0.0
 10
-1.848795
 20
-73.548685
 30
0.0
  0
SPLINE
  5
18c
100
AcDbEntity
  8
Top
 62
4
100
AcDbSpline
 70
8
 71
3
 72
8
 73
4
 74
0
 40
0
 40
0
 40
0
 40
0
 40
1
 40
1
 40
1
 40
1
 10
-1.848795
 20
-73.548685
 30
0.0
 10
-1.081035
 20
-74.316445
 30
0.0
 10
0.073613
 20
-74.546119
 30
0.0
 10
1.076740
 20
-74.130610
 30
0.0
  0
SPLINE
  5
18d
100
AcDbEntity
  8
Top
 62
4
100
AcDbSpline
 70
8
 71
3
 72
8
 73
4
 74
0
 40
0
 40
0
 40
0
 40
0
 40
1
 40
1
 40
1
 40
1
 10
1.076740
 20
-74.130610
 30
0.0
 10
2.079867
 20
-73.715102
 30
0.0
 10
2.733923
 20
-72.736238
 30
0.0
 10
2.733923
 20
-71.650461
 30
0.0
  0
SPLINE
  5
18e
100
AcDbEntity
  8
Top
 62
4
100
AcDbSpline
 70
8
 71
3
 72
8
 73
4
 74
0
 40
0
 40
0
 40
0
 40
0
 40
1
 40
1
 40
1
 40
1
 10
2.733923
 20
-71.650461
 30
0.0
 10
2.733923
 20
-70.938489
 30
0.0
 10
2.451093
 20
-70.255678
 30
0.0
 10
1.947653
 20
-69.752237
 30
0.0
  0
SPLINE
  5
18f
100
AcDbEntity
  8
Top
 62
4
100
AcDbSpline
 70
8
 71
3
 72
8
 73
4
 74
0
 40
0
 40
0
 40
0
 40
0
 40
1
 40
1
 40
1
 40
1
 10
1.947653
 20
-69.752237
 30
0.0
 10
1.444212
 20
-69.248797
 30
0.0
 10
0.761401
 20
-68.965967
 30
0.0
 10
0.049429
 20
-68.965967
 30
0.0
  0
LINE
  5
190
100
AcDbEntity
  8
Top
 62
4
100
AcDbLine
 10
0.049429
 20
-68.965967
 30
0.0
 11
0.049429
 21
-68.965967
 31
0.0
  0
SPLINE
  5
191
100
AcDbEntity
  8
Top
 62
4
100
AcDbSpline
 70
8
 71
3
 72
8
 73
4
 74
0
 40
0
 40
0
 40
0
 40
0
 40
1
 40
1
 40
1
 40
1
 10
-46.704338
 20
76.985231
 30
0.0
 10
-47.790114
 20
76.985231
 30
0.0
 10
-48.768978
 20
76.331175
 30
0.0
 10
-49.184487
 20
75.328048
 30
0.0
  0
SPLINE
  5
192
100
AcDbEntity
  8
Top
 62
4
100
AcDbSpline
 70
8
 71
3
 72
8
 73
4
 74
0
 40
0
 40
0
 40
0
 40
0
 40
1
 40
1
 40
1
 40
1
 10
-49.184487
 20
75.328048
 30
0.0
 10
-49.599996
 20
74.324921
 30
0.0
 10
-49.370322
 20
73.170272
 30
0.0
 10
-48.602562
 20
72.402513
 30
0.0
  0
SPLINE
  5
193
100
AcDbEntity
  8
Top
 62
4
100
AcDbSpline
 70
8
 71
3
 72
8
 73
4
 74
0
 40
0
 40
0
 40
0
 40
0
 40
1
 40
1
 40
1
 40
1
 10
-48.602562
 20
72.402513
 30
0.0
 10
-47.834802
 20
71.634753
 30
0.0
 10
-46.680153
 20
71.405079
 30
0.0
 10
-45.677026
 20
71.820587
 30
0.0
  0
SPLINE
  5
194
100
AcDbEntity
  8
Top
 62
4
100
AcDbSpline
 70
8
 71
3
 72
8
 73
4
 74
0
 40
0
 40
0
 40
0
 40
0
 40
1
 40
1
 40
1
 40
1
 10
-45.677026
 20
71.820587
 30
0.0
 10
-44.673900
 20
72.236096
 30
0.0
 10
-44.019844
 20
73.214960
 30
0.0
 10
-44.019844
 20
74.300736
 30
0.0
  0
SPLINE
  5
195
100
AcDbEntity
  8
Top
 62
4
100
AcDbSpline
 70
8
 71
3
 72
8
 73
4
 74
0
 40
0
 40
0
 40
0
 40
0
 40
1
 40
1
 40
1
 40
1
 10
-44.019844
 20
74.300736
 30
0.0
 10
-44.019844
 20
75.012709
 30
0.0
 10
-44.302674
 20
75.695520
 30
0.0
 10
-44.806114
 20
76.198960
 30
0.0
  0
SPLINE
  5
196
100
AcDbEntity
  8
Top
 62
4
100
AcDbSpline
 70
8
 71
3
 72
8
 73
4
 74
0
 40
0
 40
0
 40
0
 40
0
 40
1
 40
1
 40
1
 40
1
 10
-44.806114
 20
76.198960
 30
0.0
 10
-45.309554
 20
76.702401
 30
0.0
 10
-45.992366
 20
76.985231
 30
0.0
 10
-46.704338
 20
76.985231
 30
0.0
  0
LINE
  5
197
100
AcDbEntity
  8
Top
 62
4
100
AcDbLine
 10
-46.704338
 20
76.985231
 30
0.0
 11
-46.704338
 21
76.985231
 31
0.0
  0
SPLINE
  5
198
100
AcDbEntity
  8
Top
 62
4
100
AcDbSpline
 70
8
 71
3
 72
8
 73
4
 74
0
 40
0
 40
0
 40
0
 40
0
 40
1
 40
1
 40
1
 40
1
 10
46.803255
 20
76.985231
 30
0.0
 10
45.717479
 20
76.985231
 30
0.0
 10
44.738615
 20
76.331175
 30
0.0
 10
44.323106
 20
75.328048
 30
0.0
  0
SPLINE
  5
199
100
AcDbEntity
  8
Top
 62
4
100
AcDbSpline
 70
8
 71
3
 72
8
 73
4
 74
0
 40
0
 40
0
 40
0
 40
0
 40
1
 40
1
 40
1
 40
1
 10
44.323106
 20
75.328048
 30
0.0
 10
43.907597
 20
74.324921
 30
0.0
 10
44.137271
 20
73.170272
 30
0.0
 10
44.905031
 20
72.402513
 30
0.0
  0
SPLINE
  5
19a
100
AcDbEntity
  8
Top
 62
4
100
AcDbSpline
 70
8
 71
3
 72
8
 73
4
 74
0
 40
0
 40
0
 40
0
 40
0
 40
1
 40
1
 40
1
 40
1
 10
44.905031
 20
72.402513
 30
0.0
 10
45.672791
 20
71.634753
 30
0.0
 10
46.827440
 20
71.405079
 30
0.0
 10
47.830567
 20
71.820587
 30
0.0
  0
SPLINE
  5
19b
100
AcDbEntity
  8
Top
 62
4
100
AcDbSpline
 70
8
 71
3
 72
8
 73
4
 74
0
 40
0
 40
0
 40
0
 40
0
 40
1
 40
1
 40
1
 40
1
 10
47.830567
 20
71.820587
 30
0.0
 10
48.833693
 20
72.236096
 30
0.0
 10
49.487749
 20
73.214960
 30
0.0
 10
49.487749
 20
74.300736
 30
0.0
  0
SPLINE
  5
19c
100
AcDbEntity
  8
Top
 62
4
100
AcDbSpline
 70
8
 71
3
 72
8
 73
4
 74
0
 40
0
 40
0
 40
0
 40
0
 40
1
 40
1
 40
1
 40
1
 10
49.487749
 20
74.300736
 30
0.0
 10
49.487749
 20
75.012709
 30
0.0
 10
49.204919
 20
75.695520
 30
0.0
 10
48.701479
 20
76.198960
 30
0.0
  0
SPLINE
  5
19d
100
AcDbEntity
  8
Top
 62
4
100
AcDbSpline
 70
8
 71
3
 72
8
 73
4
 74
0
 40
0
 40
0
 40
0
 40
0
 40
1
 40
1
 40
1
 40
1
 10
48.701479
 20
76.198960
 30
0.0
 10
48.198039
 20
76.702401
 30
0.0
 10
47.515227
 20
76.985231
 30
0.0
 10
46.803255
 20
76.985231
 30
0.0
  0
LINE
  5
19e
100
AcDbEntity
  8
Top
 62
4
100
AcDbLine
 10
46.803255
 20
76.985231
 30
0.0
 11
46.803255
 21
76.985231
 31
0.0
  0
SPLINE
  5
19f
100
AcDbEntity
  8
Top
 62
4
100
AcDbSpline
 70
8
 71
3
 72
8
 73
4
 74
0
 40
0
 40
0
 40
0
 40
0
 40
1
 40
1
 40
1
 40
1
 10
141.281623
 20
76.449229
 30
0.0
 10
140.195846
 20
76.449229
 30
0.0
 10
139.216983
 20
75.795173
 30
0.0
 10
138.801474
 20
74.792046
 30
0.0
  0
SPLINE
  5
1a0
100
AcDbEntity
  8
Top
 62
4
100
AcDbSpline
 70
8
 71
3
 72
8
 73
4
 74
0
 40
0
 40
0
 40
0
 40
0
 40
1
 40
1
 40
1
 40
1
 10
138.801474
 20
74.792046
 30
0.0
 10
138.385965
 20
73.788919
 30
0.0
 10
138.615639
 20
72.634271
 30
0.0
 10
139.383399
 20
71.866511
 30
0.0
  0
SPLINE
  5
1a1
100
AcDbEntity
  8
Top
 62
4
100
AcDbSpline
 70
8
 71
3
 72
8
 73
4
 74
0
 40
0
 40
0
 40
0
 40
0
 40
1
 40
1
 40
1
 40
1
 10
139.383399
 20
71.866511
 30
0.0
 10
140.151159
 20
71.098751
 30
0.0
 10
141.305808
 20
70.869077
 30
0.0
 10
142.308934
 20
71.284585
 30
0.0
  0
SPLINE
  5
1a2
100
AcDbEntity
  8
Top
 62
4
100
AcDbSpline
 70
8
 71
3
 72
8
 73
4
 74
0
 40
0
 40
0
 40
0
 40
0
 40
1
 40
1
 40
1
 40
1
 10
142.308934
 20
71.284585
 30
0.0
 10
143.312061
 20
71.700094
 30
0.0
 10
143.966117
 20
72.678958
 30
0.0
 10
143.966117
 20
73.764735
 30
0.0
  0
SPLINE
  5
1a3
100
AcDbEntity
  8
Top
 62
4
100
AcDbSpline
 70
8
 71
3
 72
8
 73
4
 74
0
 40
0
 40
0
 40
0
 40
0
 40
1
 40
1
 40
1
 40
1
 10
143.966117
 20
73.764735
 30
0.0
 10
143.966117
 20
74.476707
 30
0.0
 10
143.683287
 20
75.159518
 30
0.0
 10
143.179847
 20
75.662959
 30
0.0
  0
SPLINE
  5
1a4
100
AcDbEntity
  8
Top
 62
4
100
AcDbSpline
 70
8
 71
3
 72
8
 73
4
 74
0
 40
0
 40
0
 40
0
 40
0
 40
1
 40
1
 40
1
 40
1
 10
143.179847
 20
75.662959
 30
0.0
 10
142.676407
 20
76.166399
 30
0.0
 10
141.993595
 20
76.449229
 30
0.0
 10
141.281623
 20
76.449229
 30
0.0
  0
LINE
  5
1a5
100
AcDbEntity
  8
Top
 62
4
100
AcDbLine
 10
141.281623
 20
76.449229
 30
0.0
 11
141.281623
 21
76.449229
 31
0.0
  0
SPLINE
  5
1a6
100
AcDbEntity
  8
Top
 62
4
100
AcDbSpline
 70
8
 71
3
 72
8
 73
4
 74
0
 40
0
 40
0
 40
0
 40
0
 40
1
 40
1
 40
1
 40
1
 10
170.136433
 20
-16.971084
 30
0.0
 10
169.050656
 20
-16.971084
 30
0.0
 10
168.071792
 20
-17.625140
 30
0.0
 10
167.656284
 20
-18.628267
 30
0.0
  0
SPLINE
  5
1a7
100
AcDbEntity
  8
Top
 62
4
100
AcDbSpline
 70
8
 71
3
 72
8
 73
4
 74
0
 40
0
 40
0
 40
0
 40
0
 40
1
 40
1
 40
1
 40
1
 10
167.656284
 20
-18.628267
 30
0.0
 10
167.240775
 20
-19.631394
 30
0.0
 10
167.470449
 20
-20.786043
 30
0.0
 10
168.238209
 20
-21.553802
 30
0.0
  0
SPLINE
  5
1a8
100
AcDbEntity
  8
Top
 62
4
100
AcDbSpline
 70
8
 71
3
 72
8
 73
4
 74
0
 40
0
 40
0
 40
0
 40
0
 40
1
 40
1
 40
1
 40
1
 10
168.238209
 20
-21.553802
 30
0.0
 10
169.005969
 20
-22.321562
 30
0.0
 10
170.160617
 20
-22.551236
 30
0.0
 10
171.163744
 20
-22.135728
 30
0.0
  0
SPLINE
  5
1a9
100
AcDbEntity
  8
Top
 62
4
100
AcDbSpline
 70
8
 71
3
 72
8
 73
4
 74
0
 40
0
 40
0
 40
0
 40
0
 40
1
 40
1
 40
1
 40
1
 10
171.163744
 20
-22.135728
 30
0.0
 10
172.166871
 20
-21.720219
 30
0.0
 10
172.820927
 20
-20.741355
 30
0.0
 10
172.820927
 20
-19.655578
 30
0.0
  0
SPLINE
  5
1aa
100
AcDbEntity
  8
Top
 62
4
100
AcDbSpline
 70
8
 71
3
 72
8
 73
4
 74
0
 40
0
 40
0
 40
0
 40
0
 40
1
 40
1
 40
1
 40
1
 10
172.820927
 20
-19.655578
 30
0.0
 10
172.820927
 20
-18.943606
 30
0.0
 10
172.538097
 20
-18.260795
 30
0.0
 10
172.034657
 20
-17.757355
 30
0.0
  0
SPLINE
  5
1ab
100
AcDbEntity
  8
Top
 62
4
100
AcDbSpline
 70
8
 71
3
 72
8
 73
4
 74
0
 40
0
 40
0
 40
0
 40
0
 40
1
 40
1
 40
1
 40
1
 10
172.034657
 20
-17.757355
 30
0.0
 10
171.531216
 20
-17.253914
 30
0.0
 10
170.848405
 20
-16.971084
 30
0.0
 10
170.136433
 20
-16.971084
 30
0.0
  0
LINE
  5
1ac
100
AcDbEntity
  8
Top
 62
4
100
AcDbLine
 10
170.136433
 20
-16.971084
 30
0.0
 11
170.136433
 21
-16.971084
 31
0.0
  0
ENDSEC
  0
SECTION
  2
OBJECTS
  0
DICTIONARY
  5
C
330
0
100
AcDbDictionary
  3
ACAD_GROUP
350
D
  3
ACAD_MLINESTYLE
350
17
  0
DICTIONARY
  5
D
330
C
100
AcDbDictionary
  0
DICTIONARY
  5
1A
330
C
100
AcDbDictionary
  0
DICTIONARY
  5
17
330
C
100
AcDbDictionary
  3
STANDARD
350
18
  0
DICTIONARY
  5
19
330
C
100
AcDbDictionary
  0
ENDSEC
  0
EOF
