  0
SECTION
  2
HEADER
  9
$ACADVER
  1
AC1014
  9
$HANDSEED
  5
FFFF
  9
$MEASUREMENT
 70
     1
  0
ENDSEC
  0
SECTION
  2
TABLES
  0
TABLE
  2
VPORT
  5
8
330
0
100
AcDbSymbolTable
 70
     4
  0
VPORT
  5
2E
330
8
100
AcDbSymbolTableRecord
100
AcDbViewportTableRecord
  2
*ACTIVE
 70
     0
 10
0.0
 20
0.0
 11
1.0
 21
1.0
 12
210.0
 22
148.5
 13
0.0
 23
0.0
 14
10.0
 24
10.0
 15
10.0
 25
10.0
 16
0.0
 26
0.0
 36
1.0
 17
0.0
 27
0.0
 37
0.0
 40
341.0
 41
1.24
 42
50.0
 43
0.0
 44
0.0
 50
0.0
 51
0.0
 71
     0
 72
   100
 73
     1
 74
     3
 75
     0
 76
     0
 77
     0
 78
     0
  0
ENDTAB
  0
TABLE
  2
LTYPE
  5
5
330
0
100
AcDbSymbolTable
 70
     1
  0
LTYPE
  5
14
330
5
100
AcDbSymbolTableRecord
100
AcDbLinetypeTableRecord
  2
BYBLOCK
 70
     0
  3

 72
    65
 73
     0
 40
0.0
  0
LTYPE
  5
15
330
5
100
AcDbSymbolTableRecord
100
AcDbLinetypeTableRecord
  2
BYLAYER
 70
     0
  3

 72
    65
 73
     0
 40
0.0
  0
LTYPE
  5
16
330
5
100
AcDbSymbolTableRecord
100
AcDbLinetypeTableRecord
  2
CONTINUOUS
 70
     0
  3
Solid line
 72
    65
 73
     0
 40
0.0
  0
ENDTAB
  0
TABLE
  2
LAYER
  5
2
100
AcDbSymbolTable
 70
10
  0
LAYER
  5
50
100
AcDbSymbolTableRecord
100
AcDbLayerTableRecord
  2
0
 70
0
  6
CONTINUOUS
  0
LAYER
  5
51
100
AcDbSymbolTableRecord
100
AcDbLayerTableRecord
  2
Bottom
 70
0
  6
CONTINUOUS
  0
LAYER
  5
52
100
AcDbSymbolTableRecord
100
AcDbLayerTableRecord
  2
Inner_Layer
 70
0
  6
CONTINUOUS
  0
LAYER
  5
53
100
AcDbSymbolTableRecord
100
AcDbLayerTableRecord
  2
Guts
 70
0
  6
CONTINUOUS
  0
LAYER
  5
54
100
AcDbSymbolTableRecord
100
AcDbLayerTableRecord
  2
Keycaps
 70
0
  6
CONTINUOUS
  0
LAYER
  5
55
100
AcDbSymbolTableRecord
100
AcDbLayerTableRecord
  2
PCB_for_Kicad
 70
0
  6
CONTINUOUS
  0
LAYER
  5
56
100
AcDbSymbolTableRecord
100
AcDbLayerTableRecord
  2
Switch
 70
0
  6
CONTINUOUS
  0
LAYER
  5
57
100
AcDbSymbolTableRecord
100
AcDbLayerTableRecord
  2
Outer_Perimeter
 70
0
  6
CONTINUOUS
  0
LAYER
  5
58
100
AcDbSymbolTableRecord
100
AcDbLayerTableRecord
  2
Top_Square
 70
0
  6
CONTINUOUS
  0
LAYER
  5
59
100
AcDbSymbolTableRecord
100
AcDbLayerTableRecord
  2
Top
 70
0
  6
CONTINUOUS
  0
ENDTAB
  0
TABLE
  2
STYLE
  5
3
330
0
100
AcDbSymbolTable
 70
     1
  0
STYLE
  5
11
330
3
100
AcDbSymbolTableRecord
100
AcDbTextStyleTableRecord
  2
STANDARD
 70
     0
 40
0.0
 41
1.0
 50
0.0
 71
     0
 42
2.5
  3
txt
  4

  0
ENDTAB
  0
TABLE
  2
VIEW
  5
6
330
0
100
AcDbSymbolTable
 70
     0
  0
ENDTAB
  0
TABLE
  2
UCS
  5
7
330
0
100
AcDbSymbolTable
 70
     0
  0
ENDTAB
  0
TABLE
  2
APPID
  5
9
330
0
100
AcDbSymbolTable
 70
     2
  0
APPID
  5
12
330
9
100
AcDbSymbolTableRecord
100
AcDbRegAppTableRecord
  2
ACAD
 70
     0
  0
ENDTAB
  0
TABLE
  2
DIMSTYLE
  5
A
330
0
100
AcDbSymbolTable
 70
     1
  0
DIMSTYLE
105
27
330
A
100
AcDbSymbolTableRecord
100
AcDbDimStyleTableRecord
  2
ISO-25
 70
     0
  3

  4

  5

  6

  7

 40
1.0
 41
2.5
 42
0.625
 43
3.75
 44
1.25
 45
0.0
 46
0.0
 47
0.0
 48
0.0
140
2.5
141
2.5
142
0.0
143
0.03937007874016
144
1.0
145
0.0
146
1.0
147
0.625
 71
     0
 72
     0
 73
     0
 74
     0
 75
     0
 76
     0
 77
     1
 78
     8
170
     0
171
     3
172
     1
173
     0
174
     0
175
     0
176
     0
177
     0
178
     0
270
     2
271
     2
272
     2
273
     2
274
     3
340
11
275
     0
280
     0
281
     0
282
     0
283
     0
284
     8
285
     0
286
     0
287
     3
288
     0
  0
ENDTAB
  0
TABLE
  2
BLOCK_RECORD
  5
1
330
0
100
AcDbSymbolTable
 70
     1
  0
BLOCK_RECORD
  5
1F
330
1
100
AcDbSymbolTableRecord
100
AcDbBlockTableRecord
  2
*MODEL_SPACE
  0
BLOCK_RECORD
  5
1B
330
1
100
AcDbSymbolTableRecord
100
AcDbBlockTableRecord
  2
*PAPER_SPACE
  0
ENDTAB
  0
ENDSEC
  0
SECTION
  2
BLOCKS
  0
BLOCK
  5
20
330
1F
100
AcDbEntity
  8
0
100
AcDbBlockBegin
  2
*MODEL_SPACE
 70
     0
 10
0.0
 20
0.0
 30
0.0
  3
*MODEL_SPACE
  1

  0
ENDBLK
  5
21
330
1F
100
AcDbEntity
  8
0
100
AcDbBlockEnd
  0
BLOCK
  5
1C
330
1B
100
AcDbEntity
 67
     1
  8
0
100
AcDbBlockBegin
  2
*PAPER_SPACE
  1

  0
ENDBLK
  5
1D
330
1B
100
AcDbEntity
 67
     1
  8
0
100
AcDbBlockEnd
  0
ENDSEC
  0
SECTION
  2
ENTITIES
  0
SPLINE
  5
100
100
AcDbEntity
  8
Inner_Layer
 62
4
100
AcDbSpline
 70
8
 71
3
 72
8
 73
4
 74
0
 40
0
 40
0
 40
0
 40
0
 40
1
 40
1
 40
1
 40
1
 10
0.774208
 20
-72.375238
 30
0.0
 10
0.373922
 20
-72.775524
 30
0.0
 10
-0.275071
 20
-72.775524
 30
0.0
 10
-0.675357
 20
-72.375238
 30
0.0
  0
SPLINE
  5
101
100
AcDbEntity
  8
Inner_Layer
 62
4
100
AcDbSpline
 70
8
 71
3
 72
8
 73
4
 74
0
 40
0
 40
0
 40
0
 40
0
 40
1
 40
1
 40
1
 40
1
 10
-0.675357
 20
-72.375238
 30
0.0
 10
-0.867582
 20
-72.183013
 30
0.0
 10
-0.975572
 20
-71.922301
 30
0.0
 10
-0.975572
 20
-71.650455
 30
0.0
  0
SPLINE
  5
102
100
AcDbEntity
  8
Inner_Layer
 62
4
100
AcDbSpline
 70
8
 71
3
 72
8
 73
4
 74
0
 40
0
 40
0
 40
0
 40
0
 40
1
 40
1
 40
1
 40
1
 10
-0.975572
 20
-71.650455
 30
0.0
 10
-0.975572
 20
-71.378609
 30
0.0
 10
-0.867582
 20
-71.117896
 30
0.0
 10
-0.675357
 20
-70.925672
 30
0.0
  0
SPLINE
  5
103
100
AcDbEntity
  8
Inner_Layer
 62
4
100
AcDbSpline
 70
8
 71
3
 72
8
 73
4
 74
0
 40
0
 40
0
 40
0
 40
0
 40
1
 40
1
 40
1
 40
1
 10
-0.675357
 20
-70.925672
 30
0.0
 10
-0.483133
 20
-70.733448
 30
0.0
 10
-0.222421
 20
-70.625457
 30
0.0
 10
0.049425
 20
-70.625457
 30
0.0
  0
SPLINE
  5
104
100
AcDbEntity
  8
Inner_Layer
 62
4
100
AcDbSpline
 70
8
 71
3
 72
8
 73
4
 74
0
 40
0
 40
0
 40
0
 40
0
 40
1
 40
1
 40
1
 40
1
 10
0.049425
 20
-70.625457
 30
0.0
 10
0.321272
 20
-70.625457
 30
0.0
 10
0.581984
 20
-70.733448
 30
0.0
 10
0.774208
 20
-70.925672
 30
0.0
  0
SPLINE
  5
105
100
AcDbEntity
  8
Inner_Layer
 62
4
100
AcDbSpline
 70
8
 71
3
 72
8
 73
4
 74
0
 40
0
 40
0
 40
0
 40
0
 40
1
 40
1
 40
1
 40
1
 10
0.774208
 20
-70.925672
 30
0.0
 10
1.174495
 20
-71.325958
 30
0.0
 10
1.174495
 20
-71.974951
 30
0.0
 10
0.774208
 20
-72.375238
 30
0.0
  0
SPLINE
  5
106
100
AcDbEntity
  8
Inner_Layer
 62
4
100
AcDbSpline
 70
8
 71
3
 72
8
 73
4
 74
0
 40
0
 40
0
 40
0
 40
0
 40
1
 40
1
 40
1
 40
1
 10
-144.897189
 20
79.034046
 30
0.0
 10
-145.449558
 20
79.034046
 30
0.0
 10
-146.028627
 20
78.605217
 30
0.0
 10
-146.190126
 20
78.076998
 30
0.0
  0
LINE
  5
107
100
AcDbEntity
  8
Inner_Layer
 62
4
100
AcDbLine
 10
-146.190126
 20
78.076998
 30
0.0
 11
-176.793879
 21
-22.023651
 31
0.0
  0
SPLINE
  5
108
100
AcDbEntity
  8
Inner_Layer
 62
4
100
AcDbSpline
 70
8
 71
3
 72
8
 73
4
 74
0
 40
0
 40
0
 40
0
 40
0
 40
1
 40
1
 40
1
 40
1
 10
-176.793879
 20
-22.023651
 30
0.0
 10
-176.955368
 20
-22.551870
 30
0.0
 10
-176.664979
 20
-23.130759
 30
0.0
 10
-176.144820
 20
-23.316588
 30
0.0
  0
LINE
  5
109
100
AcDbEntity
  8
Inner_Layer
 62
4
100
AcDbLine
 10
-176.144820
 20
-23.316588
 30
0.0
 11
-21.408353
 21
-78.597326
 31
0.0
  0
SPLINE
  5
10a
100
AcDbEntity
  8
Inner_Layer
 62
4
100
AcDbSpline
 70
8
 71
3
 72
8
 73
4
 74
0
 40
0
 40
0
 40
0
 40
0
 40
1
 40
1
 40
1
 40
1
 10
-21.408353
 20
-78.597326
 30
0.0
 10
-20.888184
 20
-78.783156
 30
0.0
 10
-20.018716
 20
-78.934255
 30
0.0
 10
-19.466347
 20
-78.934255
 30
0.0
  0
LINE
  5
10b
100
AcDbEntity
  8
Inner_Layer
 62
4
100
AcDbLine
 10
-19.466347
 20
-78.934255
 30
0.0
 11
19.565287
 21
-78.934255
 31
0.0
  0
SPLINE
  5
10c
100
AcDbEntity
  8
Inner_Layer
 62
4
100
AcDbSpline
 70
8
 71
3
 72
8
 73
4
 74
0
 40
0
 40
0
 40
0
 40
0
 40
1
 40
1
 40
1
 40
1
 10
19.565287
 20
-78.934255
 30
0.0
 10
20.117625
 20
-78.934255
 30
0.0
 10
20.987104
 20
-78.783156
 30
0.0
 10
21.507272
 20
-78.597326
 30
0.0
  0
LINE
  5
10d
100
AcDbEntity
  8
Inner_Layer
 62
4
100
AcDbLine
 10
21.507272
 20
-78.597326
 30
0.0
 11
176.243222
 21
-23.316588
 31
0.0
  0
SPLINE
  5
10e
100
AcDbEntity
  8
Inner_Layer
 62
4
100
AcDbSpline
 70
8
 71
3
 72
8
 73
4
 74
0
 40
0
 40
0
 40
0
 40
0
 40
1
 40
1
 40
1
 40
1
 10
176.243222
 20
-23.316588
 30
0.0
 10
176.763371
 20
-23.130759
 30
0.0
 10
177.054280
 20
-22.551870
 30
0.0
 10
176.892800
 20
-22.023651
 30
0.0
  0
LINE
  5
10f
100
AcDbEntity
  8
Inner_Layer
 62
4
100
AcDbLine
 10
176.892800
 20
-22.023651
 30
0.0
 11
146.288518
 21
78.077518
 31
0.0
  0
SPLINE
  5
110
100
AcDbEntity
  8
Inner_Layer
 62
4
100
AcDbSpline
 70
8
 71
3
 72
8
 73
4
 74
0
 40
0
 40
0
 40
0
 40
0
 40
1
 40
1
 40
1
 40
1
 10
146.288518
 20
78.077518
 30
0.0
 10
146.127038
 20
78.605737
 30
0.0
 10
145.548450
 20
79.034046
 30
0.0
 10
144.996111
 20
79.034046
 30
0.0
  0
LINE
  5
111
100
AcDbEntity
  8
Inner_Layer
 62
4
100
AcDbLine
 10
144.996111
 20
79.034046
 30
0.0
 11
-144.897189
 21
79.034046
 31
0.0
  0
SPLINE
  5
112
100
AcDbEntity
  8
Inner_Layer
 62
4
100
AcDbSpline
 70
8
 71
3
 72
8
 73
4
 74
0
 40
0
 40
0
 40
0
 40
0
 40
1
 40
1
 40
1
 40
1
 10
-140.457627
 20
73.039945
 30
0.0
 10
-140.649851
 20
72.847721
 30
0.0
 10
-140.910563
 20
72.739730
 30
0.0
 10
-141.182410
 20
72.739730
 30
0.0
  0
SPLINE
  5
113
100
AcDbEntity
  8
Inner_Layer
 62
4
100
AcDbSpline
 70
8
 71
3
 72
8
 73
4
 74
0
 40
0
 40
0
 40
0
 40
0
 40
1
 40
1
 40
1
 40
1
 10
-141.182410
 20
72.739730
 30
0.0
 10
-141.454256
 20
72.739730
 30
0.0
 10
-141.714968
 20
72.847721
 30
0.0
 10
-141.907193
 20
73.039945
 30
0.0
  0
SPLINE
  5
114
100
AcDbEntity
  8
Inner_Layer
 62
4
100
AcDbSpline
 70
8
 71
3
 72
8
 73
4
 74
0
 40
0
 40
0
 40
0
 40
0
 40
1
 40
1
 40
1
 40
1
 10
-141.907193
 20
73.039945
 30
0.0
 10
-142.099417
 20
73.232169
 30
0.0
 10
-142.207407
 20
73.492882
 30
0.0
 10
-142.207407
 20
73.764728
 30
0.0
  0
SPLINE
  5
115
100
AcDbEntity
  8
Inner_Layer
 62
4
100
AcDbSpline
 70
8
 71
3
 72
8
 73
4
 74
0
 40
0
 40
0
 40
0
 40
0
 40
1
 40
1
 40
1
 40
1
 10
-142.207407
 20
73.764728
 30
0.0
 10
-142.207407
 20
74.036574
 30
0.0
 10
-142.099417
 20
74.297286
 30
0.0
 10
-141.907193
 20
74.489511
 30
0.0
  0
SPLINE
  5
116
100
AcDbEntity
  8
Inner_Layer
 62
4
100
AcDbSpline
 70
8
 71
3
 72
8
 73
4
 74
0
 40
0
 40
0
 40
0
 40
0
 40
1
 40
1
 40
1
 40
1
 10
-141.907193
 20
74.489511
 30
0.0
 10
-141.714968
 20
74.681735
 30
0.0
 10
-141.454256
 20
74.789726
 30
0.0
 10
-141.182410
 20
74.789726
 30
0.0
  0
SPLINE
  5
117
100
AcDbEntity
  8
Inner_Layer
 62
4
100
AcDbSpline
 70
8
 71
3
 72
8
 73
4
 74
0
 40
0
 40
0
 40
0
 40
0
 40
1
 40
1
 40
1
 40
1
 10
-141.182410
 20
74.789726
 30
0.0
 10
-140.910563
 20
74.789726
 30
0.0
 10
-140.649851
 20
74.681735
 30
0.0
 10
-140.457627
 20
74.489511
 30
0.0
  0
SPLINE
  5
118
100
AcDbEntity
  8
Inner_Layer
 62
4
100
AcDbSpline
 70
8
 71
3
 72
8
 73
4
 74
0
 40
0
 40
0
 40
0
 40
0
 40
1
 40
1
 40
1
 40
1
 10
-140.457627
 20
74.489511
 30
0.0
 10
-140.265403
 20
74.297286
 30
0.0
 10
-140.157412
 20
74.036574
 30
0.0
 10
-140.157412
 20
73.764728
 30
0.0
  0
SPLINE
  5
119
100
AcDbEntity
  8
Inner_Layer
 62
4
100
AcDbSpline
 70
8
 71
3
 72
8
 73
4
 74
0
 40
0
 40
0
 40
0
 40
0
 40
1
 40
1
 40
1
 40
1
 10
-140.157412
 20
73.764728
 30
0.0
 10
-140.157412
 20
73.492882
 30
0.0
 10
-140.265403
 20
73.232169
 30
0.0
 10
-140.457627
 20
73.039945
 30
0.0
  0
SPLINE
  5
11a
100
AcDbEntity
  8
Inner_Layer
 62
4
100
AcDbSpline
 70
8
 71
3
 72
8
 73
4
 74
0
 40
0
 40
0
 40
0
 40
0
 40
1
 40
1
 40
1
 40
1
 10
-45.979552
 20
73.575938
 30
0.0
 10
-46.379840
 20
73.175658
 30
0.0
 10
-47.028827
 20
73.175661
 30
0.0
 10
-47.429111
 20
73.575945
 30
0.0
  0
SPLINE
  5
11b
100
AcDbEntity
  8
Inner_Layer
 62
4
100
AcDbSpline
 70
8
 71
3
 72
8
 73
4
 74
0
 40
0
 40
0
 40
0
 40
0
 40
1
 40
1
 40
1
 40
1
 10
-47.429111
 20
73.575945
 30
0.0
 10
-47.829395
 20
73.976229
 30
0.0
 10
-47.829398
 20
74.625216
 30
0.0
 10
-47.429118
 20
75.025504
 30
0.0
  0
SPLINE
  5
11c
100
AcDbEntity
  8
Inner_Layer
 62
4
100
AcDbSpline
 70
8
 71
3
 72
8
 73
4
 74
0
 40
0
 40
0
 40
0
 40
0
 40
1
 40
1
 40
1
 40
1
 10
-47.429118
 20
75.025504
 30
0.0
 10
-47.236894
 20
75.217728
 30
0.0
 10
-46.976182
 20
75.325718
 30
0.0
 10
-46.704335
 20
75.325718
 30
0.0
  0
SPLINE
  5
11d
100
AcDbEntity
  8
Inner_Layer
 62
4
100
AcDbSpline
 70
8
 71
3
 72
8
 73
4
 74
0
 40
0
 40
0
 40
0
 40
0
 40
1
 40
1
 40
1
 40
1
 10
-46.704335
 20
75.325718
 30
0.0
 10
-46.432489
 20
75.325718
 30
0.0
 10
-46.171777
 20
75.217728
 30
0.0
 10
-45.979552
 20
75.025504
 30
0.0
  0
SPLINE
  5
11e
100
AcDbEntity
  8
Inner_Layer
 62
4
100
AcDbSpline
 70
8
 71
3
 72
8
 73
4
 74
0
 40
0
 40
0
 40
0
 40
0
 40
1
 40
1
 40
1
 40
1
 10
-45.979552
 20
75.025504
 30
0.0
 10
-45.787328
 20
74.833279
 30
0.0
 10
-45.679338
 20
74.572567
 30
0.0
 10
-45.679338
 20
74.300721
 30
0.0
  0
SPLINE
  5
11f
100
AcDbEntity
  8
Inner_Layer
 62
4
100
AcDbSpline
 70
8
 71
3
 72
8
 73
4
 74
0
 40
0
 40
0
 40
0
 40
0
 40
1
 40
1
 40
1
 40
1
 10
-45.679338
 20
74.300721
 30
0.0
 10
-45.679338
 20
74.028874
 30
0.0
 10
-45.787328
 20
73.768162
 30
0.0
 10
-45.979552
 20
73.575938
 30
0.0
  0
SPLINE
  5
120
100
AcDbEntity
  8
Inner_Layer
 62
4
100
AcDbSpline
 70
8
 71
3
 72
8
 73
4
 74
0
 40
0
 40
0
 40
0
 40
0
 40
1
 40
1
 40
1
 40
1
 10
47.528031
 20
73.575960
 30
0.0
 10
47.335806
 20
73.383735
 30
0.0
 10
47.075094
 20
73.275745
 30
0.0
 10
46.803248
 20
73.275745
 30
0.0
  0
SPLINE
  5
121
100
AcDbEntity
  8
Inner_Layer
 62
4
100
AcDbSpline
 70
8
 71
3
 72
8
 73
4
 74
0
 40
0
 40
0
 40
0
 40
0
 40
1
 40
1
 40
1
 40
1
 10
46.803248
 20
73.275745
 30
0.0
 10
46.531401
 20
73.275745
 30
0.0
 10
46.270689
 20
73.383735
 30
0.0
 10
46.078465
 20
73.575960
 30
0.0
  0
SPLINE
  5
122
100
AcDbEntity
  8
Inner_Layer
 62
4
100
AcDbSpline
 70
8
 71
3
 72
8
 73
4
 74
0
 40
0
 40
0
 40
0
 40
0
 40
1
 40
1
 40
1
 40
1
 10
46.078465
 20
73.575960
 30
0.0
 10
45.886241
 20
73.768184
 30
0.0
 10
45.778250
 20
74.028896
 30
0.0
 10
45.778250
 20
74.300743
 30
0.0
  0
SPLINE
  5
123
100
AcDbEntity
  8
Inner_Layer
 62
4
100
AcDbSpline
 70
8
 71
3
 72
8
 73
4
 74
0
 40
0
 40
0
 40
0
 40
0
 40
1
 40
1
 40
1
 40
1
 10
45.778250
 20
74.300743
 30
0.0
 10
45.778250
 20
74.572589
 30
0.0
 10
45.886241
 20
74.833301
 30
0.0
 10
46.078465
 20
75.025526
 30
0.0
  0
SPLINE
  5
124
100
AcDbEntity
  8
Inner_Layer
 62
4
100
AcDbSpline
 70
8
 71
3
 72
8
 73
4
 74
0
 40
0
 40
0
 40
0
 40
0
 40
1
 40
1
 40
1
 40
1
 10
46.078465
 20
75.025526
 30
0.0
 10
46.270689
 20
75.217750
 30
0.0
 10
46.531401
 20
75.325740
 30
0.0
 10
46.803248
 20
75.325740
 30
0.0
  0
SPLINE
  5
125
100
AcDbEntity
  8
Inner_Layer
 62
4
100
AcDbSpline
 70
8
 71
3
 72
8
 73
4
 74
0
 40
0
 40
0
 40
0
 40
0
 40
1
 40
1
 40
1
 40
1
 10
46.803248
 20
75.325740
 30
0.0
 10
47.075094
 20
75.325740
 30
0.0
 10
47.335806
 20
75.217750
 30
0.0
 10
47.528031
 20
75.025526
 30
0.0
  0
SPLINE
  5
126
100
AcDbEntity
  8
Inner_Layer
 62
4
100
AcDbSpline
 70
8
 71
3
 72
8
 73
4
 74
0
 40
0
 40
0
 40
0
 40
0
 40
1
 40
1
 40
1
 40
1
 10
47.528031
 20
75.025526
 30
0.0
 10
47.720255
 20
74.833301
 30
0.0
 10
47.828245
 20
74.572589
 30
0.0
 10
47.828245
 20
74.300743
 30
0.0
  0
SPLINE
  5
127
100
AcDbEntity
  8
Inner_Layer
 62
4
100
AcDbSpline
 70
8
 71
3
 72
8
 73
4
 74
0
 40
0
 40
0
 40
0
 40
0
 40
1
 40
1
 40
1
 40
1
 10
47.828245
 20
74.300743
 30
0.0
 10
47.828245
 20
74.028896
 30
0.0
 10
47.720255
 20
73.768184
 30
0.0
 10
47.528031
 20
73.575960
 30
0.0
  0
SPLINE
  5
128
100
AcDbEntity
  8
Inner_Layer
 62
4
100
AcDbSpline
 70
8
 71
3
 72
8
 73
4
 74
0
 40
0
 40
0
 40
0
 40
0
 40
1
 40
1
 40
1
 40
1
 10
142.006386
 20
73.039949
 30
0.0
 10
141.606100
 20
72.639662
 30
0.0
 10
140.957107
 20
72.639662
 30
0.0
 10
140.556821
 20
73.039949
 30
0.0
  0
SPLINE
  5
129
100
AcDbEntity
  8
Inner_Layer
 62
4
100
AcDbSpline
 70
8
 71
3
 72
8
 73
4
 74
0
 40
0
 40
0
 40
0
 40
0
 40
1
 40
1
 40
1
 40
1
 10
140.556821
 20
73.039949
 30
0.0
 10
140.364596
 20
73.232173
 30
0.0
 10
140.256606
 20
73.492885
 30
0.0
 10
140.256606
 20
73.764731
 30
0.0
  0
SPLINE
  5
12a
100
AcDbEntity
  8
Inner_Layer
 62
4
100
AcDbSpline
 70
8
 71
3
 72
8
 73
4
 74
0
 40
0
 40
0
 40
0
 40
0
 40
1
 40
1
 40
1
 40
1
 10
140.256606
 20
73.764731
 30
0.0
 10
140.256606
 20
74.036578
 30
0.0
 10
140.364596
 20
74.297290
 30
0.0
 10
140.556821
 20
74.489514
 30
0.0
  0
SPLINE
  5
12b
100
AcDbEntity
  8
Inner_Layer
 62
4
100
AcDbSpline
 70
8
 71
3
 72
8
 73
4
 74
0
 40
0
 40
0
 40
0
 40
0
 40
1
 40
1
 40
1
 40
1
 10
140.556821
 20
74.489514
 30
0.0
 10
140.749045
 20
74.681739
 30
0.0
 10
141.009757
 20
74.789729
 30
0.0
 10
141.281604
 20
74.789729
 30
0.0
  0
SPLINE
  5
12c
100
AcDbEntity
  8
Inner_Layer
 62
4
100
AcDbSpline
 70
8
 71
3
 72
8
 73
4
 74
0
 40
0
 40
0
 40
0
 40
0
 40
1
 40
1
 40
1
 40
1
 10
141.281604
 20
74.789729
 30
0.0
 10
141.553450
 20
74.789729
 30
0.0
 10
141.814162
 20
74.681739
 30
0.0
 10
142.006386
 20
74.489514
 30
0.0
  0
SPLINE
  5
12d
100
AcDbEntity
  8
Inner_Layer
 62
4
100
AcDbSpline
 70
8
 71
3
 72
8
 73
4
 74
0
 40
0
 40
0
 40
0
 40
0
 40
1
 40
1
 40
1
 40
1
 10
142.006386
 20
74.489514
 30
0.0
 10
142.406673
 20
74.089228
 30
0.0
 10
142.406673
 20
73.440235
 30
0.0
 10
142.006386
 20
73.039949
 30
0.0
  0
SPLINE
  5
12e
100
AcDbEntity
  8
Inner_Layer
 62
4
100
AcDbSpline
 70
8
 71
3
 72
8
 73
4
 74
0
 40
0
 40
0
 40
0
 40
0
 40
1
 40
1
 40
1
 40
1
 10
170.861203
 20
-20.380344
 30
0.0
 10
170.668978
 20
-20.572568
 30
0.0
 10
170.408266
 20
-20.680559
 30
0.0
 10
170.136420
 20
-20.680559
 30
0.0
  0
SPLINE
  5
12f
100
AcDbEntity
  8
Inner_Layer
 62
4
100
AcDbSpline
 70
8
 71
3
 72
8
 73
4
 74
0
 40
0
 40
0
 40
0
 40
0
 40
1
 40
1
 40
1
 40
1
 10
170.136420
 20
-20.680559
 30
0.0
 10
169.864574
 20
-20.680559
 30
0.0
 10
169.603861
 20
-20.572568
 30
0.0
 10
169.411637
 20
-20.380344
 30
0.0
  0
SPLINE
  5
130
100
AcDbEntity
  8
Inner_Layer
 62
4
100
AcDbSpline
 70
8
 71
3
 72
8
 73
4
 74
0
 40
0
 40
0
 40
0
 40
0
 40
1
 40
1
 40
1
 40
1
 10
169.411637
 20
-20.380344
 30
0.0
 10
169.219413
 20
-20.188119
 30
0.0
 10
169.111422
 20
-19.927407
 30
0.0
 10
169.111422
 20
-19.655561
 30
0.0
  0
SPLINE
  5
131
100
AcDbEntity
  8
Inner_Layer
 62
4
100
AcDbSpline
 70
8
 71
3
 72
8
 73
4
 74
0
 40
0
 40
0
 40
0
 40
0
 40
1
 40
1
 40
1
 40
1
 10
169.111422
 20
-19.655561
 30
0.0
 10
169.111422
 20
-19.383715
 30
0.0
 10
169.219413
 20
-19.123002
 30
0.0
 10
169.411637
 20
-18.930778
 30
0.0
  0
SPLINE
  5
132
100
AcDbEntity
  8
Inner_Layer
 62
4
100
AcDbSpline
 70
8
 71
3
 72
8
 73
4
 74
0
 40
0
 40
0
 40
0
 40
0
 40
1
 40
1
 40
1
 40
1
 10
169.411637
 20
-18.930778
 30
0.0
 10
169.811924
 20
-18.530492
 30
0.0
 10
170.460916
 20
-18.530493
 30
0.0
 10
170.861202
 20
-18.930779
 30
0.0
  0
SPLINE
  5
133
100
AcDbEntity
  8
Inner_Layer
 62
4
100
AcDbSpline
 70
8
 71
3
 72
8
 73
4
 74
0
 40
0
 40
0
 40
0
 40
0
 40
1
 40
1
 40
1
 40
1
 10
170.861202
 20
-18.930779
 30
0.0
 10
171.261488
 20
-19.331065
 30
0.0
 10
171.261489
 20
-19.980057
 30
0.0
 10
170.861203
 20
-20.380344
 30
0.0
  0
SPLINE
  5
134
100
AcDbEntity
  8
Inner_Layer
 62
4
100
AcDbSpline
 70
8
 71
3
 72
8
 73
4
 74
0
 40
0
 40
0
 40
0
 40
0
 40
1
 40
1
 40
1
 40
1
 10
-169.556601
 20
-20.560572
 30
0.0
 10
-169.796627
 20
-20.688196
 30
0.0
 10
-170.077520
 20
-20.715243
 30
0.0
 10
-170.337488
 20
-20.635763
 30
0.0
  0
SPLINE
  5
135
100
AcDbEntity
  8
Inner_Layer
 62
4
100
AcDbSpline
 70
8
 71
3
 72
8
 73
4
 74
0
 40
0
 40
0
 40
0
 40
0
 40
1
 40
1
 40
1
 40
1
 10
-170.337488
 20
-20.635763
 30
0.0
 10
-170.597456
 20
-20.556283
 30
0.0
 10
-170.815203
 20
-20.376786
 30
0.0
 10
-170.942827
 20
-20.136760
 30
0.0
  0
SPLINE
  5
136
100
AcDbEntity
  8
Inner_Layer
 62
4
100
AcDbSpline
 70
8
 71
3
 72
8
 73
4
 74
0
 40
0
 40
0
 40
0
 40
0
 40
1
 40
1
 40
1
 40
1
 10
-170.942827
 20
-20.136760
 30
0.0
 10
-171.208590
 20
-19.636932
 30
0.0
 10
-171.018843
 20
-19.016298
 30
0.0
 10
-170.519015
 20
-18.750534
 30
0.0
  0
SPLINE
  5
137
100
AcDbEntity
  8
Inner_Layer
 62
4
100
AcDbSpline
 70
8
 71
3
 72
8
 73
4
 74
0
 40
0
 40
0
 40
0
 40
0
 40
1
 40
1
 40
1
 40
1
 10
-170.519015
 20
-18.750534
 30
0.0
 10
-170.019187
 20
-18.484771
 30
0.0
 10
-169.398552
 20
-18.674518
 30
0.0
 10
-169.132789
 20
-19.174345
 30
0.0
  0
SPLINE
  5
138
100
AcDbEntity
  8
Inner_Layer
 62
4
100
AcDbSpline
 70
8
 71
3
 72
8
 73
4
 74
0
 40
0
 40
0
 40
0
 40
0
 40
1
 40
1
 40
1
 40
1
 10
-169.132789
 20
-19.174345
 30
0.0
 10
-169.005164
 20
-19.414371
 30
0.0
 10
-168.978117
 20
-19.695265
 30
0.0
 10
-169.057598
 20
-19.955233
 30
0.0
  0
SPLINE
  5
139
100
AcDbEntity
  8
Inner_Layer
 62
4
100
AcDbSpline
 70
8
 71
3
 72
8
 73
4
 74
0
 40
0
 40
0
 40
0
 40
0
 40
1
 40
1
 40
1
 40
1
 10
-169.057598
 20
-19.955233
 30
0.0
 10
-169.137078
 20
-20.215201
 30
0.0
 10
-169.316574
 20
-20.432948
 30
0.0
 10
-169.556601
 20
-20.560572
 30
0.0
  0
LINE
  5
13a
100
AcDbEntity
  8
Inner_Layer
 62
4
100
AcDbLine
 10
-6.572935
 20
76.440090
 30
0.0
 11
-8.771761
 21
69.247263
 31
0.0
  0
LINE
  5
13b
100
AcDbEntity
  8
Inner_Layer
 62
4
100
AcDbLine
 10
-8.771761
 20
69.247263
 30
0.0
 11
-137.871085
 21
69.247263
 31
0.0
  0
LINE
  5
13c
100
AcDbEntity
  8
Inner_Layer
 62
4
100
AcDbLine
 10
-137.871085
 20
69.247263
 30
0.0
 11
-164.960845
 21
-19.359018
 31
0.0
  0
LINE
  5
13d
100
AcDbEntity
  8
Inner_Layer
 62
4
100
AcDbLine
 10
-164.960845
 20
-19.359018
 30
0.0
 11
-18.696709
 21
-72.085910
 31
0.0
  0
LINE
  5
13e
100
AcDbEntity
  8
Inner_Layer
 62
4
100
AcDbLine
 10
-18.696709
 20
-72.085910
 30
0.0
 11
-6.862835
 21
-64.367017
 31
0.0
  0
LINE
  5
13f
100
AcDbEntity
  8
Inner_Layer
 62
4
100
AcDbLine
 10
-6.862835
 20
-64.367017
 30
0.0
 11
6.962135
 21
-64.367017
 31
0.0
  0
LINE
  5
140
100
AcDbEntity
  8
Inner_Layer
 62
4
100
AcDbLine
 10
6.962135
 20
-64.367017
 30
0.0
 11
18.795488
 21
-72.085910
 31
0.0
  0
LINE
  5
141
100
AcDbEntity
  8
Inner_Layer
 62
4
100
AcDbLine
 10
18.795488
 20
-72.085910
 30
0.0
 11
165.059607
 21
-19.359018
 31
0.0
  0
LINE
  5
142
100
AcDbEntity
  8
Inner_Layer
 62
4
100
AcDbLine
 10
165.059607
 20
-19.359018
 30
0.0
 11
137.969857
 21
69.246747
 31
0.0
  0
LINE
  5
143
100
AcDbEntity
  8
Inner_Layer
 62
4
100
AcDbLine
 10
137.969857
 20
69.246747
 30
0.0
 11
8.870540
 21
69.246747
 31
0.0
  0
LINE
  5
144
100
AcDbEntity
  8
Inner_Layer
 62
4
100
AcDbLine
 10
8.870540
 20
69.246747
 30
0.0
 11
6.671705
 21
76.440090
 31
0.0
  0
LINE
  5
145
100
AcDbEntity
  8
Inner_Layer
 62
4
100
AcDbLine
 10
6.671705
 20
76.440090
 30
0.0
 11
-6.572935
 21
76.440090
 31
0.0
  0
ENDSEC
  0
SECTION
  2
OBJECTS
  0
DICTIONARY
  5
C
330
0
100
AcDbDictionary
  3
ACAD_GROUP
350
D
  3
ACAD_MLINESTYLE
350
17
  0
DICTIONARY
  5
D
330
C
100
AcDbDictionary
  0
DICTIONARY
  5
1A
330
C
100
AcDbDictionary
  0
DICTIONARY
  5
17
330
C
100
AcDbDictionary
  3
STANDARD
350
18
  0
DICTIONARY
  5
19
330
C
100
AcDbDictionary
  0
ENDSEC
  0
EOF
